G04 #@! TF.GenerationSoftware,KiCad,Pcbnew,(5.1.0-rc2-41-g6b3e9b0ed)*
G04 #@! TF.CreationDate,2020-04-23T19:15:03+02:00*
G04 #@! TF.ProjectId,LED_Driver,4c45445f-4472-4697-9665-722e6b696361,V0.1*
G04 #@! TF.SameCoordinates,Original*
G04 #@! TF.FileFunction,Legend,Top*
G04 #@! TF.FilePolarity,Positive*
%FSLAX46Y46*%
G04 Gerber Fmt 4.6, Leading zero omitted, Abs format (unit mm)*
G04 Created by KiCad (PCBNEW (5.1.0-rc2-41-g6b3e9b0ed)) date 2020-04-23 19:15:03*
%MOMM*%
%LPD*%
G04 APERTURE LIST*
%ADD10C,0.177800*%
%ADD11C,0.150000*%
%ADD12C,0.254000*%
%ADD13C,0.120000*%
G04 APERTURE END LIST*
D10*
X121133809Y-145154952D02*
X121027371Y-145101733D01*
X120974152Y-145048514D01*
X120920933Y-144942076D01*
X120920933Y-144888857D01*
X120974152Y-144782419D01*
X121027371Y-144729200D01*
X121133809Y-144675980D01*
X121346685Y-144675980D01*
X121453123Y-144729200D01*
X121506342Y-144782419D01*
X121559561Y-144888857D01*
X121559561Y-144942076D01*
X121506342Y-145048514D01*
X121453123Y-145101733D01*
X121346685Y-145154952D01*
X121133809Y-145154952D01*
X121027371Y-145208171D01*
X120974152Y-145261390D01*
X120920933Y-145367828D01*
X120920933Y-145580704D01*
X120974152Y-145687142D01*
X121027371Y-145740361D01*
X121133809Y-145793580D01*
X121346685Y-145793580D01*
X121453123Y-145740361D01*
X121506342Y-145687142D01*
X121559561Y-145580704D01*
X121559561Y-145367828D01*
X121506342Y-145261390D01*
X121453123Y-145208171D01*
X121346685Y-145154952D01*
X123528666Y-145687142D02*
X123475447Y-145740361D01*
X123315790Y-145793580D01*
X123209352Y-145793580D01*
X123049695Y-145740361D01*
X122943257Y-145633923D01*
X122890038Y-145527485D01*
X122836819Y-145314609D01*
X122836819Y-145154952D01*
X122890038Y-144942076D01*
X122943257Y-144835638D01*
X123049695Y-144729200D01*
X123209352Y-144675980D01*
X123315790Y-144675980D01*
X123475447Y-144729200D01*
X123528666Y-144782419D01*
X124007638Y-145793580D02*
X124007638Y-144675980D01*
X124486609Y-145793580D02*
X124486609Y-145208171D01*
X124433390Y-145101733D01*
X124326952Y-145048514D01*
X124167295Y-145048514D01*
X124060857Y-145101733D01*
X124007638Y-145154952D01*
X125497771Y-145793580D02*
X125497771Y-145208171D01*
X125444552Y-145101733D01*
X125338114Y-145048514D01*
X125125238Y-145048514D01*
X125018800Y-145101733D01*
X125497771Y-145740361D02*
X125391333Y-145793580D01*
X125125238Y-145793580D01*
X125018800Y-145740361D01*
X124965580Y-145633923D01*
X124965580Y-145527485D01*
X125018800Y-145421047D01*
X125125238Y-145367828D01*
X125391333Y-145367828D01*
X125497771Y-145314609D01*
X126029961Y-145048514D02*
X126029961Y-145793580D01*
X126029961Y-145154952D02*
X126083180Y-145101733D01*
X126189619Y-145048514D01*
X126349276Y-145048514D01*
X126455714Y-145101733D01*
X126508933Y-145208171D01*
X126508933Y-145793580D01*
X127041123Y-145048514D02*
X127041123Y-145793580D01*
X127041123Y-145154952D02*
X127094342Y-145101733D01*
X127200780Y-145048514D01*
X127360438Y-145048514D01*
X127466876Y-145101733D01*
X127520095Y-145208171D01*
X127520095Y-145793580D01*
X128478038Y-145740361D02*
X128371600Y-145793580D01*
X128158723Y-145793580D01*
X128052285Y-145740361D01*
X127999066Y-145633923D01*
X127999066Y-145208171D01*
X128052285Y-145101733D01*
X128158723Y-145048514D01*
X128371600Y-145048514D01*
X128478038Y-145101733D01*
X128531257Y-145208171D01*
X128531257Y-145314609D01*
X127999066Y-145421047D01*
X129169885Y-145793580D02*
X129063447Y-145740361D01*
X129010228Y-145633923D01*
X129010228Y-144675980D01*
X130287485Y-144675980D02*
X130660019Y-145793580D01*
X131032552Y-144675980D01*
X131617961Y-144675980D02*
X131724400Y-144675980D01*
X131830838Y-144729200D01*
X131884057Y-144782419D01*
X131937276Y-144888857D01*
X131990495Y-145101733D01*
X131990495Y-145367828D01*
X131937276Y-145580704D01*
X131884057Y-145687142D01*
X131830838Y-145740361D01*
X131724400Y-145793580D01*
X131617961Y-145793580D01*
X131511523Y-145740361D01*
X131458304Y-145687142D01*
X131405085Y-145580704D01*
X131351866Y-145367828D01*
X131351866Y-145101733D01*
X131405085Y-144888857D01*
X131458304Y-144782419D01*
X131511523Y-144729200D01*
X131617961Y-144675980D01*
X132469466Y-145687142D02*
X132522685Y-145740361D01*
X132469466Y-145793580D01*
X132416247Y-145740361D01*
X132469466Y-145687142D01*
X132469466Y-145793580D01*
X133587066Y-145793580D02*
X132948438Y-145793580D01*
X133267752Y-145793580D02*
X133267752Y-144675980D01*
X133161314Y-144835638D01*
X133054876Y-144942076D01*
X132948438Y-144995295D01*
D11*
X121515904Y-143962380D02*
X121039714Y-143962380D01*
X121039714Y-142962380D01*
X121849238Y-143438571D02*
X122182571Y-143438571D01*
X122325428Y-143962380D02*
X121849238Y-143962380D01*
X121849238Y-142962380D01*
X122325428Y-142962380D01*
X122754000Y-143962380D02*
X122754000Y-142962380D01*
X122992095Y-142962380D01*
X123134952Y-143010000D01*
X123230190Y-143105238D01*
X123277809Y-143200476D01*
X123325428Y-143390952D01*
X123325428Y-143533809D01*
X123277809Y-143724285D01*
X123230190Y-143819523D01*
X123134952Y-143914761D01*
X122992095Y-143962380D01*
X122754000Y-143962380D01*
X124515904Y-143962380D02*
X124515904Y-142962380D01*
X124754000Y-142962380D01*
X124896857Y-143010000D01*
X124992095Y-143105238D01*
X125039714Y-143200476D01*
X125087333Y-143390952D01*
X125087333Y-143533809D01*
X125039714Y-143724285D01*
X124992095Y-143819523D01*
X124896857Y-143914761D01*
X124754000Y-143962380D01*
X124515904Y-143962380D01*
X125515904Y-143962380D02*
X125515904Y-143295714D01*
X125515904Y-143486190D02*
X125563523Y-143390952D01*
X125611142Y-143343333D01*
X125706380Y-143295714D01*
X125801619Y-143295714D01*
X126134952Y-143962380D02*
X126134952Y-143295714D01*
X126134952Y-142962380D02*
X126087333Y-143010000D01*
X126134952Y-143057619D01*
X126182571Y-143010000D01*
X126134952Y-142962380D01*
X126134952Y-143057619D01*
X126515904Y-143295714D02*
X126754000Y-143962380D01*
X126992095Y-143295714D01*
X127754000Y-143914761D02*
X127658761Y-143962380D01*
X127468285Y-143962380D01*
X127373047Y-143914761D01*
X127325428Y-143819523D01*
X127325428Y-143438571D01*
X127373047Y-143343333D01*
X127468285Y-143295714D01*
X127658761Y-143295714D01*
X127754000Y-143343333D01*
X127801619Y-143438571D01*
X127801619Y-143533809D01*
X127325428Y-143629047D01*
X128230190Y-143962380D02*
X128230190Y-143295714D01*
X128230190Y-143486190D02*
X128277809Y-143390952D01*
X128325428Y-143343333D01*
X128420666Y-143295714D01*
X128515904Y-143295714D01*
X129944476Y-143438571D02*
X130087333Y-143486190D01*
X130134952Y-143533809D01*
X130182571Y-143629047D01*
X130182571Y-143771904D01*
X130134952Y-143867142D01*
X130087333Y-143914761D01*
X129992095Y-143962380D01*
X129611142Y-143962380D01*
X129611142Y-142962380D01*
X129944476Y-142962380D01*
X130039714Y-143010000D01*
X130087333Y-143057619D01*
X130134952Y-143152857D01*
X130134952Y-143248095D01*
X130087333Y-143343333D01*
X130039714Y-143390952D01*
X129944476Y-143438571D01*
X129611142Y-143438571D01*
X130754000Y-143962380D02*
X130658761Y-143914761D01*
X130611142Y-143867142D01*
X130563523Y-143771904D01*
X130563523Y-143486190D01*
X130611142Y-143390952D01*
X130658761Y-143343333D01*
X130754000Y-143295714D01*
X130896857Y-143295714D01*
X130992095Y-143343333D01*
X131039714Y-143390952D01*
X131087333Y-143486190D01*
X131087333Y-143771904D01*
X131039714Y-143867142D01*
X130992095Y-143914761D01*
X130896857Y-143962380D01*
X130754000Y-143962380D01*
X131944476Y-143962380D02*
X131944476Y-143438571D01*
X131896857Y-143343333D01*
X131801619Y-143295714D01*
X131611142Y-143295714D01*
X131515904Y-143343333D01*
X131944476Y-143914761D02*
X131849238Y-143962380D01*
X131611142Y-143962380D01*
X131515904Y-143914761D01*
X131468285Y-143819523D01*
X131468285Y-143724285D01*
X131515904Y-143629047D01*
X131611142Y-143581428D01*
X131849238Y-143581428D01*
X131944476Y-143533809D01*
X132420666Y-143962380D02*
X132420666Y-143295714D01*
X132420666Y-143486190D02*
X132468285Y-143390952D01*
X132515904Y-143343333D01*
X132611142Y-143295714D01*
X132706380Y-143295714D01*
X133468285Y-143962380D02*
X133468285Y-142962380D01*
X133468285Y-143914761D02*
X133373047Y-143962380D01*
X133182571Y-143962380D01*
X133087333Y-143914761D01*
X133039714Y-143867142D01*
X132992095Y-143771904D01*
X132992095Y-143486190D01*
X133039714Y-143390952D01*
X133087333Y-143343333D01*
X133182571Y-143295714D01*
X133373047Y-143295714D01*
X133468285Y-143343333D01*
D12*
X37749238Y-140800666D02*
X35717238Y-140800666D01*
X37168666Y-140123333D01*
X35717238Y-139446000D01*
X37749238Y-139446000D01*
X37749238Y-138478380D02*
X35717238Y-138478380D01*
X35717238Y-137801047D02*
X35717238Y-136639904D01*
X37749238Y-137220476D02*
X35717238Y-137220476D01*
X37749238Y-133446761D02*
X37749238Y-134414380D01*
X35717238Y-134414380D01*
X35717238Y-132382380D02*
X35717238Y-131995333D01*
X35814000Y-131801809D01*
X36007523Y-131608285D01*
X36394571Y-131511523D01*
X37071904Y-131511523D01*
X37458952Y-131608285D01*
X37652476Y-131801809D01*
X37749238Y-131995333D01*
X37749238Y-132382380D01*
X37652476Y-132575904D01*
X37458952Y-132769428D01*
X37071904Y-132866190D01*
X36394571Y-132866190D01*
X36007523Y-132769428D01*
X35814000Y-132575904D01*
X35717238Y-132382380D01*
X37749238Y-130640666D02*
X35717238Y-130640666D01*
X37749238Y-129673047D02*
X35717238Y-129673047D01*
X35717238Y-129189238D01*
X35814000Y-128898952D01*
X36007523Y-128705428D01*
X36201047Y-128608666D01*
X36588095Y-128511904D01*
X36878380Y-128511904D01*
X37265428Y-128608666D01*
X37458952Y-128705428D01*
X37652476Y-128898952D01*
X37749238Y-129189238D01*
X37749238Y-129673047D01*
X37749238Y-126673428D02*
X37749238Y-127641047D01*
X35717238Y-127641047D01*
X35717238Y-124060857D02*
X35717238Y-123673809D01*
X35814000Y-123480285D01*
X36007523Y-123286761D01*
X36394571Y-123190000D01*
X37071904Y-123190000D01*
X37458952Y-123286761D01*
X37652476Y-123480285D01*
X37749238Y-123673809D01*
X37749238Y-124060857D01*
X37652476Y-124254380D01*
X37458952Y-124447904D01*
X37071904Y-124544666D01*
X36394571Y-124544666D01*
X36007523Y-124447904D01*
X35814000Y-124254380D01*
X35717238Y-124060857D01*
X37749238Y-122319142D02*
X35717238Y-122319142D01*
X35717238Y-121835333D01*
X35814000Y-121545047D01*
X36007523Y-121351523D01*
X36201047Y-121254761D01*
X36588095Y-121158000D01*
X36878380Y-121158000D01*
X37265428Y-121254761D01*
X37458952Y-121351523D01*
X37652476Y-121545047D01*
X37749238Y-121835333D01*
X37749238Y-122319142D01*
X36684857Y-120287142D02*
X36684857Y-119609809D01*
X37749238Y-119319523D02*
X37749238Y-120287142D01*
X35717238Y-120287142D01*
X35717238Y-119319523D01*
X37749238Y-117287523D02*
X36781619Y-117964857D01*
X37749238Y-118448666D02*
X35717238Y-118448666D01*
X35717238Y-117674571D01*
X35814000Y-117481047D01*
X35910761Y-117384285D01*
X36104285Y-117287523D01*
X36394571Y-117287523D01*
X36588095Y-117384285D01*
X36684857Y-117481047D01*
X36781619Y-117674571D01*
X36781619Y-118448666D01*
X37555714Y-113707333D02*
X37652476Y-113804095D01*
X37749238Y-114094380D01*
X37749238Y-114287904D01*
X37652476Y-114578190D01*
X37458952Y-114771714D01*
X37265428Y-114868476D01*
X36878380Y-114965238D01*
X36588095Y-114965238D01*
X36201047Y-114868476D01*
X36007523Y-114771714D01*
X35814000Y-114578190D01*
X35717238Y-114287904D01*
X35717238Y-114094380D01*
X35814000Y-113804095D01*
X35910761Y-113707333D01*
X35717238Y-112449428D02*
X35717238Y-112062380D01*
X35814000Y-111868857D01*
X36007523Y-111675333D01*
X36394571Y-111578571D01*
X37071904Y-111578571D01*
X37458952Y-111675333D01*
X37652476Y-111868857D01*
X37749238Y-112062380D01*
X37749238Y-112449428D01*
X37652476Y-112642952D01*
X37458952Y-112836476D01*
X37071904Y-112933238D01*
X36394571Y-112933238D01*
X36007523Y-112836476D01*
X35814000Y-112642952D01*
X35717238Y-112449428D01*
D11*
X128230380Y-131143333D02*
X128230380Y-130524285D01*
X128611333Y-130857619D01*
X128611333Y-130714761D01*
X128658952Y-130619523D01*
X128706571Y-130571904D01*
X128801809Y-130524285D01*
X129039904Y-130524285D01*
X129135142Y-130571904D01*
X129182761Y-130619523D01*
X129230380Y-130714761D01*
X129230380Y-131000476D01*
X129182761Y-131095714D01*
X129135142Y-131143333D01*
X128325619Y-133635714D02*
X128278000Y-133588095D01*
X128230380Y-133492857D01*
X128230380Y-133254761D01*
X128278000Y-133159523D01*
X128325619Y-133111904D01*
X128420857Y-133064285D01*
X128516095Y-133064285D01*
X128658952Y-133111904D01*
X129230380Y-133683333D01*
X129230380Y-133064285D01*
X129230380Y-135604285D02*
X129230380Y-136175714D01*
X129230380Y-135890000D02*
X128230380Y-135890000D01*
X128373238Y-135985238D01*
X128468476Y-136080476D01*
X128516095Y-136175714D01*
X128230380Y-138731619D02*
X128230380Y-138636380D01*
X128278000Y-138541142D01*
X128325619Y-138493523D01*
X128420857Y-138445904D01*
X128611333Y-138398285D01*
X128849428Y-138398285D01*
X129039904Y-138445904D01*
X129135142Y-138493523D01*
X129182761Y-138541142D01*
X129230380Y-138636380D01*
X129230380Y-138731619D01*
X129182761Y-138826857D01*
X129135142Y-138874476D01*
X129039904Y-138922095D01*
X128849428Y-138969714D01*
X128611333Y-138969714D01*
X128420857Y-138922095D01*
X128325619Y-138874476D01*
X128278000Y-138826857D01*
X128230380Y-138731619D01*
X125738000Y-131063904D02*
X125690380Y-131159142D01*
X125690380Y-131302000D01*
X125738000Y-131444857D01*
X125833238Y-131540095D01*
X125928476Y-131587714D01*
X126118952Y-131635333D01*
X126261809Y-131635333D01*
X126452285Y-131587714D01*
X126547523Y-131540095D01*
X126642761Y-131444857D01*
X126690380Y-131302000D01*
X126690380Y-131206761D01*
X126642761Y-131063904D01*
X126595142Y-131016285D01*
X126261809Y-131016285D01*
X126261809Y-131206761D01*
X126690380Y-130587714D02*
X125690380Y-130587714D01*
X126690380Y-130016285D01*
X125690380Y-130016285D01*
X126690380Y-129540095D02*
X125690380Y-129540095D01*
X125690380Y-129302000D01*
X125738000Y-129159142D01*
X125833238Y-129063904D01*
X125928476Y-129016285D01*
X126118952Y-128968666D01*
X126261809Y-128968666D01*
X126452285Y-129016285D01*
X126547523Y-129063904D01*
X126642761Y-129159142D01*
X126690380Y-129302000D01*
X126690380Y-129540095D01*
X123150380Y-131651238D02*
X124150380Y-131317904D01*
X123150380Y-130984571D01*
X124150380Y-130651238D02*
X123150380Y-130651238D01*
X124150380Y-130175047D02*
X123150380Y-130175047D01*
X124150380Y-129603619D01*
X123150380Y-129603619D01*
X116506857Y-116800380D02*
X116697333Y-116800380D01*
X116792571Y-116848000D01*
X116887809Y-116943238D01*
X116935428Y-117133714D01*
X116935428Y-117467047D01*
X116887809Y-117657523D01*
X116792571Y-117752761D01*
X116697333Y-117800380D01*
X116506857Y-117800380D01*
X116411619Y-117752761D01*
X116316380Y-117657523D01*
X116268761Y-117467047D01*
X116268761Y-117133714D01*
X116316380Y-116943238D01*
X116411619Y-116848000D01*
X116506857Y-116800380D01*
X117364000Y-116800380D02*
X117364000Y-117609904D01*
X117411619Y-117705142D01*
X117459238Y-117752761D01*
X117554476Y-117800380D01*
X117744952Y-117800380D01*
X117840190Y-117752761D01*
X117887809Y-117705142D01*
X117935428Y-117609904D01*
X117935428Y-116800380D01*
X118268761Y-116800380D02*
X118840190Y-116800380D01*
X118554476Y-117800380D02*
X118554476Y-116800380D01*
X118935428Y-117895619D02*
X119697333Y-117895619D01*
X120125904Y-116800380D02*
X120221142Y-116800380D01*
X120316380Y-116848000D01*
X120364000Y-116895619D01*
X120411619Y-116990857D01*
X120459238Y-117181333D01*
X120459238Y-117419428D01*
X120411619Y-117609904D01*
X120364000Y-117705142D01*
X120316380Y-117752761D01*
X120221142Y-117800380D01*
X120125904Y-117800380D01*
X120030666Y-117752761D01*
X119983047Y-117705142D01*
X119935428Y-117609904D01*
X119887809Y-117419428D01*
X119887809Y-117181333D01*
X119935428Y-116990857D01*
X119983047Y-116895619D01*
X120030666Y-116848000D01*
X120125904Y-116800380D01*
X106092857Y-116800380D02*
X106283333Y-116800380D01*
X106378571Y-116848000D01*
X106473809Y-116943238D01*
X106521428Y-117133714D01*
X106521428Y-117467047D01*
X106473809Y-117657523D01*
X106378571Y-117752761D01*
X106283333Y-117800380D01*
X106092857Y-117800380D01*
X105997619Y-117752761D01*
X105902380Y-117657523D01*
X105854761Y-117467047D01*
X105854761Y-117133714D01*
X105902380Y-116943238D01*
X105997619Y-116848000D01*
X106092857Y-116800380D01*
X106950000Y-116800380D02*
X106950000Y-117609904D01*
X106997619Y-117705142D01*
X107045238Y-117752761D01*
X107140476Y-117800380D01*
X107330952Y-117800380D01*
X107426190Y-117752761D01*
X107473809Y-117705142D01*
X107521428Y-117609904D01*
X107521428Y-116800380D01*
X107854761Y-116800380D02*
X108426190Y-116800380D01*
X108140476Y-117800380D02*
X108140476Y-116800380D01*
X108521428Y-117895619D02*
X109283333Y-117895619D01*
X110045238Y-117800380D02*
X109473809Y-117800380D01*
X109759523Y-117800380D02*
X109759523Y-116800380D01*
X109664285Y-116943238D01*
X109569047Y-117038476D01*
X109473809Y-117086095D01*
X96186857Y-116800380D02*
X96377333Y-116800380D01*
X96472571Y-116848000D01*
X96567809Y-116943238D01*
X96615428Y-117133714D01*
X96615428Y-117467047D01*
X96567809Y-117657523D01*
X96472571Y-117752761D01*
X96377333Y-117800380D01*
X96186857Y-117800380D01*
X96091619Y-117752761D01*
X95996380Y-117657523D01*
X95948761Y-117467047D01*
X95948761Y-117133714D01*
X95996380Y-116943238D01*
X96091619Y-116848000D01*
X96186857Y-116800380D01*
X97044000Y-116800380D02*
X97044000Y-117609904D01*
X97091619Y-117705142D01*
X97139238Y-117752761D01*
X97234476Y-117800380D01*
X97424952Y-117800380D01*
X97520190Y-117752761D01*
X97567809Y-117705142D01*
X97615428Y-117609904D01*
X97615428Y-116800380D01*
X97948761Y-116800380D02*
X98520190Y-116800380D01*
X98234476Y-117800380D02*
X98234476Y-116800380D01*
X98615428Y-117895619D02*
X99377333Y-117895619D01*
X99567809Y-116895619D02*
X99615428Y-116848000D01*
X99710666Y-116800380D01*
X99948761Y-116800380D01*
X100044000Y-116848000D01*
X100091619Y-116895619D01*
X100139238Y-116990857D01*
X100139238Y-117086095D01*
X100091619Y-117228952D01*
X99520190Y-117800380D01*
X100139238Y-117800380D01*
X101774761Y-116800380D02*
X102108095Y-117800380D01*
X102441428Y-116800380D01*
X102774761Y-117800380D02*
X102774761Y-116800380D01*
X103250952Y-117800380D02*
X103250952Y-116800380D01*
X103822380Y-117800380D01*
X103822380Y-116800380D01*
X111934761Y-116800380D02*
X112268095Y-117800380D01*
X112601428Y-116800380D01*
X112934761Y-117800380D02*
X112934761Y-116800380D01*
X113410952Y-117800380D02*
X113410952Y-116800380D01*
X113982380Y-117800380D01*
X113982380Y-116800380D01*
X129540095Y-116848000D02*
X129444857Y-116800380D01*
X129302000Y-116800380D01*
X129159142Y-116848000D01*
X129063904Y-116943238D01*
X129016285Y-117038476D01*
X128968666Y-117228952D01*
X128968666Y-117371809D01*
X129016285Y-117562285D01*
X129063904Y-117657523D01*
X129159142Y-117752761D01*
X129302000Y-117800380D01*
X129397238Y-117800380D01*
X129540095Y-117752761D01*
X129587714Y-117705142D01*
X129587714Y-117371809D01*
X129397238Y-117371809D01*
X130016285Y-117800380D02*
X130016285Y-116800380D01*
X130587714Y-117800380D01*
X130587714Y-116800380D01*
X131063904Y-117800380D02*
X131063904Y-116800380D01*
X131302000Y-116800380D01*
X131444857Y-116848000D01*
X131540095Y-116943238D01*
X131587714Y-117038476D01*
X131635333Y-117228952D01*
X131635333Y-117371809D01*
X131587714Y-117562285D01*
X131540095Y-117657523D01*
X131444857Y-117752761D01*
X131302000Y-117800380D01*
X131063904Y-117800380D01*
X123872761Y-116800380D02*
X124206095Y-117800380D01*
X124539428Y-116800380D01*
X124872761Y-117800380D02*
X124872761Y-116800380D01*
X125348952Y-117800380D02*
X125348952Y-116800380D01*
X125920380Y-117800380D01*
X125920380Y-116800380D01*
X82495428Y-145994380D02*
X82495428Y-145470571D01*
X82447809Y-145375333D01*
X82352571Y-145327714D01*
X82162095Y-145327714D01*
X82066857Y-145375333D01*
X82495428Y-145946761D02*
X82400190Y-145994380D01*
X82162095Y-145994380D01*
X82066857Y-145946761D01*
X82019238Y-145851523D01*
X82019238Y-145756285D01*
X82066857Y-145661047D01*
X82162095Y-145613428D01*
X82400190Y-145613428D01*
X82495428Y-145565809D01*
X83114476Y-145994380D02*
X83019238Y-145946761D01*
X82971619Y-145851523D01*
X82971619Y-144994380D01*
X83638285Y-145994380D02*
X83543047Y-145946761D01*
X83495428Y-145851523D01*
X83495428Y-144994380D01*
X84924000Y-145994380D02*
X84828761Y-145946761D01*
X84781142Y-145899142D01*
X84733523Y-145803904D01*
X84733523Y-145518190D01*
X84781142Y-145422952D01*
X84828761Y-145375333D01*
X84924000Y-145327714D01*
X85066857Y-145327714D01*
X85162095Y-145375333D01*
X85209714Y-145422952D01*
X85257333Y-145518190D01*
X85257333Y-145803904D01*
X85209714Y-145899142D01*
X85162095Y-145946761D01*
X85066857Y-145994380D01*
X84924000Y-145994380D01*
X86114476Y-145327714D02*
X86114476Y-145994380D01*
X85685904Y-145327714D02*
X85685904Y-145851523D01*
X85733523Y-145946761D01*
X85828761Y-145994380D01*
X85971619Y-145994380D01*
X86066857Y-145946761D01*
X86114476Y-145899142D01*
X86447809Y-145327714D02*
X86828761Y-145327714D01*
X86590666Y-144994380D02*
X86590666Y-145851523D01*
X86638285Y-145946761D01*
X86733523Y-145994380D01*
X86828761Y-145994380D01*
X87162095Y-145327714D02*
X87162095Y-146327714D01*
X87162095Y-145375333D02*
X87257333Y-145327714D01*
X87447809Y-145327714D01*
X87543047Y-145375333D01*
X87590666Y-145422952D01*
X87638285Y-145518190D01*
X87638285Y-145803904D01*
X87590666Y-145899142D01*
X87543047Y-145946761D01*
X87447809Y-145994380D01*
X87257333Y-145994380D01*
X87162095Y-145946761D01*
X88495428Y-145327714D02*
X88495428Y-145994380D01*
X88066857Y-145327714D02*
X88066857Y-145851523D01*
X88114476Y-145946761D01*
X88209714Y-145994380D01*
X88352571Y-145994380D01*
X88447809Y-145946761D01*
X88495428Y-145899142D01*
X88828761Y-145327714D02*
X89209714Y-145327714D01*
X88971619Y-144994380D02*
X88971619Y-145851523D01*
X89019238Y-145946761D01*
X89114476Y-145994380D01*
X89209714Y-145994380D01*
X89495428Y-145946761D02*
X89590666Y-145994380D01*
X89781142Y-145994380D01*
X89876380Y-145946761D01*
X89924000Y-145851523D01*
X89924000Y-145803904D01*
X89876380Y-145708666D01*
X89781142Y-145661047D01*
X89638285Y-145661047D01*
X89543047Y-145613428D01*
X89495428Y-145518190D01*
X89495428Y-145470571D01*
X89543047Y-145375333D01*
X89638285Y-145327714D01*
X89781142Y-145327714D01*
X89876380Y-145375333D01*
X91257333Y-145994380D02*
X91162095Y-145946761D01*
X91114476Y-145899142D01*
X91066857Y-145803904D01*
X91066857Y-145518190D01*
X91114476Y-145422952D01*
X91162095Y-145375333D01*
X91257333Y-145327714D01*
X91400190Y-145327714D01*
X91495428Y-145375333D01*
X91543047Y-145422952D01*
X91590666Y-145518190D01*
X91590666Y-145803904D01*
X91543047Y-145899142D01*
X91495428Y-145946761D01*
X91400190Y-145994380D01*
X91257333Y-145994380D01*
X92019238Y-145327714D02*
X92019238Y-146327714D01*
X92019238Y-145375333D02*
X92114476Y-145327714D01*
X92304952Y-145327714D01*
X92400190Y-145375333D01*
X92447809Y-145422952D01*
X92495428Y-145518190D01*
X92495428Y-145803904D01*
X92447809Y-145899142D01*
X92400190Y-145946761D01*
X92304952Y-145994380D01*
X92114476Y-145994380D01*
X92019238Y-145946761D01*
X93304952Y-145946761D02*
X93209714Y-145994380D01*
X93019238Y-145994380D01*
X92924000Y-145946761D01*
X92876380Y-145851523D01*
X92876380Y-145470571D01*
X92924000Y-145375333D01*
X93019238Y-145327714D01*
X93209714Y-145327714D01*
X93304952Y-145375333D01*
X93352571Y-145470571D01*
X93352571Y-145565809D01*
X92876380Y-145661047D01*
X93781142Y-145327714D02*
X93781142Y-145994380D01*
X93781142Y-145422952D02*
X93828761Y-145375333D01*
X93924000Y-145327714D01*
X94066857Y-145327714D01*
X94162095Y-145375333D01*
X94209714Y-145470571D01*
X94209714Y-145994380D01*
X95876380Y-145994380D02*
X95876380Y-144994380D01*
X95876380Y-145946761D02*
X95781142Y-145994380D01*
X95590666Y-145994380D01*
X95495428Y-145946761D01*
X95447809Y-145899142D01*
X95400190Y-145803904D01*
X95400190Y-145518190D01*
X95447809Y-145422952D01*
X95495428Y-145375333D01*
X95590666Y-145327714D01*
X95781142Y-145327714D01*
X95876380Y-145375333D01*
X96352571Y-145994380D02*
X96352571Y-145327714D01*
X96352571Y-145518190D02*
X96400190Y-145422952D01*
X96447809Y-145375333D01*
X96543047Y-145327714D01*
X96638285Y-145327714D01*
X97400190Y-145994380D02*
X97400190Y-145470571D01*
X97352571Y-145375333D01*
X97257333Y-145327714D01*
X97066857Y-145327714D01*
X96971619Y-145375333D01*
X97400190Y-145946761D02*
X97304952Y-145994380D01*
X97066857Y-145994380D01*
X96971619Y-145946761D01*
X96924000Y-145851523D01*
X96924000Y-145756285D01*
X96971619Y-145661047D01*
X97066857Y-145613428D01*
X97304952Y-145613428D01*
X97400190Y-145565809D01*
X97876380Y-145994380D02*
X97876380Y-145327714D01*
X97876380Y-144994380D02*
X97828761Y-145042000D01*
X97876380Y-145089619D01*
X97924000Y-145042000D01*
X97876380Y-144994380D01*
X97876380Y-145089619D01*
X98352571Y-145327714D02*
X98352571Y-145994380D01*
X98352571Y-145422952D02*
X98400190Y-145375333D01*
X98495428Y-145327714D01*
X98638285Y-145327714D01*
X98733523Y-145375333D01*
X98781142Y-145470571D01*
X98781142Y-145994380D01*
D13*
X41454000Y-138295748D02*
X41454000Y-138818252D01*
X42874000Y-138295748D02*
X42874000Y-138818252D01*
X41454000Y-142359748D02*
X41454000Y-142882252D01*
X42874000Y-142359748D02*
X42874000Y-142882252D01*
X51614000Y-138295748D02*
X51614000Y-138818252D01*
X53034000Y-138295748D02*
X53034000Y-138818252D01*
X51614000Y-142359748D02*
X51614000Y-142882252D01*
X53034000Y-142359748D02*
X53034000Y-142882252D01*
X61774000Y-138295748D02*
X61774000Y-138818252D01*
X63194000Y-138295748D02*
X63194000Y-138818252D01*
X61774000Y-142359748D02*
X61774000Y-142882252D01*
X63194000Y-142359748D02*
X63194000Y-142882252D01*
X71934000Y-138295748D02*
X71934000Y-138818252D01*
X73354000Y-138295748D02*
X73354000Y-138818252D01*
X71934000Y-142359748D02*
X71934000Y-142882252D01*
X73354000Y-142359748D02*
X73354000Y-142882252D01*
X47300000Y-138305000D02*
X47300000Y-139765000D01*
X44140000Y-138305000D02*
X44140000Y-141465000D01*
X44140000Y-138305000D02*
X45070000Y-138305000D01*
X47300000Y-138305000D02*
X46370000Y-138305000D01*
X47630000Y-133280000D02*
X47630000Y-134380000D01*
X47900000Y-133280000D02*
X47630000Y-133280000D01*
X47900000Y-131780000D02*
X47900000Y-133280000D01*
X41270000Y-133280000D02*
X41270000Y-136110000D01*
X41000000Y-133280000D02*
X41270000Y-133280000D01*
X41000000Y-131780000D02*
X41000000Y-133280000D01*
X57460000Y-138305000D02*
X57460000Y-139765000D01*
X54300000Y-138305000D02*
X54300000Y-141465000D01*
X54300000Y-138305000D02*
X55230000Y-138305000D01*
X57460000Y-138305000D02*
X56530000Y-138305000D01*
X57790000Y-133280000D02*
X57790000Y-134380000D01*
X58060000Y-133280000D02*
X57790000Y-133280000D01*
X58060000Y-131780000D02*
X58060000Y-133280000D01*
X51430000Y-133280000D02*
X51430000Y-136110000D01*
X51160000Y-133280000D02*
X51430000Y-133280000D01*
X51160000Y-131780000D02*
X51160000Y-133280000D01*
X67620000Y-138305000D02*
X67620000Y-139765000D01*
X64460000Y-138305000D02*
X64460000Y-141465000D01*
X64460000Y-138305000D02*
X65390000Y-138305000D01*
X67620000Y-138305000D02*
X66690000Y-138305000D01*
X67950000Y-133280000D02*
X67950000Y-134380000D01*
X68220000Y-133280000D02*
X67950000Y-133280000D01*
X68220000Y-131780000D02*
X68220000Y-133280000D01*
X61590000Y-133280000D02*
X61590000Y-136110000D01*
X61320000Y-133280000D02*
X61590000Y-133280000D01*
X61320000Y-131780000D02*
X61320000Y-133280000D01*
X77780000Y-138305000D02*
X77780000Y-139765000D01*
X74620000Y-138305000D02*
X74620000Y-141465000D01*
X74620000Y-138305000D02*
X75550000Y-138305000D01*
X77780000Y-138305000D02*
X76850000Y-138305000D01*
X78110000Y-133280000D02*
X78110000Y-134380000D01*
X78380000Y-133280000D02*
X78110000Y-133280000D01*
X78380000Y-131780000D02*
X78380000Y-133280000D01*
X71750000Y-133280000D02*
X71750000Y-136110000D01*
X71480000Y-133280000D02*
X71750000Y-133280000D01*
X71480000Y-131780000D02*
X71480000Y-133280000D01*
D11*
X41910000Y-125120000D02*
X41910000Y-119320000D01*
X46990000Y-125120000D02*
X41910000Y-125120000D01*
X46990000Y-119320000D02*
X46990000Y-125120000D01*
X41910000Y-119320000D02*
X46990000Y-119320000D01*
X41950000Y-119920000D02*
X46950000Y-119920000D01*
D13*
X39070000Y-116660000D02*
X39570000Y-116660000D01*
X39070000Y-115920000D02*
X39070000Y-116660000D01*
X45763000Y-112783000D02*
X45716000Y-112829000D01*
X48060000Y-110485000D02*
X48025000Y-110521000D01*
X45956000Y-112999000D02*
X45921000Y-113034000D01*
X48265000Y-110691000D02*
X48218000Y-110737000D01*
X49590000Y-106499000D02*
X49590000Y-116420000D01*
X39310000Y-106499000D02*
X39310000Y-116420000D01*
X39310000Y-116420000D02*
X49590000Y-116420000D01*
X39310000Y-106499000D02*
X49590000Y-106499000D01*
X39310000Y-109459000D02*
X49590000Y-109459000D01*
X39310000Y-114360000D02*
X49590000Y-114360000D01*
X39310000Y-115860000D02*
X49590000Y-115860000D01*
X48670000Y-111760000D02*
G75*
G03X48670000Y-111760000I-1680000J0D01*
G01*
X41938805Y-113440253D02*
G75*
G02X41226000Y-113295000I-28805J1680253D01*
G01*
X40374574Y-112443042D02*
G75*
G02X40375000Y-111076000I1535426J683042D01*
G01*
X41226958Y-110224574D02*
G75*
G02X42594000Y-110225000I683042J-1535426D01*
G01*
X43445426Y-111076958D02*
G75*
G02X43445000Y-112444000I-1535426J-683042D01*
G01*
X42593318Y-113294756D02*
G75*
G02X41910000Y-113440000I-683318J1534756D01*
G01*
D11*
X52070000Y-125120000D02*
X52070000Y-119320000D01*
X57150000Y-125120000D02*
X52070000Y-125120000D01*
X57150000Y-119320000D02*
X57150000Y-125120000D01*
X52070000Y-119320000D02*
X57150000Y-119320000D01*
X52110000Y-119920000D02*
X57110000Y-119920000D01*
D13*
X49230000Y-116660000D02*
X49730000Y-116660000D01*
X49230000Y-115920000D02*
X49230000Y-116660000D01*
X55923000Y-112783000D02*
X55876000Y-112829000D01*
X58220000Y-110485000D02*
X58185000Y-110521000D01*
X56116000Y-112999000D02*
X56081000Y-113034000D01*
X58425000Y-110691000D02*
X58378000Y-110737000D01*
X59750000Y-106499000D02*
X59750000Y-116420000D01*
X49470000Y-106499000D02*
X49470000Y-116420000D01*
X49470000Y-116420000D02*
X59750000Y-116420000D01*
X49470000Y-106499000D02*
X59750000Y-106499000D01*
X49470000Y-109459000D02*
X59750000Y-109459000D01*
X49470000Y-114360000D02*
X59750000Y-114360000D01*
X49470000Y-115860000D02*
X59750000Y-115860000D01*
X58830000Y-111760000D02*
G75*
G03X58830000Y-111760000I-1680000J0D01*
G01*
X52098805Y-113440253D02*
G75*
G02X51386000Y-113295000I-28805J1680253D01*
G01*
X50534574Y-112443042D02*
G75*
G02X50535000Y-111076000I1535426J683042D01*
G01*
X51386958Y-110224574D02*
G75*
G02X52754000Y-110225000I683042J-1535426D01*
G01*
X53605426Y-111076958D02*
G75*
G02X53605000Y-112444000I-1535426J-683042D01*
G01*
X52753318Y-113294756D02*
G75*
G02X52070000Y-113440000I-683318J1534756D01*
G01*
D11*
X62230000Y-125120000D02*
X62230000Y-119320000D01*
X67310000Y-125120000D02*
X62230000Y-125120000D01*
X67310000Y-119320000D02*
X67310000Y-125120000D01*
X62230000Y-119320000D02*
X67310000Y-119320000D01*
X62270000Y-119920000D02*
X67270000Y-119920000D01*
D13*
X59390000Y-116660000D02*
X59890000Y-116660000D01*
X59390000Y-115920000D02*
X59390000Y-116660000D01*
X66083000Y-112783000D02*
X66036000Y-112829000D01*
X68380000Y-110485000D02*
X68345000Y-110521000D01*
X66276000Y-112999000D02*
X66241000Y-113034000D01*
X68585000Y-110691000D02*
X68538000Y-110737000D01*
X69910000Y-106499000D02*
X69910000Y-116420000D01*
X59630000Y-106499000D02*
X59630000Y-116420000D01*
X59630000Y-116420000D02*
X69910000Y-116420000D01*
X59630000Y-106499000D02*
X69910000Y-106499000D01*
X59630000Y-109459000D02*
X69910000Y-109459000D01*
X59630000Y-114360000D02*
X69910000Y-114360000D01*
X59630000Y-115860000D02*
X69910000Y-115860000D01*
X68990000Y-111760000D02*
G75*
G03X68990000Y-111760000I-1680000J0D01*
G01*
X62258805Y-113440253D02*
G75*
G02X61546000Y-113295000I-28805J1680253D01*
G01*
X60694574Y-112443042D02*
G75*
G02X60695000Y-111076000I1535426J683042D01*
G01*
X61546958Y-110224574D02*
G75*
G02X62914000Y-110225000I683042J-1535426D01*
G01*
X63765426Y-111076958D02*
G75*
G02X63765000Y-112444000I-1535426J-683042D01*
G01*
X62913318Y-113294756D02*
G75*
G02X62230000Y-113440000I-683318J1534756D01*
G01*
D11*
X72390000Y-125120000D02*
X72390000Y-119320000D01*
X77470000Y-125120000D02*
X72390000Y-125120000D01*
X77470000Y-119320000D02*
X77470000Y-125120000D01*
X72390000Y-119320000D02*
X77470000Y-119320000D01*
X72430000Y-119920000D02*
X77430000Y-119920000D01*
D13*
X69550000Y-116660000D02*
X70050000Y-116660000D01*
X69550000Y-115920000D02*
X69550000Y-116660000D01*
X76243000Y-112783000D02*
X76196000Y-112829000D01*
X78540000Y-110485000D02*
X78505000Y-110521000D01*
X76436000Y-112999000D02*
X76401000Y-113034000D01*
X78745000Y-110691000D02*
X78698000Y-110737000D01*
X80070000Y-106499000D02*
X80070000Y-116420000D01*
X69790000Y-106499000D02*
X69790000Y-116420000D01*
X69790000Y-116420000D02*
X80070000Y-116420000D01*
X69790000Y-106499000D02*
X80070000Y-106499000D01*
X69790000Y-109459000D02*
X80070000Y-109459000D01*
X69790000Y-114360000D02*
X80070000Y-114360000D01*
X69790000Y-115860000D02*
X80070000Y-115860000D01*
X79150000Y-111760000D02*
G75*
G03X79150000Y-111760000I-1680000J0D01*
G01*
X72418805Y-113440253D02*
G75*
G02X71706000Y-113295000I-28805J1680253D01*
G01*
X70854574Y-112443042D02*
G75*
G02X70855000Y-111076000I1535426J683042D01*
G01*
X71706958Y-110224574D02*
G75*
G02X73074000Y-110225000I683042J-1535426D01*
G01*
X73925426Y-111076958D02*
G75*
G02X73925000Y-112444000I-1535426J-683042D01*
G01*
X73073318Y-113294756D02*
G75*
G02X72390000Y-113440000I-683318J1534756D01*
G01*
X135830000Y-119320000D02*
X137160000Y-119320000D01*
X135830000Y-120650000D02*
X135830000Y-119320000D01*
X135830000Y-121920000D02*
X138490000Y-121920000D01*
X138490000Y-121920000D02*
X138490000Y-139760000D01*
X135830000Y-121920000D02*
X135830000Y-139760000D01*
X135830000Y-139760000D02*
X138490000Y-139760000D01*
X130750000Y-119320000D02*
X132080000Y-119320000D01*
X130750000Y-120650000D02*
X130750000Y-119320000D01*
X130750000Y-121920000D02*
X133410000Y-121920000D01*
X133410000Y-121920000D02*
X133410000Y-139760000D01*
X130750000Y-121920000D02*
X130750000Y-139760000D01*
X130750000Y-139760000D02*
X133410000Y-139760000D01*
X43606000Y-144343000D02*
X46466000Y-144343000D01*
X43606000Y-142423000D02*
X43606000Y-144343000D01*
X46466000Y-142423000D02*
X43606000Y-142423000D01*
X53766000Y-144343000D02*
X56626000Y-144343000D01*
X53766000Y-142423000D02*
X53766000Y-144343000D01*
X56626000Y-142423000D02*
X53766000Y-142423000D01*
X63926000Y-144343000D02*
X66786000Y-144343000D01*
X63926000Y-142423000D02*
X63926000Y-144343000D01*
X66786000Y-142423000D02*
X63926000Y-142423000D01*
X74086000Y-144343000D02*
X76946000Y-144343000D01*
X74086000Y-142423000D02*
X74086000Y-144343000D01*
X76946000Y-142423000D02*
X74086000Y-142423000D01*
X82094000Y-138295748D02*
X82094000Y-138818252D01*
X83514000Y-138295748D02*
X83514000Y-138818252D01*
X82094000Y-142359748D02*
X82094000Y-142882252D01*
X83514000Y-142359748D02*
X83514000Y-142882252D01*
X87940000Y-138305000D02*
X87940000Y-139765000D01*
X84780000Y-138305000D02*
X84780000Y-141465000D01*
X84780000Y-138305000D02*
X85710000Y-138305000D01*
X87940000Y-138305000D02*
X87010000Y-138305000D01*
X88270000Y-133280000D02*
X88270000Y-134380000D01*
X88540000Y-133280000D02*
X88270000Y-133280000D01*
X88540000Y-131780000D02*
X88540000Y-133280000D01*
X81910000Y-133280000D02*
X81910000Y-136110000D01*
X81640000Y-133280000D02*
X81910000Y-133280000D01*
X81640000Y-131780000D02*
X81640000Y-133280000D01*
D11*
X82550000Y-125120000D02*
X82550000Y-119320000D01*
X87630000Y-125120000D02*
X82550000Y-125120000D01*
X87630000Y-119320000D02*
X87630000Y-125120000D01*
X82550000Y-119320000D02*
X87630000Y-119320000D01*
X82590000Y-119920000D02*
X87590000Y-119920000D01*
D13*
X79710000Y-116660000D02*
X80210000Y-116660000D01*
X79710000Y-115920000D02*
X79710000Y-116660000D01*
X86403000Y-112783000D02*
X86356000Y-112829000D01*
X88700000Y-110485000D02*
X88665000Y-110521000D01*
X86596000Y-112999000D02*
X86561000Y-113034000D01*
X88905000Y-110691000D02*
X88858000Y-110737000D01*
X90230000Y-106499000D02*
X90230000Y-116420000D01*
X79950000Y-106499000D02*
X79950000Y-116420000D01*
X79950000Y-116420000D02*
X90230000Y-116420000D01*
X79950000Y-106499000D02*
X90230000Y-106499000D01*
X79950000Y-109459000D02*
X90230000Y-109459000D01*
X79950000Y-114360000D02*
X90230000Y-114360000D01*
X79950000Y-115860000D02*
X90230000Y-115860000D01*
X89310000Y-111760000D02*
G75*
G03X89310000Y-111760000I-1680000J0D01*
G01*
X82578805Y-113440253D02*
G75*
G02X81866000Y-113295000I-28805J1680253D01*
G01*
X81014574Y-112443042D02*
G75*
G02X81015000Y-111076000I1535426J683042D01*
G01*
X81866958Y-110224574D02*
G75*
G02X83234000Y-110225000I683042J-1535426D01*
G01*
X84085426Y-111076958D02*
G75*
G02X84085000Y-112444000I-1535426J-683042D01*
G01*
X83233318Y-113294756D02*
G75*
G02X82550000Y-113440000I-683318J1534756D01*
G01*
X84246000Y-144343000D02*
X87106000Y-144343000D01*
X84246000Y-142423000D02*
X84246000Y-144343000D01*
X87106000Y-142423000D02*
X84246000Y-142423000D01*
X102414000Y-142359748D02*
X102414000Y-142882252D01*
X103834000Y-142359748D02*
X103834000Y-142882252D01*
X98100000Y-138305000D02*
X98100000Y-139765000D01*
X94940000Y-138305000D02*
X94940000Y-141465000D01*
X94940000Y-138305000D02*
X95870000Y-138305000D01*
X98100000Y-138305000D02*
X97170000Y-138305000D01*
X108260000Y-138305000D02*
X108260000Y-139765000D01*
X105100000Y-138305000D02*
X105100000Y-141465000D01*
X105100000Y-138305000D02*
X106030000Y-138305000D01*
X108260000Y-138305000D02*
X107330000Y-138305000D01*
X118420000Y-138305000D02*
X118420000Y-139765000D01*
X115260000Y-138305000D02*
X115260000Y-141465000D01*
X115260000Y-138305000D02*
X116190000Y-138305000D01*
X118420000Y-138305000D02*
X117490000Y-138305000D01*
X125035000Y-132020000D02*
X126365000Y-132020000D01*
X125035000Y-133350000D02*
X125035000Y-132020000D01*
X125035000Y-134620000D02*
X127695000Y-134620000D01*
X127695000Y-134620000D02*
X127695000Y-139760000D01*
X125035000Y-134620000D02*
X125035000Y-139760000D01*
X125035000Y-139760000D02*
X127695000Y-139760000D01*
X122495000Y-132020000D02*
X123825000Y-132020000D01*
X122495000Y-133350000D02*
X122495000Y-132020000D01*
X122495000Y-134620000D02*
X125155000Y-134620000D01*
X125155000Y-134620000D02*
X125155000Y-139760000D01*
X122495000Y-134620000D02*
X122495000Y-139760000D01*
X122495000Y-139760000D02*
X125155000Y-139760000D01*
X112574000Y-142359748D02*
X112574000Y-142882252D01*
X113994000Y-142359748D02*
X113994000Y-142882252D01*
X92254000Y-138295748D02*
X92254000Y-138818252D01*
X93674000Y-138295748D02*
X93674000Y-138818252D01*
X92254000Y-142359748D02*
X92254000Y-142882252D01*
X93674000Y-142359748D02*
X93674000Y-142882252D01*
X102414000Y-138295748D02*
X102414000Y-138818252D01*
X103834000Y-138295748D02*
X103834000Y-138818252D01*
X98430000Y-133280000D02*
X98430000Y-134380000D01*
X98700000Y-133280000D02*
X98430000Y-133280000D01*
X98700000Y-131780000D02*
X98700000Y-133280000D01*
X92070000Y-133280000D02*
X92070000Y-136110000D01*
X91800000Y-133280000D02*
X92070000Y-133280000D01*
X91800000Y-131780000D02*
X91800000Y-133280000D01*
X108590000Y-133280000D02*
X108590000Y-134380000D01*
X108860000Y-133280000D02*
X108590000Y-133280000D01*
X108860000Y-131780000D02*
X108860000Y-133280000D01*
X102230000Y-133280000D02*
X102230000Y-136110000D01*
X101960000Y-133280000D02*
X102230000Y-133280000D01*
X101960000Y-131780000D02*
X101960000Y-133280000D01*
D11*
X122555000Y-124739000D02*
X122555000Y-118939000D01*
X127635000Y-124739000D02*
X122555000Y-124739000D01*
X127635000Y-118939000D02*
X127635000Y-124739000D01*
X122555000Y-118939000D02*
X127635000Y-118939000D01*
X122595000Y-119539000D02*
X127595000Y-119539000D01*
X113030000Y-125120000D02*
X113030000Y-119320000D01*
X118110000Y-125120000D02*
X113030000Y-125120000D01*
X118110000Y-119320000D02*
X118110000Y-125120000D01*
X113030000Y-119320000D02*
X118110000Y-119320000D01*
X113070000Y-119920000D02*
X118070000Y-119920000D01*
X92710000Y-125120000D02*
X92710000Y-119320000D01*
X97790000Y-125120000D02*
X92710000Y-125120000D01*
X97790000Y-119320000D02*
X97790000Y-125120000D01*
X92710000Y-119320000D02*
X97790000Y-119320000D01*
X92750000Y-119920000D02*
X97750000Y-119920000D01*
X102870000Y-125120000D02*
X102870000Y-119320000D01*
X107950000Y-125120000D02*
X102870000Y-125120000D01*
X107950000Y-119320000D02*
X107950000Y-125120000D01*
X102870000Y-119320000D02*
X107950000Y-119320000D01*
X102910000Y-119920000D02*
X107910000Y-119920000D01*
D13*
X110190000Y-116660000D02*
X110690000Y-116660000D01*
X110190000Y-115920000D02*
X110190000Y-116660000D01*
X116883000Y-112783000D02*
X116836000Y-112829000D01*
X119180000Y-110485000D02*
X119145000Y-110521000D01*
X117076000Y-112999000D02*
X117041000Y-113034000D01*
X119385000Y-110691000D02*
X119338000Y-110737000D01*
X120710000Y-106499000D02*
X120710000Y-116420000D01*
X110430000Y-106499000D02*
X110430000Y-116420000D01*
X110430000Y-116420000D02*
X120710000Y-116420000D01*
X110430000Y-106499000D02*
X120710000Y-106499000D01*
X110430000Y-109459000D02*
X120710000Y-109459000D01*
X110430000Y-114360000D02*
X120710000Y-114360000D01*
X110430000Y-115860000D02*
X120710000Y-115860000D01*
X119790000Y-111760000D02*
G75*
G03X119790000Y-111760000I-1680000J0D01*
G01*
X113058805Y-113440253D02*
G75*
G02X112346000Y-113295000I-28805J1680253D01*
G01*
X111494574Y-112443042D02*
G75*
G02X111495000Y-111076000I1535426J683042D01*
G01*
X112346958Y-110224574D02*
G75*
G02X113714000Y-110225000I683042J-1535426D01*
G01*
X114565426Y-111076958D02*
G75*
G02X114565000Y-112444000I-1535426J-683042D01*
G01*
X113713318Y-113294756D02*
G75*
G02X113030000Y-113440000I-683318J1534756D01*
G01*
X89870000Y-116660000D02*
X90370000Y-116660000D01*
X89870000Y-115920000D02*
X89870000Y-116660000D01*
X96563000Y-112783000D02*
X96516000Y-112829000D01*
X98860000Y-110485000D02*
X98825000Y-110521000D01*
X96756000Y-112999000D02*
X96721000Y-113034000D01*
X99065000Y-110691000D02*
X99018000Y-110737000D01*
X100390000Y-106499000D02*
X100390000Y-116420000D01*
X90110000Y-106499000D02*
X90110000Y-116420000D01*
X90110000Y-116420000D02*
X100390000Y-116420000D01*
X90110000Y-106499000D02*
X100390000Y-106499000D01*
X90110000Y-109459000D02*
X100390000Y-109459000D01*
X90110000Y-114360000D02*
X100390000Y-114360000D01*
X90110000Y-115860000D02*
X100390000Y-115860000D01*
X99470000Y-111760000D02*
G75*
G03X99470000Y-111760000I-1680000J0D01*
G01*
X92738805Y-113440253D02*
G75*
G02X92026000Y-113295000I-28805J1680253D01*
G01*
X91174574Y-112443042D02*
G75*
G02X91175000Y-111076000I1535426J683042D01*
G01*
X92026958Y-110224574D02*
G75*
G02X93394000Y-110225000I683042J-1535426D01*
G01*
X94245426Y-111076958D02*
G75*
G02X94245000Y-112444000I-1535426J-683042D01*
G01*
X93393318Y-113294756D02*
G75*
G02X92710000Y-113440000I-683318J1534756D01*
G01*
X100030000Y-116660000D02*
X100530000Y-116660000D01*
X100030000Y-115920000D02*
X100030000Y-116660000D01*
X106723000Y-112783000D02*
X106676000Y-112829000D01*
X109020000Y-110485000D02*
X108985000Y-110521000D01*
X106916000Y-112999000D02*
X106881000Y-113034000D01*
X109225000Y-110691000D02*
X109178000Y-110737000D01*
X110550000Y-106499000D02*
X110550000Y-116420000D01*
X100270000Y-106499000D02*
X100270000Y-116420000D01*
X100270000Y-116420000D02*
X110550000Y-116420000D01*
X100270000Y-106499000D02*
X110550000Y-106499000D01*
X100270000Y-109459000D02*
X110550000Y-109459000D01*
X100270000Y-114360000D02*
X110550000Y-114360000D01*
X100270000Y-115860000D02*
X110550000Y-115860000D01*
X109630000Y-111760000D02*
G75*
G03X109630000Y-111760000I-1680000J0D01*
G01*
X102898805Y-113440253D02*
G75*
G02X102186000Y-113295000I-28805J1680253D01*
G01*
X101334574Y-112443042D02*
G75*
G02X101335000Y-111076000I1535426J683042D01*
G01*
X102186958Y-110224574D02*
G75*
G02X103554000Y-110225000I683042J-1535426D01*
G01*
X104405426Y-111076958D02*
G75*
G02X104405000Y-112444000I-1535426J-683042D01*
G01*
X103553318Y-113294756D02*
G75*
G02X102870000Y-113440000I-683318J1534756D01*
G01*
X122255000Y-116660000D02*
X122755000Y-116660000D01*
X122255000Y-115920000D02*
X122255000Y-116660000D01*
X128948000Y-112783000D02*
X128901000Y-112829000D01*
X131245000Y-110485000D02*
X131210000Y-110521000D01*
X129141000Y-112999000D02*
X129106000Y-113034000D01*
X131450000Y-110691000D02*
X131403000Y-110737000D01*
X132775000Y-106499000D02*
X132775000Y-116420000D01*
X122495000Y-106499000D02*
X122495000Y-116420000D01*
X122495000Y-116420000D02*
X132775000Y-116420000D01*
X122495000Y-106499000D02*
X132775000Y-106499000D01*
X122495000Y-109459000D02*
X132775000Y-109459000D01*
X122495000Y-114360000D02*
X132775000Y-114360000D01*
X122495000Y-115860000D02*
X132775000Y-115860000D01*
X131855000Y-111760000D02*
G75*
G03X131855000Y-111760000I-1680000J0D01*
G01*
X125123805Y-113440253D02*
G75*
G02X124411000Y-113295000I-28805J1680253D01*
G01*
X123559574Y-112443042D02*
G75*
G02X123560000Y-111076000I1535426J683042D01*
G01*
X124411958Y-110224574D02*
G75*
G02X125779000Y-110225000I683042J-1535426D01*
G01*
X126630426Y-111076958D02*
G75*
G02X126630000Y-112444000I-1535426J-683042D01*
G01*
X125778318Y-113294756D02*
G75*
G02X125095000Y-113440000I-683318J1534756D01*
G01*
X94406000Y-144343000D02*
X97266000Y-144343000D01*
X94406000Y-142423000D02*
X94406000Y-144343000D01*
X97266000Y-142423000D02*
X94406000Y-142423000D01*
X104566000Y-144343000D02*
X107426000Y-144343000D01*
X104566000Y-142423000D02*
X104566000Y-144343000D01*
X107426000Y-142423000D02*
X104566000Y-142423000D01*
X114726000Y-144343000D02*
X117586000Y-144343000D01*
X114726000Y-142423000D02*
X114726000Y-144343000D01*
X117586000Y-142423000D02*
X114726000Y-142423000D01*
X118750000Y-133280000D02*
X118750000Y-134380000D01*
X119020000Y-133280000D02*
X118750000Y-133280000D01*
X119020000Y-131780000D02*
X119020000Y-133280000D01*
X112390000Y-133280000D02*
X112390000Y-136110000D01*
X112120000Y-133280000D02*
X112390000Y-133280000D01*
X112120000Y-131780000D02*
X112120000Y-133280000D01*
X112574000Y-138295748D02*
X112574000Y-138818252D01*
X113994000Y-138295748D02*
X113994000Y-138818252D01*
D11*
X41092380Y-139072857D02*
X40616190Y-139406190D01*
X41092380Y-139644285D02*
X40092380Y-139644285D01*
X40092380Y-139263333D01*
X40140000Y-139168095D01*
X40187619Y-139120476D01*
X40282857Y-139072857D01*
X40425714Y-139072857D01*
X40520952Y-139120476D01*
X40568571Y-139168095D01*
X40616190Y-139263333D01*
X40616190Y-139644285D01*
X41092380Y-138120476D02*
X41092380Y-138691904D01*
X41092380Y-138406190D02*
X40092380Y-138406190D01*
X40235238Y-138501428D01*
X40330476Y-138596666D01*
X40378095Y-138691904D01*
X40092380Y-137263333D02*
X40092380Y-137453809D01*
X40140000Y-137549047D01*
X40187619Y-137596666D01*
X40330476Y-137691904D01*
X40520952Y-137739523D01*
X40901904Y-137739523D01*
X40997142Y-137691904D01*
X41044761Y-137644285D01*
X41092380Y-137549047D01*
X41092380Y-137358571D01*
X41044761Y-137263333D01*
X40997142Y-137215714D01*
X40901904Y-137168095D01*
X40663809Y-137168095D01*
X40568571Y-137215714D01*
X40520952Y-137263333D01*
X40473333Y-137358571D01*
X40473333Y-137549047D01*
X40520952Y-137644285D01*
X40568571Y-137691904D01*
X40663809Y-137739523D01*
X41092380Y-143263857D02*
X40616190Y-143597190D01*
X41092380Y-143835285D02*
X40092380Y-143835285D01*
X40092380Y-143454333D01*
X40140000Y-143359095D01*
X40187619Y-143311476D01*
X40282857Y-143263857D01*
X40425714Y-143263857D01*
X40520952Y-143311476D01*
X40568571Y-143359095D01*
X40616190Y-143454333D01*
X40616190Y-143835285D01*
X41092380Y-142311476D02*
X41092380Y-142882904D01*
X41092380Y-142597190D02*
X40092380Y-142597190D01*
X40235238Y-142692428D01*
X40330476Y-142787666D01*
X40378095Y-142882904D01*
X40092380Y-141406714D02*
X40092380Y-141882904D01*
X40568571Y-141930523D01*
X40520952Y-141882904D01*
X40473333Y-141787666D01*
X40473333Y-141549571D01*
X40520952Y-141454333D01*
X40568571Y-141406714D01*
X40663809Y-141359095D01*
X40901904Y-141359095D01*
X40997142Y-141406714D01*
X41044761Y-141454333D01*
X41092380Y-141549571D01*
X41092380Y-141787666D01*
X41044761Y-141882904D01*
X40997142Y-141930523D01*
X51252380Y-139072857D02*
X50776190Y-139406190D01*
X51252380Y-139644285D02*
X50252380Y-139644285D01*
X50252380Y-139263333D01*
X50300000Y-139168095D01*
X50347619Y-139120476D01*
X50442857Y-139072857D01*
X50585714Y-139072857D01*
X50680952Y-139120476D01*
X50728571Y-139168095D01*
X50776190Y-139263333D01*
X50776190Y-139644285D01*
X51252380Y-138120476D02*
X51252380Y-138691904D01*
X51252380Y-138406190D02*
X50252380Y-138406190D01*
X50395238Y-138501428D01*
X50490476Y-138596666D01*
X50538095Y-138691904D01*
X50585714Y-137263333D02*
X51252380Y-137263333D01*
X50204761Y-137501428D02*
X50919047Y-137739523D01*
X50919047Y-137120476D01*
X51252380Y-143263857D02*
X50776190Y-143597190D01*
X51252380Y-143835285D02*
X50252380Y-143835285D01*
X50252380Y-143454333D01*
X50300000Y-143359095D01*
X50347619Y-143311476D01*
X50442857Y-143263857D01*
X50585714Y-143263857D01*
X50680952Y-143311476D01*
X50728571Y-143359095D01*
X50776190Y-143454333D01*
X50776190Y-143835285D01*
X51252380Y-142311476D02*
X51252380Y-142882904D01*
X51252380Y-142597190D02*
X50252380Y-142597190D01*
X50395238Y-142692428D01*
X50490476Y-142787666D01*
X50538095Y-142882904D01*
X50252380Y-141978142D02*
X50252380Y-141359095D01*
X50633333Y-141692428D01*
X50633333Y-141549571D01*
X50680952Y-141454333D01*
X50728571Y-141406714D01*
X50823809Y-141359095D01*
X51061904Y-141359095D01*
X51157142Y-141406714D01*
X51204761Y-141454333D01*
X51252380Y-141549571D01*
X51252380Y-141835285D01*
X51204761Y-141930523D01*
X51157142Y-141978142D01*
X61412380Y-139072857D02*
X60936190Y-139406190D01*
X61412380Y-139644285D02*
X60412380Y-139644285D01*
X60412380Y-139263333D01*
X60460000Y-139168095D01*
X60507619Y-139120476D01*
X60602857Y-139072857D01*
X60745714Y-139072857D01*
X60840952Y-139120476D01*
X60888571Y-139168095D01*
X60936190Y-139263333D01*
X60936190Y-139644285D01*
X61412380Y-138120476D02*
X61412380Y-138691904D01*
X61412380Y-138406190D02*
X60412380Y-138406190D01*
X60555238Y-138501428D01*
X60650476Y-138596666D01*
X60698095Y-138691904D01*
X60507619Y-137739523D02*
X60460000Y-137691904D01*
X60412380Y-137596666D01*
X60412380Y-137358571D01*
X60460000Y-137263333D01*
X60507619Y-137215714D01*
X60602857Y-137168095D01*
X60698095Y-137168095D01*
X60840952Y-137215714D01*
X61412380Y-137787142D01*
X61412380Y-137168095D01*
X61412380Y-143263857D02*
X60936190Y-143597190D01*
X61412380Y-143835285D02*
X60412380Y-143835285D01*
X60412380Y-143454333D01*
X60460000Y-143359095D01*
X60507619Y-143311476D01*
X60602857Y-143263857D01*
X60745714Y-143263857D01*
X60840952Y-143311476D01*
X60888571Y-143359095D01*
X60936190Y-143454333D01*
X60936190Y-143835285D01*
X61412380Y-142311476D02*
X61412380Y-142882904D01*
X61412380Y-142597190D02*
X60412380Y-142597190D01*
X60555238Y-142692428D01*
X60650476Y-142787666D01*
X60698095Y-142882904D01*
X61412380Y-141359095D02*
X61412380Y-141930523D01*
X61412380Y-141644809D02*
X60412380Y-141644809D01*
X60555238Y-141740047D01*
X60650476Y-141835285D01*
X60698095Y-141930523D01*
X71572380Y-139072857D02*
X71096190Y-139406190D01*
X71572380Y-139644285D02*
X70572380Y-139644285D01*
X70572380Y-139263333D01*
X70620000Y-139168095D01*
X70667619Y-139120476D01*
X70762857Y-139072857D01*
X70905714Y-139072857D01*
X71000952Y-139120476D01*
X71048571Y-139168095D01*
X71096190Y-139263333D01*
X71096190Y-139644285D01*
X71572380Y-138120476D02*
X71572380Y-138691904D01*
X71572380Y-138406190D02*
X70572380Y-138406190D01*
X70715238Y-138501428D01*
X70810476Y-138596666D01*
X70858095Y-138691904D01*
X70572380Y-137501428D02*
X70572380Y-137406190D01*
X70620000Y-137310952D01*
X70667619Y-137263333D01*
X70762857Y-137215714D01*
X70953333Y-137168095D01*
X71191428Y-137168095D01*
X71381904Y-137215714D01*
X71477142Y-137263333D01*
X71524761Y-137310952D01*
X71572380Y-137406190D01*
X71572380Y-137501428D01*
X71524761Y-137596666D01*
X71477142Y-137644285D01*
X71381904Y-137691904D01*
X71191428Y-137739523D01*
X70953333Y-137739523D01*
X70762857Y-137691904D01*
X70667619Y-137644285D01*
X70620000Y-137596666D01*
X70572380Y-137501428D01*
X71572380Y-142787666D02*
X71096190Y-143121000D01*
X71572380Y-143359095D02*
X70572380Y-143359095D01*
X70572380Y-142978142D01*
X70620000Y-142882904D01*
X70667619Y-142835285D01*
X70762857Y-142787666D01*
X70905714Y-142787666D01*
X71000952Y-142835285D01*
X71048571Y-142882904D01*
X71096190Y-142978142D01*
X71096190Y-143359095D01*
X71572380Y-142311476D02*
X71572380Y-142121000D01*
X71524761Y-142025761D01*
X71477142Y-141978142D01*
X71334285Y-141882904D01*
X71143809Y-141835285D01*
X70762857Y-141835285D01*
X70667619Y-141882904D01*
X70620000Y-141930523D01*
X70572380Y-142025761D01*
X70572380Y-142216238D01*
X70620000Y-142311476D01*
X70667619Y-142359095D01*
X70762857Y-142406714D01*
X71000952Y-142406714D01*
X71096190Y-142359095D01*
X71143809Y-142311476D01*
X71191428Y-142216238D01*
X71191428Y-142025761D01*
X71143809Y-141930523D01*
X71096190Y-141882904D01*
X71000952Y-141835285D01*
X48807619Y-140906428D02*
X48760000Y-141001666D01*
X48664761Y-141096904D01*
X48521904Y-141239761D01*
X48474285Y-141335000D01*
X48474285Y-141430238D01*
X48712380Y-141382619D02*
X48664761Y-141477857D01*
X48569523Y-141573095D01*
X48379047Y-141620714D01*
X48045714Y-141620714D01*
X47855238Y-141573095D01*
X47760000Y-141477857D01*
X47712380Y-141382619D01*
X47712380Y-141192142D01*
X47760000Y-141096904D01*
X47855238Y-141001666D01*
X48045714Y-140954047D01*
X48379047Y-140954047D01*
X48569523Y-141001666D01*
X48664761Y-141096904D01*
X48712380Y-141192142D01*
X48712380Y-141382619D01*
X47807619Y-140573095D02*
X47760000Y-140525476D01*
X47712380Y-140430238D01*
X47712380Y-140192142D01*
X47760000Y-140096904D01*
X47807619Y-140049285D01*
X47902857Y-140001666D01*
X47998095Y-140001666D01*
X48140952Y-140049285D01*
X48712380Y-140620714D01*
X48712380Y-140001666D01*
X48045714Y-139144523D02*
X48712380Y-139144523D01*
X47664761Y-139382619D02*
X48379047Y-139620714D01*
X48379047Y-139001666D01*
X43878571Y-137834619D02*
X43783333Y-137787000D01*
X43688095Y-137691761D01*
X43545238Y-137548904D01*
X43450000Y-137501285D01*
X43354761Y-137501285D01*
X43402380Y-137739380D02*
X43307142Y-137691761D01*
X43211904Y-137596523D01*
X43164285Y-137406047D01*
X43164285Y-137072714D01*
X43211904Y-136882238D01*
X43307142Y-136787000D01*
X43402380Y-136739380D01*
X43592857Y-136739380D01*
X43688095Y-136787000D01*
X43783333Y-136882238D01*
X43830952Y-137072714D01*
X43830952Y-137406047D01*
X43783333Y-137596523D01*
X43688095Y-137691761D01*
X43592857Y-137739380D01*
X43402380Y-137739380D01*
X44211904Y-136834619D02*
X44259523Y-136787000D01*
X44354761Y-136739380D01*
X44592857Y-136739380D01*
X44688095Y-136787000D01*
X44735714Y-136834619D01*
X44783333Y-136929857D01*
X44783333Y-137025095D01*
X44735714Y-137167952D01*
X44164285Y-137739380D01*
X44783333Y-137739380D01*
X45164285Y-136834619D02*
X45211904Y-136787000D01*
X45307142Y-136739380D01*
X45545238Y-136739380D01*
X45640476Y-136787000D01*
X45688095Y-136834619D01*
X45735714Y-136929857D01*
X45735714Y-137025095D01*
X45688095Y-137167952D01*
X45116666Y-137739380D01*
X45735714Y-137739380D01*
X58967619Y-140906428D02*
X58920000Y-141001666D01*
X58824761Y-141096904D01*
X58681904Y-141239761D01*
X58634285Y-141335000D01*
X58634285Y-141430238D01*
X58872380Y-141382619D02*
X58824761Y-141477857D01*
X58729523Y-141573095D01*
X58539047Y-141620714D01*
X58205714Y-141620714D01*
X58015238Y-141573095D01*
X57920000Y-141477857D01*
X57872380Y-141382619D01*
X57872380Y-141192142D01*
X57920000Y-141096904D01*
X58015238Y-141001666D01*
X58205714Y-140954047D01*
X58539047Y-140954047D01*
X58729523Y-141001666D01*
X58824761Y-141096904D01*
X58872380Y-141192142D01*
X58872380Y-141382619D01*
X57967619Y-140573095D02*
X57920000Y-140525476D01*
X57872380Y-140430238D01*
X57872380Y-140192142D01*
X57920000Y-140096904D01*
X57967619Y-140049285D01*
X58062857Y-140001666D01*
X58158095Y-140001666D01*
X58300952Y-140049285D01*
X58872380Y-140620714D01*
X58872380Y-140001666D01*
X58872380Y-139049285D02*
X58872380Y-139620714D01*
X58872380Y-139335000D02*
X57872380Y-139335000D01*
X58015238Y-139430238D01*
X58110476Y-139525476D01*
X58158095Y-139620714D01*
X54038571Y-137834619D02*
X53943333Y-137787000D01*
X53848095Y-137691761D01*
X53705238Y-137548904D01*
X53610000Y-137501285D01*
X53514761Y-137501285D01*
X53562380Y-137739380D02*
X53467142Y-137691761D01*
X53371904Y-137596523D01*
X53324285Y-137406047D01*
X53324285Y-137072714D01*
X53371904Y-136882238D01*
X53467142Y-136787000D01*
X53562380Y-136739380D01*
X53752857Y-136739380D01*
X53848095Y-136787000D01*
X53943333Y-136882238D01*
X53990952Y-137072714D01*
X53990952Y-137406047D01*
X53943333Y-137596523D01*
X53848095Y-137691761D01*
X53752857Y-137739380D01*
X53562380Y-137739380D01*
X54943333Y-137739380D02*
X54371904Y-137739380D01*
X54657619Y-137739380D02*
X54657619Y-136739380D01*
X54562380Y-136882238D01*
X54467142Y-136977476D01*
X54371904Y-137025095D01*
X55419523Y-137739380D02*
X55610000Y-137739380D01*
X55705238Y-137691761D01*
X55752857Y-137644142D01*
X55848095Y-137501285D01*
X55895714Y-137310809D01*
X55895714Y-136929857D01*
X55848095Y-136834619D01*
X55800476Y-136787000D01*
X55705238Y-136739380D01*
X55514761Y-136739380D01*
X55419523Y-136787000D01*
X55371904Y-136834619D01*
X55324285Y-136929857D01*
X55324285Y-137167952D01*
X55371904Y-137263190D01*
X55419523Y-137310809D01*
X55514761Y-137358428D01*
X55705238Y-137358428D01*
X55800476Y-137310809D01*
X55848095Y-137263190D01*
X55895714Y-137167952D01*
X69127619Y-140906428D02*
X69080000Y-141001666D01*
X68984761Y-141096904D01*
X68841904Y-141239761D01*
X68794285Y-141335000D01*
X68794285Y-141430238D01*
X69032380Y-141382619D02*
X68984761Y-141477857D01*
X68889523Y-141573095D01*
X68699047Y-141620714D01*
X68365714Y-141620714D01*
X68175238Y-141573095D01*
X68080000Y-141477857D01*
X68032380Y-141382619D01*
X68032380Y-141192142D01*
X68080000Y-141096904D01*
X68175238Y-141001666D01*
X68365714Y-140954047D01*
X68699047Y-140954047D01*
X68889523Y-141001666D01*
X68984761Y-141096904D01*
X69032380Y-141192142D01*
X69032380Y-141382619D01*
X69032380Y-140001666D02*
X69032380Y-140573095D01*
X69032380Y-140287380D02*
X68032380Y-140287380D01*
X68175238Y-140382619D01*
X68270476Y-140477857D01*
X68318095Y-140573095D01*
X68460952Y-139430238D02*
X68413333Y-139525476D01*
X68365714Y-139573095D01*
X68270476Y-139620714D01*
X68222857Y-139620714D01*
X68127619Y-139573095D01*
X68080000Y-139525476D01*
X68032380Y-139430238D01*
X68032380Y-139239761D01*
X68080000Y-139144523D01*
X68127619Y-139096904D01*
X68222857Y-139049285D01*
X68270476Y-139049285D01*
X68365714Y-139096904D01*
X68413333Y-139144523D01*
X68460952Y-139239761D01*
X68460952Y-139430238D01*
X68508571Y-139525476D01*
X68556190Y-139573095D01*
X68651428Y-139620714D01*
X68841904Y-139620714D01*
X68937142Y-139573095D01*
X68984761Y-139525476D01*
X69032380Y-139430238D01*
X69032380Y-139239761D01*
X68984761Y-139144523D01*
X68937142Y-139096904D01*
X68841904Y-139049285D01*
X68651428Y-139049285D01*
X68556190Y-139096904D01*
X68508571Y-139144523D01*
X68460952Y-139239761D01*
X64198571Y-137834619D02*
X64103333Y-137787000D01*
X64008095Y-137691761D01*
X63865238Y-137548904D01*
X63770000Y-137501285D01*
X63674761Y-137501285D01*
X63722380Y-137739380D02*
X63627142Y-137691761D01*
X63531904Y-137596523D01*
X63484285Y-137406047D01*
X63484285Y-137072714D01*
X63531904Y-136882238D01*
X63627142Y-136787000D01*
X63722380Y-136739380D01*
X63912857Y-136739380D01*
X64008095Y-136787000D01*
X64103333Y-136882238D01*
X64150952Y-137072714D01*
X64150952Y-137406047D01*
X64103333Y-137596523D01*
X64008095Y-137691761D01*
X63912857Y-137739380D01*
X63722380Y-137739380D01*
X65103333Y-137739380D02*
X64531904Y-137739380D01*
X64817619Y-137739380D02*
X64817619Y-136739380D01*
X64722380Y-136882238D01*
X64627142Y-136977476D01*
X64531904Y-137025095D01*
X65960476Y-136739380D02*
X65770000Y-136739380D01*
X65674761Y-136787000D01*
X65627142Y-136834619D01*
X65531904Y-136977476D01*
X65484285Y-137167952D01*
X65484285Y-137548904D01*
X65531904Y-137644142D01*
X65579523Y-137691761D01*
X65674761Y-137739380D01*
X65865238Y-137739380D01*
X65960476Y-137691761D01*
X66008095Y-137644142D01*
X66055714Y-137548904D01*
X66055714Y-137310809D01*
X66008095Y-137215571D01*
X65960476Y-137167952D01*
X65865238Y-137120333D01*
X65674761Y-137120333D01*
X65579523Y-137167952D01*
X65531904Y-137215571D01*
X65484285Y-137310809D01*
X79287619Y-140906428D02*
X79240000Y-141001666D01*
X79144761Y-141096904D01*
X79001904Y-141239761D01*
X78954285Y-141335000D01*
X78954285Y-141430238D01*
X79192380Y-141382619D02*
X79144761Y-141477857D01*
X79049523Y-141573095D01*
X78859047Y-141620714D01*
X78525714Y-141620714D01*
X78335238Y-141573095D01*
X78240000Y-141477857D01*
X78192380Y-141382619D01*
X78192380Y-141192142D01*
X78240000Y-141096904D01*
X78335238Y-141001666D01*
X78525714Y-140954047D01*
X78859047Y-140954047D01*
X79049523Y-141001666D01*
X79144761Y-141096904D01*
X79192380Y-141192142D01*
X79192380Y-141382619D01*
X79192380Y-140001666D02*
X79192380Y-140573095D01*
X79192380Y-140287380D02*
X78192380Y-140287380D01*
X78335238Y-140382619D01*
X78430476Y-140477857D01*
X78478095Y-140573095D01*
X78192380Y-139096904D02*
X78192380Y-139573095D01*
X78668571Y-139620714D01*
X78620952Y-139573095D01*
X78573333Y-139477857D01*
X78573333Y-139239761D01*
X78620952Y-139144523D01*
X78668571Y-139096904D01*
X78763809Y-139049285D01*
X79001904Y-139049285D01*
X79097142Y-139096904D01*
X79144761Y-139144523D01*
X79192380Y-139239761D01*
X79192380Y-139477857D01*
X79144761Y-139573095D01*
X79097142Y-139620714D01*
X74358571Y-137834619D02*
X74263333Y-137787000D01*
X74168095Y-137691761D01*
X74025238Y-137548904D01*
X73930000Y-137501285D01*
X73834761Y-137501285D01*
X73882380Y-137739380D02*
X73787142Y-137691761D01*
X73691904Y-137596523D01*
X73644285Y-137406047D01*
X73644285Y-137072714D01*
X73691904Y-136882238D01*
X73787142Y-136787000D01*
X73882380Y-136739380D01*
X74072857Y-136739380D01*
X74168095Y-136787000D01*
X74263333Y-136882238D01*
X74310952Y-137072714D01*
X74310952Y-137406047D01*
X74263333Y-137596523D01*
X74168095Y-137691761D01*
X74072857Y-137739380D01*
X73882380Y-137739380D01*
X75263333Y-137739380D02*
X74691904Y-137739380D01*
X74977619Y-137739380D02*
X74977619Y-136739380D01*
X74882380Y-136882238D01*
X74787142Y-136977476D01*
X74691904Y-137025095D01*
X75596666Y-136739380D02*
X76215714Y-136739380D01*
X75882380Y-137120333D01*
X76025238Y-137120333D01*
X76120476Y-137167952D01*
X76168095Y-137215571D01*
X76215714Y-137310809D01*
X76215714Y-137548904D01*
X76168095Y-137644142D01*
X76120476Y-137691761D01*
X76025238Y-137739380D01*
X75739523Y-137739380D01*
X75644285Y-137691761D01*
X75596666Y-137644142D01*
D13*
X43478571Y-117452857D02*
X43478571Y-118310000D01*
X43421428Y-118481428D01*
X43307142Y-118595714D01*
X43135714Y-118652857D01*
X43021428Y-118652857D01*
X43992857Y-117567142D02*
X44050000Y-117510000D01*
X44164285Y-117452857D01*
X44450000Y-117452857D01*
X44564285Y-117510000D01*
X44621428Y-117567142D01*
X44678571Y-117681428D01*
X44678571Y-117795714D01*
X44621428Y-117967142D01*
X43935714Y-118652857D01*
X44678571Y-118652857D01*
X45135714Y-117567142D02*
X45192857Y-117510000D01*
X45307142Y-117452857D01*
X45592857Y-117452857D01*
X45707142Y-117510000D01*
X45764285Y-117567142D01*
X45821428Y-117681428D01*
X45821428Y-117795714D01*
X45764285Y-117967142D01*
X45078571Y-118652857D01*
X45821428Y-118652857D01*
D11*
X48204380Y-144121095D02*
X47204380Y-144121095D01*
X47204380Y-143883000D01*
X47252000Y-143740142D01*
X47347238Y-143644904D01*
X47442476Y-143597285D01*
X47632952Y-143549666D01*
X47775809Y-143549666D01*
X47966285Y-143597285D01*
X48061523Y-143644904D01*
X48156761Y-143740142D01*
X48204380Y-143883000D01*
X48204380Y-144121095D01*
X47632952Y-142978238D02*
X47585333Y-143073476D01*
X47537714Y-143121095D01*
X47442476Y-143168714D01*
X47394857Y-143168714D01*
X47299619Y-143121095D01*
X47252000Y-143073476D01*
X47204380Y-142978238D01*
X47204380Y-142787761D01*
X47252000Y-142692523D01*
X47299619Y-142644904D01*
X47394857Y-142597285D01*
X47442476Y-142597285D01*
X47537714Y-142644904D01*
X47585333Y-142692523D01*
X47632952Y-142787761D01*
X47632952Y-142978238D01*
X47680571Y-143073476D01*
X47728190Y-143121095D01*
X47823428Y-143168714D01*
X48013904Y-143168714D01*
X48109142Y-143121095D01*
X48156761Y-143073476D01*
X48204380Y-142978238D01*
X48204380Y-142787761D01*
X48156761Y-142692523D01*
X48109142Y-142644904D01*
X48013904Y-142597285D01*
X47823428Y-142597285D01*
X47728190Y-142644904D01*
X47680571Y-142692523D01*
X47632952Y-142787761D01*
X58364380Y-144121095D02*
X57364380Y-144121095D01*
X57364380Y-143883000D01*
X57412000Y-143740142D01*
X57507238Y-143644904D01*
X57602476Y-143597285D01*
X57792952Y-143549666D01*
X57935809Y-143549666D01*
X58126285Y-143597285D01*
X58221523Y-143644904D01*
X58316761Y-143740142D01*
X58364380Y-143883000D01*
X58364380Y-144121095D01*
X57364380Y-143216333D02*
X57364380Y-142549666D01*
X58364380Y-142978238D01*
X68524380Y-144121095D02*
X67524380Y-144121095D01*
X67524380Y-143883000D01*
X67572000Y-143740142D01*
X67667238Y-143644904D01*
X67762476Y-143597285D01*
X67952952Y-143549666D01*
X68095809Y-143549666D01*
X68286285Y-143597285D01*
X68381523Y-143644904D01*
X68476761Y-143740142D01*
X68524380Y-143883000D01*
X68524380Y-144121095D01*
X67524380Y-142692523D02*
X67524380Y-142883000D01*
X67572000Y-142978238D01*
X67619619Y-143025857D01*
X67762476Y-143121095D01*
X67952952Y-143168714D01*
X68333904Y-143168714D01*
X68429142Y-143121095D01*
X68476761Y-143073476D01*
X68524380Y-142978238D01*
X68524380Y-142787761D01*
X68476761Y-142692523D01*
X68429142Y-142644904D01*
X68333904Y-142597285D01*
X68095809Y-142597285D01*
X68000571Y-142644904D01*
X67952952Y-142692523D01*
X67905333Y-142787761D01*
X67905333Y-142978238D01*
X67952952Y-143073476D01*
X68000571Y-143121095D01*
X68095809Y-143168714D01*
X78684380Y-144121095D02*
X77684380Y-144121095D01*
X77684380Y-143883000D01*
X77732000Y-143740142D01*
X77827238Y-143644904D01*
X77922476Y-143597285D01*
X78112952Y-143549666D01*
X78255809Y-143549666D01*
X78446285Y-143597285D01*
X78541523Y-143644904D01*
X78636761Y-143740142D01*
X78684380Y-143883000D01*
X78684380Y-144121095D01*
X77684380Y-142644904D02*
X77684380Y-143121095D01*
X78160571Y-143168714D01*
X78112952Y-143121095D01*
X78065333Y-143025857D01*
X78065333Y-142787761D01*
X78112952Y-142692523D01*
X78160571Y-142644904D01*
X78255809Y-142597285D01*
X78493904Y-142597285D01*
X78589142Y-142644904D01*
X78636761Y-142692523D01*
X78684380Y-142787761D01*
X78684380Y-143025857D01*
X78636761Y-143121095D01*
X78589142Y-143168714D01*
X81732380Y-138596666D02*
X81256190Y-138930000D01*
X81732380Y-139168095D02*
X80732380Y-139168095D01*
X80732380Y-138787142D01*
X80780000Y-138691904D01*
X80827619Y-138644285D01*
X80922857Y-138596666D01*
X81065714Y-138596666D01*
X81160952Y-138644285D01*
X81208571Y-138691904D01*
X81256190Y-138787142D01*
X81256190Y-139168095D01*
X81160952Y-138025238D02*
X81113333Y-138120476D01*
X81065714Y-138168095D01*
X80970476Y-138215714D01*
X80922857Y-138215714D01*
X80827619Y-138168095D01*
X80780000Y-138120476D01*
X80732380Y-138025238D01*
X80732380Y-137834761D01*
X80780000Y-137739523D01*
X80827619Y-137691904D01*
X80922857Y-137644285D01*
X80970476Y-137644285D01*
X81065714Y-137691904D01*
X81113333Y-137739523D01*
X81160952Y-137834761D01*
X81160952Y-138025238D01*
X81208571Y-138120476D01*
X81256190Y-138168095D01*
X81351428Y-138215714D01*
X81541904Y-138215714D01*
X81637142Y-138168095D01*
X81684761Y-138120476D01*
X81732380Y-138025238D01*
X81732380Y-137834761D01*
X81684761Y-137739523D01*
X81637142Y-137691904D01*
X81541904Y-137644285D01*
X81351428Y-137644285D01*
X81256190Y-137691904D01*
X81208571Y-137739523D01*
X81160952Y-137834761D01*
X81732380Y-142787666D02*
X81256190Y-143121000D01*
X81732380Y-143359095D02*
X80732380Y-143359095D01*
X80732380Y-142978142D01*
X80780000Y-142882904D01*
X80827619Y-142835285D01*
X80922857Y-142787666D01*
X81065714Y-142787666D01*
X81160952Y-142835285D01*
X81208571Y-142882904D01*
X81256190Y-142978142D01*
X81256190Y-143359095D01*
X80732380Y-142454333D02*
X80732380Y-141787666D01*
X81732380Y-142216238D01*
X89447619Y-140906428D02*
X89400000Y-141001666D01*
X89304761Y-141096904D01*
X89161904Y-141239761D01*
X89114285Y-141335000D01*
X89114285Y-141430238D01*
X89352380Y-141382619D02*
X89304761Y-141477857D01*
X89209523Y-141573095D01*
X89019047Y-141620714D01*
X88685714Y-141620714D01*
X88495238Y-141573095D01*
X88400000Y-141477857D01*
X88352380Y-141382619D01*
X88352380Y-141192142D01*
X88400000Y-141096904D01*
X88495238Y-141001666D01*
X88685714Y-140954047D01*
X89019047Y-140954047D01*
X89209523Y-141001666D01*
X89304761Y-141096904D01*
X89352380Y-141192142D01*
X89352380Y-141382619D01*
X89352380Y-140001666D02*
X89352380Y-140573095D01*
X89352380Y-140287380D02*
X88352380Y-140287380D01*
X88495238Y-140382619D01*
X88590476Y-140477857D01*
X88638095Y-140573095D01*
X88447619Y-139620714D02*
X88400000Y-139573095D01*
X88352380Y-139477857D01*
X88352380Y-139239761D01*
X88400000Y-139144523D01*
X88447619Y-139096904D01*
X88542857Y-139049285D01*
X88638095Y-139049285D01*
X88780952Y-139096904D01*
X89352380Y-139668333D01*
X89352380Y-139049285D01*
X84518571Y-137834619D02*
X84423333Y-137787000D01*
X84328095Y-137691761D01*
X84185238Y-137548904D01*
X84090000Y-137501285D01*
X83994761Y-137501285D01*
X84042380Y-137739380D02*
X83947142Y-137691761D01*
X83851904Y-137596523D01*
X83804285Y-137406047D01*
X83804285Y-137072714D01*
X83851904Y-136882238D01*
X83947142Y-136787000D01*
X84042380Y-136739380D01*
X84232857Y-136739380D01*
X84328095Y-136787000D01*
X84423333Y-136882238D01*
X84470952Y-137072714D01*
X84470952Y-137406047D01*
X84423333Y-137596523D01*
X84328095Y-137691761D01*
X84232857Y-137739380D01*
X84042380Y-137739380D01*
X85423333Y-137739380D02*
X84851904Y-137739380D01*
X85137619Y-137739380D02*
X85137619Y-136739380D01*
X85042380Y-136882238D01*
X84947142Y-136977476D01*
X84851904Y-137025095D01*
X86042380Y-136739380D02*
X86137619Y-136739380D01*
X86232857Y-136787000D01*
X86280476Y-136834619D01*
X86328095Y-136929857D01*
X86375714Y-137120333D01*
X86375714Y-137358428D01*
X86328095Y-137548904D01*
X86280476Y-137644142D01*
X86232857Y-137691761D01*
X86137619Y-137739380D01*
X86042380Y-137739380D01*
X85947142Y-137691761D01*
X85899523Y-137644142D01*
X85851904Y-137548904D01*
X85804285Y-137358428D01*
X85804285Y-137120333D01*
X85851904Y-136929857D01*
X85899523Y-136834619D01*
X85947142Y-136787000D01*
X86042380Y-136739380D01*
X88844380Y-144121095D02*
X87844380Y-144121095D01*
X87844380Y-143883000D01*
X87892000Y-143740142D01*
X87987238Y-143644904D01*
X88082476Y-143597285D01*
X88272952Y-143549666D01*
X88415809Y-143549666D01*
X88606285Y-143597285D01*
X88701523Y-143644904D01*
X88796761Y-143740142D01*
X88844380Y-143883000D01*
X88844380Y-144121095D01*
X88177714Y-142692523D02*
X88844380Y-142692523D01*
X87796761Y-142930619D02*
X88511047Y-143168714D01*
X88511047Y-142549666D01*
X102052380Y-142787666D02*
X101576190Y-143121000D01*
X102052380Y-143359095D02*
X101052380Y-143359095D01*
X101052380Y-142978142D01*
X101100000Y-142882904D01*
X101147619Y-142835285D01*
X101242857Y-142787666D01*
X101385714Y-142787666D01*
X101480952Y-142835285D01*
X101528571Y-142882904D01*
X101576190Y-142978142D01*
X101576190Y-143359095D01*
X101052380Y-142454333D02*
X101052380Y-141835285D01*
X101433333Y-142168619D01*
X101433333Y-142025761D01*
X101480952Y-141930523D01*
X101528571Y-141882904D01*
X101623809Y-141835285D01*
X101861904Y-141835285D01*
X101957142Y-141882904D01*
X102004761Y-141930523D01*
X102052380Y-142025761D01*
X102052380Y-142311476D01*
X102004761Y-142406714D01*
X101957142Y-142454333D01*
X99607619Y-140430238D02*
X99560000Y-140525476D01*
X99464761Y-140620714D01*
X99321904Y-140763571D01*
X99274285Y-140858809D01*
X99274285Y-140954047D01*
X99512380Y-140906428D02*
X99464761Y-141001666D01*
X99369523Y-141096904D01*
X99179047Y-141144523D01*
X98845714Y-141144523D01*
X98655238Y-141096904D01*
X98560000Y-141001666D01*
X98512380Y-140906428D01*
X98512380Y-140715952D01*
X98560000Y-140620714D01*
X98655238Y-140525476D01*
X98845714Y-140477857D01*
X99179047Y-140477857D01*
X99369523Y-140525476D01*
X99464761Y-140620714D01*
X99512380Y-140715952D01*
X99512380Y-140906428D01*
X99512380Y-140001666D02*
X99512380Y-139811190D01*
X99464761Y-139715952D01*
X99417142Y-139668333D01*
X99274285Y-139573095D01*
X99083809Y-139525476D01*
X98702857Y-139525476D01*
X98607619Y-139573095D01*
X98560000Y-139620714D01*
X98512380Y-139715952D01*
X98512380Y-139906428D01*
X98560000Y-140001666D01*
X98607619Y-140049285D01*
X98702857Y-140096904D01*
X98940952Y-140096904D01*
X99036190Y-140049285D01*
X99083809Y-140001666D01*
X99131428Y-139906428D01*
X99131428Y-139715952D01*
X99083809Y-139620714D01*
X99036190Y-139573095D01*
X98940952Y-139525476D01*
X109767619Y-140430238D02*
X109720000Y-140525476D01*
X109624761Y-140620714D01*
X109481904Y-140763571D01*
X109434285Y-140858809D01*
X109434285Y-140954047D01*
X109672380Y-140906428D02*
X109624761Y-141001666D01*
X109529523Y-141096904D01*
X109339047Y-141144523D01*
X109005714Y-141144523D01*
X108815238Y-141096904D01*
X108720000Y-141001666D01*
X108672380Y-140906428D01*
X108672380Y-140715952D01*
X108720000Y-140620714D01*
X108815238Y-140525476D01*
X109005714Y-140477857D01*
X109339047Y-140477857D01*
X109529523Y-140525476D01*
X109624761Y-140620714D01*
X109672380Y-140715952D01*
X109672380Y-140906428D01*
X108672380Y-140144523D02*
X108672380Y-139477857D01*
X109672380Y-139906428D01*
X119927619Y-140430238D02*
X119880000Y-140525476D01*
X119784761Y-140620714D01*
X119641904Y-140763571D01*
X119594285Y-140858809D01*
X119594285Y-140954047D01*
X119832380Y-140906428D02*
X119784761Y-141001666D01*
X119689523Y-141096904D01*
X119499047Y-141144523D01*
X119165714Y-141144523D01*
X118975238Y-141096904D01*
X118880000Y-141001666D01*
X118832380Y-140906428D01*
X118832380Y-140715952D01*
X118880000Y-140620714D01*
X118975238Y-140525476D01*
X119165714Y-140477857D01*
X119499047Y-140477857D01*
X119689523Y-140525476D01*
X119784761Y-140620714D01*
X119832380Y-140715952D01*
X119832380Y-140906428D01*
X118832380Y-139573095D02*
X118832380Y-140049285D01*
X119308571Y-140096904D01*
X119260952Y-140049285D01*
X119213333Y-139954047D01*
X119213333Y-139715952D01*
X119260952Y-139620714D01*
X119308571Y-139573095D01*
X119403809Y-139525476D01*
X119641904Y-139525476D01*
X119737142Y-139573095D01*
X119784761Y-139620714D01*
X119832380Y-139715952D01*
X119832380Y-139954047D01*
X119784761Y-140049285D01*
X119737142Y-140096904D01*
X112212380Y-142787666D02*
X111736190Y-143121000D01*
X112212380Y-143359095D02*
X111212380Y-143359095D01*
X111212380Y-142978142D01*
X111260000Y-142882904D01*
X111307619Y-142835285D01*
X111402857Y-142787666D01*
X111545714Y-142787666D01*
X111640952Y-142835285D01*
X111688571Y-142882904D01*
X111736190Y-142978142D01*
X111736190Y-143359095D01*
X112212380Y-141835285D02*
X112212380Y-142406714D01*
X112212380Y-142121000D02*
X111212380Y-142121000D01*
X111355238Y-142216238D01*
X111450476Y-142311476D01*
X111498095Y-142406714D01*
X91892380Y-138596666D02*
X91416190Y-138930000D01*
X91892380Y-139168095D02*
X90892380Y-139168095D01*
X90892380Y-138787142D01*
X90940000Y-138691904D01*
X90987619Y-138644285D01*
X91082857Y-138596666D01*
X91225714Y-138596666D01*
X91320952Y-138644285D01*
X91368571Y-138691904D01*
X91416190Y-138787142D01*
X91416190Y-139168095D01*
X90892380Y-137739523D02*
X90892380Y-137930000D01*
X90940000Y-138025238D01*
X90987619Y-138072857D01*
X91130476Y-138168095D01*
X91320952Y-138215714D01*
X91701904Y-138215714D01*
X91797142Y-138168095D01*
X91844761Y-138120476D01*
X91892380Y-138025238D01*
X91892380Y-137834761D01*
X91844761Y-137739523D01*
X91797142Y-137691904D01*
X91701904Y-137644285D01*
X91463809Y-137644285D01*
X91368571Y-137691904D01*
X91320952Y-137739523D01*
X91273333Y-137834761D01*
X91273333Y-138025238D01*
X91320952Y-138120476D01*
X91368571Y-138168095D01*
X91463809Y-138215714D01*
X91892380Y-142787666D02*
X91416190Y-143121000D01*
X91892380Y-143359095D02*
X90892380Y-143359095D01*
X90892380Y-142978142D01*
X90940000Y-142882904D01*
X90987619Y-142835285D01*
X91082857Y-142787666D01*
X91225714Y-142787666D01*
X91320952Y-142835285D01*
X91368571Y-142882904D01*
X91416190Y-142978142D01*
X91416190Y-143359095D01*
X90892380Y-141882904D02*
X90892380Y-142359095D01*
X91368571Y-142406714D01*
X91320952Y-142359095D01*
X91273333Y-142263857D01*
X91273333Y-142025761D01*
X91320952Y-141930523D01*
X91368571Y-141882904D01*
X91463809Y-141835285D01*
X91701904Y-141835285D01*
X91797142Y-141882904D01*
X91844761Y-141930523D01*
X91892380Y-142025761D01*
X91892380Y-142263857D01*
X91844761Y-142359095D01*
X91797142Y-142406714D01*
X102052380Y-138596666D02*
X101576190Y-138930000D01*
X102052380Y-139168095D02*
X101052380Y-139168095D01*
X101052380Y-138787142D01*
X101100000Y-138691904D01*
X101147619Y-138644285D01*
X101242857Y-138596666D01*
X101385714Y-138596666D01*
X101480952Y-138644285D01*
X101528571Y-138691904D01*
X101576190Y-138787142D01*
X101576190Y-139168095D01*
X101385714Y-137739523D02*
X102052380Y-137739523D01*
X101004761Y-137977619D02*
X101719047Y-138215714D01*
X101719047Y-137596666D01*
X95154761Y-137834619D02*
X95059523Y-137787000D01*
X94964285Y-137691761D01*
X94821428Y-137548904D01*
X94726190Y-137501285D01*
X94630952Y-137501285D01*
X94678571Y-137739380D02*
X94583333Y-137691761D01*
X94488095Y-137596523D01*
X94440476Y-137406047D01*
X94440476Y-137072714D01*
X94488095Y-136882238D01*
X94583333Y-136787000D01*
X94678571Y-136739380D01*
X94869047Y-136739380D01*
X94964285Y-136787000D01*
X95059523Y-136882238D01*
X95107142Y-137072714D01*
X95107142Y-137406047D01*
X95059523Y-137596523D01*
X94964285Y-137691761D01*
X94869047Y-137739380D01*
X94678571Y-137739380D01*
X95440476Y-136739380D02*
X96059523Y-136739380D01*
X95726190Y-137120333D01*
X95869047Y-137120333D01*
X95964285Y-137167952D01*
X96011904Y-137215571D01*
X96059523Y-137310809D01*
X96059523Y-137548904D01*
X96011904Y-137644142D01*
X95964285Y-137691761D01*
X95869047Y-137739380D01*
X95583333Y-137739380D01*
X95488095Y-137691761D01*
X95440476Y-137644142D01*
X105314761Y-137834619D02*
X105219523Y-137787000D01*
X105124285Y-137691761D01*
X104981428Y-137548904D01*
X104886190Y-137501285D01*
X104790952Y-137501285D01*
X104838571Y-137739380D02*
X104743333Y-137691761D01*
X104648095Y-137596523D01*
X104600476Y-137406047D01*
X104600476Y-137072714D01*
X104648095Y-136882238D01*
X104743333Y-136787000D01*
X104838571Y-136739380D01*
X105029047Y-136739380D01*
X105124285Y-136787000D01*
X105219523Y-136882238D01*
X105267142Y-137072714D01*
X105267142Y-137406047D01*
X105219523Y-137596523D01*
X105124285Y-137691761D01*
X105029047Y-137739380D01*
X104838571Y-137739380D01*
X105648095Y-136834619D02*
X105695714Y-136787000D01*
X105790952Y-136739380D01*
X106029047Y-136739380D01*
X106124285Y-136787000D01*
X106171904Y-136834619D01*
X106219523Y-136929857D01*
X106219523Y-137025095D01*
X106171904Y-137167952D01*
X105600476Y-137739380D01*
X106219523Y-137739380D01*
X99004380Y-144121095D02*
X98004380Y-144121095D01*
X98004380Y-143883000D01*
X98052000Y-143740142D01*
X98147238Y-143644904D01*
X98242476Y-143597285D01*
X98432952Y-143549666D01*
X98575809Y-143549666D01*
X98766285Y-143597285D01*
X98861523Y-143644904D01*
X98956761Y-143740142D01*
X99004380Y-143883000D01*
X99004380Y-144121095D01*
X98004380Y-143216333D02*
X98004380Y-142597285D01*
X98385333Y-142930619D01*
X98385333Y-142787761D01*
X98432952Y-142692523D01*
X98480571Y-142644904D01*
X98575809Y-142597285D01*
X98813904Y-142597285D01*
X98909142Y-142644904D01*
X98956761Y-142692523D01*
X99004380Y-142787761D01*
X99004380Y-143073476D01*
X98956761Y-143168714D01*
X98909142Y-143216333D01*
X109164380Y-144121095D02*
X108164380Y-144121095D01*
X108164380Y-143883000D01*
X108212000Y-143740142D01*
X108307238Y-143644904D01*
X108402476Y-143597285D01*
X108592952Y-143549666D01*
X108735809Y-143549666D01*
X108926285Y-143597285D01*
X109021523Y-143644904D01*
X109116761Y-143740142D01*
X109164380Y-143883000D01*
X109164380Y-144121095D01*
X108259619Y-143168714D02*
X108212000Y-143121095D01*
X108164380Y-143025857D01*
X108164380Y-142787761D01*
X108212000Y-142692523D01*
X108259619Y-142644904D01*
X108354857Y-142597285D01*
X108450095Y-142597285D01*
X108592952Y-142644904D01*
X109164380Y-143216333D01*
X109164380Y-142597285D01*
X119324380Y-144121095D02*
X118324380Y-144121095D01*
X118324380Y-143883000D01*
X118372000Y-143740142D01*
X118467238Y-143644904D01*
X118562476Y-143597285D01*
X118752952Y-143549666D01*
X118895809Y-143549666D01*
X119086285Y-143597285D01*
X119181523Y-143644904D01*
X119276761Y-143740142D01*
X119324380Y-143883000D01*
X119324380Y-144121095D01*
X119324380Y-142597285D02*
X119324380Y-143168714D01*
X119324380Y-142883000D02*
X118324380Y-142883000D01*
X118467238Y-142978238D01*
X118562476Y-143073476D01*
X118610095Y-143168714D01*
X115474761Y-137834619D02*
X115379523Y-137787000D01*
X115284285Y-137691761D01*
X115141428Y-137548904D01*
X115046190Y-137501285D01*
X114950952Y-137501285D01*
X114998571Y-137739380D02*
X114903333Y-137691761D01*
X114808095Y-137596523D01*
X114760476Y-137406047D01*
X114760476Y-137072714D01*
X114808095Y-136882238D01*
X114903333Y-136787000D01*
X114998571Y-136739380D01*
X115189047Y-136739380D01*
X115284285Y-136787000D01*
X115379523Y-136882238D01*
X115427142Y-137072714D01*
X115427142Y-137406047D01*
X115379523Y-137596523D01*
X115284285Y-137691761D01*
X115189047Y-137739380D01*
X114998571Y-137739380D01*
X116379523Y-137739380D02*
X115808095Y-137739380D01*
X116093809Y-137739380D02*
X116093809Y-136739380D01*
X115998571Y-136882238D01*
X115903333Y-136977476D01*
X115808095Y-137025095D01*
X112212380Y-138596666D02*
X111736190Y-138930000D01*
X112212380Y-139168095D02*
X111212380Y-139168095D01*
X111212380Y-138787142D01*
X111260000Y-138691904D01*
X111307619Y-138644285D01*
X111402857Y-138596666D01*
X111545714Y-138596666D01*
X111640952Y-138644285D01*
X111688571Y-138691904D01*
X111736190Y-138787142D01*
X111736190Y-139168095D01*
X111307619Y-138215714D02*
X111260000Y-138168095D01*
X111212380Y-138072857D01*
X111212380Y-137834761D01*
X111260000Y-137739523D01*
X111307619Y-137691904D01*
X111402857Y-137644285D01*
X111498095Y-137644285D01*
X111640952Y-137691904D01*
X112212380Y-138263333D01*
X112212380Y-137644285D01*
M02*
