M48
; DRILL file {KiCad (5.1.0-rc2-41-g6b3e9b0ed)} date Thursday, 23 April 2020 at 19:14:57
; FORMAT={-:-/ absolute / inch / decimal}
; #@! TF.CreationDate,2020-04-23T19:14:57+02:00
; #@! TF.GenerationSoftware,Kicad,Pcbnew,(5.1.0-rc2-41-g6b3e9b0ed)
; #@! TF.FileFunction,Plated,1,2,PTH
FMAT,2
INCH
T1C0.0157
T2C0.0394
T3C0.0512
%
G90
G05
T1
X1.55Y-5.25
X1.55Y-5.3
X1.55Y-5.35
X1.55Y-5.4
X1.66Y-5.5746
X1.675Y-4.975
X1.675Y-5.05
X1.675Y-5.125
X1.75Y-4.975
X1.75Y-5.05
X1.75Y-5.125
X1.75Y-5.3104
X1.825Y-4.975
X1.825Y-5.05
X1.825Y-5.125
X1.835Y-5.645
X1.84Y-5.225
X1.84Y-5.535
X1.95Y-5.25
X1.95Y-5.3
X1.95Y-5.35
X1.95Y-5.4
X2.075Y-4.975
X2.075Y-5.05
X2.075Y-5.125
X2.15Y-4.975
X2.15Y-5.05
X2.15Y-5.125
X2.15Y-5.3104
X2.225Y-4.975
X2.225Y-5.05
X2.225Y-5.125
X2.235Y-5.645
X2.24Y-5.225
X2.24Y-5.535
X2.275Y-5.7021
X2.35Y-5.25
X2.35Y-5.3
X2.35Y-5.35
X2.35Y-5.4
X2.475Y-4.975
X2.475Y-5.05
X2.475Y-5.125
X2.55Y-4.975
X2.55Y-5.05
X2.55Y-5.125
X2.55Y-5.3104
X2.625Y-4.975
X2.625Y-5.05
X2.625Y-5.125
X2.635Y-5.645
X2.64Y-5.225
X2.64Y-5.535
X2.675Y-5.7306
X2.75Y-5.25
X2.75Y-5.3
X2.75Y-5.35
X2.75Y-5.4
X2.875Y-4.975
X2.875Y-5.05
X2.875Y-5.125
X2.95Y-4.975
X2.95Y-5.05
X2.95Y-5.125
X2.95Y-5.3104
X3.025Y-4.975
X3.025Y-5.05
X3.025Y-5.125
X3.035Y-5.645
X3.04Y-5.225
X3.04Y-5.535
X3.15Y-5.25
X3.15Y-5.3
X3.15Y-5.35
X3.15Y-5.4
X3.275Y-4.975
X3.275Y-5.05
X3.275Y-5.125
X3.35Y-4.975
X3.35Y-5.05
X3.35Y-5.125
X3.35Y-5.3104
X3.425Y-4.975
X3.425Y-5.05
X3.425Y-5.125
X3.435Y-5.645
X3.44Y-5.225
X3.44Y-5.535
X3.55Y-5.25
X3.55Y-5.3
X3.55Y-5.35
X3.55Y-5.4
X3.675Y-4.975
X3.675Y-5.05
X3.675Y-5.125
X3.75Y-4.975
X3.75Y-5.05
X3.75Y-5.125
X3.75Y-5.3104
X3.825Y-4.975
X3.825Y-5.05
X3.825Y-5.125
X3.835Y-5.645
X3.84Y-5.225
X3.84Y-5.535
X3.95Y-5.25
X3.95Y-5.3
X3.95Y-5.35
X3.95Y-5.4
X4.075Y-4.975
X4.075Y-5.05
X4.075Y-5.125
X4.15Y-4.975
X4.15Y-5.05
X4.15Y-5.125
X4.15Y-5.3104
X4.225Y-4.975
X4.225Y-5.05
X4.225Y-5.125
X4.235Y-5.645
X4.24Y-5.225
X4.24Y-5.535
X4.35Y-5.25
X4.35Y-5.3
X4.35Y-5.35
X4.35Y-5.4
X4.475Y-4.975
X4.475Y-5.05
X4.475Y-5.125
X4.55Y-4.975
X4.55Y-5.05
X4.55Y-5.125
X4.55Y-5.3104
X4.625Y-4.975
X4.625Y-5.05
X4.625Y-5.125
X4.635Y-5.645
X4.64Y-5.225
X4.64Y-5.535
X4.75Y-5.25
X4.75Y-5.3
X4.75Y-5.35
X4.75Y-5.4
T2
X1.7Y-4.8
X1.8Y-4.8
X2.1Y-4.8
X2.2Y-4.8
X2.5Y-4.8
X2.6Y-4.8
X2.9Y-4.8
X3.0Y-4.8
X5.4Y-4.75
X5.4Y-4.85
X5.4Y-4.95
X5.4Y-5.05
X5.4Y-5.15
X5.4Y-5.25
X5.4Y-5.35
X5.4Y-5.45
X5.2Y-4.75
X5.2Y-4.85
X5.2Y-4.95
X5.2Y-5.05
X5.2Y-5.15
X5.2Y-5.25
X5.2Y-5.35
X5.2Y-5.45
X3.3Y-4.8
X3.4Y-4.8
X4.975Y-5.25
X4.975Y-5.35
X4.975Y-5.45
X4.875Y-5.25
X4.875Y-5.35
X4.875Y-5.45
X4.875Y-4.785
X4.975Y-4.785
X4.5Y-4.8
X4.6Y-4.8
X3.7Y-4.8
X3.8Y-4.8
X4.1Y-4.8
X4.2Y-4.8
T3
X1.65Y-4.4
X1.85Y-4.4
X2.05Y-4.4
X2.25Y-4.4
X2.45Y-4.4
X2.65Y-4.4
X2.85Y-4.4
X3.05Y-4.4
X3.25Y-4.4
X3.45Y-4.4
X4.45Y-4.4
X4.65Y-4.4
X3.65Y-4.4
X3.85Y-4.4
X4.05Y-4.4
X4.25Y-4.4
X4.925Y-4.4
X5.125Y-4.4
T0
M30
