G04 #@! TF.GenerationSoftware,KiCad,Pcbnew,(5.1.0-rc2-41-g6b3e9b0ed)*
G04 #@! TF.CreationDate,2020-04-23T19:15:02+02:00*
G04 #@! TF.ProjectId,LED_Driver,4c45445f-4472-4697-9665-722e6b696361,V0.1*
G04 #@! TF.SameCoordinates,Original*
G04 #@! TF.FileFunction,Copper,L2,Bot*
G04 #@! TF.FilePolarity,Positive*
%FSLAX46Y46*%
G04 Gerber Fmt 4.6, Leading zero omitted, Abs format (unit mm)*
G04 Created by KiCad (PCBNEW (5.1.0-rc2-41-g6b3e9b0ed)) date 2020-04-23 19:15:02*
%MOMM*%
%LPD*%
G04 APERTURE LIST*
%ADD10R,1.500000X2.000000*%
%ADD11R,3.800000X2.000000*%
%ADD12O,1.700000X2.200000*%
%ADD13R,1.700000X2.200000*%
%ADD14C,2.600000*%
%ADD15R,2.600000X2.600000*%
%ADD16O,1.700000X1.700000*%
%ADD17R,1.700000X1.700000*%
%ADD18C,0.800000*%
%ADD19C,0.250000*%
%ADD20C,0.800000*%
%ADD21C,0.254000*%
G04 APERTURE END LIST*
D10*
X46750000Y-133071000D03*
X42150000Y-133071000D03*
X44450000Y-133071000D03*
D11*
X44450000Y-126771000D03*
D10*
X56910000Y-133071000D03*
X52310000Y-133071000D03*
X54610000Y-133071000D03*
D11*
X54610000Y-126771000D03*
D10*
X67070000Y-133071000D03*
X62470000Y-133071000D03*
X64770000Y-133071000D03*
D11*
X64770000Y-126771000D03*
D10*
X77230000Y-133071000D03*
X72630000Y-133071000D03*
X74930000Y-133071000D03*
D11*
X74930000Y-126771000D03*
D12*
X45720000Y-121920000D03*
D13*
X43180000Y-121920000D03*
D14*
X46990000Y-111760000D03*
D15*
X41910000Y-111760000D03*
D12*
X55880000Y-121920000D03*
D13*
X53340000Y-121920000D03*
D14*
X57150000Y-111760000D03*
D15*
X52070000Y-111760000D03*
D12*
X66040000Y-121920000D03*
D13*
X63500000Y-121920000D03*
D14*
X67310000Y-111760000D03*
D15*
X62230000Y-111760000D03*
D12*
X76200000Y-121920000D03*
D13*
X73660000Y-121920000D03*
D14*
X77470000Y-111760000D03*
D15*
X72390000Y-111760000D03*
D16*
X137160000Y-138430000D03*
X137160000Y-135890000D03*
X137160000Y-133350000D03*
X137160000Y-130810000D03*
X137160000Y-128270000D03*
X137160000Y-125730000D03*
X137160000Y-123190000D03*
D17*
X137160000Y-120650000D03*
D16*
X132080000Y-138430000D03*
X132080000Y-135890000D03*
X132080000Y-133350000D03*
X132080000Y-130810000D03*
X132080000Y-128270000D03*
X132080000Y-125730000D03*
X132080000Y-123190000D03*
D17*
X132080000Y-120650000D03*
D10*
X87390000Y-133071000D03*
X82790000Y-133071000D03*
X85090000Y-133071000D03*
D11*
X85090000Y-126771000D03*
D12*
X86360000Y-121920000D03*
D13*
X83820000Y-121920000D03*
D14*
X87630000Y-111760000D03*
D15*
X82550000Y-111760000D03*
D10*
X97550000Y-133071000D03*
X92950000Y-133071000D03*
X95250000Y-133071000D03*
D11*
X95250000Y-126771000D03*
D10*
X107710000Y-133071000D03*
X103110000Y-133071000D03*
X105410000Y-133071000D03*
D11*
X105410000Y-126771000D03*
D10*
X117870000Y-133071000D03*
X113270000Y-133071000D03*
X115570000Y-133071000D03*
D11*
X115570000Y-126771000D03*
D16*
X126365000Y-138430000D03*
X126365000Y-135890000D03*
D17*
X126365000Y-133350000D03*
D16*
X123825000Y-138430000D03*
X123825000Y-135890000D03*
D17*
X123825000Y-133350000D03*
D12*
X126365000Y-121539000D03*
D13*
X123825000Y-121539000D03*
D12*
X116840000Y-121920000D03*
D13*
X114300000Y-121920000D03*
D12*
X96520000Y-121920000D03*
D13*
X93980000Y-121920000D03*
D12*
X106680000Y-121920000D03*
D13*
X104140000Y-121920000D03*
D14*
X118110000Y-111760000D03*
D15*
X113030000Y-111760000D03*
D14*
X97790000Y-111760000D03*
D15*
X92710000Y-111760000D03*
D14*
X107950000Y-111760000D03*
D15*
X102870000Y-111760000D03*
D14*
X130175000Y-111760000D03*
D15*
X125095000Y-111760000D03*
D18*
X117856000Y-132715000D03*
X117729000Y-143383000D03*
X107569000Y-143383000D03*
X97409000Y-143383000D03*
X87249000Y-143383000D03*
X77089000Y-143383000D03*
X66929000Y-143383000D03*
X56769000Y-143383000D03*
X46609000Y-143383000D03*
X110490000Y-133350000D03*
X100330000Y-133350000D03*
X80010000Y-137160000D03*
X90170000Y-137160000D03*
X110490000Y-134620000D03*
X110490000Y-135890000D03*
X110490000Y-137160000D03*
X100330000Y-134620000D03*
X100330000Y-135890000D03*
X100330000Y-137160000D03*
X90170000Y-133350000D03*
X90170000Y-134620000D03*
X90170000Y-135890000D03*
X80010000Y-133350000D03*
X80010000Y-134620000D03*
X80010000Y-135890000D03*
X69850000Y-133350000D03*
X69850000Y-134620000D03*
X69850000Y-135890000D03*
X69850000Y-137160000D03*
X59690000Y-133350000D03*
X59690000Y-134620000D03*
X59690000Y-135890000D03*
X59690000Y-137160000D03*
X49530000Y-133350000D03*
X49530000Y-134620000D03*
X49530000Y-135890000D03*
X49530000Y-137160000D03*
X39370000Y-133350000D03*
X39370000Y-134620000D03*
X39370000Y-135890000D03*
X39370000Y-137160000D03*
X120650000Y-133350000D03*
X120650000Y-134620000D03*
X120650000Y-135890000D03*
X120650000Y-137160000D03*
X103505000Y-130175000D03*
X103505000Y-128270000D03*
X107696000Y-140589000D03*
X107315000Y-130175000D03*
X105410000Y-130175000D03*
X105410000Y-128270000D03*
X107315000Y-128270000D03*
X107315000Y-126365000D03*
X105410000Y-126365000D03*
X103505000Y-126365000D03*
X105410000Y-134883000D03*
X93345000Y-130175000D03*
X93345000Y-128270000D03*
X97536000Y-140589000D03*
X97155000Y-130175000D03*
X95250000Y-130175000D03*
X95250000Y-128270000D03*
X97155000Y-128270000D03*
X97155000Y-126365000D03*
X95250000Y-126365000D03*
X93345000Y-126365000D03*
X95250000Y-134883000D03*
X113665000Y-130175000D03*
X113665000Y-128270000D03*
X117856000Y-140589000D03*
X117475000Y-130175000D03*
X115570000Y-130175000D03*
X115570000Y-128270000D03*
X117475000Y-128270000D03*
X117475000Y-126365000D03*
X115570000Y-126365000D03*
X113665000Y-126365000D03*
X115570000Y-134883000D03*
X107696000Y-132715000D03*
X97536000Y-132715000D03*
X87376000Y-132715000D03*
X83185000Y-130175000D03*
X83185000Y-128270000D03*
X87376000Y-140589000D03*
X86995000Y-130175000D03*
X85090000Y-130175000D03*
X85090000Y-128270000D03*
X86995000Y-128270000D03*
X86995000Y-126365000D03*
X85090000Y-126365000D03*
X83185000Y-126365000D03*
X85090000Y-134883000D03*
X67945000Y-145558010D03*
X57785000Y-144833010D03*
X42164000Y-141596000D03*
X73025000Y-130175000D03*
X73025000Y-128270000D03*
X77216000Y-140589000D03*
X76835000Y-130175000D03*
X74930000Y-130175000D03*
X74930000Y-128270000D03*
X76835000Y-128270000D03*
X76835000Y-126365000D03*
X74930000Y-126365000D03*
X73025000Y-126365000D03*
X74930000Y-134883000D03*
X62865000Y-130175000D03*
X62865000Y-128270000D03*
X67056000Y-140589000D03*
X66675000Y-130175000D03*
X64770000Y-130175000D03*
X64770000Y-128270000D03*
X66675000Y-128270000D03*
X66675000Y-126365000D03*
X64770000Y-126365000D03*
X62865000Y-126365000D03*
X64770000Y-134883000D03*
X52705000Y-130175000D03*
X52705000Y-128270000D03*
X56896000Y-140589000D03*
X56515000Y-130175000D03*
X54610000Y-130175000D03*
X54610000Y-128270000D03*
X56515000Y-128270000D03*
X56515000Y-126365000D03*
X54610000Y-126365000D03*
X52705000Y-126365000D03*
X54610000Y-134883000D03*
X42545000Y-130175000D03*
X42545000Y-128270000D03*
X46736000Y-140589000D03*
X46355000Y-130175000D03*
X44450000Y-130175000D03*
X44450000Y-128270000D03*
X46355000Y-128270000D03*
X46355000Y-126365000D03*
X44450000Y-126365000D03*
X42545000Y-126365000D03*
X44450000Y-134883000D03*
X77216000Y-132715000D03*
X67056000Y-132715000D03*
X56896000Y-132715000D03*
X46736000Y-132715000D03*
D19*
X137160000Y-138430000D02*
X132080000Y-138430000D01*
D20*
X123825000Y-121539000D02*
X123825000Y-133350000D01*
X123825000Y-133350000D02*
X123825000Y-135890000D01*
X123825000Y-135890000D02*
X123825000Y-138430000D01*
X118872000Y-143383000D02*
X123825000Y-138430000D01*
X118872000Y-143383000D02*
X46482000Y-143383000D01*
D19*
X137160000Y-135890000D02*
X132080000Y-135890000D01*
X137160000Y-133350000D02*
X132080000Y-133350000D01*
D20*
X107696000Y-140589000D02*
X105410000Y-138303000D01*
X105410000Y-138303000D02*
X105410000Y-134883000D01*
X105410000Y-133325000D02*
X105410000Y-134883000D01*
X105410000Y-133071000D02*
X105410000Y-130175000D01*
X97536000Y-140589000D02*
X95250000Y-138303000D01*
X95250000Y-138303000D02*
X95250000Y-134883000D01*
X95250000Y-133325000D02*
X95250000Y-134883000D01*
X95250000Y-133071000D02*
X95250000Y-130175000D01*
X117856000Y-140589000D02*
X115570000Y-138303000D01*
X115570000Y-138303000D02*
X115570000Y-134883000D01*
X115570000Y-133325000D02*
X115570000Y-134883000D01*
X115570000Y-133071000D02*
X115570000Y-130175000D01*
D19*
X133180000Y-130810000D02*
X137160000Y-130810000D01*
X132080000Y-130810000D02*
X133180000Y-130810000D01*
D20*
X87376000Y-140589000D02*
X85090000Y-138303000D01*
X85090000Y-138303000D02*
X85090000Y-134883000D01*
X85090000Y-133325000D02*
X85090000Y-134883000D01*
X85090000Y-133071000D02*
X85090000Y-130175000D01*
D19*
X132080000Y-128270000D02*
X137160000Y-128270000D01*
X123681990Y-145558010D02*
X67945000Y-145558010D01*
X129355009Y-128454991D02*
X129355009Y-139884991D01*
X129355009Y-139884991D02*
X123681990Y-145558010D01*
X132080000Y-125730000D02*
X129355009Y-128454991D01*
X137160000Y-125730000D02*
X132080000Y-125730000D01*
X128905000Y-139698590D02*
X123770580Y-144833010D01*
X132080000Y-123190000D02*
X128905000Y-126365000D01*
X121338010Y-144833010D02*
X57785000Y-144833010D01*
X123770580Y-144833010D02*
X121338010Y-144833010D01*
X128905000Y-126365000D02*
X128905000Y-139698590D01*
X121700992Y-144833010D02*
X121338010Y-144833010D01*
X137160000Y-123190000D02*
X132080000Y-123190000D01*
X123859170Y-144108010D02*
X45048010Y-144108010D01*
X130980000Y-120650000D02*
X128270000Y-123360000D01*
X128270000Y-139697180D02*
X123859170Y-144108010D01*
X128270000Y-123360000D02*
X128270000Y-139697180D01*
X42536000Y-141596000D02*
X42164000Y-141596000D01*
X45048010Y-144108010D02*
X42536000Y-141596000D01*
X132080000Y-120650000D02*
X130980000Y-120650000D01*
X132080000Y-120650000D02*
X137160000Y-120650000D01*
D20*
X77216000Y-140589000D02*
X74930000Y-138303000D01*
X74930000Y-138303000D02*
X74930000Y-134883000D01*
X74930000Y-133325000D02*
X74930000Y-134883000D01*
X74930000Y-133071000D02*
X74930000Y-130175000D01*
X67056000Y-140589000D02*
X64770000Y-138303000D01*
X64770000Y-138303000D02*
X64770000Y-134883000D01*
X64770000Y-133325000D02*
X64770000Y-134883000D01*
X64770000Y-133071000D02*
X64770000Y-130175000D01*
X56896000Y-140589000D02*
X54610000Y-138303000D01*
X54610000Y-138303000D02*
X54610000Y-134883000D01*
X54610000Y-133325000D02*
X54610000Y-134883000D01*
X54610000Y-133071000D02*
X54610000Y-130175000D01*
X46736000Y-140589000D02*
X44450000Y-138303000D01*
X44450000Y-138303000D02*
X44450000Y-134883000D01*
X44450000Y-133325000D02*
X44450000Y-134883000D01*
X44450000Y-133071000D02*
X44450000Y-130175000D01*
D21*
G36*
X120269000Y-131953000D02*
G01*
X119246450Y-131953000D01*
X119245812Y-131946518D01*
X119209502Y-131826820D01*
X119150537Y-131716506D01*
X119071185Y-131619815D01*
X118974494Y-131540463D01*
X118864180Y-131481498D01*
X118744482Y-131445188D01*
X118620000Y-131432928D01*
X117120000Y-131432928D01*
X116995518Y-131445188D01*
X116875820Y-131481498D01*
X116765506Y-131540463D01*
X116668815Y-131619815D01*
X116589463Y-131716506D01*
X116530498Y-131826820D01*
X116508279Y-131900068D01*
X116481915Y-131873705D01*
X116440314Y-131845908D01*
X116394089Y-131826761D01*
X116345017Y-131817000D01*
X115760500Y-131817000D01*
X115697000Y-131880500D01*
X115697000Y-132944000D01*
X115717000Y-132944000D01*
X115717000Y-133198000D01*
X115697000Y-133198000D01*
X115697000Y-133218000D01*
X115443000Y-133218000D01*
X115443000Y-133198000D01*
X115423000Y-133198000D01*
X115423000Y-132944000D01*
X115443000Y-132944000D01*
X115443000Y-131880500D01*
X115379500Y-131817000D01*
X114794983Y-131817000D01*
X114745911Y-131826761D01*
X114699686Y-131845908D01*
X114658085Y-131873705D01*
X114631721Y-131900068D01*
X114609502Y-131826820D01*
X114550537Y-131716506D01*
X114471185Y-131619815D01*
X114374494Y-131540463D01*
X114264180Y-131481498D01*
X114144482Y-131445188D01*
X114020000Y-131432928D01*
X112520000Y-131432928D01*
X112395518Y-131445188D01*
X112275820Y-131481498D01*
X112165506Y-131540463D01*
X112068815Y-131619815D01*
X111989463Y-131716506D01*
X111930498Y-131826820D01*
X111894188Y-131946518D01*
X111893550Y-131953000D01*
X110871000Y-131953000D01*
X110871000Y-126961500D01*
X113416000Y-126961500D01*
X113416000Y-127796017D01*
X113425761Y-127845089D01*
X113444908Y-127891314D01*
X113472705Y-127932916D01*
X113508085Y-127968295D01*
X113549686Y-127996092D01*
X113595911Y-128015239D01*
X113644983Y-128025000D01*
X115379500Y-128025000D01*
X115443000Y-127961500D01*
X115443000Y-126898000D01*
X115697000Y-126898000D01*
X115697000Y-127961500D01*
X115760500Y-128025000D01*
X117495017Y-128025000D01*
X117544089Y-128015239D01*
X117590314Y-127996092D01*
X117631915Y-127968295D01*
X117667295Y-127932916D01*
X117695092Y-127891314D01*
X117714239Y-127845089D01*
X117724000Y-127796017D01*
X117724000Y-126961500D01*
X117660500Y-126898000D01*
X115697000Y-126898000D01*
X115443000Y-126898000D01*
X113479500Y-126898000D01*
X113416000Y-126961500D01*
X110871000Y-126961500D01*
X110871000Y-125745983D01*
X113416000Y-125745983D01*
X113416000Y-126580500D01*
X113479500Y-126644000D01*
X115443000Y-126644000D01*
X115443000Y-125580500D01*
X115697000Y-125580500D01*
X115697000Y-126644000D01*
X117660500Y-126644000D01*
X117724000Y-126580500D01*
X117724000Y-125745983D01*
X117714239Y-125696911D01*
X117695092Y-125650686D01*
X117667295Y-125609084D01*
X117631915Y-125573705D01*
X117590314Y-125545908D01*
X117544089Y-125526761D01*
X117495017Y-125517000D01*
X115760500Y-125517000D01*
X115697000Y-125580500D01*
X115443000Y-125580500D01*
X115379500Y-125517000D01*
X113644983Y-125517000D01*
X113595911Y-125526761D01*
X113549686Y-125545908D01*
X113508085Y-125573705D01*
X113472705Y-125609084D01*
X113444908Y-125650686D01*
X113425761Y-125696911D01*
X113416000Y-125745983D01*
X110871000Y-125745983D01*
X110871000Y-124079000D01*
X120269000Y-124079000D01*
X120269000Y-131953000D01*
X120269000Y-131953000D01*
G37*
X120269000Y-131953000D02*
X119246450Y-131953000D01*
X119245812Y-131946518D01*
X119209502Y-131826820D01*
X119150537Y-131716506D01*
X119071185Y-131619815D01*
X118974494Y-131540463D01*
X118864180Y-131481498D01*
X118744482Y-131445188D01*
X118620000Y-131432928D01*
X117120000Y-131432928D01*
X116995518Y-131445188D01*
X116875820Y-131481498D01*
X116765506Y-131540463D01*
X116668815Y-131619815D01*
X116589463Y-131716506D01*
X116530498Y-131826820D01*
X116508279Y-131900068D01*
X116481915Y-131873705D01*
X116440314Y-131845908D01*
X116394089Y-131826761D01*
X116345017Y-131817000D01*
X115760500Y-131817000D01*
X115697000Y-131880500D01*
X115697000Y-132944000D01*
X115717000Y-132944000D01*
X115717000Y-133198000D01*
X115697000Y-133198000D01*
X115697000Y-133218000D01*
X115443000Y-133218000D01*
X115443000Y-133198000D01*
X115423000Y-133198000D01*
X115423000Y-132944000D01*
X115443000Y-132944000D01*
X115443000Y-131880500D01*
X115379500Y-131817000D01*
X114794983Y-131817000D01*
X114745911Y-131826761D01*
X114699686Y-131845908D01*
X114658085Y-131873705D01*
X114631721Y-131900068D01*
X114609502Y-131826820D01*
X114550537Y-131716506D01*
X114471185Y-131619815D01*
X114374494Y-131540463D01*
X114264180Y-131481498D01*
X114144482Y-131445188D01*
X114020000Y-131432928D01*
X112520000Y-131432928D01*
X112395518Y-131445188D01*
X112275820Y-131481498D01*
X112165506Y-131540463D01*
X112068815Y-131619815D01*
X111989463Y-131716506D01*
X111930498Y-131826820D01*
X111894188Y-131946518D01*
X111893550Y-131953000D01*
X110871000Y-131953000D01*
X110871000Y-126961500D01*
X113416000Y-126961500D01*
X113416000Y-127796017D01*
X113425761Y-127845089D01*
X113444908Y-127891314D01*
X113472705Y-127932916D01*
X113508085Y-127968295D01*
X113549686Y-127996092D01*
X113595911Y-128015239D01*
X113644983Y-128025000D01*
X115379500Y-128025000D01*
X115443000Y-127961500D01*
X115443000Y-126898000D01*
X115697000Y-126898000D01*
X115697000Y-127961500D01*
X115760500Y-128025000D01*
X117495017Y-128025000D01*
X117544089Y-128015239D01*
X117590314Y-127996092D01*
X117631915Y-127968295D01*
X117667295Y-127932916D01*
X117695092Y-127891314D01*
X117714239Y-127845089D01*
X117724000Y-127796017D01*
X117724000Y-126961500D01*
X117660500Y-126898000D01*
X115697000Y-126898000D01*
X115443000Y-126898000D01*
X113479500Y-126898000D01*
X113416000Y-126961500D01*
X110871000Y-126961500D01*
X110871000Y-125745983D01*
X113416000Y-125745983D01*
X113416000Y-126580500D01*
X113479500Y-126644000D01*
X115443000Y-126644000D01*
X115443000Y-125580500D01*
X115697000Y-125580500D01*
X115697000Y-126644000D01*
X117660500Y-126644000D01*
X117724000Y-126580500D01*
X117724000Y-125745983D01*
X117714239Y-125696911D01*
X117695092Y-125650686D01*
X117667295Y-125609084D01*
X117631915Y-125573705D01*
X117590314Y-125545908D01*
X117544089Y-125526761D01*
X117495017Y-125517000D01*
X115760500Y-125517000D01*
X115697000Y-125580500D01*
X115443000Y-125580500D01*
X115379500Y-125517000D01*
X113644983Y-125517000D01*
X113595911Y-125526761D01*
X113549686Y-125545908D01*
X113508085Y-125573705D01*
X113472705Y-125609084D01*
X113444908Y-125650686D01*
X113425761Y-125696911D01*
X113416000Y-125745983D01*
X110871000Y-125745983D01*
X110871000Y-124079000D01*
X120269000Y-124079000D01*
X120269000Y-131953000D01*
G36*
X110109000Y-131953000D02*
G01*
X109086450Y-131953000D01*
X109085812Y-131946518D01*
X109049502Y-131826820D01*
X108990537Y-131716506D01*
X108911185Y-131619815D01*
X108814494Y-131540463D01*
X108704180Y-131481498D01*
X108584482Y-131445188D01*
X108460000Y-131432928D01*
X106960000Y-131432928D01*
X106835518Y-131445188D01*
X106715820Y-131481498D01*
X106605506Y-131540463D01*
X106508815Y-131619815D01*
X106429463Y-131716506D01*
X106370498Y-131826820D01*
X106348279Y-131900068D01*
X106321915Y-131873705D01*
X106280314Y-131845908D01*
X106234089Y-131826761D01*
X106185017Y-131817000D01*
X105600500Y-131817000D01*
X105537000Y-131880500D01*
X105537000Y-132944000D01*
X105557000Y-132944000D01*
X105557000Y-133198000D01*
X105537000Y-133198000D01*
X105537000Y-133218000D01*
X105283000Y-133218000D01*
X105283000Y-133198000D01*
X105263000Y-133198000D01*
X105263000Y-132944000D01*
X105283000Y-132944000D01*
X105283000Y-131880500D01*
X105219500Y-131817000D01*
X104634983Y-131817000D01*
X104585911Y-131826761D01*
X104539686Y-131845908D01*
X104498085Y-131873705D01*
X104471721Y-131900068D01*
X104449502Y-131826820D01*
X104390537Y-131716506D01*
X104311185Y-131619815D01*
X104214494Y-131540463D01*
X104104180Y-131481498D01*
X103984482Y-131445188D01*
X103860000Y-131432928D01*
X102360000Y-131432928D01*
X102235518Y-131445188D01*
X102115820Y-131481498D01*
X102005506Y-131540463D01*
X101908815Y-131619815D01*
X101829463Y-131716506D01*
X101770498Y-131826820D01*
X101734188Y-131946518D01*
X101733550Y-131953000D01*
X100711000Y-131953000D01*
X100711000Y-126961500D01*
X103256000Y-126961500D01*
X103256000Y-127796017D01*
X103265761Y-127845089D01*
X103284908Y-127891314D01*
X103312705Y-127932916D01*
X103348085Y-127968295D01*
X103389686Y-127996092D01*
X103435911Y-128015239D01*
X103484983Y-128025000D01*
X105219500Y-128025000D01*
X105283000Y-127961500D01*
X105283000Y-126898000D01*
X105537000Y-126898000D01*
X105537000Y-127961500D01*
X105600500Y-128025000D01*
X107335017Y-128025000D01*
X107384089Y-128015239D01*
X107430314Y-127996092D01*
X107471915Y-127968295D01*
X107507295Y-127932916D01*
X107535092Y-127891314D01*
X107554239Y-127845089D01*
X107564000Y-127796017D01*
X107564000Y-126961500D01*
X107500500Y-126898000D01*
X105537000Y-126898000D01*
X105283000Y-126898000D01*
X103319500Y-126898000D01*
X103256000Y-126961500D01*
X100711000Y-126961500D01*
X100711000Y-125745983D01*
X103256000Y-125745983D01*
X103256000Y-126580500D01*
X103319500Y-126644000D01*
X105283000Y-126644000D01*
X105283000Y-125580500D01*
X105537000Y-125580500D01*
X105537000Y-126644000D01*
X107500500Y-126644000D01*
X107564000Y-126580500D01*
X107564000Y-125745983D01*
X107554239Y-125696911D01*
X107535092Y-125650686D01*
X107507295Y-125609084D01*
X107471915Y-125573705D01*
X107430314Y-125545908D01*
X107384089Y-125526761D01*
X107335017Y-125517000D01*
X105600500Y-125517000D01*
X105537000Y-125580500D01*
X105283000Y-125580500D01*
X105219500Y-125517000D01*
X103484983Y-125517000D01*
X103435911Y-125526761D01*
X103389686Y-125545908D01*
X103348085Y-125573705D01*
X103312705Y-125609084D01*
X103284908Y-125650686D01*
X103265761Y-125696911D01*
X103256000Y-125745983D01*
X100711000Y-125745983D01*
X100711000Y-124079000D01*
X110109000Y-124079000D01*
X110109000Y-131953000D01*
X110109000Y-131953000D01*
G37*
X110109000Y-131953000D02*
X109086450Y-131953000D01*
X109085812Y-131946518D01*
X109049502Y-131826820D01*
X108990537Y-131716506D01*
X108911185Y-131619815D01*
X108814494Y-131540463D01*
X108704180Y-131481498D01*
X108584482Y-131445188D01*
X108460000Y-131432928D01*
X106960000Y-131432928D01*
X106835518Y-131445188D01*
X106715820Y-131481498D01*
X106605506Y-131540463D01*
X106508815Y-131619815D01*
X106429463Y-131716506D01*
X106370498Y-131826820D01*
X106348279Y-131900068D01*
X106321915Y-131873705D01*
X106280314Y-131845908D01*
X106234089Y-131826761D01*
X106185017Y-131817000D01*
X105600500Y-131817000D01*
X105537000Y-131880500D01*
X105537000Y-132944000D01*
X105557000Y-132944000D01*
X105557000Y-133198000D01*
X105537000Y-133198000D01*
X105537000Y-133218000D01*
X105283000Y-133218000D01*
X105283000Y-133198000D01*
X105263000Y-133198000D01*
X105263000Y-132944000D01*
X105283000Y-132944000D01*
X105283000Y-131880500D01*
X105219500Y-131817000D01*
X104634983Y-131817000D01*
X104585911Y-131826761D01*
X104539686Y-131845908D01*
X104498085Y-131873705D01*
X104471721Y-131900068D01*
X104449502Y-131826820D01*
X104390537Y-131716506D01*
X104311185Y-131619815D01*
X104214494Y-131540463D01*
X104104180Y-131481498D01*
X103984482Y-131445188D01*
X103860000Y-131432928D01*
X102360000Y-131432928D01*
X102235518Y-131445188D01*
X102115820Y-131481498D01*
X102005506Y-131540463D01*
X101908815Y-131619815D01*
X101829463Y-131716506D01*
X101770498Y-131826820D01*
X101734188Y-131946518D01*
X101733550Y-131953000D01*
X100711000Y-131953000D01*
X100711000Y-126961500D01*
X103256000Y-126961500D01*
X103256000Y-127796017D01*
X103265761Y-127845089D01*
X103284908Y-127891314D01*
X103312705Y-127932916D01*
X103348085Y-127968295D01*
X103389686Y-127996092D01*
X103435911Y-128015239D01*
X103484983Y-128025000D01*
X105219500Y-128025000D01*
X105283000Y-127961500D01*
X105283000Y-126898000D01*
X105537000Y-126898000D01*
X105537000Y-127961500D01*
X105600500Y-128025000D01*
X107335017Y-128025000D01*
X107384089Y-128015239D01*
X107430314Y-127996092D01*
X107471915Y-127968295D01*
X107507295Y-127932916D01*
X107535092Y-127891314D01*
X107554239Y-127845089D01*
X107564000Y-127796017D01*
X107564000Y-126961500D01*
X107500500Y-126898000D01*
X105537000Y-126898000D01*
X105283000Y-126898000D01*
X103319500Y-126898000D01*
X103256000Y-126961500D01*
X100711000Y-126961500D01*
X100711000Y-125745983D01*
X103256000Y-125745983D01*
X103256000Y-126580500D01*
X103319500Y-126644000D01*
X105283000Y-126644000D01*
X105283000Y-125580500D01*
X105537000Y-125580500D01*
X105537000Y-126644000D01*
X107500500Y-126644000D01*
X107564000Y-126580500D01*
X107564000Y-125745983D01*
X107554239Y-125696911D01*
X107535092Y-125650686D01*
X107507295Y-125609084D01*
X107471915Y-125573705D01*
X107430314Y-125545908D01*
X107384089Y-125526761D01*
X107335017Y-125517000D01*
X105600500Y-125517000D01*
X105537000Y-125580500D01*
X105283000Y-125580500D01*
X105219500Y-125517000D01*
X103484983Y-125517000D01*
X103435911Y-125526761D01*
X103389686Y-125545908D01*
X103348085Y-125573705D01*
X103312705Y-125609084D01*
X103284908Y-125650686D01*
X103265761Y-125696911D01*
X103256000Y-125745983D01*
X100711000Y-125745983D01*
X100711000Y-124079000D01*
X110109000Y-124079000D01*
X110109000Y-131953000D01*
G36*
X99949000Y-131953000D02*
G01*
X98926450Y-131953000D01*
X98925812Y-131946518D01*
X98889502Y-131826820D01*
X98830537Y-131716506D01*
X98751185Y-131619815D01*
X98654494Y-131540463D01*
X98544180Y-131481498D01*
X98424482Y-131445188D01*
X98300000Y-131432928D01*
X96800000Y-131432928D01*
X96675518Y-131445188D01*
X96555820Y-131481498D01*
X96445506Y-131540463D01*
X96348815Y-131619815D01*
X96269463Y-131716506D01*
X96210498Y-131826820D01*
X96188279Y-131900068D01*
X96161915Y-131873705D01*
X96120314Y-131845908D01*
X96074089Y-131826761D01*
X96025017Y-131817000D01*
X95440500Y-131817000D01*
X95377000Y-131880500D01*
X95377000Y-132944000D01*
X95397000Y-132944000D01*
X95397000Y-133198000D01*
X95377000Y-133198000D01*
X95377000Y-133218000D01*
X95123000Y-133218000D01*
X95123000Y-133198000D01*
X95103000Y-133198000D01*
X95103000Y-132944000D01*
X95123000Y-132944000D01*
X95123000Y-131880500D01*
X95059500Y-131817000D01*
X94474983Y-131817000D01*
X94425911Y-131826761D01*
X94379686Y-131845908D01*
X94338085Y-131873705D01*
X94311721Y-131900068D01*
X94289502Y-131826820D01*
X94230537Y-131716506D01*
X94151185Y-131619815D01*
X94054494Y-131540463D01*
X93944180Y-131481498D01*
X93824482Y-131445188D01*
X93700000Y-131432928D01*
X92200000Y-131432928D01*
X92075518Y-131445188D01*
X91955820Y-131481498D01*
X91845506Y-131540463D01*
X91748815Y-131619815D01*
X91669463Y-131716506D01*
X91610498Y-131826820D01*
X91574188Y-131946518D01*
X91573550Y-131953000D01*
X90551000Y-131953000D01*
X90551000Y-126961500D01*
X93096000Y-126961500D01*
X93096000Y-127796017D01*
X93105761Y-127845089D01*
X93124908Y-127891314D01*
X93152705Y-127932916D01*
X93188085Y-127968295D01*
X93229686Y-127996092D01*
X93275911Y-128015239D01*
X93324983Y-128025000D01*
X95059500Y-128025000D01*
X95123000Y-127961500D01*
X95123000Y-126898000D01*
X95377000Y-126898000D01*
X95377000Y-127961500D01*
X95440500Y-128025000D01*
X97175017Y-128025000D01*
X97224089Y-128015239D01*
X97270314Y-127996092D01*
X97311915Y-127968295D01*
X97347295Y-127932916D01*
X97375092Y-127891314D01*
X97394239Y-127845089D01*
X97404000Y-127796017D01*
X97404000Y-126961500D01*
X97340500Y-126898000D01*
X95377000Y-126898000D01*
X95123000Y-126898000D01*
X93159500Y-126898000D01*
X93096000Y-126961500D01*
X90551000Y-126961500D01*
X90551000Y-125745983D01*
X93096000Y-125745983D01*
X93096000Y-126580500D01*
X93159500Y-126644000D01*
X95123000Y-126644000D01*
X95123000Y-125580500D01*
X95377000Y-125580500D01*
X95377000Y-126644000D01*
X97340500Y-126644000D01*
X97404000Y-126580500D01*
X97404000Y-125745983D01*
X97394239Y-125696911D01*
X97375092Y-125650686D01*
X97347295Y-125609084D01*
X97311915Y-125573705D01*
X97270314Y-125545908D01*
X97224089Y-125526761D01*
X97175017Y-125517000D01*
X95440500Y-125517000D01*
X95377000Y-125580500D01*
X95123000Y-125580500D01*
X95059500Y-125517000D01*
X93324983Y-125517000D01*
X93275911Y-125526761D01*
X93229686Y-125545908D01*
X93188085Y-125573705D01*
X93152705Y-125609084D01*
X93124908Y-125650686D01*
X93105761Y-125696911D01*
X93096000Y-125745983D01*
X90551000Y-125745983D01*
X90551000Y-124079000D01*
X99949000Y-124079000D01*
X99949000Y-131953000D01*
X99949000Y-131953000D01*
G37*
X99949000Y-131953000D02*
X98926450Y-131953000D01*
X98925812Y-131946518D01*
X98889502Y-131826820D01*
X98830537Y-131716506D01*
X98751185Y-131619815D01*
X98654494Y-131540463D01*
X98544180Y-131481498D01*
X98424482Y-131445188D01*
X98300000Y-131432928D01*
X96800000Y-131432928D01*
X96675518Y-131445188D01*
X96555820Y-131481498D01*
X96445506Y-131540463D01*
X96348815Y-131619815D01*
X96269463Y-131716506D01*
X96210498Y-131826820D01*
X96188279Y-131900068D01*
X96161915Y-131873705D01*
X96120314Y-131845908D01*
X96074089Y-131826761D01*
X96025017Y-131817000D01*
X95440500Y-131817000D01*
X95377000Y-131880500D01*
X95377000Y-132944000D01*
X95397000Y-132944000D01*
X95397000Y-133198000D01*
X95377000Y-133198000D01*
X95377000Y-133218000D01*
X95123000Y-133218000D01*
X95123000Y-133198000D01*
X95103000Y-133198000D01*
X95103000Y-132944000D01*
X95123000Y-132944000D01*
X95123000Y-131880500D01*
X95059500Y-131817000D01*
X94474983Y-131817000D01*
X94425911Y-131826761D01*
X94379686Y-131845908D01*
X94338085Y-131873705D01*
X94311721Y-131900068D01*
X94289502Y-131826820D01*
X94230537Y-131716506D01*
X94151185Y-131619815D01*
X94054494Y-131540463D01*
X93944180Y-131481498D01*
X93824482Y-131445188D01*
X93700000Y-131432928D01*
X92200000Y-131432928D01*
X92075518Y-131445188D01*
X91955820Y-131481498D01*
X91845506Y-131540463D01*
X91748815Y-131619815D01*
X91669463Y-131716506D01*
X91610498Y-131826820D01*
X91574188Y-131946518D01*
X91573550Y-131953000D01*
X90551000Y-131953000D01*
X90551000Y-126961500D01*
X93096000Y-126961500D01*
X93096000Y-127796017D01*
X93105761Y-127845089D01*
X93124908Y-127891314D01*
X93152705Y-127932916D01*
X93188085Y-127968295D01*
X93229686Y-127996092D01*
X93275911Y-128015239D01*
X93324983Y-128025000D01*
X95059500Y-128025000D01*
X95123000Y-127961500D01*
X95123000Y-126898000D01*
X95377000Y-126898000D01*
X95377000Y-127961500D01*
X95440500Y-128025000D01*
X97175017Y-128025000D01*
X97224089Y-128015239D01*
X97270314Y-127996092D01*
X97311915Y-127968295D01*
X97347295Y-127932916D01*
X97375092Y-127891314D01*
X97394239Y-127845089D01*
X97404000Y-127796017D01*
X97404000Y-126961500D01*
X97340500Y-126898000D01*
X95377000Y-126898000D01*
X95123000Y-126898000D01*
X93159500Y-126898000D01*
X93096000Y-126961500D01*
X90551000Y-126961500D01*
X90551000Y-125745983D01*
X93096000Y-125745983D01*
X93096000Y-126580500D01*
X93159500Y-126644000D01*
X95123000Y-126644000D01*
X95123000Y-125580500D01*
X95377000Y-125580500D01*
X95377000Y-126644000D01*
X97340500Y-126644000D01*
X97404000Y-126580500D01*
X97404000Y-125745983D01*
X97394239Y-125696911D01*
X97375092Y-125650686D01*
X97347295Y-125609084D01*
X97311915Y-125573705D01*
X97270314Y-125545908D01*
X97224089Y-125526761D01*
X97175017Y-125517000D01*
X95440500Y-125517000D01*
X95377000Y-125580500D01*
X95123000Y-125580500D01*
X95059500Y-125517000D01*
X93324983Y-125517000D01*
X93275911Y-125526761D01*
X93229686Y-125545908D01*
X93188085Y-125573705D01*
X93152705Y-125609084D01*
X93124908Y-125650686D01*
X93105761Y-125696911D01*
X93096000Y-125745983D01*
X90551000Y-125745983D01*
X90551000Y-124079000D01*
X99949000Y-124079000D01*
X99949000Y-131953000D01*
G36*
X89789000Y-131953000D02*
G01*
X88766450Y-131953000D01*
X88765812Y-131946518D01*
X88729502Y-131826820D01*
X88670537Y-131716506D01*
X88591185Y-131619815D01*
X88494494Y-131540463D01*
X88384180Y-131481498D01*
X88264482Y-131445188D01*
X88140000Y-131432928D01*
X86640000Y-131432928D01*
X86515518Y-131445188D01*
X86395820Y-131481498D01*
X86285506Y-131540463D01*
X86188815Y-131619815D01*
X86109463Y-131716506D01*
X86050498Y-131826820D01*
X86028279Y-131900068D01*
X86001915Y-131873705D01*
X85960314Y-131845908D01*
X85914089Y-131826761D01*
X85865017Y-131817000D01*
X85280500Y-131817000D01*
X85217000Y-131880500D01*
X85217000Y-132944000D01*
X85237000Y-132944000D01*
X85237000Y-133198000D01*
X85217000Y-133198000D01*
X85217000Y-133218000D01*
X84963000Y-133218000D01*
X84963000Y-133198000D01*
X84943000Y-133198000D01*
X84943000Y-132944000D01*
X84963000Y-132944000D01*
X84963000Y-131880500D01*
X84899500Y-131817000D01*
X84314983Y-131817000D01*
X84265911Y-131826761D01*
X84219686Y-131845908D01*
X84178085Y-131873705D01*
X84151721Y-131900068D01*
X84129502Y-131826820D01*
X84070537Y-131716506D01*
X83991185Y-131619815D01*
X83894494Y-131540463D01*
X83784180Y-131481498D01*
X83664482Y-131445188D01*
X83540000Y-131432928D01*
X82040000Y-131432928D01*
X81915518Y-131445188D01*
X81795820Y-131481498D01*
X81685506Y-131540463D01*
X81588815Y-131619815D01*
X81509463Y-131716506D01*
X81450498Y-131826820D01*
X81414188Y-131946518D01*
X81413550Y-131953000D01*
X80391000Y-131953000D01*
X80391000Y-126961500D01*
X82936000Y-126961500D01*
X82936000Y-127796017D01*
X82945761Y-127845089D01*
X82964908Y-127891314D01*
X82992705Y-127932916D01*
X83028085Y-127968295D01*
X83069686Y-127996092D01*
X83115911Y-128015239D01*
X83164983Y-128025000D01*
X84899500Y-128025000D01*
X84963000Y-127961500D01*
X84963000Y-126898000D01*
X85217000Y-126898000D01*
X85217000Y-127961500D01*
X85280500Y-128025000D01*
X87015017Y-128025000D01*
X87064089Y-128015239D01*
X87110314Y-127996092D01*
X87151915Y-127968295D01*
X87187295Y-127932916D01*
X87215092Y-127891314D01*
X87234239Y-127845089D01*
X87244000Y-127796017D01*
X87244000Y-126961500D01*
X87180500Y-126898000D01*
X85217000Y-126898000D01*
X84963000Y-126898000D01*
X82999500Y-126898000D01*
X82936000Y-126961500D01*
X80391000Y-126961500D01*
X80391000Y-125745983D01*
X82936000Y-125745983D01*
X82936000Y-126580500D01*
X82999500Y-126644000D01*
X84963000Y-126644000D01*
X84963000Y-125580500D01*
X85217000Y-125580500D01*
X85217000Y-126644000D01*
X87180500Y-126644000D01*
X87244000Y-126580500D01*
X87244000Y-125745983D01*
X87234239Y-125696911D01*
X87215092Y-125650686D01*
X87187295Y-125609084D01*
X87151915Y-125573705D01*
X87110314Y-125545908D01*
X87064089Y-125526761D01*
X87015017Y-125517000D01*
X85280500Y-125517000D01*
X85217000Y-125580500D01*
X84963000Y-125580500D01*
X84899500Y-125517000D01*
X83164983Y-125517000D01*
X83115911Y-125526761D01*
X83069686Y-125545908D01*
X83028085Y-125573705D01*
X82992705Y-125609084D01*
X82964908Y-125650686D01*
X82945761Y-125696911D01*
X82936000Y-125745983D01*
X80391000Y-125745983D01*
X80391000Y-124079000D01*
X89789000Y-124079000D01*
X89789000Y-131953000D01*
X89789000Y-131953000D01*
G37*
X89789000Y-131953000D02*
X88766450Y-131953000D01*
X88765812Y-131946518D01*
X88729502Y-131826820D01*
X88670537Y-131716506D01*
X88591185Y-131619815D01*
X88494494Y-131540463D01*
X88384180Y-131481498D01*
X88264482Y-131445188D01*
X88140000Y-131432928D01*
X86640000Y-131432928D01*
X86515518Y-131445188D01*
X86395820Y-131481498D01*
X86285506Y-131540463D01*
X86188815Y-131619815D01*
X86109463Y-131716506D01*
X86050498Y-131826820D01*
X86028279Y-131900068D01*
X86001915Y-131873705D01*
X85960314Y-131845908D01*
X85914089Y-131826761D01*
X85865017Y-131817000D01*
X85280500Y-131817000D01*
X85217000Y-131880500D01*
X85217000Y-132944000D01*
X85237000Y-132944000D01*
X85237000Y-133198000D01*
X85217000Y-133198000D01*
X85217000Y-133218000D01*
X84963000Y-133218000D01*
X84963000Y-133198000D01*
X84943000Y-133198000D01*
X84943000Y-132944000D01*
X84963000Y-132944000D01*
X84963000Y-131880500D01*
X84899500Y-131817000D01*
X84314983Y-131817000D01*
X84265911Y-131826761D01*
X84219686Y-131845908D01*
X84178085Y-131873705D01*
X84151721Y-131900068D01*
X84129502Y-131826820D01*
X84070537Y-131716506D01*
X83991185Y-131619815D01*
X83894494Y-131540463D01*
X83784180Y-131481498D01*
X83664482Y-131445188D01*
X83540000Y-131432928D01*
X82040000Y-131432928D01*
X81915518Y-131445188D01*
X81795820Y-131481498D01*
X81685506Y-131540463D01*
X81588815Y-131619815D01*
X81509463Y-131716506D01*
X81450498Y-131826820D01*
X81414188Y-131946518D01*
X81413550Y-131953000D01*
X80391000Y-131953000D01*
X80391000Y-126961500D01*
X82936000Y-126961500D01*
X82936000Y-127796017D01*
X82945761Y-127845089D01*
X82964908Y-127891314D01*
X82992705Y-127932916D01*
X83028085Y-127968295D01*
X83069686Y-127996092D01*
X83115911Y-128015239D01*
X83164983Y-128025000D01*
X84899500Y-128025000D01*
X84963000Y-127961500D01*
X84963000Y-126898000D01*
X85217000Y-126898000D01*
X85217000Y-127961500D01*
X85280500Y-128025000D01*
X87015017Y-128025000D01*
X87064089Y-128015239D01*
X87110314Y-127996092D01*
X87151915Y-127968295D01*
X87187295Y-127932916D01*
X87215092Y-127891314D01*
X87234239Y-127845089D01*
X87244000Y-127796017D01*
X87244000Y-126961500D01*
X87180500Y-126898000D01*
X85217000Y-126898000D01*
X84963000Y-126898000D01*
X82999500Y-126898000D01*
X82936000Y-126961500D01*
X80391000Y-126961500D01*
X80391000Y-125745983D01*
X82936000Y-125745983D01*
X82936000Y-126580500D01*
X82999500Y-126644000D01*
X84963000Y-126644000D01*
X84963000Y-125580500D01*
X85217000Y-125580500D01*
X85217000Y-126644000D01*
X87180500Y-126644000D01*
X87244000Y-126580500D01*
X87244000Y-125745983D01*
X87234239Y-125696911D01*
X87215092Y-125650686D01*
X87187295Y-125609084D01*
X87151915Y-125573705D01*
X87110314Y-125545908D01*
X87064089Y-125526761D01*
X87015017Y-125517000D01*
X85280500Y-125517000D01*
X85217000Y-125580500D01*
X84963000Y-125580500D01*
X84899500Y-125517000D01*
X83164983Y-125517000D01*
X83115911Y-125526761D01*
X83069686Y-125545908D01*
X83028085Y-125573705D01*
X82992705Y-125609084D01*
X82964908Y-125650686D01*
X82945761Y-125696911D01*
X82936000Y-125745983D01*
X80391000Y-125745983D01*
X80391000Y-124079000D01*
X89789000Y-124079000D01*
X89789000Y-131953000D01*
G36*
X79629000Y-131953000D02*
G01*
X78606450Y-131953000D01*
X78605812Y-131946518D01*
X78569502Y-131826820D01*
X78510537Y-131716506D01*
X78431185Y-131619815D01*
X78334494Y-131540463D01*
X78224180Y-131481498D01*
X78104482Y-131445188D01*
X77980000Y-131432928D01*
X76480000Y-131432928D01*
X76355518Y-131445188D01*
X76235820Y-131481498D01*
X76125506Y-131540463D01*
X76028815Y-131619815D01*
X75949463Y-131716506D01*
X75890498Y-131826820D01*
X75868279Y-131900068D01*
X75841915Y-131873705D01*
X75800314Y-131845908D01*
X75754089Y-131826761D01*
X75705017Y-131817000D01*
X75120500Y-131817000D01*
X75057000Y-131880500D01*
X75057000Y-132944000D01*
X75077000Y-132944000D01*
X75077000Y-133198000D01*
X75057000Y-133198000D01*
X75057000Y-133218000D01*
X74803000Y-133218000D01*
X74803000Y-133198000D01*
X74783000Y-133198000D01*
X74783000Y-132944000D01*
X74803000Y-132944000D01*
X74803000Y-131880500D01*
X74739500Y-131817000D01*
X74154983Y-131817000D01*
X74105911Y-131826761D01*
X74059686Y-131845908D01*
X74018085Y-131873705D01*
X73991721Y-131900068D01*
X73969502Y-131826820D01*
X73910537Y-131716506D01*
X73831185Y-131619815D01*
X73734494Y-131540463D01*
X73624180Y-131481498D01*
X73504482Y-131445188D01*
X73380000Y-131432928D01*
X71880000Y-131432928D01*
X71755518Y-131445188D01*
X71635820Y-131481498D01*
X71525506Y-131540463D01*
X71428815Y-131619815D01*
X71349463Y-131716506D01*
X71290498Y-131826820D01*
X71254188Y-131946518D01*
X71253550Y-131953000D01*
X70231000Y-131953000D01*
X70231000Y-126961500D01*
X72776000Y-126961500D01*
X72776000Y-127796017D01*
X72785761Y-127845089D01*
X72804908Y-127891314D01*
X72832705Y-127932916D01*
X72868085Y-127968295D01*
X72909686Y-127996092D01*
X72955911Y-128015239D01*
X73004983Y-128025000D01*
X74739500Y-128025000D01*
X74803000Y-127961500D01*
X74803000Y-126898000D01*
X75057000Y-126898000D01*
X75057000Y-127961500D01*
X75120500Y-128025000D01*
X76855017Y-128025000D01*
X76904089Y-128015239D01*
X76950314Y-127996092D01*
X76991915Y-127968295D01*
X77027295Y-127932916D01*
X77055092Y-127891314D01*
X77074239Y-127845089D01*
X77084000Y-127796017D01*
X77084000Y-126961500D01*
X77020500Y-126898000D01*
X75057000Y-126898000D01*
X74803000Y-126898000D01*
X72839500Y-126898000D01*
X72776000Y-126961500D01*
X70231000Y-126961500D01*
X70231000Y-125745983D01*
X72776000Y-125745983D01*
X72776000Y-126580500D01*
X72839500Y-126644000D01*
X74803000Y-126644000D01*
X74803000Y-125580500D01*
X75057000Y-125580500D01*
X75057000Y-126644000D01*
X77020500Y-126644000D01*
X77084000Y-126580500D01*
X77084000Y-125745983D01*
X77074239Y-125696911D01*
X77055092Y-125650686D01*
X77027295Y-125609084D01*
X76991915Y-125573705D01*
X76950314Y-125545908D01*
X76904089Y-125526761D01*
X76855017Y-125517000D01*
X75120500Y-125517000D01*
X75057000Y-125580500D01*
X74803000Y-125580500D01*
X74739500Y-125517000D01*
X73004983Y-125517000D01*
X72955911Y-125526761D01*
X72909686Y-125545908D01*
X72868085Y-125573705D01*
X72832705Y-125609084D01*
X72804908Y-125650686D01*
X72785761Y-125696911D01*
X72776000Y-125745983D01*
X70231000Y-125745983D01*
X70231000Y-124079000D01*
X79629000Y-124079000D01*
X79629000Y-131953000D01*
X79629000Y-131953000D01*
G37*
X79629000Y-131953000D02*
X78606450Y-131953000D01*
X78605812Y-131946518D01*
X78569502Y-131826820D01*
X78510537Y-131716506D01*
X78431185Y-131619815D01*
X78334494Y-131540463D01*
X78224180Y-131481498D01*
X78104482Y-131445188D01*
X77980000Y-131432928D01*
X76480000Y-131432928D01*
X76355518Y-131445188D01*
X76235820Y-131481498D01*
X76125506Y-131540463D01*
X76028815Y-131619815D01*
X75949463Y-131716506D01*
X75890498Y-131826820D01*
X75868279Y-131900068D01*
X75841915Y-131873705D01*
X75800314Y-131845908D01*
X75754089Y-131826761D01*
X75705017Y-131817000D01*
X75120500Y-131817000D01*
X75057000Y-131880500D01*
X75057000Y-132944000D01*
X75077000Y-132944000D01*
X75077000Y-133198000D01*
X75057000Y-133198000D01*
X75057000Y-133218000D01*
X74803000Y-133218000D01*
X74803000Y-133198000D01*
X74783000Y-133198000D01*
X74783000Y-132944000D01*
X74803000Y-132944000D01*
X74803000Y-131880500D01*
X74739500Y-131817000D01*
X74154983Y-131817000D01*
X74105911Y-131826761D01*
X74059686Y-131845908D01*
X74018085Y-131873705D01*
X73991721Y-131900068D01*
X73969502Y-131826820D01*
X73910537Y-131716506D01*
X73831185Y-131619815D01*
X73734494Y-131540463D01*
X73624180Y-131481498D01*
X73504482Y-131445188D01*
X73380000Y-131432928D01*
X71880000Y-131432928D01*
X71755518Y-131445188D01*
X71635820Y-131481498D01*
X71525506Y-131540463D01*
X71428815Y-131619815D01*
X71349463Y-131716506D01*
X71290498Y-131826820D01*
X71254188Y-131946518D01*
X71253550Y-131953000D01*
X70231000Y-131953000D01*
X70231000Y-126961500D01*
X72776000Y-126961500D01*
X72776000Y-127796017D01*
X72785761Y-127845089D01*
X72804908Y-127891314D01*
X72832705Y-127932916D01*
X72868085Y-127968295D01*
X72909686Y-127996092D01*
X72955911Y-128015239D01*
X73004983Y-128025000D01*
X74739500Y-128025000D01*
X74803000Y-127961500D01*
X74803000Y-126898000D01*
X75057000Y-126898000D01*
X75057000Y-127961500D01*
X75120500Y-128025000D01*
X76855017Y-128025000D01*
X76904089Y-128015239D01*
X76950314Y-127996092D01*
X76991915Y-127968295D01*
X77027295Y-127932916D01*
X77055092Y-127891314D01*
X77074239Y-127845089D01*
X77084000Y-127796017D01*
X77084000Y-126961500D01*
X77020500Y-126898000D01*
X75057000Y-126898000D01*
X74803000Y-126898000D01*
X72839500Y-126898000D01*
X72776000Y-126961500D01*
X70231000Y-126961500D01*
X70231000Y-125745983D01*
X72776000Y-125745983D01*
X72776000Y-126580500D01*
X72839500Y-126644000D01*
X74803000Y-126644000D01*
X74803000Y-125580500D01*
X75057000Y-125580500D01*
X75057000Y-126644000D01*
X77020500Y-126644000D01*
X77084000Y-126580500D01*
X77084000Y-125745983D01*
X77074239Y-125696911D01*
X77055092Y-125650686D01*
X77027295Y-125609084D01*
X76991915Y-125573705D01*
X76950314Y-125545908D01*
X76904089Y-125526761D01*
X76855017Y-125517000D01*
X75120500Y-125517000D01*
X75057000Y-125580500D01*
X74803000Y-125580500D01*
X74739500Y-125517000D01*
X73004983Y-125517000D01*
X72955911Y-125526761D01*
X72909686Y-125545908D01*
X72868085Y-125573705D01*
X72832705Y-125609084D01*
X72804908Y-125650686D01*
X72785761Y-125696911D01*
X72776000Y-125745983D01*
X70231000Y-125745983D01*
X70231000Y-124079000D01*
X79629000Y-124079000D01*
X79629000Y-131953000D01*
G36*
X69469000Y-131953000D02*
G01*
X68446450Y-131953000D01*
X68445812Y-131946518D01*
X68409502Y-131826820D01*
X68350537Y-131716506D01*
X68271185Y-131619815D01*
X68174494Y-131540463D01*
X68064180Y-131481498D01*
X67944482Y-131445188D01*
X67820000Y-131432928D01*
X66320000Y-131432928D01*
X66195518Y-131445188D01*
X66075820Y-131481498D01*
X65965506Y-131540463D01*
X65868815Y-131619815D01*
X65789463Y-131716506D01*
X65730498Y-131826820D01*
X65708279Y-131900068D01*
X65681915Y-131873705D01*
X65640314Y-131845908D01*
X65594089Y-131826761D01*
X65545017Y-131817000D01*
X64960500Y-131817000D01*
X64897000Y-131880500D01*
X64897000Y-132944000D01*
X64917000Y-132944000D01*
X64917000Y-133198000D01*
X64897000Y-133198000D01*
X64897000Y-133218000D01*
X64643000Y-133218000D01*
X64643000Y-133198000D01*
X64623000Y-133198000D01*
X64623000Y-132944000D01*
X64643000Y-132944000D01*
X64643000Y-131880500D01*
X64579500Y-131817000D01*
X63994983Y-131817000D01*
X63945911Y-131826761D01*
X63899686Y-131845908D01*
X63858085Y-131873705D01*
X63831721Y-131900068D01*
X63809502Y-131826820D01*
X63750537Y-131716506D01*
X63671185Y-131619815D01*
X63574494Y-131540463D01*
X63464180Y-131481498D01*
X63344482Y-131445188D01*
X63220000Y-131432928D01*
X61720000Y-131432928D01*
X61595518Y-131445188D01*
X61475820Y-131481498D01*
X61365506Y-131540463D01*
X61268815Y-131619815D01*
X61189463Y-131716506D01*
X61130498Y-131826820D01*
X61094188Y-131946518D01*
X61093550Y-131953000D01*
X60071000Y-131953000D01*
X60071000Y-126961500D01*
X62616000Y-126961500D01*
X62616000Y-127796017D01*
X62625761Y-127845089D01*
X62644908Y-127891314D01*
X62672705Y-127932916D01*
X62708085Y-127968295D01*
X62749686Y-127996092D01*
X62795911Y-128015239D01*
X62844983Y-128025000D01*
X64579500Y-128025000D01*
X64643000Y-127961500D01*
X64643000Y-126898000D01*
X64897000Y-126898000D01*
X64897000Y-127961500D01*
X64960500Y-128025000D01*
X66695017Y-128025000D01*
X66744089Y-128015239D01*
X66790314Y-127996092D01*
X66831915Y-127968295D01*
X66867295Y-127932916D01*
X66895092Y-127891314D01*
X66914239Y-127845089D01*
X66924000Y-127796017D01*
X66924000Y-126961500D01*
X66860500Y-126898000D01*
X64897000Y-126898000D01*
X64643000Y-126898000D01*
X62679500Y-126898000D01*
X62616000Y-126961500D01*
X60071000Y-126961500D01*
X60071000Y-125745983D01*
X62616000Y-125745983D01*
X62616000Y-126580500D01*
X62679500Y-126644000D01*
X64643000Y-126644000D01*
X64643000Y-125580500D01*
X64897000Y-125580500D01*
X64897000Y-126644000D01*
X66860500Y-126644000D01*
X66924000Y-126580500D01*
X66924000Y-125745983D01*
X66914239Y-125696911D01*
X66895092Y-125650686D01*
X66867295Y-125609084D01*
X66831915Y-125573705D01*
X66790314Y-125545908D01*
X66744089Y-125526761D01*
X66695017Y-125517000D01*
X64960500Y-125517000D01*
X64897000Y-125580500D01*
X64643000Y-125580500D01*
X64579500Y-125517000D01*
X62844983Y-125517000D01*
X62795911Y-125526761D01*
X62749686Y-125545908D01*
X62708085Y-125573705D01*
X62672705Y-125609084D01*
X62644908Y-125650686D01*
X62625761Y-125696911D01*
X62616000Y-125745983D01*
X60071000Y-125745983D01*
X60071000Y-124079000D01*
X69469000Y-124079000D01*
X69469000Y-131953000D01*
X69469000Y-131953000D01*
G37*
X69469000Y-131953000D02*
X68446450Y-131953000D01*
X68445812Y-131946518D01*
X68409502Y-131826820D01*
X68350537Y-131716506D01*
X68271185Y-131619815D01*
X68174494Y-131540463D01*
X68064180Y-131481498D01*
X67944482Y-131445188D01*
X67820000Y-131432928D01*
X66320000Y-131432928D01*
X66195518Y-131445188D01*
X66075820Y-131481498D01*
X65965506Y-131540463D01*
X65868815Y-131619815D01*
X65789463Y-131716506D01*
X65730498Y-131826820D01*
X65708279Y-131900068D01*
X65681915Y-131873705D01*
X65640314Y-131845908D01*
X65594089Y-131826761D01*
X65545017Y-131817000D01*
X64960500Y-131817000D01*
X64897000Y-131880500D01*
X64897000Y-132944000D01*
X64917000Y-132944000D01*
X64917000Y-133198000D01*
X64897000Y-133198000D01*
X64897000Y-133218000D01*
X64643000Y-133218000D01*
X64643000Y-133198000D01*
X64623000Y-133198000D01*
X64623000Y-132944000D01*
X64643000Y-132944000D01*
X64643000Y-131880500D01*
X64579500Y-131817000D01*
X63994983Y-131817000D01*
X63945911Y-131826761D01*
X63899686Y-131845908D01*
X63858085Y-131873705D01*
X63831721Y-131900068D01*
X63809502Y-131826820D01*
X63750537Y-131716506D01*
X63671185Y-131619815D01*
X63574494Y-131540463D01*
X63464180Y-131481498D01*
X63344482Y-131445188D01*
X63220000Y-131432928D01*
X61720000Y-131432928D01*
X61595518Y-131445188D01*
X61475820Y-131481498D01*
X61365506Y-131540463D01*
X61268815Y-131619815D01*
X61189463Y-131716506D01*
X61130498Y-131826820D01*
X61094188Y-131946518D01*
X61093550Y-131953000D01*
X60071000Y-131953000D01*
X60071000Y-126961500D01*
X62616000Y-126961500D01*
X62616000Y-127796017D01*
X62625761Y-127845089D01*
X62644908Y-127891314D01*
X62672705Y-127932916D01*
X62708085Y-127968295D01*
X62749686Y-127996092D01*
X62795911Y-128015239D01*
X62844983Y-128025000D01*
X64579500Y-128025000D01*
X64643000Y-127961500D01*
X64643000Y-126898000D01*
X64897000Y-126898000D01*
X64897000Y-127961500D01*
X64960500Y-128025000D01*
X66695017Y-128025000D01*
X66744089Y-128015239D01*
X66790314Y-127996092D01*
X66831915Y-127968295D01*
X66867295Y-127932916D01*
X66895092Y-127891314D01*
X66914239Y-127845089D01*
X66924000Y-127796017D01*
X66924000Y-126961500D01*
X66860500Y-126898000D01*
X64897000Y-126898000D01*
X64643000Y-126898000D01*
X62679500Y-126898000D01*
X62616000Y-126961500D01*
X60071000Y-126961500D01*
X60071000Y-125745983D01*
X62616000Y-125745983D01*
X62616000Y-126580500D01*
X62679500Y-126644000D01*
X64643000Y-126644000D01*
X64643000Y-125580500D01*
X64897000Y-125580500D01*
X64897000Y-126644000D01*
X66860500Y-126644000D01*
X66924000Y-126580500D01*
X66924000Y-125745983D01*
X66914239Y-125696911D01*
X66895092Y-125650686D01*
X66867295Y-125609084D01*
X66831915Y-125573705D01*
X66790314Y-125545908D01*
X66744089Y-125526761D01*
X66695017Y-125517000D01*
X64960500Y-125517000D01*
X64897000Y-125580500D01*
X64643000Y-125580500D01*
X64579500Y-125517000D01*
X62844983Y-125517000D01*
X62795911Y-125526761D01*
X62749686Y-125545908D01*
X62708085Y-125573705D01*
X62672705Y-125609084D01*
X62644908Y-125650686D01*
X62625761Y-125696911D01*
X62616000Y-125745983D01*
X60071000Y-125745983D01*
X60071000Y-124079000D01*
X69469000Y-124079000D01*
X69469000Y-131953000D01*
G36*
X59309000Y-131953000D02*
G01*
X58286450Y-131953000D01*
X58285812Y-131946518D01*
X58249502Y-131826820D01*
X58190537Y-131716506D01*
X58111185Y-131619815D01*
X58014494Y-131540463D01*
X57904180Y-131481498D01*
X57784482Y-131445188D01*
X57660000Y-131432928D01*
X56160000Y-131432928D01*
X56035518Y-131445188D01*
X55915820Y-131481498D01*
X55805506Y-131540463D01*
X55708815Y-131619815D01*
X55629463Y-131716506D01*
X55570498Y-131826820D01*
X55548279Y-131900068D01*
X55521915Y-131873705D01*
X55480314Y-131845908D01*
X55434089Y-131826761D01*
X55385017Y-131817000D01*
X54800500Y-131817000D01*
X54737000Y-131880500D01*
X54737000Y-132944000D01*
X54757000Y-132944000D01*
X54757000Y-133198000D01*
X54737000Y-133198000D01*
X54737000Y-133218000D01*
X54483000Y-133218000D01*
X54483000Y-133198000D01*
X54463000Y-133198000D01*
X54463000Y-132944000D01*
X54483000Y-132944000D01*
X54483000Y-131880500D01*
X54419500Y-131817000D01*
X53834983Y-131817000D01*
X53785911Y-131826761D01*
X53739686Y-131845908D01*
X53698085Y-131873705D01*
X53671721Y-131900068D01*
X53649502Y-131826820D01*
X53590537Y-131716506D01*
X53511185Y-131619815D01*
X53414494Y-131540463D01*
X53304180Y-131481498D01*
X53184482Y-131445188D01*
X53060000Y-131432928D01*
X51560000Y-131432928D01*
X51435518Y-131445188D01*
X51315820Y-131481498D01*
X51205506Y-131540463D01*
X51108815Y-131619815D01*
X51029463Y-131716506D01*
X50970498Y-131826820D01*
X50934188Y-131946518D01*
X50933550Y-131953000D01*
X49911000Y-131953000D01*
X49911000Y-126961500D01*
X52456000Y-126961500D01*
X52456000Y-127796017D01*
X52465761Y-127845089D01*
X52484908Y-127891314D01*
X52512705Y-127932916D01*
X52548085Y-127968295D01*
X52589686Y-127996092D01*
X52635911Y-128015239D01*
X52684983Y-128025000D01*
X54419500Y-128025000D01*
X54483000Y-127961500D01*
X54483000Y-126898000D01*
X54737000Y-126898000D01*
X54737000Y-127961500D01*
X54800500Y-128025000D01*
X56535017Y-128025000D01*
X56584089Y-128015239D01*
X56630314Y-127996092D01*
X56671915Y-127968295D01*
X56707295Y-127932916D01*
X56735092Y-127891314D01*
X56754239Y-127845089D01*
X56764000Y-127796017D01*
X56764000Y-126961500D01*
X56700500Y-126898000D01*
X54737000Y-126898000D01*
X54483000Y-126898000D01*
X52519500Y-126898000D01*
X52456000Y-126961500D01*
X49911000Y-126961500D01*
X49911000Y-125745983D01*
X52456000Y-125745983D01*
X52456000Y-126580500D01*
X52519500Y-126644000D01*
X54483000Y-126644000D01*
X54483000Y-125580500D01*
X54737000Y-125580500D01*
X54737000Y-126644000D01*
X56700500Y-126644000D01*
X56764000Y-126580500D01*
X56764000Y-125745983D01*
X56754239Y-125696911D01*
X56735092Y-125650686D01*
X56707295Y-125609084D01*
X56671915Y-125573705D01*
X56630314Y-125545908D01*
X56584089Y-125526761D01*
X56535017Y-125517000D01*
X54800500Y-125517000D01*
X54737000Y-125580500D01*
X54483000Y-125580500D01*
X54419500Y-125517000D01*
X52684983Y-125517000D01*
X52635911Y-125526761D01*
X52589686Y-125545908D01*
X52548085Y-125573705D01*
X52512705Y-125609084D01*
X52484908Y-125650686D01*
X52465761Y-125696911D01*
X52456000Y-125745983D01*
X49911000Y-125745983D01*
X49911000Y-124079000D01*
X59309000Y-124079000D01*
X59309000Y-131953000D01*
X59309000Y-131953000D01*
G37*
X59309000Y-131953000D02*
X58286450Y-131953000D01*
X58285812Y-131946518D01*
X58249502Y-131826820D01*
X58190537Y-131716506D01*
X58111185Y-131619815D01*
X58014494Y-131540463D01*
X57904180Y-131481498D01*
X57784482Y-131445188D01*
X57660000Y-131432928D01*
X56160000Y-131432928D01*
X56035518Y-131445188D01*
X55915820Y-131481498D01*
X55805506Y-131540463D01*
X55708815Y-131619815D01*
X55629463Y-131716506D01*
X55570498Y-131826820D01*
X55548279Y-131900068D01*
X55521915Y-131873705D01*
X55480314Y-131845908D01*
X55434089Y-131826761D01*
X55385017Y-131817000D01*
X54800500Y-131817000D01*
X54737000Y-131880500D01*
X54737000Y-132944000D01*
X54757000Y-132944000D01*
X54757000Y-133198000D01*
X54737000Y-133198000D01*
X54737000Y-133218000D01*
X54483000Y-133218000D01*
X54483000Y-133198000D01*
X54463000Y-133198000D01*
X54463000Y-132944000D01*
X54483000Y-132944000D01*
X54483000Y-131880500D01*
X54419500Y-131817000D01*
X53834983Y-131817000D01*
X53785911Y-131826761D01*
X53739686Y-131845908D01*
X53698085Y-131873705D01*
X53671721Y-131900068D01*
X53649502Y-131826820D01*
X53590537Y-131716506D01*
X53511185Y-131619815D01*
X53414494Y-131540463D01*
X53304180Y-131481498D01*
X53184482Y-131445188D01*
X53060000Y-131432928D01*
X51560000Y-131432928D01*
X51435518Y-131445188D01*
X51315820Y-131481498D01*
X51205506Y-131540463D01*
X51108815Y-131619815D01*
X51029463Y-131716506D01*
X50970498Y-131826820D01*
X50934188Y-131946518D01*
X50933550Y-131953000D01*
X49911000Y-131953000D01*
X49911000Y-126961500D01*
X52456000Y-126961500D01*
X52456000Y-127796017D01*
X52465761Y-127845089D01*
X52484908Y-127891314D01*
X52512705Y-127932916D01*
X52548085Y-127968295D01*
X52589686Y-127996092D01*
X52635911Y-128015239D01*
X52684983Y-128025000D01*
X54419500Y-128025000D01*
X54483000Y-127961500D01*
X54483000Y-126898000D01*
X54737000Y-126898000D01*
X54737000Y-127961500D01*
X54800500Y-128025000D01*
X56535017Y-128025000D01*
X56584089Y-128015239D01*
X56630314Y-127996092D01*
X56671915Y-127968295D01*
X56707295Y-127932916D01*
X56735092Y-127891314D01*
X56754239Y-127845089D01*
X56764000Y-127796017D01*
X56764000Y-126961500D01*
X56700500Y-126898000D01*
X54737000Y-126898000D01*
X54483000Y-126898000D01*
X52519500Y-126898000D01*
X52456000Y-126961500D01*
X49911000Y-126961500D01*
X49911000Y-125745983D01*
X52456000Y-125745983D01*
X52456000Y-126580500D01*
X52519500Y-126644000D01*
X54483000Y-126644000D01*
X54483000Y-125580500D01*
X54737000Y-125580500D01*
X54737000Y-126644000D01*
X56700500Y-126644000D01*
X56764000Y-126580500D01*
X56764000Y-125745983D01*
X56754239Y-125696911D01*
X56735092Y-125650686D01*
X56707295Y-125609084D01*
X56671915Y-125573705D01*
X56630314Y-125545908D01*
X56584089Y-125526761D01*
X56535017Y-125517000D01*
X54800500Y-125517000D01*
X54737000Y-125580500D01*
X54483000Y-125580500D01*
X54419500Y-125517000D01*
X52684983Y-125517000D01*
X52635911Y-125526761D01*
X52589686Y-125545908D01*
X52548085Y-125573705D01*
X52512705Y-125609084D01*
X52484908Y-125650686D01*
X52465761Y-125696911D01*
X52456000Y-125745983D01*
X49911000Y-125745983D01*
X49911000Y-124079000D01*
X59309000Y-124079000D01*
X59309000Y-131953000D01*
G36*
X49149000Y-131953000D02*
G01*
X48126450Y-131953000D01*
X48125812Y-131946518D01*
X48089502Y-131826820D01*
X48030537Y-131716506D01*
X47951185Y-131619815D01*
X47854494Y-131540463D01*
X47744180Y-131481498D01*
X47624482Y-131445188D01*
X47500000Y-131432928D01*
X46000000Y-131432928D01*
X45875518Y-131445188D01*
X45755820Y-131481498D01*
X45645506Y-131540463D01*
X45548815Y-131619815D01*
X45469463Y-131716506D01*
X45410498Y-131826820D01*
X45388279Y-131900068D01*
X45361915Y-131873705D01*
X45320314Y-131845908D01*
X45274089Y-131826761D01*
X45225017Y-131817000D01*
X44640500Y-131817000D01*
X44577000Y-131880500D01*
X44577000Y-132944000D01*
X44597000Y-132944000D01*
X44597000Y-133198000D01*
X44577000Y-133198000D01*
X44577000Y-133218000D01*
X44323000Y-133218000D01*
X44323000Y-133198000D01*
X44303000Y-133198000D01*
X44303000Y-132944000D01*
X44323000Y-132944000D01*
X44323000Y-131880500D01*
X44259500Y-131817000D01*
X43674983Y-131817000D01*
X43625911Y-131826761D01*
X43579686Y-131845908D01*
X43538085Y-131873705D01*
X43511721Y-131900068D01*
X43489502Y-131826820D01*
X43430537Y-131716506D01*
X43351185Y-131619815D01*
X43254494Y-131540463D01*
X43144180Y-131481498D01*
X43024482Y-131445188D01*
X42900000Y-131432928D01*
X41400000Y-131432928D01*
X41275518Y-131445188D01*
X41155820Y-131481498D01*
X41045506Y-131540463D01*
X40948815Y-131619815D01*
X40869463Y-131716506D01*
X40810498Y-131826820D01*
X40774188Y-131946518D01*
X40773550Y-131953000D01*
X39751000Y-131953000D01*
X39751000Y-126961500D01*
X42296000Y-126961500D01*
X42296000Y-127796017D01*
X42305761Y-127845089D01*
X42324908Y-127891314D01*
X42352705Y-127932916D01*
X42388085Y-127968295D01*
X42429686Y-127996092D01*
X42475911Y-128015239D01*
X42524983Y-128025000D01*
X44259500Y-128025000D01*
X44323000Y-127961500D01*
X44323000Y-126898000D01*
X44577000Y-126898000D01*
X44577000Y-127961500D01*
X44640500Y-128025000D01*
X46375017Y-128025000D01*
X46424089Y-128015239D01*
X46470314Y-127996092D01*
X46511915Y-127968295D01*
X46547295Y-127932916D01*
X46575092Y-127891314D01*
X46594239Y-127845089D01*
X46604000Y-127796017D01*
X46604000Y-126961500D01*
X46540500Y-126898000D01*
X44577000Y-126898000D01*
X44323000Y-126898000D01*
X42359500Y-126898000D01*
X42296000Y-126961500D01*
X39751000Y-126961500D01*
X39751000Y-125745983D01*
X42296000Y-125745983D01*
X42296000Y-126580500D01*
X42359500Y-126644000D01*
X44323000Y-126644000D01*
X44323000Y-125580500D01*
X44577000Y-125580500D01*
X44577000Y-126644000D01*
X46540500Y-126644000D01*
X46604000Y-126580500D01*
X46604000Y-125745983D01*
X46594239Y-125696911D01*
X46575092Y-125650686D01*
X46547295Y-125609084D01*
X46511915Y-125573705D01*
X46470314Y-125545908D01*
X46424089Y-125526761D01*
X46375017Y-125517000D01*
X44640500Y-125517000D01*
X44577000Y-125580500D01*
X44323000Y-125580500D01*
X44259500Y-125517000D01*
X42524983Y-125517000D01*
X42475911Y-125526761D01*
X42429686Y-125545908D01*
X42388085Y-125573705D01*
X42352705Y-125609084D01*
X42324908Y-125650686D01*
X42305761Y-125696911D01*
X42296000Y-125745983D01*
X39751000Y-125745983D01*
X39751000Y-124079000D01*
X49149000Y-124079000D01*
X49149000Y-131953000D01*
X49149000Y-131953000D01*
G37*
X49149000Y-131953000D02*
X48126450Y-131953000D01*
X48125812Y-131946518D01*
X48089502Y-131826820D01*
X48030537Y-131716506D01*
X47951185Y-131619815D01*
X47854494Y-131540463D01*
X47744180Y-131481498D01*
X47624482Y-131445188D01*
X47500000Y-131432928D01*
X46000000Y-131432928D01*
X45875518Y-131445188D01*
X45755820Y-131481498D01*
X45645506Y-131540463D01*
X45548815Y-131619815D01*
X45469463Y-131716506D01*
X45410498Y-131826820D01*
X45388279Y-131900068D01*
X45361915Y-131873705D01*
X45320314Y-131845908D01*
X45274089Y-131826761D01*
X45225017Y-131817000D01*
X44640500Y-131817000D01*
X44577000Y-131880500D01*
X44577000Y-132944000D01*
X44597000Y-132944000D01*
X44597000Y-133198000D01*
X44577000Y-133198000D01*
X44577000Y-133218000D01*
X44323000Y-133218000D01*
X44323000Y-133198000D01*
X44303000Y-133198000D01*
X44303000Y-132944000D01*
X44323000Y-132944000D01*
X44323000Y-131880500D01*
X44259500Y-131817000D01*
X43674983Y-131817000D01*
X43625911Y-131826761D01*
X43579686Y-131845908D01*
X43538085Y-131873705D01*
X43511721Y-131900068D01*
X43489502Y-131826820D01*
X43430537Y-131716506D01*
X43351185Y-131619815D01*
X43254494Y-131540463D01*
X43144180Y-131481498D01*
X43024482Y-131445188D01*
X42900000Y-131432928D01*
X41400000Y-131432928D01*
X41275518Y-131445188D01*
X41155820Y-131481498D01*
X41045506Y-131540463D01*
X40948815Y-131619815D01*
X40869463Y-131716506D01*
X40810498Y-131826820D01*
X40774188Y-131946518D01*
X40773550Y-131953000D01*
X39751000Y-131953000D01*
X39751000Y-126961500D01*
X42296000Y-126961500D01*
X42296000Y-127796017D01*
X42305761Y-127845089D01*
X42324908Y-127891314D01*
X42352705Y-127932916D01*
X42388085Y-127968295D01*
X42429686Y-127996092D01*
X42475911Y-128015239D01*
X42524983Y-128025000D01*
X44259500Y-128025000D01*
X44323000Y-127961500D01*
X44323000Y-126898000D01*
X44577000Y-126898000D01*
X44577000Y-127961500D01*
X44640500Y-128025000D01*
X46375017Y-128025000D01*
X46424089Y-128015239D01*
X46470314Y-127996092D01*
X46511915Y-127968295D01*
X46547295Y-127932916D01*
X46575092Y-127891314D01*
X46594239Y-127845089D01*
X46604000Y-127796017D01*
X46604000Y-126961500D01*
X46540500Y-126898000D01*
X44577000Y-126898000D01*
X44323000Y-126898000D01*
X42359500Y-126898000D01*
X42296000Y-126961500D01*
X39751000Y-126961500D01*
X39751000Y-125745983D01*
X42296000Y-125745983D01*
X42296000Y-126580500D01*
X42359500Y-126644000D01*
X44323000Y-126644000D01*
X44323000Y-125580500D01*
X44577000Y-125580500D01*
X44577000Y-126644000D01*
X46540500Y-126644000D01*
X46604000Y-126580500D01*
X46604000Y-125745983D01*
X46594239Y-125696911D01*
X46575092Y-125650686D01*
X46547295Y-125609084D01*
X46511915Y-125573705D01*
X46470314Y-125545908D01*
X46424089Y-125526761D01*
X46375017Y-125517000D01*
X44640500Y-125517000D01*
X44577000Y-125580500D01*
X44323000Y-125580500D01*
X44259500Y-125517000D01*
X42524983Y-125517000D01*
X42475911Y-125526761D01*
X42429686Y-125545908D01*
X42388085Y-125573705D01*
X42352705Y-125609084D01*
X42324908Y-125650686D01*
X42305761Y-125696911D01*
X42296000Y-125745983D01*
X39751000Y-125745983D01*
X39751000Y-124079000D01*
X49149000Y-124079000D01*
X49149000Y-131953000D01*
G36*
X38989000Y-123977400D02*
G01*
X38989000Y-132054600D01*
X39001201Y-132178482D01*
X39037336Y-132297604D01*
X39096017Y-132407387D01*
X39174987Y-132503613D01*
X39200387Y-132529013D01*
X39296613Y-132607983D01*
X39406396Y-132666664D01*
X39525518Y-132702799D01*
X39649400Y-132715000D01*
X40765000Y-132715000D01*
X40765000Y-132785250D01*
X40923750Y-132944000D01*
X42023000Y-132944000D01*
X42023000Y-132924000D01*
X42277000Y-132924000D01*
X42277000Y-132944000D01*
X42297000Y-132944000D01*
X42297000Y-133198000D01*
X42277000Y-133198000D01*
X42277000Y-134547250D01*
X42435750Y-134706000D01*
X42662368Y-134706000D01*
X42730987Y-134789613D01*
X42756387Y-134815013D01*
X42852613Y-134893983D01*
X42962396Y-134952664D01*
X43081518Y-134988799D01*
X43205400Y-135001000D01*
X43415001Y-135001000D01*
X43415000Y-138252172D01*
X43409994Y-138303000D01*
X43415000Y-138353828D01*
X43415000Y-138353837D01*
X43429976Y-138505894D01*
X43489159Y-138700992D01*
X43585266Y-138880797D01*
X43714604Y-139038396D01*
X43754097Y-139070807D01*
X45932063Y-141248774D01*
X46076226Y-141392937D01*
X46118712Y-141421325D01*
X46158202Y-141453734D01*
X46203256Y-141477816D01*
X46245744Y-141506205D01*
X46292959Y-141525762D01*
X46338006Y-141549840D01*
X46386881Y-141564666D01*
X46434102Y-141584226D01*
X46484229Y-141594197D01*
X46533104Y-141609023D01*
X46583934Y-141614029D01*
X46634061Y-141624000D01*
X46685171Y-141624000D01*
X46735999Y-141629006D01*
X46786827Y-141624000D01*
X46837939Y-141624000D01*
X46888068Y-141614029D01*
X46938894Y-141609023D01*
X46987766Y-141594198D01*
X47037898Y-141584226D01*
X47085123Y-141564665D01*
X47133993Y-141549840D01*
X47179036Y-141525764D01*
X47226256Y-141506205D01*
X47268748Y-141477813D01*
X47313797Y-141453734D01*
X47353281Y-141421330D01*
X47395774Y-141392937D01*
X47431916Y-141356795D01*
X47471395Y-141324395D01*
X47503795Y-141284916D01*
X47539937Y-141248774D01*
X47568330Y-141206281D01*
X47600734Y-141166797D01*
X47624813Y-141121748D01*
X47653205Y-141079256D01*
X47672764Y-141032036D01*
X47696840Y-140986993D01*
X47711665Y-140938123D01*
X47731226Y-140890898D01*
X47741198Y-140840766D01*
X47756023Y-140791894D01*
X47761029Y-140741068D01*
X47771000Y-140690939D01*
X47771000Y-140639827D01*
X47776006Y-140588999D01*
X47771000Y-140538171D01*
X47771000Y-140487061D01*
X47761029Y-140436934D01*
X47756023Y-140386104D01*
X47741197Y-140337229D01*
X47731226Y-140287102D01*
X47711666Y-140239881D01*
X47696840Y-140191006D01*
X47672762Y-140145959D01*
X47653205Y-140098744D01*
X47624816Y-140056256D01*
X47600734Y-140011202D01*
X47568325Y-139971712D01*
X47539937Y-139929226D01*
X47395774Y-139785063D01*
X45485000Y-137874290D01*
X45485000Y-135001000D01*
X45694600Y-135001000D01*
X45818482Y-134988799D01*
X45937604Y-134952664D01*
X46047387Y-134893983D01*
X46143613Y-134815013D01*
X46169013Y-134789613D01*
X46235111Y-134709072D01*
X47500000Y-134709072D01*
X47624482Y-134696812D01*
X47744180Y-134660502D01*
X47854494Y-134601537D01*
X47951185Y-134522185D01*
X48030537Y-134425494D01*
X48089502Y-134315180D01*
X48125812Y-134195482D01*
X48138072Y-134071000D01*
X48138072Y-133356750D01*
X50925000Y-133356750D01*
X50925000Y-134133542D01*
X50949403Y-134256223D01*
X50997270Y-134371785D01*
X51066763Y-134475789D01*
X51155211Y-134564237D01*
X51259215Y-134633730D01*
X51374777Y-134681597D01*
X51497458Y-134706000D01*
X52024250Y-134706000D01*
X52183000Y-134547250D01*
X52183000Y-133198000D01*
X51083750Y-133198000D01*
X50925000Y-133356750D01*
X48138072Y-133356750D01*
X48138072Y-132715000D01*
X49250600Y-132715000D01*
X49374482Y-132702799D01*
X49493604Y-132666664D01*
X49530000Y-132647210D01*
X49566396Y-132666664D01*
X49685518Y-132702799D01*
X49809400Y-132715000D01*
X50925000Y-132715000D01*
X50925000Y-132785250D01*
X51083750Y-132944000D01*
X52183000Y-132944000D01*
X52183000Y-132924000D01*
X52437000Y-132924000D01*
X52437000Y-132944000D01*
X52457000Y-132944000D01*
X52457000Y-133198000D01*
X52437000Y-133198000D01*
X52437000Y-134547250D01*
X52595750Y-134706000D01*
X52822368Y-134706000D01*
X52890987Y-134789613D01*
X52916387Y-134815013D01*
X53012613Y-134893983D01*
X53122396Y-134952664D01*
X53241518Y-134988799D01*
X53365400Y-135001000D01*
X53575001Y-135001000D01*
X53575000Y-138252172D01*
X53569994Y-138303000D01*
X53575000Y-138353828D01*
X53575000Y-138353837D01*
X53589976Y-138505894D01*
X53649159Y-138700992D01*
X53745266Y-138880797D01*
X53874604Y-139038396D01*
X53914097Y-139070807D01*
X56092063Y-141248774D01*
X56236226Y-141392937D01*
X56278712Y-141421325D01*
X56318202Y-141453734D01*
X56363256Y-141477816D01*
X56405744Y-141506205D01*
X56452959Y-141525762D01*
X56498006Y-141549840D01*
X56546881Y-141564666D01*
X56594102Y-141584226D01*
X56644229Y-141594197D01*
X56693104Y-141609023D01*
X56743934Y-141614029D01*
X56794061Y-141624000D01*
X56845171Y-141624000D01*
X56895999Y-141629006D01*
X56946827Y-141624000D01*
X56997939Y-141624000D01*
X57048068Y-141614029D01*
X57098894Y-141609023D01*
X57147766Y-141594198D01*
X57197898Y-141584226D01*
X57245123Y-141564665D01*
X57293993Y-141549840D01*
X57339036Y-141525764D01*
X57386256Y-141506205D01*
X57428748Y-141477813D01*
X57473797Y-141453734D01*
X57513281Y-141421330D01*
X57555774Y-141392937D01*
X57591916Y-141356795D01*
X57631395Y-141324395D01*
X57663795Y-141284916D01*
X57699937Y-141248774D01*
X57728330Y-141206281D01*
X57760734Y-141166797D01*
X57784813Y-141121748D01*
X57813205Y-141079256D01*
X57832764Y-141032036D01*
X57856840Y-140986993D01*
X57871665Y-140938123D01*
X57891226Y-140890898D01*
X57901198Y-140840766D01*
X57916023Y-140791894D01*
X57921029Y-140741068D01*
X57931000Y-140690939D01*
X57931000Y-140639827D01*
X57936006Y-140588999D01*
X57931000Y-140538171D01*
X57931000Y-140487061D01*
X57921029Y-140436934D01*
X57916023Y-140386104D01*
X57901197Y-140337229D01*
X57891226Y-140287102D01*
X57871666Y-140239881D01*
X57856840Y-140191006D01*
X57832762Y-140145959D01*
X57813205Y-140098744D01*
X57784816Y-140056256D01*
X57760734Y-140011202D01*
X57728325Y-139971712D01*
X57699937Y-139929226D01*
X57555774Y-139785063D01*
X55645000Y-137874290D01*
X55645000Y-135001000D01*
X55854600Y-135001000D01*
X55978482Y-134988799D01*
X56097604Y-134952664D01*
X56207387Y-134893983D01*
X56303613Y-134815013D01*
X56329013Y-134789613D01*
X56395111Y-134709072D01*
X57660000Y-134709072D01*
X57784482Y-134696812D01*
X57904180Y-134660502D01*
X58014494Y-134601537D01*
X58111185Y-134522185D01*
X58190537Y-134425494D01*
X58249502Y-134315180D01*
X58285812Y-134195482D01*
X58298072Y-134071000D01*
X58298072Y-133356750D01*
X61085000Y-133356750D01*
X61085000Y-134133542D01*
X61109403Y-134256223D01*
X61157270Y-134371785D01*
X61226763Y-134475789D01*
X61315211Y-134564237D01*
X61419215Y-134633730D01*
X61534777Y-134681597D01*
X61657458Y-134706000D01*
X62184250Y-134706000D01*
X62343000Y-134547250D01*
X62343000Y-133198000D01*
X61243750Y-133198000D01*
X61085000Y-133356750D01*
X58298072Y-133356750D01*
X58298072Y-132715000D01*
X59410600Y-132715000D01*
X59534482Y-132702799D01*
X59653604Y-132666664D01*
X59690000Y-132647210D01*
X59726396Y-132666664D01*
X59845518Y-132702799D01*
X59969400Y-132715000D01*
X61085000Y-132715000D01*
X61085000Y-132785250D01*
X61243750Y-132944000D01*
X62343000Y-132944000D01*
X62343000Y-132924000D01*
X62597000Y-132924000D01*
X62597000Y-132944000D01*
X62617000Y-132944000D01*
X62617000Y-133198000D01*
X62597000Y-133198000D01*
X62597000Y-134547250D01*
X62755750Y-134706000D01*
X62982368Y-134706000D01*
X63050987Y-134789613D01*
X63076387Y-134815013D01*
X63172613Y-134893983D01*
X63282396Y-134952664D01*
X63401518Y-134988799D01*
X63525400Y-135001000D01*
X63735001Y-135001000D01*
X63735000Y-138252172D01*
X63729994Y-138303000D01*
X63735000Y-138353828D01*
X63735000Y-138353837D01*
X63749976Y-138505894D01*
X63809159Y-138700992D01*
X63905266Y-138880797D01*
X64034604Y-139038396D01*
X64074097Y-139070807D01*
X66252063Y-141248774D01*
X66396226Y-141392937D01*
X66438712Y-141421325D01*
X66478202Y-141453734D01*
X66523256Y-141477816D01*
X66565744Y-141506205D01*
X66612959Y-141525762D01*
X66658006Y-141549840D01*
X66706881Y-141564666D01*
X66754102Y-141584226D01*
X66804229Y-141594197D01*
X66853104Y-141609023D01*
X66903934Y-141614029D01*
X66954061Y-141624000D01*
X67005171Y-141624000D01*
X67055999Y-141629006D01*
X67106827Y-141624000D01*
X67157939Y-141624000D01*
X67208068Y-141614029D01*
X67258894Y-141609023D01*
X67307766Y-141594198D01*
X67357898Y-141584226D01*
X67405123Y-141564665D01*
X67453993Y-141549840D01*
X67499036Y-141525764D01*
X67546256Y-141506205D01*
X67588748Y-141477813D01*
X67633797Y-141453734D01*
X67673281Y-141421330D01*
X67715774Y-141392937D01*
X67751916Y-141356795D01*
X67791395Y-141324395D01*
X67823795Y-141284916D01*
X67859937Y-141248774D01*
X67888330Y-141206281D01*
X67920734Y-141166797D01*
X67944813Y-141121748D01*
X67973205Y-141079256D01*
X67992764Y-141032036D01*
X68016840Y-140986993D01*
X68031665Y-140938123D01*
X68051226Y-140890898D01*
X68061198Y-140840766D01*
X68076023Y-140791894D01*
X68081029Y-140741068D01*
X68091000Y-140690939D01*
X68091000Y-140639827D01*
X68096006Y-140588999D01*
X68091000Y-140538171D01*
X68091000Y-140487061D01*
X68081029Y-140436934D01*
X68076023Y-140386104D01*
X68061197Y-140337229D01*
X68051226Y-140287102D01*
X68031666Y-140239881D01*
X68016840Y-140191006D01*
X67992762Y-140145959D01*
X67973205Y-140098744D01*
X67944816Y-140056256D01*
X67920734Y-140011202D01*
X67888325Y-139971712D01*
X67859937Y-139929226D01*
X67715774Y-139785063D01*
X65805000Y-137874290D01*
X65805000Y-135001000D01*
X66014600Y-135001000D01*
X66138482Y-134988799D01*
X66257604Y-134952664D01*
X66367387Y-134893983D01*
X66463613Y-134815013D01*
X66489013Y-134789613D01*
X66555111Y-134709072D01*
X67820000Y-134709072D01*
X67944482Y-134696812D01*
X68064180Y-134660502D01*
X68174494Y-134601537D01*
X68271185Y-134522185D01*
X68350537Y-134425494D01*
X68409502Y-134315180D01*
X68445812Y-134195482D01*
X68458072Y-134071000D01*
X68458072Y-133356750D01*
X71245000Y-133356750D01*
X71245000Y-134133542D01*
X71269403Y-134256223D01*
X71317270Y-134371785D01*
X71386763Y-134475789D01*
X71475211Y-134564237D01*
X71579215Y-134633730D01*
X71694777Y-134681597D01*
X71817458Y-134706000D01*
X72344250Y-134706000D01*
X72503000Y-134547250D01*
X72503000Y-133198000D01*
X71403750Y-133198000D01*
X71245000Y-133356750D01*
X68458072Y-133356750D01*
X68458072Y-132715000D01*
X69570600Y-132715000D01*
X69694482Y-132702799D01*
X69813604Y-132666664D01*
X69850000Y-132647210D01*
X69886396Y-132666664D01*
X70005518Y-132702799D01*
X70129400Y-132715000D01*
X71245000Y-132715000D01*
X71245000Y-132785250D01*
X71403750Y-132944000D01*
X72503000Y-132944000D01*
X72503000Y-132924000D01*
X72757000Y-132924000D01*
X72757000Y-132944000D01*
X72777000Y-132944000D01*
X72777000Y-133198000D01*
X72757000Y-133198000D01*
X72757000Y-134547250D01*
X72915750Y-134706000D01*
X73142368Y-134706000D01*
X73210987Y-134789613D01*
X73236387Y-134815013D01*
X73332613Y-134893983D01*
X73442396Y-134952664D01*
X73561518Y-134988799D01*
X73685400Y-135001000D01*
X73895001Y-135001000D01*
X73895000Y-138252172D01*
X73889994Y-138303000D01*
X73895000Y-138353828D01*
X73895000Y-138353837D01*
X73909976Y-138505894D01*
X73969159Y-138700992D01*
X74065266Y-138880797D01*
X74194604Y-139038396D01*
X74234097Y-139070807D01*
X76412063Y-141248774D01*
X76556226Y-141392937D01*
X76598712Y-141421325D01*
X76638202Y-141453734D01*
X76683256Y-141477816D01*
X76725744Y-141506205D01*
X76772959Y-141525762D01*
X76818006Y-141549840D01*
X76866881Y-141564666D01*
X76914102Y-141584226D01*
X76964229Y-141594197D01*
X77013104Y-141609023D01*
X77063934Y-141614029D01*
X77114061Y-141624000D01*
X77165171Y-141624000D01*
X77215999Y-141629006D01*
X77266827Y-141624000D01*
X77317939Y-141624000D01*
X77368068Y-141614029D01*
X77418894Y-141609023D01*
X77467766Y-141594198D01*
X77517898Y-141584226D01*
X77565123Y-141564665D01*
X77613993Y-141549840D01*
X77659036Y-141525764D01*
X77706256Y-141506205D01*
X77748748Y-141477813D01*
X77793797Y-141453734D01*
X77833281Y-141421330D01*
X77875774Y-141392937D01*
X77911916Y-141356795D01*
X77951395Y-141324395D01*
X77983795Y-141284916D01*
X78019937Y-141248774D01*
X78048330Y-141206281D01*
X78080734Y-141166797D01*
X78104813Y-141121748D01*
X78133205Y-141079256D01*
X78152764Y-141032036D01*
X78176840Y-140986993D01*
X78191665Y-140938123D01*
X78211226Y-140890898D01*
X78221198Y-140840766D01*
X78236023Y-140791894D01*
X78241029Y-140741068D01*
X78251000Y-140690939D01*
X78251000Y-140639827D01*
X78256006Y-140588999D01*
X78251000Y-140538171D01*
X78251000Y-140487061D01*
X78241029Y-140436934D01*
X78236023Y-140386104D01*
X78221197Y-140337229D01*
X78211226Y-140287102D01*
X78191666Y-140239881D01*
X78176840Y-140191006D01*
X78152762Y-140145959D01*
X78133205Y-140098744D01*
X78104816Y-140056256D01*
X78080734Y-140011202D01*
X78048325Y-139971712D01*
X78019937Y-139929226D01*
X77875774Y-139785063D01*
X75965000Y-137874290D01*
X75965000Y-135001000D01*
X76174600Y-135001000D01*
X76298482Y-134988799D01*
X76417604Y-134952664D01*
X76527387Y-134893983D01*
X76623613Y-134815013D01*
X76649013Y-134789613D01*
X76715111Y-134709072D01*
X77980000Y-134709072D01*
X78104482Y-134696812D01*
X78224180Y-134660502D01*
X78334494Y-134601537D01*
X78431185Y-134522185D01*
X78510537Y-134425494D01*
X78569502Y-134315180D01*
X78605812Y-134195482D01*
X78618072Y-134071000D01*
X78618072Y-133356750D01*
X81405000Y-133356750D01*
X81405000Y-134133542D01*
X81429403Y-134256223D01*
X81477270Y-134371785D01*
X81546763Y-134475789D01*
X81635211Y-134564237D01*
X81739215Y-134633730D01*
X81854777Y-134681597D01*
X81977458Y-134706000D01*
X82504250Y-134706000D01*
X82663000Y-134547250D01*
X82663000Y-133198000D01*
X81563750Y-133198000D01*
X81405000Y-133356750D01*
X78618072Y-133356750D01*
X78618072Y-132715000D01*
X79730600Y-132715000D01*
X79854482Y-132702799D01*
X79973604Y-132666664D01*
X80010000Y-132647210D01*
X80046396Y-132666664D01*
X80165518Y-132702799D01*
X80289400Y-132715000D01*
X81405000Y-132715000D01*
X81405000Y-132785250D01*
X81563750Y-132944000D01*
X82663000Y-132944000D01*
X82663000Y-132924000D01*
X82917000Y-132924000D01*
X82917000Y-132944000D01*
X82937000Y-132944000D01*
X82937000Y-133198000D01*
X82917000Y-133198000D01*
X82917000Y-134547250D01*
X83075750Y-134706000D01*
X83302368Y-134706000D01*
X83370987Y-134789613D01*
X83396387Y-134815013D01*
X83492613Y-134893983D01*
X83602396Y-134952664D01*
X83721518Y-134988799D01*
X83845400Y-135001000D01*
X84055001Y-135001000D01*
X84055000Y-138252172D01*
X84049994Y-138303000D01*
X84055000Y-138353828D01*
X84055000Y-138353837D01*
X84069976Y-138505894D01*
X84129159Y-138700992D01*
X84225266Y-138880797D01*
X84354604Y-139038396D01*
X84394097Y-139070807D01*
X86572063Y-141248774D01*
X86716226Y-141392937D01*
X86758712Y-141421325D01*
X86798202Y-141453734D01*
X86843256Y-141477816D01*
X86885744Y-141506205D01*
X86932959Y-141525762D01*
X86978006Y-141549840D01*
X87026881Y-141564666D01*
X87074102Y-141584226D01*
X87124229Y-141594197D01*
X87173104Y-141609023D01*
X87223934Y-141614029D01*
X87274061Y-141624000D01*
X87325171Y-141624000D01*
X87375999Y-141629006D01*
X87426827Y-141624000D01*
X87477939Y-141624000D01*
X87528068Y-141614029D01*
X87578894Y-141609023D01*
X87627766Y-141594198D01*
X87677898Y-141584226D01*
X87725123Y-141564665D01*
X87773993Y-141549840D01*
X87819036Y-141525764D01*
X87866256Y-141506205D01*
X87908748Y-141477813D01*
X87953797Y-141453734D01*
X87993281Y-141421330D01*
X88035774Y-141392937D01*
X88071916Y-141356795D01*
X88111395Y-141324395D01*
X88143795Y-141284916D01*
X88179937Y-141248774D01*
X88208330Y-141206281D01*
X88240734Y-141166797D01*
X88264813Y-141121748D01*
X88293205Y-141079256D01*
X88312764Y-141032036D01*
X88336840Y-140986993D01*
X88351665Y-140938123D01*
X88371226Y-140890898D01*
X88381198Y-140840766D01*
X88396023Y-140791894D01*
X88401029Y-140741068D01*
X88411000Y-140690939D01*
X88411000Y-140639827D01*
X88416006Y-140588999D01*
X88411000Y-140538171D01*
X88411000Y-140487061D01*
X88401029Y-140436934D01*
X88396023Y-140386104D01*
X88381197Y-140337229D01*
X88371226Y-140287102D01*
X88351666Y-140239881D01*
X88336840Y-140191006D01*
X88312762Y-140145959D01*
X88293205Y-140098744D01*
X88264816Y-140056256D01*
X88240734Y-140011202D01*
X88208325Y-139971712D01*
X88179937Y-139929226D01*
X88035774Y-139785063D01*
X86125000Y-137874290D01*
X86125000Y-135001000D01*
X86334600Y-135001000D01*
X86458482Y-134988799D01*
X86577604Y-134952664D01*
X86687387Y-134893983D01*
X86783613Y-134815013D01*
X86809013Y-134789613D01*
X86875111Y-134709072D01*
X88140000Y-134709072D01*
X88264482Y-134696812D01*
X88384180Y-134660502D01*
X88494494Y-134601537D01*
X88591185Y-134522185D01*
X88670537Y-134425494D01*
X88729502Y-134315180D01*
X88765812Y-134195482D01*
X88778072Y-134071000D01*
X88778072Y-133356750D01*
X91565000Y-133356750D01*
X91565000Y-134133542D01*
X91589403Y-134256223D01*
X91637270Y-134371785D01*
X91706763Y-134475789D01*
X91795211Y-134564237D01*
X91899215Y-134633730D01*
X92014777Y-134681597D01*
X92137458Y-134706000D01*
X92664250Y-134706000D01*
X92823000Y-134547250D01*
X92823000Y-133198000D01*
X91723750Y-133198000D01*
X91565000Y-133356750D01*
X88778072Y-133356750D01*
X88778072Y-132715000D01*
X89890600Y-132715000D01*
X90014482Y-132702799D01*
X90133604Y-132666664D01*
X90170000Y-132647210D01*
X90206396Y-132666664D01*
X90325518Y-132702799D01*
X90449400Y-132715000D01*
X91565000Y-132715000D01*
X91565000Y-132785250D01*
X91723750Y-132944000D01*
X92823000Y-132944000D01*
X92823000Y-132924000D01*
X93077000Y-132924000D01*
X93077000Y-132944000D01*
X93097000Y-132944000D01*
X93097000Y-133198000D01*
X93077000Y-133198000D01*
X93077000Y-134547250D01*
X93235750Y-134706000D01*
X93462368Y-134706000D01*
X93530987Y-134789613D01*
X93556387Y-134815013D01*
X93652613Y-134893983D01*
X93762396Y-134952664D01*
X93881518Y-134988799D01*
X94005400Y-135001000D01*
X94215001Y-135001000D01*
X94215000Y-138252172D01*
X94209994Y-138303000D01*
X94215000Y-138353828D01*
X94215000Y-138353837D01*
X94229976Y-138505894D01*
X94289159Y-138700992D01*
X94385266Y-138880797D01*
X94514604Y-139038396D01*
X94554097Y-139070807D01*
X96732063Y-141248774D01*
X96876226Y-141392937D01*
X96918712Y-141421325D01*
X96958202Y-141453734D01*
X97003256Y-141477816D01*
X97045744Y-141506205D01*
X97092959Y-141525762D01*
X97138006Y-141549840D01*
X97186881Y-141564666D01*
X97234102Y-141584226D01*
X97284229Y-141594197D01*
X97333104Y-141609023D01*
X97383934Y-141614029D01*
X97434061Y-141624000D01*
X97485171Y-141624000D01*
X97535999Y-141629006D01*
X97586827Y-141624000D01*
X97637939Y-141624000D01*
X97688068Y-141614029D01*
X97738894Y-141609023D01*
X97787766Y-141594198D01*
X97837898Y-141584226D01*
X97885123Y-141564665D01*
X97933993Y-141549840D01*
X97979036Y-141525764D01*
X98026256Y-141506205D01*
X98068748Y-141477813D01*
X98113797Y-141453734D01*
X98153281Y-141421330D01*
X98195774Y-141392937D01*
X98231916Y-141356795D01*
X98271395Y-141324395D01*
X98303795Y-141284916D01*
X98339937Y-141248774D01*
X98368330Y-141206281D01*
X98400734Y-141166797D01*
X98424813Y-141121748D01*
X98453205Y-141079256D01*
X98472764Y-141032036D01*
X98496840Y-140986993D01*
X98511665Y-140938123D01*
X98531226Y-140890898D01*
X98541198Y-140840766D01*
X98556023Y-140791894D01*
X98561029Y-140741068D01*
X98571000Y-140690939D01*
X98571000Y-140639827D01*
X98576006Y-140588999D01*
X98571000Y-140538171D01*
X98571000Y-140487061D01*
X98561029Y-140436934D01*
X98556023Y-140386104D01*
X98541197Y-140337229D01*
X98531226Y-140287102D01*
X98511666Y-140239881D01*
X98496840Y-140191006D01*
X98472762Y-140145959D01*
X98453205Y-140098744D01*
X98424816Y-140056256D01*
X98400734Y-140011202D01*
X98368325Y-139971712D01*
X98339937Y-139929226D01*
X98195774Y-139785063D01*
X96285000Y-137874290D01*
X96285000Y-135001000D01*
X96494600Y-135001000D01*
X96618482Y-134988799D01*
X96737604Y-134952664D01*
X96847387Y-134893983D01*
X96943613Y-134815013D01*
X96969013Y-134789613D01*
X97035111Y-134709072D01*
X98300000Y-134709072D01*
X98424482Y-134696812D01*
X98544180Y-134660502D01*
X98654494Y-134601537D01*
X98751185Y-134522185D01*
X98830537Y-134425494D01*
X98889502Y-134315180D01*
X98925812Y-134195482D01*
X98938072Y-134071000D01*
X98938072Y-133356750D01*
X101725000Y-133356750D01*
X101725000Y-134133542D01*
X101749403Y-134256223D01*
X101797270Y-134371785D01*
X101866763Y-134475789D01*
X101955211Y-134564237D01*
X102059215Y-134633730D01*
X102174777Y-134681597D01*
X102297458Y-134706000D01*
X102824250Y-134706000D01*
X102983000Y-134547250D01*
X102983000Y-133198000D01*
X101883750Y-133198000D01*
X101725000Y-133356750D01*
X98938072Y-133356750D01*
X98938072Y-132715000D01*
X100050600Y-132715000D01*
X100174482Y-132702799D01*
X100293604Y-132666664D01*
X100330000Y-132647210D01*
X100366396Y-132666664D01*
X100485518Y-132702799D01*
X100609400Y-132715000D01*
X101725000Y-132715000D01*
X101725000Y-132785250D01*
X101883750Y-132944000D01*
X102983000Y-132944000D01*
X102983000Y-132924000D01*
X103237000Y-132924000D01*
X103237000Y-132944000D01*
X103257000Y-132944000D01*
X103257000Y-133198000D01*
X103237000Y-133198000D01*
X103237000Y-134547250D01*
X103395750Y-134706000D01*
X103622368Y-134706000D01*
X103690987Y-134789613D01*
X103716387Y-134815013D01*
X103812613Y-134893983D01*
X103922396Y-134952664D01*
X104041518Y-134988799D01*
X104165400Y-135001000D01*
X104375001Y-135001000D01*
X104375000Y-138252172D01*
X104369994Y-138303000D01*
X104375000Y-138353828D01*
X104375000Y-138353837D01*
X104389976Y-138505894D01*
X104449159Y-138700992D01*
X104545266Y-138880797D01*
X104674604Y-139038396D01*
X104714097Y-139070807D01*
X106892063Y-141248774D01*
X107036226Y-141392937D01*
X107078712Y-141421325D01*
X107118202Y-141453734D01*
X107163256Y-141477816D01*
X107205744Y-141506205D01*
X107252959Y-141525762D01*
X107298006Y-141549840D01*
X107346881Y-141564666D01*
X107394102Y-141584226D01*
X107444229Y-141594197D01*
X107493104Y-141609023D01*
X107543934Y-141614029D01*
X107594061Y-141624000D01*
X107645171Y-141624000D01*
X107695999Y-141629006D01*
X107746827Y-141624000D01*
X107797939Y-141624000D01*
X107848068Y-141614029D01*
X107898894Y-141609023D01*
X107947766Y-141594198D01*
X107997898Y-141584226D01*
X108045123Y-141564665D01*
X108093993Y-141549840D01*
X108139036Y-141525764D01*
X108186256Y-141506205D01*
X108228748Y-141477813D01*
X108273797Y-141453734D01*
X108313281Y-141421330D01*
X108355774Y-141392937D01*
X108391916Y-141356795D01*
X108431395Y-141324395D01*
X108463795Y-141284916D01*
X108499937Y-141248774D01*
X108528330Y-141206281D01*
X108560734Y-141166797D01*
X108584813Y-141121748D01*
X108613205Y-141079256D01*
X108632764Y-141032036D01*
X108656840Y-140986993D01*
X108671665Y-140938123D01*
X108691226Y-140890898D01*
X108701198Y-140840766D01*
X108716023Y-140791894D01*
X108721029Y-140741068D01*
X108731000Y-140690939D01*
X108731000Y-140639827D01*
X108736006Y-140588999D01*
X108731000Y-140538171D01*
X108731000Y-140487061D01*
X108721029Y-140436934D01*
X108716023Y-140386104D01*
X108701197Y-140337229D01*
X108691226Y-140287102D01*
X108671666Y-140239881D01*
X108656840Y-140191006D01*
X108632762Y-140145959D01*
X108613205Y-140098744D01*
X108584816Y-140056256D01*
X108560734Y-140011202D01*
X108528325Y-139971712D01*
X108499937Y-139929226D01*
X108355774Y-139785063D01*
X106445000Y-137874290D01*
X106445000Y-135001000D01*
X106654600Y-135001000D01*
X106778482Y-134988799D01*
X106897604Y-134952664D01*
X107007387Y-134893983D01*
X107103613Y-134815013D01*
X107129013Y-134789613D01*
X107195111Y-134709072D01*
X108460000Y-134709072D01*
X108584482Y-134696812D01*
X108704180Y-134660502D01*
X108814494Y-134601537D01*
X108911185Y-134522185D01*
X108990537Y-134425494D01*
X109049502Y-134315180D01*
X109085812Y-134195482D01*
X109098072Y-134071000D01*
X109098072Y-133356750D01*
X111885000Y-133356750D01*
X111885000Y-134133542D01*
X111909403Y-134256223D01*
X111957270Y-134371785D01*
X112026763Y-134475789D01*
X112115211Y-134564237D01*
X112219215Y-134633730D01*
X112334777Y-134681597D01*
X112457458Y-134706000D01*
X112984250Y-134706000D01*
X113143000Y-134547250D01*
X113143000Y-133198000D01*
X112043750Y-133198000D01*
X111885000Y-133356750D01*
X109098072Y-133356750D01*
X109098072Y-132715000D01*
X110210600Y-132715000D01*
X110334482Y-132702799D01*
X110453604Y-132666664D01*
X110490000Y-132647210D01*
X110526396Y-132666664D01*
X110645518Y-132702799D01*
X110769400Y-132715000D01*
X111885000Y-132715000D01*
X111885000Y-132785250D01*
X112043750Y-132944000D01*
X113143000Y-132944000D01*
X113143000Y-132924000D01*
X113397000Y-132924000D01*
X113397000Y-132944000D01*
X113417000Y-132944000D01*
X113417000Y-133198000D01*
X113397000Y-133198000D01*
X113397000Y-134547250D01*
X113555750Y-134706000D01*
X113782368Y-134706000D01*
X113850987Y-134789613D01*
X113876387Y-134815013D01*
X113972613Y-134893983D01*
X114082396Y-134952664D01*
X114201518Y-134988799D01*
X114325400Y-135001000D01*
X114535001Y-135001000D01*
X114535000Y-138252172D01*
X114529994Y-138303000D01*
X114535000Y-138353828D01*
X114535000Y-138353837D01*
X114549976Y-138505894D01*
X114609159Y-138700992D01*
X114705266Y-138880797D01*
X114834604Y-139038396D01*
X114874097Y-139070807D01*
X117052063Y-141248774D01*
X117196226Y-141392937D01*
X117238712Y-141421325D01*
X117278202Y-141453734D01*
X117323256Y-141477816D01*
X117365744Y-141506205D01*
X117412959Y-141525762D01*
X117458006Y-141549840D01*
X117506881Y-141564666D01*
X117554102Y-141584226D01*
X117604229Y-141594197D01*
X117653104Y-141609023D01*
X117703934Y-141614029D01*
X117754061Y-141624000D01*
X117805171Y-141624000D01*
X117855999Y-141629006D01*
X117906827Y-141624000D01*
X117957939Y-141624000D01*
X118008068Y-141614029D01*
X118058894Y-141609023D01*
X118107766Y-141594198D01*
X118157898Y-141584226D01*
X118205123Y-141564665D01*
X118253993Y-141549840D01*
X118299036Y-141525764D01*
X118346256Y-141506205D01*
X118388748Y-141477813D01*
X118433797Y-141453734D01*
X118473281Y-141421330D01*
X118515774Y-141392937D01*
X118551916Y-141356795D01*
X118591395Y-141324395D01*
X118623795Y-141284916D01*
X118659937Y-141248774D01*
X118688330Y-141206281D01*
X118720734Y-141166797D01*
X118744813Y-141121748D01*
X118773205Y-141079256D01*
X118792764Y-141032036D01*
X118816840Y-140986993D01*
X118831665Y-140938123D01*
X118851226Y-140890898D01*
X118861198Y-140840766D01*
X118876023Y-140791894D01*
X118881029Y-140741068D01*
X118891000Y-140690939D01*
X118891000Y-140639827D01*
X118896006Y-140588999D01*
X118891000Y-140538171D01*
X118891000Y-140487061D01*
X118881029Y-140436934D01*
X118876023Y-140386104D01*
X118861197Y-140337229D01*
X118851226Y-140287102D01*
X118831666Y-140239881D01*
X118816840Y-140191006D01*
X118792762Y-140145959D01*
X118773205Y-140098744D01*
X118744816Y-140056256D01*
X118720734Y-140011202D01*
X118688325Y-139971712D01*
X118659937Y-139929226D01*
X118515774Y-139785063D01*
X116605000Y-137874290D01*
X116605000Y-135001000D01*
X116814600Y-135001000D01*
X116938482Y-134988799D01*
X117057604Y-134952664D01*
X117167387Y-134893983D01*
X117263613Y-134815013D01*
X117289013Y-134789613D01*
X117355111Y-134709072D01*
X118620000Y-134709072D01*
X118744482Y-134696812D01*
X118864180Y-134660502D01*
X118974494Y-134601537D01*
X119071185Y-134522185D01*
X119150537Y-134425494D01*
X119209502Y-134315180D01*
X119245812Y-134195482D01*
X119258072Y-134071000D01*
X119258072Y-132715000D01*
X120370600Y-132715000D01*
X120494482Y-132702799D01*
X120613604Y-132666664D01*
X120723387Y-132607983D01*
X120819613Y-132529013D01*
X120845013Y-132503613D01*
X120923983Y-132407387D01*
X120982664Y-132297604D01*
X121018799Y-132178482D01*
X121031000Y-132054600D01*
X121031000Y-123977400D01*
X121028498Y-123952000D01*
X122790000Y-123952000D01*
X122790001Y-131892546D01*
X122730820Y-131910498D01*
X122620506Y-131969463D01*
X122523815Y-132048815D01*
X122444463Y-132145506D01*
X122385498Y-132255820D01*
X122349188Y-132375518D01*
X122336928Y-132500000D01*
X122336928Y-134200000D01*
X122349188Y-134324482D01*
X122385498Y-134444180D01*
X122444463Y-134554494D01*
X122523815Y-134651185D01*
X122620506Y-134730537D01*
X122730820Y-134789502D01*
X122790001Y-134807454D01*
X122790001Y-134818342D01*
X122769866Y-134834866D01*
X122584294Y-135060986D01*
X122446401Y-135318966D01*
X122361487Y-135598889D01*
X122332815Y-135890000D01*
X122361487Y-136181111D01*
X122446401Y-136461034D01*
X122584294Y-136719014D01*
X122769866Y-136945134D01*
X122790000Y-136961658D01*
X122790001Y-137358342D01*
X122769866Y-137374866D01*
X122584294Y-137600986D01*
X122446401Y-137858966D01*
X122361487Y-138138889D01*
X122332815Y-138430000D01*
X122335368Y-138455921D01*
X118443290Y-142348000D01*
X46431162Y-142348000D01*
X46279105Y-142362976D01*
X46084007Y-142422159D01*
X45904203Y-142518266D01*
X45746604Y-142647604D01*
X45617266Y-142805203D01*
X45521159Y-142985007D01*
X45461976Y-143180105D01*
X45445439Y-143348010D01*
X45362812Y-143348010D01*
X43099804Y-141085003D01*
X43076001Y-141055999D01*
X43013929Y-141005058D01*
X42967937Y-140936226D01*
X42823774Y-140792063D01*
X42654256Y-140678795D01*
X42465898Y-140600774D01*
X42265939Y-140561000D01*
X42062061Y-140561000D01*
X41862102Y-140600774D01*
X41673744Y-140678795D01*
X41504226Y-140792063D01*
X41360063Y-140936226D01*
X41246795Y-141105744D01*
X41168774Y-141294102D01*
X41129000Y-141494061D01*
X41129000Y-141697939D01*
X41168774Y-141897898D01*
X41246795Y-142086256D01*
X41360063Y-142255774D01*
X41504226Y-142399937D01*
X41673744Y-142513205D01*
X41862102Y-142591226D01*
X42062061Y-142631000D01*
X42265939Y-142631000D01*
X42457997Y-142592798D01*
X44484211Y-144619013D01*
X44508009Y-144648011D01*
X44537007Y-144671809D01*
X44623734Y-144742984D01*
X44755763Y-144813556D01*
X44899024Y-144857013D01*
X45048010Y-144871687D01*
X45085343Y-144868010D01*
X56750000Y-144868010D01*
X56750000Y-144934949D01*
X56789774Y-145134908D01*
X56867795Y-145323266D01*
X56981063Y-145492784D01*
X57125226Y-145636947D01*
X57294744Y-145750215D01*
X57483102Y-145828236D01*
X57683061Y-145868010D01*
X57886939Y-145868010D01*
X58086898Y-145828236D01*
X58275256Y-145750215D01*
X58444774Y-145636947D01*
X58488711Y-145593010D01*
X66910000Y-145593010D01*
X66910000Y-145659949D01*
X66949774Y-145859908D01*
X67018158Y-146025000D01*
X37478335Y-146025000D01*
X37770250Y-145904085D01*
X38095364Y-145686851D01*
X38371851Y-145410364D01*
X38589085Y-145085250D01*
X38738718Y-144724003D01*
X38815000Y-144340505D01*
X38815000Y-143949495D01*
X38738718Y-143565997D01*
X38589085Y-143204750D01*
X38371851Y-142879636D01*
X38095364Y-142603149D01*
X37770250Y-142385915D01*
X37409003Y-142236282D01*
X37025505Y-142160000D01*
X36634495Y-142160000D01*
X36250997Y-142236282D01*
X35889750Y-142385915D01*
X35564636Y-142603149D01*
X35288149Y-142879636D01*
X35070915Y-143204750D01*
X34950000Y-143496665D01*
X34950000Y-133356750D01*
X40765000Y-133356750D01*
X40765000Y-134133542D01*
X40789403Y-134256223D01*
X40837270Y-134371785D01*
X40906763Y-134475789D01*
X40995211Y-134564237D01*
X41099215Y-134633730D01*
X41214777Y-134681597D01*
X41337458Y-134706000D01*
X41864250Y-134706000D01*
X42023000Y-134547250D01*
X42023000Y-133198000D01*
X40923750Y-133198000D01*
X40765000Y-133356750D01*
X34950000Y-133356750D01*
X34950000Y-123952000D01*
X38991502Y-123952000D01*
X38989000Y-123977400D01*
X38989000Y-123977400D01*
G37*
X38989000Y-123977400D02*
X38989000Y-132054600D01*
X39001201Y-132178482D01*
X39037336Y-132297604D01*
X39096017Y-132407387D01*
X39174987Y-132503613D01*
X39200387Y-132529013D01*
X39296613Y-132607983D01*
X39406396Y-132666664D01*
X39525518Y-132702799D01*
X39649400Y-132715000D01*
X40765000Y-132715000D01*
X40765000Y-132785250D01*
X40923750Y-132944000D01*
X42023000Y-132944000D01*
X42023000Y-132924000D01*
X42277000Y-132924000D01*
X42277000Y-132944000D01*
X42297000Y-132944000D01*
X42297000Y-133198000D01*
X42277000Y-133198000D01*
X42277000Y-134547250D01*
X42435750Y-134706000D01*
X42662368Y-134706000D01*
X42730987Y-134789613D01*
X42756387Y-134815013D01*
X42852613Y-134893983D01*
X42962396Y-134952664D01*
X43081518Y-134988799D01*
X43205400Y-135001000D01*
X43415001Y-135001000D01*
X43415000Y-138252172D01*
X43409994Y-138303000D01*
X43415000Y-138353828D01*
X43415000Y-138353837D01*
X43429976Y-138505894D01*
X43489159Y-138700992D01*
X43585266Y-138880797D01*
X43714604Y-139038396D01*
X43754097Y-139070807D01*
X45932063Y-141248774D01*
X46076226Y-141392937D01*
X46118712Y-141421325D01*
X46158202Y-141453734D01*
X46203256Y-141477816D01*
X46245744Y-141506205D01*
X46292959Y-141525762D01*
X46338006Y-141549840D01*
X46386881Y-141564666D01*
X46434102Y-141584226D01*
X46484229Y-141594197D01*
X46533104Y-141609023D01*
X46583934Y-141614029D01*
X46634061Y-141624000D01*
X46685171Y-141624000D01*
X46735999Y-141629006D01*
X46786827Y-141624000D01*
X46837939Y-141624000D01*
X46888068Y-141614029D01*
X46938894Y-141609023D01*
X46987766Y-141594198D01*
X47037898Y-141584226D01*
X47085123Y-141564665D01*
X47133993Y-141549840D01*
X47179036Y-141525764D01*
X47226256Y-141506205D01*
X47268748Y-141477813D01*
X47313797Y-141453734D01*
X47353281Y-141421330D01*
X47395774Y-141392937D01*
X47431916Y-141356795D01*
X47471395Y-141324395D01*
X47503795Y-141284916D01*
X47539937Y-141248774D01*
X47568330Y-141206281D01*
X47600734Y-141166797D01*
X47624813Y-141121748D01*
X47653205Y-141079256D01*
X47672764Y-141032036D01*
X47696840Y-140986993D01*
X47711665Y-140938123D01*
X47731226Y-140890898D01*
X47741198Y-140840766D01*
X47756023Y-140791894D01*
X47761029Y-140741068D01*
X47771000Y-140690939D01*
X47771000Y-140639827D01*
X47776006Y-140588999D01*
X47771000Y-140538171D01*
X47771000Y-140487061D01*
X47761029Y-140436934D01*
X47756023Y-140386104D01*
X47741197Y-140337229D01*
X47731226Y-140287102D01*
X47711666Y-140239881D01*
X47696840Y-140191006D01*
X47672762Y-140145959D01*
X47653205Y-140098744D01*
X47624816Y-140056256D01*
X47600734Y-140011202D01*
X47568325Y-139971712D01*
X47539937Y-139929226D01*
X47395774Y-139785063D01*
X45485000Y-137874290D01*
X45485000Y-135001000D01*
X45694600Y-135001000D01*
X45818482Y-134988799D01*
X45937604Y-134952664D01*
X46047387Y-134893983D01*
X46143613Y-134815013D01*
X46169013Y-134789613D01*
X46235111Y-134709072D01*
X47500000Y-134709072D01*
X47624482Y-134696812D01*
X47744180Y-134660502D01*
X47854494Y-134601537D01*
X47951185Y-134522185D01*
X48030537Y-134425494D01*
X48089502Y-134315180D01*
X48125812Y-134195482D01*
X48138072Y-134071000D01*
X48138072Y-133356750D01*
X50925000Y-133356750D01*
X50925000Y-134133542D01*
X50949403Y-134256223D01*
X50997270Y-134371785D01*
X51066763Y-134475789D01*
X51155211Y-134564237D01*
X51259215Y-134633730D01*
X51374777Y-134681597D01*
X51497458Y-134706000D01*
X52024250Y-134706000D01*
X52183000Y-134547250D01*
X52183000Y-133198000D01*
X51083750Y-133198000D01*
X50925000Y-133356750D01*
X48138072Y-133356750D01*
X48138072Y-132715000D01*
X49250600Y-132715000D01*
X49374482Y-132702799D01*
X49493604Y-132666664D01*
X49530000Y-132647210D01*
X49566396Y-132666664D01*
X49685518Y-132702799D01*
X49809400Y-132715000D01*
X50925000Y-132715000D01*
X50925000Y-132785250D01*
X51083750Y-132944000D01*
X52183000Y-132944000D01*
X52183000Y-132924000D01*
X52437000Y-132924000D01*
X52437000Y-132944000D01*
X52457000Y-132944000D01*
X52457000Y-133198000D01*
X52437000Y-133198000D01*
X52437000Y-134547250D01*
X52595750Y-134706000D01*
X52822368Y-134706000D01*
X52890987Y-134789613D01*
X52916387Y-134815013D01*
X53012613Y-134893983D01*
X53122396Y-134952664D01*
X53241518Y-134988799D01*
X53365400Y-135001000D01*
X53575001Y-135001000D01*
X53575000Y-138252172D01*
X53569994Y-138303000D01*
X53575000Y-138353828D01*
X53575000Y-138353837D01*
X53589976Y-138505894D01*
X53649159Y-138700992D01*
X53745266Y-138880797D01*
X53874604Y-139038396D01*
X53914097Y-139070807D01*
X56092063Y-141248774D01*
X56236226Y-141392937D01*
X56278712Y-141421325D01*
X56318202Y-141453734D01*
X56363256Y-141477816D01*
X56405744Y-141506205D01*
X56452959Y-141525762D01*
X56498006Y-141549840D01*
X56546881Y-141564666D01*
X56594102Y-141584226D01*
X56644229Y-141594197D01*
X56693104Y-141609023D01*
X56743934Y-141614029D01*
X56794061Y-141624000D01*
X56845171Y-141624000D01*
X56895999Y-141629006D01*
X56946827Y-141624000D01*
X56997939Y-141624000D01*
X57048068Y-141614029D01*
X57098894Y-141609023D01*
X57147766Y-141594198D01*
X57197898Y-141584226D01*
X57245123Y-141564665D01*
X57293993Y-141549840D01*
X57339036Y-141525764D01*
X57386256Y-141506205D01*
X57428748Y-141477813D01*
X57473797Y-141453734D01*
X57513281Y-141421330D01*
X57555774Y-141392937D01*
X57591916Y-141356795D01*
X57631395Y-141324395D01*
X57663795Y-141284916D01*
X57699937Y-141248774D01*
X57728330Y-141206281D01*
X57760734Y-141166797D01*
X57784813Y-141121748D01*
X57813205Y-141079256D01*
X57832764Y-141032036D01*
X57856840Y-140986993D01*
X57871665Y-140938123D01*
X57891226Y-140890898D01*
X57901198Y-140840766D01*
X57916023Y-140791894D01*
X57921029Y-140741068D01*
X57931000Y-140690939D01*
X57931000Y-140639827D01*
X57936006Y-140588999D01*
X57931000Y-140538171D01*
X57931000Y-140487061D01*
X57921029Y-140436934D01*
X57916023Y-140386104D01*
X57901197Y-140337229D01*
X57891226Y-140287102D01*
X57871666Y-140239881D01*
X57856840Y-140191006D01*
X57832762Y-140145959D01*
X57813205Y-140098744D01*
X57784816Y-140056256D01*
X57760734Y-140011202D01*
X57728325Y-139971712D01*
X57699937Y-139929226D01*
X57555774Y-139785063D01*
X55645000Y-137874290D01*
X55645000Y-135001000D01*
X55854600Y-135001000D01*
X55978482Y-134988799D01*
X56097604Y-134952664D01*
X56207387Y-134893983D01*
X56303613Y-134815013D01*
X56329013Y-134789613D01*
X56395111Y-134709072D01*
X57660000Y-134709072D01*
X57784482Y-134696812D01*
X57904180Y-134660502D01*
X58014494Y-134601537D01*
X58111185Y-134522185D01*
X58190537Y-134425494D01*
X58249502Y-134315180D01*
X58285812Y-134195482D01*
X58298072Y-134071000D01*
X58298072Y-133356750D01*
X61085000Y-133356750D01*
X61085000Y-134133542D01*
X61109403Y-134256223D01*
X61157270Y-134371785D01*
X61226763Y-134475789D01*
X61315211Y-134564237D01*
X61419215Y-134633730D01*
X61534777Y-134681597D01*
X61657458Y-134706000D01*
X62184250Y-134706000D01*
X62343000Y-134547250D01*
X62343000Y-133198000D01*
X61243750Y-133198000D01*
X61085000Y-133356750D01*
X58298072Y-133356750D01*
X58298072Y-132715000D01*
X59410600Y-132715000D01*
X59534482Y-132702799D01*
X59653604Y-132666664D01*
X59690000Y-132647210D01*
X59726396Y-132666664D01*
X59845518Y-132702799D01*
X59969400Y-132715000D01*
X61085000Y-132715000D01*
X61085000Y-132785250D01*
X61243750Y-132944000D01*
X62343000Y-132944000D01*
X62343000Y-132924000D01*
X62597000Y-132924000D01*
X62597000Y-132944000D01*
X62617000Y-132944000D01*
X62617000Y-133198000D01*
X62597000Y-133198000D01*
X62597000Y-134547250D01*
X62755750Y-134706000D01*
X62982368Y-134706000D01*
X63050987Y-134789613D01*
X63076387Y-134815013D01*
X63172613Y-134893983D01*
X63282396Y-134952664D01*
X63401518Y-134988799D01*
X63525400Y-135001000D01*
X63735001Y-135001000D01*
X63735000Y-138252172D01*
X63729994Y-138303000D01*
X63735000Y-138353828D01*
X63735000Y-138353837D01*
X63749976Y-138505894D01*
X63809159Y-138700992D01*
X63905266Y-138880797D01*
X64034604Y-139038396D01*
X64074097Y-139070807D01*
X66252063Y-141248774D01*
X66396226Y-141392937D01*
X66438712Y-141421325D01*
X66478202Y-141453734D01*
X66523256Y-141477816D01*
X66565744Y-141506205D01*
X66612959Y-141525762D01*
X66658006Y-141549840D01*
X66706881Y-141564666D01*
X66754102Y-141584226D01*
X66804229Y-141594197D01*
X66853104Y-141609023D01*
X66903934Y-141614029D01*
X66954061Y-141624000D01*
X67005171Y-141624000D01*
X67055999Y-141629006D01*
X67106827Y-141624000D01*
X67157939Y-141624000D01*
X67208068Y-141614029D01*
X67258894Y-141609023D01*
X67307766Y-141594198D01*
X67357898Y-141584226D01*
X67405123Y-141564665D01*
X67453993Y-141549840D01*
X67499036Y-141525764D01*
X67546256Y-141506205D01*
X67588748Y-141477813D01*
X67633797Y-141453734D01*
X67673281Y-141421330D01*
X67715774Y-141392937D01*
X67751916Y-141356795D01*
X67791395Y-141324395D01*
X67823795Y-141284916D01*
X67859937Y-141248774D01*
X67888330Y-141206281D01*
X67920734Y-141166797D01*
X67944813Y-141121748D01*
X67973205Y-141079256D01*
X67992764Y-141032036D01*
X68016840Y-140986993D01*
X68031665Y-140938123D01*
X68051226Y-140890898D01*
X68061198Y-140840766D01*
X68076023Y-140791894D01*
X68081029Y-140741068D01*
X68091000Y-140690939D01*
X68091000Y-140639827D01*
X68096006Y-140588999D01*
X68091000Y-140538171D01*
X68091000Y-140487061D01*
X68081029Y-140436934D01*
X68076023Y-140386104D01*
X68061197Y-140337229D01*
X68051226Y-140287102D01*
X68031666Y-140239881D01*
X68016840Y-140191006D01*
X67992762Y-140145959D01*
X67973205Y-140098744D01*
X67944816Y-140056256D01*
X67920734Y-140011202D01*
X67888325Y-139971712D01*
X67859937Y-139929226D01*
X67715774Y-139785063D01*
X65805000Y-137874290D01*
X65805000Y-135001000D01*
X66014600Y-135001000D01*
X66138482Y-134988799D01*
X66257604Y-134952664D01*
X66367387Y-134893983D01*
X66463613Y-134815013D01*
X66489013Y-134789613D01*
X66555111Y-134709072D01*
X67820000Y-134709072D01*
X67944482Y-134696812D01*
X68064180Y-134660502D01*
X68174494Y-134601537D01*
X68271185Y-134522185D01*
X68350537Y-134425494D01*
X68409502Y-134315180D01*
X68445812Y-134195482D01*
X68458072Y-134071000D01*
X68458072Y-133356750D01*
X71245000Y-133356750D01*
X71245000Y-134133542D01*
X71269403Y-134256223D01*
X71317270Y-134371785D01*
X71386763Y-134475789D01*
X71475211Y-134564237D01*
X71579215Y-134633730D01*
X71694777Y-134681597D01*
X71817458Y-134706000D01*
X72344250Y-134706000D01*
X72503000Y-134547250D01*
X72503000Y-133198000D01*
X71403750Y-133198000D01*
X71245000Y-133356750D01*
X68458072Y-133356750D01*
X68458072Y-132715000D01*
X69570600Y-132715000D01*
X69694482Y-132702799D01*
X69813604Y-132666664D01*
X69850000Y-132647210D01*
X69886396Y-132666664D01*
X70005518Y-132702799D01*
X70129400Y-132715000D01*
X71245000Y-132715000D01*
X71245000Y-132785250D01*
X71403750Y-132944000D01*
X72503000Y-132944000D01*
X72503000Y-132924000D01*
X72757000Y-132924000D01*
X72757000Y-132944000D01*
X72777000Y-132944000D01*
X72777000Y-133198000D01*
X72757000Y-133198000D01*
X72757000Y-134547250D01*
X72915750Y-134706000D01*
X73142368Y-134706000D01*
X73210987Y-134789613D01*
X73236387Y-134815013D01*
X73332613Y-134893983D01*
X73442396Y-134952664D01*
X73561518Y-134988799D01*
X73685400Y-135001000D01*
X73895001Y-135001000D01*
X73895000Y-138252172D01*
X73889994Y-138303000D01*
X73895000Y-138353828D01*
X73895000Y-138353837D01*
X73909976Y-138505894D01*
X73969159Y-138700992D01*
X74065266Y-138880797D01*
X74194604Y-139038396D01*
X74234097Y-139070807D01*
X76412063Y-141248774D01*
X76556226Y-141392937D01*
X76598712Y-141421325D01*
X76638202Y-141453734D01*
X76683256Y-141477816D01*
X76725744Y-141506205D01*
X76772959Y-141525762D01*
X76818006Y-141549840D01*
X76866881Y-141564666D01*
X76914102Y-141584226D01*
X76964229Y-141594197D01*
X77013104Y-141609023D01*
X77063934Y-141614029D01*
X77114061Y-141624000D01*
X77165171Y-141624000D01*
X77215999Y-141629006D01*
X77266827Y-141624000D01*
X77317939Y-141624000D01*
X77368068Y-141614029D01*
X77418894Y-141609023D01*
X77467766Y-141594198D01*
X77517898Y-141584226D01*
X77565123Y-141564665D01*
X77613993Y-141549840D01*
X77659036Y-141525764D01*
X77706256Y-141506205D01*
X77748748Y-141477813D01*
X77793797Y-141453734D01*
X77833281Y-141421330D01*
X77875774Y-141392937D01*
X77911916Y-141356795D01*
X77951395Y-141324395D01*
X77983795Y-141284916D01*
X78019937Y-141248774D01*
X78048330Y-141206281D01*
X78080734Y-141166797D01*
X78104813Y-141121748D01*
X78133205Y-141079256D01*
X78152764Y-141032036D01*
X78176840Y-140986993D01*
X78191665Y-140938123D01*
X78211226Y-140890898D01*
X78221198Y-140840766D01*
X78236023Y-140791894D01*
X78241029Y-140741068D01*
X78251000Y-140690939D01*
X78251000Y-140639827D01*
X78256006Y-140588999D01*
X78251000Y-140538171D01*
X78251000Y-140487061D01*
X78241029Y-140436934D01*
X78236023Y-140386104D01*
X78221197Y-140337229D01*
X78211226Y-140287102D01*
X78191666Y-140239881D01*
X78176840Y-140191006D01*
X78152762Y-140145959D01*
X78133205Y-140098744D01*
X78104816Y-140056256D01*
X78080734Y-140011202D01*
X78048325Y-139971712D01*
X78019937Y-139929226D01*
X77875774Y-139785063D01*
X75965000Y-137874290D01*
X75965000Y-135001000D01*
X76174600Y-135001000D01*
X76298482Y-134988799D01*
X76417604Y-134952664D01*
X76527387Y-134893983D01*
X76623613Y-134815013D01*
X76649013Y-134789613D01*
X76715111Y-134709072D01*
X77980000Y-134709072D01*
X78104482Y-134696812D01*
X78224180Y-134660502D01*
X78334494Y-134601537D01*
X78431185Y-134522185D01*
X78510537Y-134425494D01*
X78569502Y-134315180D01*
X78605812Y-134195482D01*
X78618072Y-134071000D01*
X78618072Y-133356750D01*
X81405000Y-133356750D01*
X81405000Y-134133542D01*
X81429403Y-134256223D01*
X81477270Y-134371785D01*
X81546763Y-134475789D01*
X81635211Y-134564237D01*
X81739215Y-134633730D01*
X81854777Y-134681597D01*
X81977458Y-134706000D01*
X82504250Y-134706000D01*
X82663000Y-134547250D01*
X82663000Y-133198000D01*
X81563750Y-133198000D01*
X81405000Y-133356750D01*
X78618072Y-133356750D01*
X78618072Y-132715000D01*
X79730600Y-132715000D01*
X79854482Y-132702799D01*
X79973604Y-132666664D01*
X80010000Y-132647210D01*
X80046396Y-132666664D01*
X80165518Y-132702799D01*
X80289400Y-132715000D01*
X81405000Y-132715000D01*
X81405000Y-132785250D01*
X81563750Y-132944000D01*
X82663000Y-132944000D01*
X82663000Y-132924000D01*
X82917000Y-132924000D01*
X82917000Y-132944000D01*
X82937000Y-132944000D01*
X82937000Y-133198000D01*
X82917000Y-133198000D01*
X82917000Y-134547250D01*
X83075750Y-134706000D01*
X83302368Y-134706000D01*
X83370987Y-134789613D01*
X83396387Y-134815013D01*
X83492613Y-134893983D01*
X83602396Y-134952664D01*
X83721518Y-134988799D01*
X83845400Y-135001000D01*
X84055001Y-135001000D01*
X84055000Y-138252172D01*
X84049994Y-138303000D01*
X84055000Y-138353828D01*
X84055000Y-138353837D01*
X84069976Y-138505894D01*
X84129159Y-138700992D01*
X84225266Y-138880797D01*
X84354604Y-139038396D01*
X84394097Y-139070807D01*
X86572063Y-141248774D01*
X86716226Y-141392937D01*
X86758712Y-141421325D01*
X86798202Y-141453734D01*
X86843256Y-141477816D01*
X86885744Y-141506205D01*
X86932959Y-141525762D01*
X86978006Y-141549840D01*
X87026881Y-141564666D01*
X87074102Y-141584226D01*
X87124229Y-141594197D01*
X87173104Y-141609023D01*
X87223934Y-141614029D01*
X87274061Y-141624000D01*
X87325171Y-141624000D01*
X87375999Y-141629006D01*
X87426827Y-141624000D01*
X87477939Y-141624000D01*
X87528068Y-141614029D01*
X87578894Y-141609023D01*
X87627766Y-141594198D01*
X87677898Y-141584226D01*
X87725123Y-141564665D01*
X87773993Y-141549840D01*
X87819036Y-141525764D01*
X87866256Y-141506205D01*
X87908748Y-141477813D01*
X87953797Y-141453734D01*
X87993281Y-141421330D01*
X88035774Y-141392937D01*
X88071916Y-141356795D01*
X88111395Y-141324395D01*
X88143795Y-141284916D01*
X88179937Y-141248774D01*
X88208330Y-141206281D01*
X88240734Y-141166797D01*
X88264813Y-141121748D01*
X88293205Y-141079256D01*
X88312764Y-141032036D01*
X88336840Y-140986993D01*
X88351665Y-140938123D01*
X88371226Y-140890898D01*
X88381198Y-140840766D01*
X88396023Y-140791894D01*
X88401029Y-140741068D01*
X88411000Y-140690939D01*
X88411000Y-140639827D01*
X88416006Y-140588999D01*
X88411000Y-140538171D01*
X88411000Y-140487061D01*
X88401029Y-140436934D01*
X88396023Y-140386104D01*
X88381197Y-140337229D01*
X88371226Y-140287102D01*
X88351666Y-140239881D01*
X88336840Y-140191006D01*
X88312762Y-140145959D01*
X88293205Y-140098744D01*
X88264816Y-140056256D01*
X88240734Y-140011202D01*
X88208325Y-139971712D01*
X88179937Y-139929226D01*
X88035774Y-139785063D01*
X86125000Y-137874290D01*
X86125000Y-135001000D01*
X86334600Y-135001000D01*
X86458482Y-134988799D01*
X86577604Y-134952664D01*
X86687387Y-134893983D01*
X86783613Y-134815013D01*
X86809013Y-134789613D01*
X86875111Y-134709072D01*
X88140000Y-134709072D01*
X88264482Y-134696812D01*
X88384180Y-134660502D01*
X88494494Y-134601537D01*
X88591185Y-134522185D01*
X88670537Y-134425494D01*
X88729502Y-134315180D01*
X88765812Y-134195482D01*
X88778072Y-134071000D01*
X88778072Y-133356750D01*
X91565000Y-133356750D01*
X91565000Y-134133542D01*
X91589403Y-134256223D01*
X91637270Y-134371785D01*
X91706763Y-134475789D01*
X91795211Y-134564237D01*
X91899215Y-134633730D01*
X92014777Y-134681597D01*
X92137458Y-134706000D01*
X92664250Y-134706000D01*
X92823000Y-134547250D01*
X92823000Y-133198000D01*
X91723750Y-133198000D01*
X91565000Y-133356750D01*
X88778072Y-133356750D01*
X88778072Y-132715000D01*
X89890600Y-132715000D01*
X90014482Y-132702799D01*
X90133604Y-132666664D01*
X90170000Y-132647210D01*
X90206396Y-132666664D01*
X90325518Y-132702799D01*
X90449400Y-132715000D01*
X91565000Y-132715000D01*
X91565000Y-132785250D01*
X91723750Y-132944000D01*
X92823000Y-132944000D01*
X92823000Y-132924000D01*
X93077000Y-132924000D01*
X93077000Y-132944000D01*
X93097000Y-132944000D01*
X93097000Y-133198000D01*
X93077000Y-133198000D01*
X93077000Y-134547250D01*
X93235750Y-134706000D01*
X93462368Y-134706000D01*
X93530987Y-134789613D01*
X93556387Y-134815013D01*
X93652613Y-134893983D01*
X93762396Y-134952664D01*
X93881518Y-134988799D01*
X94005400Y-135001000D01*
X94215001Y-135001000D01*
X94215000Y-138252172D01*
X94209994Y-138303000D01*
X94215000Y-138353828D01*
X94215000Y-138353837D01*
X94229976Y-138505894D01*
X94289159Y-138700992D01*
X94385266Y-138880797D01*
X94514604Y-139038396D01*
X94554097Y-139070807D01*
X96732063Y-141248774D01*
X96876226Y-141392937D01*
X96918712Y-141421325D01*
X96958202Y-141453734D01*
X97003256Y-141477816D01*
X97045744Y-141506205D01*
X97092959Y-141525762D01*
X97138006Y-141549840D01*
X97186881Y-141564666D01*
X97234102Y-141584226D01*
X97284229Y-141594197D01*
X97333104Y-141609023D01*
X97383934Y-141614029D01*
X97434061Y-141624000D01*
X97485171Y-141624000D01*
X97535999Y-141629006D01*
X97586827Y-141624000D01*
X97637939Y-141624000D01*
X97688068Y-141614029D01*
X97738894Y-141609023D01*
X97787766Y-141594198D01*
X97837898Y-141584226D01*
X97885123Y-141564665D01*
X97933993Y-141549840D01*
X97979036Y-141525764D01*
X98026256Y-141506205D01*
X98068748Y-141477813D01*
X98113797Y-141453734D01*
X98153281Y-141421330D01*
X98195774Y-141392937D01*
X98231916Y-141356795D01*
X98271395Y-141324395D01*
X98303795Y-141284916D01*
X98339937Y-141248774D01*
X98368330Y-141206281D01*
X98400734Y-141166797D01*
X98424813Y-141121748D01*
X98453205Y-141079256D01*
X98472764Y-141032036D01*
X98496840Y-140986993D01*
X98511665Y-140938123D01*
X98531226Y-140890898D01*
X98541198Y-140840766D01*
X98556023Y-140791894D01*
X98561029Y-140741068D01*
X98571000Y-140690939D01*
X98571000Y-140639827D01*
X98576006Y-140588999D01*
X98571000Y-140538171D01*
X98571000Y-140487061D01*
X98561029Y-140436934D01*
X98556023Y-140386104D01*
X98541197Y-140337229D01*
X98531226Y-140287102D01*
X98511666Y-140239881D01*
X98496840Y-140191006D01*
X98472762Y-140145959D01*
X98453205Y-140098744D01*
X98424816Y-140056256D01*
X98400734Y-140011202D01*
X98368325Y-139971712D01*
X98339937Y-139929226D01*
X98195774Y-139785063D01*
X96285000Y-137874290D01*
X96285000Y-135001000D01*
X96494600Y-135001000D01*
X96618482Y-134988799D01*
X96737604Y-134952664D01*
X96847387Y-134893983D01*
X96943613Y-134815013D01*
X96969013Y-134789613D01*
X97035111Y-134709072D01*
X98300000Y-134709072D01*
X98424482Y-134696812D01*
X98544180Y-134660502D01*
X98654494Y-134601537D01*
X98751185Y-134522185D01*
X98830537Y-134425494D01*
X98889502Y-134315180D01*
X98925812Y-134195482D01*
X98938072Y-134071000D01*
X98938072Y-133356750D01*
X101725000Y-133356750D01*
X101725000Y-134133542D01*
X101749403Y-134256223D01*
X101797270Y-134371785D01*
X101866763Y-134475789D01*
X101955211Y-134564237D01*
X102059215Y-134633730D01*
X102174777Y-134681597D01*
X102297458Y-134706000D01*
X102824250Y-134706000D01*
X102983000Y-134547250D01*
X102983000Y-133198000D01*
X101883750Y-133198000D01*
X101725000Y-133356750D01*
X98938072Y-133356750D01*
X98938072Y-132715000D01*
X100050600Y-132715000D01*
X100174482Y-132702799D01*
X100293604Y-132666664D01*
X100330000Y-132647210D01*
X100366396Y-132666664D01*
X100485518Y-132702799D01*
X100609400Y-132715000D01*
X101725000Y-132715000D01*
X101725000Y-132785250D01*
X101883750Y-132944000D01*
X102983000Y-132944000D01*
X102983000Y-132924000D01*
X103237000Y-132924000D01*
X103237000Y-132944000D01*
X103257000Y-132944000D01*
X103257000Y-133198000D01*
X103237000Y-133198000D01*
X103237000Y-134547250D01*
X103395750Y-134706000D01*
X103622368Y-134706000D01*
X103690987Y-134789613D01*
X103716387Y-134815013D01*
X103812613Y-134893983D01*
X103922396Y-134952664D01*
X104041518Y-134988799D01*
X104165400Y-135001000D01*
X104375001Y-135001000D01*
X104375000Y-138252172D01*
X104369994Y-138303000D01*
X104375000Y-138353828D01*
X104375000Y-138353837D01*
X104389976Y-138505894D01*
X104449159Y-138700992D01*
X104545266Y-138880797D01*
X104674604Y-139038396D01*
X104714097Y-139070807D01*
X106892063Y-141248774D01*
X107036226Y-141392937D01*
X107078712Y-141421325D01*
X107118202Y-141453734D01*
X107163256Y-141477816D01*
X107205744Y-141506205D01*
X107252959Y-141525762D01*
X107298006Y-141549840D01*
X107346881Y-141564666D01*
X107394102Y-141584226D01*
X107444229Y-141594197D01*
X107493104Y-141609023D01*
X107543934Y-141614029D01*
X107594061Y-141624000D01*
X107645171Y-141624000D01*
X107695999Y-141629006D01*
X107746827Y-141624000D01*
X107797939Y-141624000D01*
X107848068Y-141614029D01*
X107898894Y-141609023D01*
X107947766Y-141594198D01*
X107997898Y-141584226D01*
X108045123Y-141564665D01*
X108093993Y-141549840D01*
X108139036Y-141525764D01*
X108186256Y-141506205D01*
X108228748Y-141477813D01*
X108273797Y-141453734D01*
X108313281Y-141421330D01*
X108355774Y-141392937D01*
X108391916Y-141356795D01*
X108431395Y-141324395D01*
X108463795Y-141284916D01*
X108499937Y-141248774D01*
X108528330Y-141206281D01*
X108560734Y-141166797D01*
X108584813Y-141121748D01*
X108613205Y-141079256D01*
X108632764Y-141032036D01*
X108656840Y-140986993D01*
X108671665Y-140938123D01*
X108691226Y-140890898D01*
X108701198Y-140840766D01*
X108716023Y-140791894D01*
X108721029Y-140741068D01*
X108731000Y-140690939D01*
X108731000Y-140639827D01*
X108736006Y-140588999D01*
X108731000Y-140538171D01*
X108731000Y-140487061D01*
X108721029Y-140436934D01*
X108716023Y-140386104D01*
X108701197Y-140337229D01*
X108691226Y-140287102D01*
X108671666Y-140239881D01*
X108656840Y-140191006D01*
X108632762Y-140145959D01*
X108613205Y-140098744D01*
X108584816Y-140056256D01*
X108560734Y-140011202D01*
X108528325Y-139971712D01*
X108499937Y-139929226D01*
X108355774Y-139785063D01*
X106445000Y-137874290D01*
X106445000Y-135001000D01*
X106654600Y-135001000D01*
X106778482Y-134988799D01*
X106897604Y-134952664D01*
X107007387Y-134893983D01*
X107103613Y-134815013D01*
X107129013Y-134789613D01*
X107195111Y-134709072D01*
X108460000Y-134709072D01*
X108584482Y-134696812D01*
X108704180Y-134660502D01*
X108814494Y-134601537D01*
X108911185Y-134522185D01*
X108990537Y-134425494D01*
X109049502Y-134315180D01*
X109085812Y-134195482D01*
X109098072Y-134071000D01*
X109098072Y-133356750D01*
X111885000Y-133356750D01*
X111885000Y-134133542D01*
X111909403Y-134256223D01*
X111957270Y-134371785D01*
X112026763Y-134475789D01*
X112115211Y-134564237D01*
X112219215Y-134633730D01*
X112334777Y-134681597D01*
X112457458Y-134706000D01*
X112984250Y-134706000D01*
X113143000Y-134547250D01*
X113143000Y-133198000D01*
X112043750Y-133198000D01*
X111885000Y-133356750D01*
X109098072Y-133356750D01*
X109098072Y-132715000D01*
X110210600Y-132715000D01*
X110334482Y-132702799D01*
X110453604Y-132666664D01*
X110490000Y-132647210D01*
X110526396Y-132666664D01*
X110645518Y-132702799D01*
X110769400Y-132715000D01*
X111885000Y-132715000D01*
X111885000Y-132785250D01*
X112043750Y-132944000D01*
X113143000Y-132944000D01*
X113143000Y-132924000D01*
X113397000Y-132924000D01*
X113397000Y-132944000D01*
X113417000Y-132944000D01*
X113417000Y-133198000D01*
X113397000Y-133198000D01*
X113397000Y-134547250D01*
X113555750Y-134706000D01*
X113782368Y-134706000D01*
X113850987Y-134789613D01*
X113876387Y-134815013D01*
X113972613Y-134893983D01*
X114082396Y-134952664D01*
X114201518Y-134988799D01*
X114325400Y-135001000D01*
X114535001Y-135001000D01*
X114535000Y-138252172D01*
X114529994Y-138303000D01*
X114535000Y-138353828D01*
X114535000Y-138353837D01*
X114549976Y-138505894D01*
X114609159Y-138700992D01*
X114705266Y-138880797D01*
X114834604Y-139038396D01*
X114874097Y-139070807D01*
X117052063Y-141248774D01*
X117196226Y-141392937D01*
X117238712Y-141421325D01*
X117278202Y-141453734D01*
X117323256Y-141477816D01*
X117365744Y-141506205D01*
X117412959Y-141525762D01*
X117458006Y-141549840D01*
X117506881Y-141564666D01*
X117554102Y-141584226D01*
X117604229Y-141594197D01*
X117653104Y-141609023D01*
X117703934Y-141614029D01*
X117754061Y-141624000D01*
X117805171Y-141624000D01*
X117855999Y-141629006D01*
X117906827Y-141624000D01*
X117957939Y-141624000D01*
X118008068Y-141614029D01*
X118058894Y-141609023D01*
X118107766Y-141594198D01*
X118157898Y-141584226D01*
X118205123Y-141564665D01*
X118253993Y-141549840D01*
X118299036Y-141525764D01*
X118346256Y-141506205D01*
X118388748Y-141477813D01*
X118433797Y-141453734D01*
X118473281Y-141421330D01*
X118515774Y-141392937D01*
X118551916Y-141356795D01*
X118591395Y-141324395D01*
X118623795Y-141284916D01*
X118659937Y-141248774D01*
X118688330Y-141206281D01*
X118720734Y-141166797D01*
X118744813Y-141121748D01*
X118773205Y-141079256D01*
X118792764Y-141032036D01*
X118816840Y-140986993D01*
X118831665Y-140938123D01*
X118851226Y-140890898D01*
X118861198Y-140840766D01*
X118876023Y-140791894D01*
X118881029Y-140741068D01*
X118891000Y-140690939D01*
X118891000Y-140639827D01*
X118896006Y-140588999D01*
X118891000Y-140538171D01*
X118891000Y-140487061D01*
X118881029Y-140436934D01*
X118876023Y-140386104D01*
X118861197Y-140337229D01*
X118851226Y-140287102D01*
X118831666Y-140239881D01*
X118816840Y-140191006D01*
X118792762Y-140145959D01*
X118773205Y-140098744D01*
X118744816Y-140056256D01*
X118720734Y-140011202D01*
X118688325Y-139971712D01*
X118659937Y-139929226D01*
X118515774Y-139785063D01*
X116605000Y-137874290D01*
X116605000Y-135001000D01*
X116814600Y-135001000D01*
X116938482Y-134988799D01*
X117057604Y-134952664D01*
X117167387Y-134893983D01*
X117263613Y-134815013D01*
X117289013Y-134789613D01*
X117355111Y-134709072D01*
X118620000Y-134709072D01*
X118744482Y-134696812D01*
X118864180Y-134660502D01*
X118974494Y-134601537D01*
X119071185Y-134522185D01*
X119150537Y-134425494D01*
X119209502Y-134315180D01*
X119245812Y-134195482D01*
X119258072Y-134071000D01*
X119258072Y-132715000D01*
X120370600Y-132715000D01*
X120494482Y-132702799D01*
X120613604Y-132666664D01*
X120723387Y-132607983D01*
X120819613Y-132529013D01*
X120845013Y-132503613D01*
X120923983Y-132407387D01*
X120982664Y-132297604D01*
X121018799Y-132178482D01*
X121031000Y-132054600D01*
X121031000Y-123977400D01*
X121028498Y-123952000D01*
X122790000Y-123952000D01*
X122790001Y-131892546D01*
X122730820Y-131910498D01*
X122620506Y-131969463D01*
X122523815Y-132048815D01*
X122444463Y-132145506D01*
X122385498Y-132255820D01*
X122349188Y-132375518D01*
X122336928Y-132500000D01*
X122336928Y-134200000D01*
X122349188Y-134324482D01*
X122385498Y-134444180D01*
X122444463Y-134554494D01*
X122523815Y-134651185D01*
X122620506Y-134730537D01*
X122730820Y-134789502D01*
X122790001Y-134807454D01*
X122790001Y-134818342D01*
X122769866Y-134834866D01*
X122584294Y-135060986D01*
X122446401Y-135318966D01*
X122361487Y-135598889D01*
X122332815Y-135890000D01*
X122361487Y-136181111D01*
X122446401Y-136461034D01*
X122584294Y-136719014D01*
X122769866Y-136945134D01*
X122790000Y-136961658D01*
X122790001Y-137358342D01*
X122769866Y-137374866D01*
X122584294Y-137600986D01*
X122446401Y-137858966D01*
X122361487Y-138138889D01*
X122332815Y-138430000D01*
X122335368Y-138455921D01*
X118443290Y-142348000D01*
X46431162Y-142348000D01*
X46279105Y-142362976D01*
X46084007Y-142422159D01*
X45904203Y-142518266D01*
X45746604Y-142647604D01*
X45617266Y-142805203D01*
X45521159Y-142985007D01*
X45461976Y-143180105D01*
X45445439Y-143348010D01*
X45362812Y-143348010D01*
X43099804Y-141085003D01*
X43076001Y-141055999D01*
X43013929Y-141005058D01*
X42967937Y-140936226D01*
X42823774Y-140792063D01*
X42654256Y-140678795D01*
X42465898Y-140600774D01*
X42265939Y-140561000D01*
X42062061Y-140561000D01*
X41862102Y-140600774D01*
X41673744Y-140678795D01*
X41504226Y-140792063D01*
X41360063Y-140936226D01*
X41246795Y-141105744D01*
X41168774Y-141294102D01*
X41129000Y-141494061D01*
X41129000Y-141697939D01*
X41168774Y-141897898D01*
X41246795Y-142086256D01*
X41360063Y-142255774D01*
X41504226Y-142399937D01*
X41673744Y-142513205D01*
X41862102Y-142591226D01*
X42062061Y-142631000D01*
X42265939Y-142631000D01*
X42457997Y-142592798D01*
X44484211Y-144619013D01*
X44508009Y-144648011D01*
X44537007Y-144671809D01*
X44623734Y-144742984D01*
X44755763Y-144813556D01*
X44899024Y-144857013D01*
X45048010Y-144871687D01*
X45085343Y-144868010D01*
X56750000Y-144868010D01*
X56750000Y-144934949D01*
X56789774Y-145134908D01*
X56867795Y-145323266D01*
X56981063Y-145492784D01*
X57125226Y-145636947D01*
X57294744Y-145750215D01*
X57483102Y-145828236D01*
X57683061Y-145868010D01*
X57886939Y-145868010D01*
X58086898Y-145828236D01*
X58275256Y-145750215D01*
X58444774Y-145636947D01*
X58488711Y-145593010D01*
X66910000Y-145593010D01*
X66910000Y-145659949D01*
X66949774Y-145859908D01*
X67018158Y-146025000D01*
X37478335Y-146025000D01*
X37770250Y-145904085D01*
X38095364Y-145686851D01*
X38371851Y-145410364D01*
X38589085Y-145085250D01*
X38738718Y-144724003D01*
X38815000Y-144340505D01*
X38815000Y-143949495D01*
X38738718Y-143565997D01*
X38589085Y-143204750D01*
X38371851Y-142879636D01*
X38095364Y-142603149D01*
X37770250Y-142385915D01*
X37409003Y-142236282D01*
X37025505Y-142160000D01*
X36634495Y-142160000D01*
X36250997Y-142236282D01*
X35889750Y-142385915D01*
X35564636Y-142603149D01*
X35288149Y-142879636D01*
X35070915Y-143204750D01*
X34950000Y-143496665D01*
X34950000Y-133356750D01*
X40765000Y-133356750D01*
X40765000Y-134133542D01*
X40789403Y-134256223D01*
X40837270Y-134371785D01*
X40906763Y-134475789D01*
X40995211Y-134564237D01*
X41099215Y-134633730D01*
X41214777Y-134681597D01*
X41337458Y-134706000D01*
X41864250Y-134706000D01*
X42023000Y-134547250D01*
X42023000Y-133198000D01*
X40923750Y-133198000D01*
X40765000Y-133356750D01*
X34950000Y-133356750D01*
X34950000Y-123952000D01*
X38991502Y-123952000D01*
X38989000Y-123977400D01*
G36*
X127510001Y-131934874D02*
G01*
X127400223Y-131889403D01*
X127277542Y-131865000D01*
X126650750Y-131865000D01*
X126492000Y-132023750D01*
X126492000Y-133223000D01*
X126512000Y-133223000D01*
X126512000Y-133477000D01*
X126492000Y-133477000D01*
X126492000Y-135763000D01*
X126512000Y-135763000D01*
X126512000Y-136017000D01*
X126492000Y-136017000D01*
X126492000Y-138303000D01*
X126512000Y-138303000D01*
X126512000Y-138557000D01*
X126492000Y-138557000D01*
X126492000Y-139750814D01*
X126721891Y-139871481D01*
X126996252Y-139774157D01*
X127246355Y-139625178D01*
X127457731Y-139434647D01*
X123544369Y-143348010D01*
X120370700Y-143348010D01*
X123803711Y-139915000D01*
X123897950Y-139915000D01*
X124116111Y-139893513D01*
X124396034Y-139808599D01*
X124654014Y-139670706D01*
X124880134Y-139485134D01*
X125065706Y-139259014D01*
X125096584Y-139201244D01*
X125267412Y-139430269D01*
X125483645Y-139625178D01*
X125733748Y-139774157D01*
X126008109Y-139871481D01*
X126238000Y-139750814D01*
X126238000Y-138557000D01*
X126218000Y-138557000D01*
X126218000Y-138303000D01*
X126238000Y-138303000D01*
X126238000Y-136017000D01*
X126218000Y-136017000D01*
X126218000Y-135763000D01*
X126238000Y-135763000D01*
X126238000Y-133477000D01*
X126218000Y-133477000D01*
X126218000Y-133223000D01*
X126238000Y-133223000D01*
X126238000Y-132023750D01*
X126079250Y-131865000D01*
X125452458Y-131865000D01*
X125329777Y-131889403D01*
X125214215Y-131937270D01*
X125110211Y-132006763D01*
X125094314Y-132022660D01*
X125029494Y-131969463D01*
X124919180Y-131910498D01*
X124860000Y-131892546D01*
X124860000Y-123952000D01*
X127510000Y-123952000D01*
X127510001Y-131934874D01*
X127510001Y-131934874D01*
G37*
X127510001Y-131934874D02*
X127400223Y-131889403D01*
X127277542Y-131865000D01*
X126650750Y-131865000D01*
X126492000Y-132023750D01*
X126492000Y-133223000D01*
X126512000Y-133223000D01*
X126512000Y-133477000D01*
X126492000Y-133477000D01*
X126492000Y-135763000D01*
X126512000Y-135763000D01*
X126512000Y-136017000D01*
X126492000Y-136017000D01*
X126492000Y-138303000D01*
X126512000Y-138303000D01*
X126512000Y-138557000D01*
X126492000Y-138557000D01*
X126492000Y-139750814D01*
X126721891Y-139871481D01*
X126996252Y-139774157D01*
X127246355Y-139625178D01*
X127457731Y-139434647D01*
X123544369Y-143348010D01*
X120370700Y-143348010D01*
X123803711Y-139915000D01*
X123897950Y-139915000D01*
X124116111Y-139893513D01*
X124396034Y-139808599D01*
X124654014Y-139670706D01*
X124880134Y-139485134D01*
X125065706Y-139259014D01*
X125096584Y-139201244D01*
X125267412Y-139430269D01*
X125483645Y-139625178D01*
X125733748Y-139774157D01*
X126008109Y-139871481D01*
X126238000Y-139750814D01*
X126238000Y-138557000D01*
X126218000Y-138557000D01*
X126218000Y-138303000D01*
X126238000Y-138303000D01*
X126238000Y-136017000D01*
X126218000Y-136017000D01*
X126218000Y-135763000D01*
X126238000Y-135763000D01*
X126238000Y-133477000D01*
X126218000Y-133477000D01*
X126218000Y-133223000D01*
X126238000Y-133223000D01*
X126238000Y-132023750D01*
X126079250Y-131865000D01*
X125452458Y-131865000D01*
X125329777Y-131889403D01*
X125214215Y-131937270D01*
X125110211Y-132006763D01*
X125094314Y-132022660D01*
X125029494Y-131969463D01*
X124919180Y-131910498D01*
X124860000Y-131892546D01*
X124860000Y-123952000D01*
X127510000Y-123952000D01*
X127510001Y-131934874D01*
G36*
X135584750Y-106825915D02*
G01*
X135259636Y-107043149D01*
X134983149Y-107319636D01*
X134765915Y-107644750D01*
X134616282Y-108005997D01*
X134540000Y-108389495D01*
X134540000Y-108780505D01*
X134616282Y-109164003D01*
X134765915Y-109525250D01*
X134983149Y-109850364D01*
X135259636Y-110126851D01*
X135584750Y-110344085D01*
X135945997Y-110493718D01*
X136329495Y-110570000D01*
X136720505Y-110570000D01*
X137104003Y-110493718D01*
X137465250Y-110344085D01*
X137790364Y-110126851D01*
X138066851Y-109850364D01*
X138284085Y-109525250D01*
X138405000Y-109233335D01*
X138405000Y-119302706D01*
X138364494Y-119269463D01*
X138254180Y-119210498D01*
X138134482Y-119174188D01*
X138010000Y-119161928D01*
X136310000Y-119161928D01*
X136185518Y-119174188D01*
X136065820Y-119210498D01*
X135955506Y-119269463D01*
X135858815Y-119348815D01*
X135779463Y-119445506D01*
X135720498Y-119555820D01*
X135684188Y-119675518D01*
X135671928Y-119800000D01*
X135671928Y-119890000D01*
X133568072Y-119890000D01*
X133568072Y-119800000D01*
X133555812Y-119675518D01*
X133519502Y-119555820D01*
X133460537Y-119445506D01*
X133381185Y-119348815D01*
X133284494Y-119269463D01*
X133174180Y-119210498D01*
X133054482Y-119174188D01*
X132930000Y-119161928D01*
X131230000Y-119161928D01*
X131105518Y-119174188D01*
X130985820Y-119210498D01*
X130875506Y-119269463D01*
X130778815Y-119348815D01*
X130699463Y-119445506D01*
X130640498Y-119555820D01*
X130604188Y-119675518D01*
X130591928Y-119800000D01*
X130591928Y-119995674D01*
X130555724Y-120015026D01*
X130439999Y-120109999D01*
X130416201Y-120138997D01*
X127759003Y-122796196D01*
X127729999Y-122819999D01*
X127674871Y-122887174D01*
X127635026Y-122935724D01*
X127577264Y-123043789D01*
X127566995Y-123063000D01*
X127131725Y-123063000D01*
X127194014Y-123029706D01*
X127420134Y-122844134D01*
X127605706Y-122618014D01*
X127743599Y-122360034D01*
X127828513Y-122080110D01*
X127850000Y-121861949D01*
X127850000Y-121216050D01*
X127828513Y-120997889D01*
X127743599Y-120717966D01*
X127605706Y-120459986D01*
X127420134Y-120233866D01*
X127194013Y-120048294D01*
X126936033Y-119910401D01*
X126656110Y-119825487D01*
X126365000Y-119796815D01*
X126073889Y-119825487D01*
X125793966Y-119910401D01*
X125535986Y-120048294D01*
X125309866Y-120233866D01*
X125287144Y-120261553D01*
X125285597Y-120253777D01*
X125237730Y-120138215D01*
X125168237Y-120034211D01*
X125079789Y-119945763D01*
X124975785Y-119876270D01*
X124860223Y-119828403D01*
X124737542Y-119804000D01*
X124364750Y-119804000D01*
X124206000Y-119962750D01*
X124206000Y-121158000D01*
X124226000Y-121158000D01*
X124226000Y-121920000D01*
X124206000Y-121920000D01*
X124206000Y-121940000D01*
X123444000Y-121940000D01*
X123444000Y-121920000D01*
X122498750Y-121920000D01*
X122340000Y-122078750D01*
X122340000Y-122701542D01*
X122364403Y-122824223D01*
X122412270Y-122939785D01*
X122481763Y-123043789D01*
X122500974Y-123063000D01*
X118028194Y-123063000D01*
X118080706Y-122999014D01*
X118218599Y-122741034D01*
X118303513Y-122461110D01*
X118325000Y-122242949D01*
X118325000Y-121597050D01*
X118303513Y-121378889D01*
X118218599Y-121098966D01*
X118080706Y-120840986D01*
X117895134Y-120614866D01*
X117669013Y-120429294D01*
X117570164Y-120376458D01*
X122340000Y-120376458D01*
X122340000Y-120999250D01*
X122498750Y-121158000D01*
X123444000Y-121158000D01*
X123444000Y-119962750D01*
X123285250Y-119804000D01*
X122912458Y-119804000D01*
X122789777Y-119828403D01*
X122674215Y-119876270D01*
X122570211Y-119945763D01*
X122481763Y-120034211D01*
X122412270Y-120138215D01*
X122364403Y-120253777D01*
X122340000Y-120376458D01*
X117570164Y-120376458D01*
X117411033Y-120291401D01*
X117131110Y-120206487D01*
X116840000Y-120177815D01*
X116548889Y-120206487D01*
X116268966Y-120291401D01*
X116010986Y-120429294D01*
X115784866Y-120614866D01*
X115762144Y-120642553D01*
X115760597Y-120634777D01*
X115712730Y-120519215D01*
X115643237Y-120415211D01*
X115554789Y-120326763D01*
X115450785Y-120257270D01*
X115335223Y-120209403D01*
X115212542Y-120185000D01*
X114839750Y-120185000D01*
X114681000Y-120343750D01*
X114681000Y-121539000D01*
X114701000Y-121539000D01*
X114701000Y-122301000D01*
X114681000Y-122301000D01*
X114681000Y-122321000D01*
X113919000Y-122321000D01*
X113919000Y-122301000D01*
X112973750Y-122301000D01*
X112815000Y-122459750D01*
X112815000Y-123063000D01*
X107868194Y-123063000D01*
X107920706Y-122999014D01*
X108058599Y-122741034D01*
X108143513Y-122461110D01*
X108165000Y-122242949D01*
X108165000Y-121597050D01*
X108143513Y-121378889D01*
X108058599Y-121098966D01*
X107920706Y-120840986D01*
X107852157Y-120757458D01*
X112815000Y-120757458D01*
X112815000Y-121380250D01*
X112973750Y-121539000D01*
X113919000Y-121539000D01*
X113919000Y-120343750D01*
X113760250Y-120185000D01*
X113387458Y-120185000D01*
X113264777Y-120209403D01*
X113149215Y-120257270D01*
X113045211Y-120326763D01*
X112956763Y-120415211D01*
X112887270Y-120519215D01*
X112839403Y-120634777D01*
X112815000Y-120757458D01*
X107852157Y-120757458D01*
X107735134Y-120614866D01*
X107509013Y-120429294D01*
X107251033Y-120291401D01*
X106971110Y-120206487D01*
X106680000Y-120177815D01*
X106388889Y-120206487D01*
X106108966Y-120291401D01*
X105850986Y-120429294D01*
X105624866Y-120614866D01*
X105602144Y-120642553D01*
X105600597Y-120634777D01*
X105552730Y-120519215D01*
X105483237Y-120415211D01*
X105394789Y-120326763D01*
X105290785Y-120257270D01*
X105175223Y-120209403D01*
X105052542Y-120185000D01*
X104679750Y-120185000D01*
X104521000Y-120343750D01*
X104521000Y-121539000D01*
X104541000Y-121539000D01*
X104541000Y-122301000D01*
X104521000Y-122301000D01*
X104521000Y-122321000D01*
X103759000Y-122321000D01*
X103759000Y-122301000D01*
X102813750Y-122301000D01*
X102655000Y-122459750D01*
X102655000Y-123063000D01*
X97708194Y-123063000D01*
X97760706Y-122999014D01*
X97898599Y-122741034D01*
X97983513Y-122461110D01*
X98005000Y-122242949D01*
X98005000Y-121597050D01*
X97983513Y-121378889D01*
X97898599Y-121098966D01*
X97760706Y-120840986D01*
X97692157Y-120757458D01*
X102655000Y-120757458D01*
X102655000Y-121380250D01*
X102813750Y-121539000D01*
X103759000Y-121539000D01*
X103759000Y-120343750D01*
X103600250Y-120185000D01*
X103227458Y-120185000D01*
X103104777Y-120209403D01*
X102989215Y-120257270D01*
X102885211Y-120326763D01*
X102796763Y-120415211D01*
X102727270Y-120519215D01*
X102679403Y-120634777D01*
X102655000Y-120757458D01*
X97692157Y-120757458D01*
X97575134Y-120614866D01*
X97349013Y-120429294D01*
X97091033Y-120291401D01*
X96811110Y-120206487D01*
X96520000Y-120177815D01*
X96228889Y-120206487D01*
X95948966Y-120291401D01*
X95690986Y-120429294D01*
X95464866Y-120614866D01*
X95442144Y-120642553D01*
X95440597Y-120634777D01*
X95392730Y-120519215D01*
X95323237Y-120415211D01*
X95234789Y-120326763D01*
X95130785Y-120257270D01*
X95015223Y-120209403D01*
X94892542Y-120185000D01*
X94519750Y-120185000D01*
X94361000Y-120343750D01*
X94361000Y-121539000D01*
X94381000Y-121539000D01*
X94381000Y-122301000D01*
X94361000Y-122301000D01*
X94361000Y-122321000D01*
X93599000Y-122321000D01*
X93599000Y-122301000D01*
X92653750Y-122301000D01*
X92495000Y-122459750D01*
X92495000Y-123063000D01*
X87548194Y-123063000D01*
X87600706Y-122999014D01*
X87738599Y-122741034D01*
X87823513Y-122461110D01*
X87845000Y-122242949D01*
X87845000Y-121597050D01*
X87823513Y-121378889D01*
X87738599Y-121098966D01*
X87600706Y-120840986D01*
X87532157Y-120757458D01*
X92495000Y-120757458D01*
X92495000Y-121380250D01*
X92653750Y-121539000D01*
X93599000Y-121539000D01*
X93599000Y-120343750D01*
X93440250Y-120185000D01*
X93067458Y-120185000D01*
X92944777Y-120209403D01*
X92829215Y-120257270D01*
X92725211Y-120326763D01*
X92636763Y-120415211D01*
X92567270Y-120519215D01*
X92519403Y-120634777D01*
X92495000Y-120757458D01*
X87532157Y-120757458D01*
X87415134Y-120614866D01*
X87189013Y-120429294D01*
X86931033Y-120291401D01*
X86651110Y-120206487D01*
X86360000Y-120177815D01*
X86068889Y-120206487D01*
X85788966Y-120291401D01*
X85530986Y-120429294D01*
X85304866Y-120614866D01*
X85282144Y-120642553D01*
X85280597Y-120634777D01*
X85232730Y-120519215D01*
X85163237Y-120415211D01*
X85074789Y-120326763D01*
X84970785Y-120257270D01*
X84855223Y-120209403D01*
X84732542Y-120185000D01*
X84359750Y-120185000D01*
X84201000Y-120343750D01*
X84201000Y-121539000D01*
X84221000Y-121539000D01*
X84221000Y-122301000D01*
X84201000Y-122301000D01*
X84201000Y-122321000D01*
X83439000Y-122321000D01*
X83439000Y-122301000D01*
X82493750Y-122301000D01*
X82335000Y-122459750D01*
X82335000Y-123063000D01*
X77388194Y-123063000D01*
X77440706Y-122999014D01*
X77578599Y-122741034D01*
X77663513Y-122461110D01*
X77685000Y-122242949D01*
X77685000Y-121597050D01*
X77663513Y-121378889D01*
X77578599Y-121098966D01*
X77440706Y-120840986D01*
X77372157Y-120757458D01*
X82335000Y-120757458D01*
X82335000Y-121380250D01*
X82493750Y-121539000D01*
X83439000Y-121539000D01*
X83439000Y-120343750D01*
X83280250Y-120185000D01*
X82907458Y-120185000D01*
X82784777Y-120209403D01*
X82669215Y-120257270D01*
X82565211Y-120326763D01*
X82476763Y-120415211D01*
X82407270Y-120519215D01*
X82359403Y-120634777D01*
X82335000Y-120757458D01*
X77372157Y-120757458D01*
X77255134Y-120614866D01*
X77029013Y-120429294D01*
X76771033Y-120291401D01*
X76491110Y-120206487D01*
X76200000Y-120177815D01*
X75908889Y-120206487D01*
X75628966Y-120291401D01*
X75370986Y-120429294D01*
X75144866Y-120614866D01*
X75122144Y-120642553D01*
X75120597Y-120634777D01*
X75072730Y-120519215D01*
X75003237Y-120415211D01*
X74914789Y-120326763D01*
X74810785Y-120257270D01*
X74695223Y-120209403D01*
X74572542Y-120185000D01*
X74199750Y-120185000D01*
X74041000Y-120343750D01*
X74041000Y-121539000D01*
X74061000Y-121539000D01*
X74061000Y-122301000D01*
X74041000Y-122301000D01*
X74041000Y-122321000D01*
X73279000Y-122321000D01*
X73279000Y-122301000D01*
X72333750Y-122301000D01*
X72175000Y-122459750D01*
X72175000Y-123063000D01*
X67228194Y-123063000D01*
X67280706Y-122999014D01*
X67418599Y-122741034D01*
X67503513Y-122461110D01*
X67525000Y-122242949D01*
X67525000Y-121597050D01*
X67503513Y-121378889D01*
X67418599Y-121098966D01*
X67280706Y-120840986D01*
X67212157Y-120757458D01*
X72175000Y-120757458D01*
X72175000Y-121380250D01*
X72333750Y-121539000D01*
X73279000Y-121539000D01*
X73279000Y-120343750D01*
X73120250Y-120185000D01*
X72747458Y-120185000D01*
X72624777Y-120209403D01*
X72509215Y-120257270D01*
X72405211Y-120326763D01*
X72316763Y-120415211D01*
X72247270Y-120519215D01*
X72199403Y-120634777D01*
X72175000Y-120757458D01*
X67212157Y-120757458D01*
X67095134Y-120614866D01*
X66869013Y-120429294D01*
X66611033Y-120291401D01*
X66331110Y-120206487D01*
X66040000Y-120177815D01*
X65748889Y-120206487D01*
X65468966Y-120291401D01*
X65210986Y-120429294D01*
X64984866Y-120614866D01*
X64962144Y-120642553D01*
X64960597Y-120634777D01*
X64912730Y-120519215D01*
X64843237Y-120415211D01*
X64754789Y-120326763D01*
X64650785Y-120257270D01*
X64535223Y-120209403D01*
X64412542Y-120185000D01*
X64039750Y-120185000D01*
X63881000Y-120343750D01*
X63881000Y-121539000D01*
X63901000Y-121539000D01*
X63901000Y-122301000D01*
X63881000Y-122301000D01*
X63881000Y-122321000D01*
X63119000Y-122321000D01*
X63119000Y-122301000D01*
X62173750Y-122301000D01*
X62015000Y-122459750D01*
X62015000Y-123063000D01*
X57068194Y-123063000D01*
X57120706Y-122999014D01*
X57258599Y-122741034D01*
X57343513Y-122461110D01*
X57365000Y-122242949D01*
X57365000Y-121597050D01*
X57343513Y-121378889D01*
X57258599Y-121098966D01*
X57120706Y-120840986D01*
X57052157Y-120757458D01*
X62015000Y-120757458D01*
X62015000Y-121380250D01*
X62173750Y-121539000D01*
X63119000Y-121539000D01*
X63119000Y-120343750D01*
X62960250Y-120185000D01*
X62587458Y-120185000D01*
X62464777Y-120209403D01*
X62349215Y-120257270D01*
X62245211Y-120326763D01*
X62156763Y-120415211D01*
X62087270Y-120519215D01*
X62039403Y-120634777D01*
X62015000Y-120757458D01*
X57052157Y-120757458D01*
X56935134Y-120614866D01*
X56709013Y-120429294D01*
X56451033Y-120291401D01*
X56171110Y-120206487D01*
X55880000Y-120177815D01*
X55588889Y-120206487D01*
X55308966Y-120291401D01*
X55050986Y-120429294D01*
X54824866Y-120614866D01*
X54802144Y-120642553D01*
X54800597Y-120634777D01*
X54752730Y-120519215D01*
X54683237Y-120415211D01*
X54594789Y-120326763D01*
X54490785Y-120257270D01*
X54375223Y-120209403D01*
X54252542Y-120185000D01*
X53879750Y-120185000D01*
X53721000Y-120343750D01*
X53721000Y-121539000D01*
X53741000Y-121539000D01*
X53741000Y-122301000D01*
X53721000Y-122301000D01*
X53721000Y-122321000D01*
X52959000Y-122321000D01*
X52959000Y-122301000D01*
X52013750Y-122301000D01*
X51855000Y-122459750D01*
X51855000Y-123063000D01*
X46908194Y-123063000D01*
X46960706Y-122999014D01*
X47098599Y-122741034D01*
X47183513Y-122461110D01*
X47205000Y-122242949D01*
X47205000Y-121597050D01*
X47183513Y-121378889D01*
X47098599Y-121098966D01*
X46960706Y-120840986D01*
X46892157Y-120757458D01*
X51855000Y-120757458D01*
X51855000Y-121380250D01*
X52013750Y-121539000D01*
X52959000Y-121539000D01*
X52959000Y-120343750D01*
X52800250Y-120185000D01*
X52427458Y-120185000D01*
X52304777Y-120209403D01*
X52189215Y-120257270D01*
X52085211Y-120326763D01*
X51996763Y-120415211D01*
X51927270Y-120519215D01*
X51879403Y-120634777D01*
X51855000Y-120757458D01*
X46892157Y-120757458D01*
X46775134Y-120614866D01*
X46549013Y-120429294D01*
X46291033Y-120291401D01*
X46011110Y-120206487D01*
X45720000Y-120177815D01*
X45428889Y-120206487D01*
X45148966Y-120291401D01*
X44890986Y-120429294D01*
X44664866Y-120614866D01*
X44642144Y-120642553D01*
X44640597Y-120634777D01*
X44592730Y-120519215D01*
X44523237Y-120415211D01*
X44434789Y-120326763D01*
X44330785Y-120257270D01*
X44215223Y-120209403D01*
X44092542Y-120185000D01*
X43719750Y-120185000D01*
X43561000Y-120343750D01*
X43561000Y-121539000D01*
X43581000Y-121539000D01*
X43581000Y-122301000D01*
X43561000Y-122301000D01*
X43561000Y-122321000D01*
X42799000Y-122321000D01*
X42799000Y-122301000D01*
X41853750Y-122301000D01*
X41695000Y-122459750D01*
X41695000Y-123063000D01*
X34950000Y-123063000D01*
X34950000Y-120757458D01*
X41695000Y-120757458D01*
X41695000Y-121380250D01*
X41853750Y-121539000D01*
X42799000Y-121539000D01*
X42799000Y-120343750D01*
X42640250Y-120185000D01*
X42267458Y-120185000D01*
X42144777Y-120209403D01*
X42029215Y-120257270D01*
X41925211Y-120326763D01*
X41836763Y-120415211D01*
X41767270Y-120519215D01*
X41719403Y-120634777D01*
X41695000Y-120757458D01*
X34950000Y-120757458D01*
X34950000Y-112299750D01*
X39975000Y-112299750D01*
X39975000Y-113122542D01*
X39999403Y-113245223D01*
X40047270Y-113360785D01*
X40116763Y-113464789D01*
X40205211Y-113553237D01*
X40309215Y-113622730D01*
X40424777Y-113670597D01*
X40547458Y-113695000D01*
X41370250Y-113695000D01*
X41529000Y-113536250D01*
X41529000Y-112141000D01*
X42291000Y-112141000D01*
X42291000Y-113536250D01*
X42449750Y-113695000D01*
X43272542Y-113695000D01*
X43395223Y-113670597D01*
X43510785Y-113622730D01*
X43614789Y-113553237D01*
X43703237Y-113464789D01*
X43772730Y-113360785D01*
X43820597Y-113245223D01*
X43845000Y-113122542D01*
X43845000Y-112299750D01*
X43686250Y-112141000D01*
X42291000Y-112141000D01*
X41529000Y-112141000D01*
X40133750Y-112141000D01*
X39975000Y-112299750D01*
X34950000Y-112299750D01*
X34950000Y-111569419D01*
X45055000Y-111569419D01*
X45055000Y-111950581D01*
X45129361Y-112324419D01*
X45275225Y-112676566D01*
X45486987Y-112993491D01*
X45756509Y-113263013D01*
X46073434Y-113474775D01*
X46425581Y-113620639D01*
X46799419Y-113695000D01*
X47180581Y-113695000D01*
X47554419Y-113620639D01*
X47906566Y-113474775D01*
X48223491Y-113263013D01*
X48493013Y-112993491D01*
X48704775Y-112676566D01*
X48850639Y-112324419D01*
X48855545Y-112299750D01*
X50135000Y-112299750D01*
X50135000Y-113122542D01*
X50159403Y-113245223D01*
X50207270Y-113360785D01*
X50276763Y-113464789D01*
X50365211Y-113553237D01*
X50469215Y-113622730D01*
X50584777Y-113670597D01*
X50707458Y-113695000D01*
X51530250Y-113695000D01*
X51689000Y-113536250D01*
X51689000Y-112141000D01*
X52451000Y-112141000D01*
X52451000Y-113536250D01*
X52609750Y-113695000D01*
X53432542Y-113695000D01*
X53555223Y-113670597D01*
X53670785Y-113622730D01*
X53774789Y-113553237D01*
X53863237Y-113464789D01*
X53932730Y-113360785D01*
X53980597Y-113245223D01*
X54005000Y-113122542D01*
X54005000Y-112299750D01*
X53846250Y-112141000D01*
X52451000Y-112141000D01*
X51689000Y-112141000D01*
X50293750Y-112141000D01*
X50135000Y-112299750D01*
X48855545Y-112299750D01*
X48925000Y-111950581D01*
X48925000Y-111569419D01*
X55215000Y-111569419D01*
X55215000Y-111950581D01*
X55289361Y-112324419D01*
X55435225Y-112676566D01*
X55646987Y-112993491D01*
X55916509Y-113263013D01*
X56233434Y-113474775D01*
X56585581Y-113620639D01*
X56959419Y-113695000D01*
X57340581Y-113695000D01*
X57714419Y-113620639D01*
X58066566Y-113474775D01*
X58383491Y-113263013D01*
X58653013Y-112993491D01*
X58864775Y-112676566D01*
X59010639Y-112324419D01*
X59015545Y-112299750D01*
X60295000Y-112299750D01*
X60295000Y-113122542D01*
X60319403Y-113245223D01*
X60367270Y-113360785D01*
X60436763Y-113464789D01*
X60525211Y-113553237D01*
X60629215Y-113622730D01*
X60744777Y-113670597D01*
X60867458Y-113695000D01*
X61690250Y-113695000D01*
X61849000Y-113536250D01*
X61849000Y-112141000D01*
X62611000Y-112141000D01*
X62611000Y-113536250D01*
X62769750Y-113695000D01*
X63592542Y-113695000D01*
X63715223Y-113670597D01*
X63830785Y-113622730D01*
X63934789Y-113553237D01*
X64023237Y-113464789D01*
X64092730Y-113360785D01*
X64140597Y-113245223D01*
X64165000Y-113122542D01*
X64165000Y-112299750D01*
X64006250Y-112141000D01*
X62611000Y-112141000D01*
X61849000Y-112141000D01*
X60453750Y-112141000D01*
X60295000Y-112299750D01*
X59015545Y-112299750D01*
X59085000Y-111950581D01*
X59085000Y-111569419D01*
X65375000Y-111569419D01*
X65375000Y-111950581D01*
X65449361Y-112324419D01*
X65595225Y-112676566D01*
X65806987Y-112993491D01*
X66076509Y-113263013D01*
X66393434Y-113474775D01*
X66745581Y-113620639D01*
X67119419Y-113695000D01*
X67500581Y-113695000D01*
X67874419Y-113620639D01*
X68226566Y-113474775D01*
X68543491Y-113263013D01*
X68813013Y-112993491D01*
X69024775Y-112676566D01*
X69170639Y-112324419D01*
X69175545Y-112299750D01*
X70455000Y-112299750D01*
X70455000Y-113122542D01*
X70479403Y-113245223D01*
X70527270Y-113360785D01*
X70596763Y-113464789D01*
X70685211Y-113553237D01*
X70789215Y-113622730D01*
X70904777Y-113670597D01*
X71027458Y-113695000D01*
X71850250Y-113695000D01*
X72009000Y-113536250D01*
X72009000Y-112141000D01*
X72771000Y-112141000D01*
X72771000Y-113536250D01*
X72929750Y-113695000D01*
X73752542Y-113695000D01*
X73875223Y-113670597D01*
X73990785Y-113622730D01*
X74094789Y-113553237D01*
X74183237Y-113464789D01*
X74252730Y-113360785D01*
X74300597Y-113245223D01*
X74325000Y-113122542D01*
X74325000Y-112299750D01*
X74166250Y-112141000D01*
X72771000Y-112141000D01*
X72009000Y-112141000D01*
X70613750Y-112141000D01*
X70455000Y-112299750D01*
X69175545Y-112299750D01*
X69245000Y-111950581D01*
X69245000Y-111569419D01*
X75535000Y-111569419D01*
X75535000Y-111950581D01*
X75609361Y-112324419D01*
X75755225Y-112676566D01*
X75966987Y-112993491D01*
X76236509Y-113263013D01*
X76553434Y-113474775D01*
X76905581Y-113620639D01*
X77279419Y-113695000D01*
X77660581Y-113695000D01*
X78034419Y-113620639D01*
X78386566Y-113474775D01*
X78703491Y-113263013D01*
X78973013Y-112993491D01*
X79184775Y-112676566D01*
X79330639Y-112324419D01*
X79335545Y-112299750D01*
X80615000Y-112299750D01*
X80615000Y-113122542D01*
X80639403Y-113245223D01*
X80687270Y-113360785D01*
X80756763Y-113464789D01*
X80845211Y-113553237D01*
X80949215Y-113622730D01*
X81064777Y-113670597D01*
X81187458Y-113695000D01*
X82010250Y-113695000D01*
X82169000Y-113536250D01*
X82169000Y-112141000D01*
X82931000Y-112141000D01*
X82931000Y-113536250D01*
X83089750Y-113695000D01*
X83912542Y-113695000D01*
X84035223Y-113670597D01*
X84150785Y-113622730D01*
X84254789Y-113553237D01*
X84343237Y-113464789D01*
X84412730Y-113360785D01*
X84460597Y-113245223D01*
X84485000Y-113122542D01*
X84485000Y-112299750D01*
X84326250Y-112141000D01*
X82931000Y-112141000D01*
X82169000Y-112141000D01*
X80773750Y-112141000D01*
X80615000Y-112299750D01*
X79335545Y-112299750D01*
X79405000Y-111950581D01*
X79405000Y-111569419D01*
X85695000Y-111569419D01*
X85695000Y-111950581D01*
X85769361Y-112324419D01*
X85915225Y-112676566D01*
X86126987Y-112993491D01*
X86396509Y-113263013D01*
X86713434Y-113474775D01*
X87065581Y-113620639D01*
X87439419Y-113695000D01*
X87820581Y-113695000D01*
X88194419Y-113620639D01*
X88546566Y-113474775D01*
X88863491Y-113263013D01*
X89133013Y-112993491D01*
X89344775Y-112676566D01*
X89490639Y-112324419D01*
X89495545Y-112299750D01*
X90775000Y-112299750D01*
X90775000Y-113122542D01*
X90799403Y-113245223D01*
X90847270Y-113360785D01*
X90916763Y-113464789D01*
X91005211Y-113553237D01*
X91109215Y-113622730D01*
X91224777Y-113670597D01*
X91347458Y-113695000D01*
X92170250Y-113695000D01*
X92329000Y-113536250D01*
X92329000Y-112141000D01*
X93091000Y-112141000D01*
X93091000Y-113536250D01*
X93249750Y-113695000D01*
X94072542Y-113695000D01*
X94195223Y-113670597D01*
X94310785Y-113622730D01*
X94414789Y-113553237D01*
X94503237Y-113464789D01*
X94572730Y-113360785D01*
X94620597Y-113245223D01*
X94645000Y-113122542D01*
X94645000Y-112299750D01*
X94486250Y-112141000D01*
X93091000Y-112141000D01*
X92329000Y-112141000D01*
X90933750Y-112141000D01*
X90775000Y-112299750D01*
X89495545Y-112299750D01*
X89565000Y-111950581D01*
X89565000Y-111569419D01*
X95855000Y-111569419D01*
X95855000Y-111950581D01*
X95929361Y-112324419D01*
X96075225Y-112676566D01*
X96286987Y-112993491D01*
X96556509Y-113263013D01*
X96873434Y-113474775D01*
X97225581Y-113620639D01*
X97599419Y-113695000D01*
X97980581Y-113695000D01*
X98354419Y-113620639D01*
X98706566Y-113474775D01*
X99023491Y-113263013D01*
X99293013Y-112993491D01*
X99504775Y-112676566D01*
X99650639Y-112324419D01*
X99655545Y-112299750D01*
X100935000Y-112299750D01*
X100935000Y-113122542D01*
X100959403Y-113245223D01*
X101007270Y-113360785D01*
X101076763Y-113464789D01*
X101165211Y-113553237D01*
X101269215Y-113622730D01*
X101384777Y-113670597D01*
X101507458Y-113695000D01*
X102330250Y-113695000D01*
X102489000Y-113536250D01*
X102489000Y-112141000D01*
X103251000Y-112141000D01*
X103251000Y-113536250D01*
X103409750Y-113695000D01*
X104232542Y-113695000D01*
X104355223Y-113670597D01*
X104470785Y-113622730D01*
X104574789Y-113553237D01*
X104663237Y-113464789D01*
X104732730Y-113360785D01*
X104780597Y-113245223D01*
X104805000Y-113122542D01*
X104805000Y-112299750D01*
X104646250Y-112141000D01*
X103251000Y-112141000D01*
X102489000Y-112141000D01*
X101093750Y-112141000D01*
X100935000Y-112299750D01*
X99655545Y-112299750D01*
X99725000Y-111950581D01*
X99725000Y-111569419D01*
X106015000Y-111569419D01*
X106015000Y-111950581D01*
X106089361Y-112324419D01*
X106235225Y-112676566D01*
X106446987Y-112993491D01*
X106716509Y-113263013D01*
X107033434Y-113474775D01*
X107385581Y-113620639D01*
X107759419Y-113695000D01*
X108140581Y-113695000D01*
X108514419Y-113620639D01*
X108866566Y-113474775D01*
X109183491Y-113263013D01*
X109453013Y-112993491D01*
X109664775Y-112676566D01*
X109810639Y-112324419D01*
X109815545Y-112299750D01*
X111095000Y-112299750D01*
X111095000Y-113122542D01*
X111119403Y-113245223D01*
X111167270Y-113360785D01*
X111236763Y-113464789D01*
X111325211Y-113553237D01*
X111429215Y-113622730D01*
X111544777Y-113670597D01*
X111667458Y-113695000D01*
X112490250Y-113695000D01*
X112649000Y-113536250D01*
X112649000Y-112141000D01*
X113411000Y-112141000D01*
X113411000Y-113536250D01*
X113569750Y-113695000D01*
X114392542Y-113695000D01*
X114515223Y-113670597D01*
X114630785Y-113622730D01*
X114734789Y-113553237D01*
X114823237Y-113464789D01*
X114892730Y-113360785D01*
X114940597Y-113245223D01*
X114965000Y-113122542D01*
X114965000Y-112299750D01*
X114806250Y-112141000D01*
X113411000Y-112141000D01*
X112649000Y-112141000D01*
X111253750Y-112141000D01*
X111095000Y-112299750D01*
X109815545Y-112299750D01*
X109885000Y-111950581D01*
X109885000Y-111569419D01*
X116175000Y-111569419D01*
X116175000Y-111950581D01*
X116249361Y-112324419D01*
X116395225Y-112676566D01*
X116606987Y-112993491D01*
X116876509Y-113263013D01*
X117193434Y-113474775D01*
X117545581Y-113620639D01*
X117919419Y-113695000D01*
X118300581Y-113695000D01*
X118674419Y-113620639D01*
X119026566Y-113474775D01*
X119343491Y-113263013D01*
X119613013Y-112993491D01*
X119824775Y-112676566D01*
X119970639Y-112324419D01*
X119975545Y-112299750D01*
X123160000Y-112299750D01*
X123160000Y-113122542D01*
X123184403Y-113245223D01*
X123232270Y-113360785D01*
X123301763Y-113464789D01*
X123390211Y-113553237D01*
X123494215Y-113622730D01*
X123609777Y-113670597D01*
X123732458Y-113695000D01*
X124555250Y-113695000D01*
X124714000Y-113536250D01*
X124714000Y-112141000D01*
X125476000Y-112141000D01*
X125476000Y-113536250D01*
X125634750Y-113695000D01*
X126457542Y-113695000D01*
X126580223Y-113670597D01*
X126695785Y-113622730D01*
X126799789Y-113553237D01*
X126888237Y-113464789D01*
X126957730Y-113360785D01*
X127005597Y-113245223D01*
X127030000Y-113122542D01*
X127030000Y-112299750D01*
X126871250Y-112141000D01*
X125476000Y-112141000D01*
X124714000Y-112141000D01*
X123318750Y-112141000D01*
X123160000Y-112299750D01*
X119975545Y-112299750D01*
X120045000Y-111950581D01*
X120045000Y-111569419D01*
X128240000Y-111569419D01*
X128240000Y-111950581D01*
X128314361Y-112324419D01*
X128460225Y-112676566D01*
X128671987Y-112993491D01*
X128941509Y-113263013D01*
X129258434Y-113474775D01*
X129610581Y-113620639D01*
X129984419Y-113695000D01*
X130365581Y-113695000D01*
X130739419Y-113620639D01*
X131091566Y-113474775D01*
X131408491Y-113263013D01*
X131678013Y-112993491D01*
X131889775Y-112676566D01*
X132035639Y-112324419D01*
X132110000Y-111950581D01*
X132110000Y-111569419D01*
X132035639Y-111195581D01*
X131889775Y-110843434D01*
X131678013Y-110526509D01*
X131408491Y-110256987D01*
X131091566Y-110045225D01*
X130739419Y-109899361D01*
X130365581Y-109825000D01*
X129984419Y-109825000D01*
X129610581Y-109899361D01*
X129258434Y-110045225D01*
X128941509Y-110256987D01*
X128671987Y-110526509D01*
X128460225Y-110843434D01*
X128314361Y-111195581D01*
X128240000Y-111569419D01*
X120045000Y-111569419D01*
X119970639Y-111195581D01*
X119824775Y-110843434D01*
X119613013Y-110526509D01*
X119483962Y-110397458D01*
X123160000Y-110397458D01*
X123160000Y-111220250D01*
X123318750Y-111379000D01*
X124714000Y-111379000D01*
X124714000Y-109983750D01*
X125476000Y-109983750D01*
X125476000Y-111379000D01*
X126871250Y-111379000D01*
X127030000Y-111220250D01*
X127030000Y-110397458D01*
X127005597Y-110274777D01*
X126957730Y-110159215D01*
X126888237Y-110055211D01*
X126799789Y-109966763D01*
X126695785Y-109897270D01*
X126580223Y-109849403D01*
X126457542Y-109825000D01*
X125634750Y-109825000D01*
X125476000Y-109983750D01*
X124714000Y-109983750D01*
X124555250Y-109825000D01*
X123732458Y-109825000D01*
X123609777Y-109849403D01*
X123494215Y-109897270D01*
X123390211Y-109966763D01*
X123301763Y-110055211D01*
X123232270Y-110159215D01*
X123184403Y-110274777D01*
X123160000Y-110397458D01*
X119483962Y-110397458D01*
X119343491Y-110256987D01*
X119026566Y-110045225D01*
X118674419Y-109899361D01*
X118300581Y-109825000D01*
X117919419Y-109825000D01*
X117545581Y-109899361D01*
X117193434Y-110045225D01*
X116876509Y-110256987D01*
X116606987Y-110526509D01*
X116395225Y-110843434D01*
X116249361Y-111195581D01*
X116175000Y-111569419D01*
X109885000Y-111569419D01*
X109810639Y-111195581D01*
X109664775Y-110843434D01*
X109453013Y-110526509D01*
X109323962Y-110397458D01*
X111095000Y-110397458D01*
X111095000Y-111220250D01*
X111253750Y-111379000D01*
X112649000Y-111379000D01*
X112649000Y-109983750D01*
X113411000Y-109983750D01*
X113411000Y-111379000D01*
X114806250Y-111379000D01*
X114965000Y-111220250D01*
X114965000Y-110397458D01*
X114940597Y-110274777D01*
X114892730Y-110159215D01*
X114823237Y-110055211D01*
X114734789Y-109966763D01*
X114630785Y-109897270D01*
X114515223Y-109849403D01*
X114392542Y-109825000D01*
X113569750Y-109825000D01*
X113411000Y-109983750D01*
X112649000Y-109983750D01*
X112490250Y-109825000D01*
X111667458Y-109825000D01*
X111544777Y-109849403D01*
X111429215Y-109897270D01*
X111325211Y-109966763D01*
X111236763Y-110055211D01*
X111167270Y-110159215D01*
X111119403Y-110274777D01*
X111095000Y-110397458D01*
X109323962Y-110397458D01*
X109183491Y-110256987D01*
X108866566Y-110045225D01*
X108514419Y-109899361D01*
X108140581Y-109825000D01*
X107759419Y-109825000D01*
X107385581Y-109899361D01*
X107033434Y-110045225D01*
X106716509Y-110256987D01*
X106446987Y-110526509D01*
X106235225Y-110843434D01*
X106089361Y-111195581D01*
X106015000Y-111569419D01*
X99725000Y-111569419D01*
X99650639Y-111195581D01*
X99504775Y-110843434D01*
X99293013Y-110526509D01*
X99163962Y-110397458D01*
X100935000Y-110397458D01*
X100935000Y-111220250D01*
X101093750Y-111379000D01*
X102489000Y-111379000D01*
X102489000Y-109983750D01*
X103251000Y-109983750D01*
X103251000Y-111379000D01*
X104646250Y-111379000D01*
X104805000Y-111220250D01*
X104805000Y-110397458D01*
X104780597Y-110274777D01*
X104732730Y-110159215D01*
X104663237Y-110055211D01*
X104574789Y-109966763D01*
X104470785Y-109897270D01*
X104355223Y-109849403D01*
X104232542Y-109825000D01*
X103409750Y-109825000D01*
X103251000Y-109983750D01*
X102489000Y-109983750D01*
X102330250Y-109825000D01*
X101507458Y-109825000D01*
X101384777Y-109849403D01*
X101269215Y-109897270D01*
X101165211Y-109966763D01*
X101076763Y-110055211D01*
X101007270Y-110159215D01*
X100959403Y-110274777D01*
X100935000Y-110397458D01*
X99163962Y-110397458D01*
X99023491Y-110256987D01*
X98706566Y-110045225D01*
X98354419Y-109899361D01*
X97980581Y-109825000D01*
X97599419Y-109825000D01*
X97225581Y-109899361D01*
X96873434Y-110045225D01*
X96556509Y-110256987D01*
X96286987Y-110526509D01*
X96075225Y-110843434D01*
X95929361Y-111195581D01*
X95855000Y-111569419D01*
X89565000Y-111569419D01*
X89490639Y-111195581D01*
X89344775Y-110843434D01*
X89133013Y-110526509D01*
X89003962Y-110397458D01*
X90775000Y-110397458D01*
X90775000Y-111220250D01*
X90933750Y-111379000D01*
X92329000Y-111379000D01*
X92329000Y-109983750D01*
X93091000Y-109983750D01*
X93091000Y-111379000D01*
X94486250Y-111379000D01*
X94645000Y-111220250D01*
X94645000Y-110397458D01*
X94620597Y-110274777D01*
X94572730Y-110159215D01*
X94503237Y-110055211D01*
X94414789Y-109966763D01*
X94310785Y-109897270D01*
X94195223Y-109849403D01*
X94072542Y-109825000D01*
X93249750Y-109825000D01*
X93091000Y-109983750D01*
X92329000Y-109983750D01*
X92170250Y-109825000D01*
X91347458Y-109825000D01*
X91224777Y-109849403D01*
X91109215Y-109897270D01*
X91005211Y-109966763D01*
X90916763Y-110055211D01*
X90847270Y-110159215D01*
X90799403Y-110274777D01*
X90775000Y-110397458D01*
X89003962Y-110397458D01*
X88863491Y-110256987D01*
X88546566Y-110045225D01*
X88194419Y-109899361D01*
X87820581Y-109825000D01*
X87439419Y-109825000D01*
X87065581Y-109899361D01*
X86713434Y-110045225D01*
X86396509Y-110256987D01*
X86126987Y-110526509D01*
X85915225Y-110843434D01*
X85769361Y-111195581D01*
X85695000Y-111569419D01*
X79405000Y-111569419D01*
X79330639Y-111195581D01*
X79184775Y-110843434D01*
X78973013Y-110526509D01*
X78843962Y-110397458D01*
X80615000Y-110397458D01*
X80615000Y-111220250D01*
X80773750Y-111379000D01*
X82169000Y-111379000D01*
X82169000Y-109983750D01*
X82931000Y-109983750D01*
X82931000Y-111379000D01*
X84326250Y-111379000D01*
X84485000Y-111220250D01*
X84485000Y-110397458D01*
X84460597Y-110274777D01*
X84412730Y-110159215D01*
X84343237Y-110055211D01*
X84254789Y-109966763D01*
X84150785Y-109897270D01*
X84035223Y-109849403D01*
X83912542Y-109825000D01*
X83089750Y-109825000D01*
X82931000Y-109983750D01*
X82169000Y-109983750D01*
X82010250Y-109825000D01*
X81187458Y-109825000D01*
X81064777Y-109849403D01*
X80949215Y-109897270D01*
X80845211Y-109966763D01*
X80756763Y-110055211D01*
X80687270Y-110159215D01*
X80639403Y-110274777D01*
X80615000Y-110397458D01*
X78843962Y-110397458D01*
X78703491Y-110256987D01*
X78386566Y-110045225D01*
X78034419Y-109899361D01*
X77660581Y-109825000D01*
X77279419Y-109825000D01*
X76905581Y-109899361D01*
X76553434Y-110045225D01*
X76236509Y-110256987D01*
X75966987Y-110526509D01*
X75755225Y-110843434D01*
X75609361Y-111195581D01*
X75535000Y-111569419D01*
X69245000Y-111569419D01*
X69170639Y-111195581D01*
X69024775Y-110843434D01*
X68813013Y-110526509D01*
X68683962Y-110397458D01*
X70455000Y-110397458D01*
X70455000Y-111220250D01*
X70613750Y-111379000D01*
X72009000Y-111379000D01*
X72009000Y-109983750D01*
X72771000Y-109983750D01*
X72771000Y-111379000D01*
X74166250Y-111379000D01*
X74325000Y-111220250D01*
X74325000Y-110397458D01*
X74300597Y-110274777D01*
X74252730Y-110159215D01*
X74183237Y-110055211D01*
X74094789Y-109966763D01*
X73990785Y-109897270D01*
X73875223Y-109849403D01*
X73752542Y-109825000D01*
X72929750Y-109825000D01*
X72771000Y-109983750D01*
X72009000Y-109983750D01*
X71850250Y-109825000D01*
X71027458Y-109825000D01*
X70904777Y-109849403D01*
X70789215Y-109897270D01*
X70685211Y-109966763D01*
X70596763Y-110055211D01*
X70527270Y-110159215D01*
X70479403Y-110274777D01*
X70455000Y-110397458D01*
X68683962Y-110397458D01*
X68543491Y-110256987D01*
X68226566Y-110045225D01*
X67874419Y-109899361D01*
X67500581Y-109825000D01*
X67119419Y-109825000D01*
X66745581Y-109899361D01*
X66393434Y-110045225D01*
X66076509Y-110256987D01*
X65806987Y-110526509D01*
X65595225Y-110843434D01*
X65449361Y-111195581D01*
X65375000Y-111569419D01*
X59085000Y-111569419D01*
X59010639Y-111195581D01*
X58864775Y-110843434D01*
X58653013Y-110526509D01*
X58523962Y-110397458D01*
X60295000Y-110397458D01*
X60295000Y-111220250D01*
X60453750Y-111379000D01*
X61849000Y-111379000D01*
X61849000Y-109983750D01*
X62611000Y-109983750D01*
X62611000Y-111379000D01*
X64006250Y-111379000D01*
X64165000Y-111220250D01*
X64165000Y-110397458D01*
X64140597Y-110274777D01*
X64092730Y-110159215D01*
X64023237Y-110055211D01*
X63934789Y-109966763D01*
X63830785Y-109897270D01*
X63715223Y-109849403D01*
X63592542Y-109825000D01*
X62769750Y-109825000D01*
X62611000Y-109983750D01*
X61849000Y-109983750D01*
X61690250Y-109825000D01*
X60867458Y-109825000D01*
X60744777Y-109849403D01*
X60629215Y-109897270D01*
X60525211Y-109966763D01*
X60436763Y-110055211D01*
X60367270Y-110159215D01*
X60319403Y-110274777D01*
X60295000Y-110397458D01*
X58523962Y-110397458D01*
X58383491Y-110256987D01*
X58066566Y-110045225D01*
X57714419Y-109899361D01*
X57340581Y-109825000D01*
X56959419Y-109825000D01*
X56585581Y-109899361D01*
X56233434Y-110045225D01*
X55916509Y-110256987D01*
X55646987Y-110526509D01*
X55435225Y-110843434D01*
X55289361Y-111195581D01*
X55215000Y-111569419D01*
X48925000Y-111569419D01*
X48850639Y-111195581D01*
X48704775Y-110843434D01*
X48493013Y-110526509D01*
X48363962Y-110397458D01*
X50135000Y-110397458D01*
X50135000Y-111220250D01*
X50293750Y-111379000D01*
X51689000Y-111379000D01*
X51689000Y-109983750D01*
X52451000Y-109983750D01*
X52451000Y-111379000D01*
X53846250Y-111379000D01*
X54005000Y-111220250D01*
X54005000Y-110397458D01*
X53980597Y-110274777D01*
X53932730Y-110159215D01*
X53863237Y-110055211D01*
X53774789Y-109966763D01*
X53670785Y-109897270D01*
X53555223Y-109849403D01*
X53432542Y-109825000D01*
X52609750Y-109825000D01*
X52451000Y-109983750D01*
X51689000Y-109983750D01*
X51530250Y-109825000D01*
X50707458Y-109825000D01*
X50584777Y-109849403D01*
X50469215Y-109897270D01*
X50365211Y-109966763D01*
X50276763Y-110055211D01*
X50207270Y-110159215D01*
X50159403Y-110274777D01*
X50135000Y-110397458D01*
X48363962Y-110397458D01*
X48223491Y-110256987D01*
X47906566Y-110045225D01*
X47554419Y-109899361D01*
X47180581Y-109825000D01*
X46799419Y-109825000D01*
X46425581Y-109899361D01*
X46073434Y-110045225D01*
X45756509Y-110256987D01*
X45486987Y-110526509D01*
X45275225Y-110843434D01*
X45129361Y-111195581D01*
X45055000Y-111569419D01*
X34950000Y-111569419D01*
X34950000Y-109233335D01*
X35070915Y-109525250D01*
X35288149Y-109850364D01*
X35564636Y-110126851D01*
X35889750Y-110344085D01*
X36250997Y-110493718D01*
X36634495Y-110570000D01*
X37025505Y-110570000D01*
X37409003Y-110493718D01*
X37641395Y-110397458D01*
X39975000Y-110397458D01*
X39975000Y-111220250D01*
X40133750Y-111379000D01*
X41529000Y-111379000D01*
X41529000Y-109983750D01*
X42291000Y-109983750D01*
X42291000Y-111379000D01*
X43686250Y-111379000D01*
X43845000Y-111220250D01*
X43845000Y-110397458D01*
X43820597Y-110274777D01*
X43772730Y-110159215D01*
X43703237Y-110055211D01*
X43614789Y-109966763D01*
X43510785Y-109897270D01*
X43395223Y-109849403D01*
X43272542Y-109825000D01*
X42449750Y-109825000D01*
X42291000Y-109983750D01*
X41529000Y-109983750D01*
X41370250Y-109825000D01*
X40547458Y-109825000D01*
X40424777Y-109849403D01*
X40309215Y-109897270D01*
X40205211Y-109966763D01*
X40116763Y-110055211D01*
X40047270Y-110159215D01*
X39999403Y-110274777D01*
X39975000Y-110397458D01*
X37641395Y-110397458D01*
X37770250Y-110344085D01*
X38095364Y-110126851D01*
X38371851Y-109850364D01*
X38589085Y-109525250D01*
X38738718Y-109164003D01*
X38815000Y-108780505D01*
X38815000Y-108389495D01*
X38738718Y-108005997D01*
X38589085Y-107644750D01*
X38371851Y-107319636D01*
X38095364Y-107043149D01*
X37770250Y-106825915D01*
X37478335Y-106705000D01*
X135876665Y-106705000D01*
X135584750Y-106825915D01*
X135584750Y-106825915D01*
G37*
X135584750Y-106825915D02*
X135259636Y-107043149D01*
X134983149Y-107319636D01*
X134765915Y-107644750D01*
X134616282Y-108005997D01*
X134540000Y-108389495D01*
X134540000Y-108780505D01*
X134616282Y-109164003D01*
X134765915Y-109525250D01*
X134983149Y-109850364D01*
X135259636Y-110126851D01*
X135584750Y-110344085D01*
X135945997Y-110493718D01*
X136329495Y-110570000D01*
X136720505Y-110570000D01*
X137104003Y-110493718D01*
X137465250Y-110344085D01*
X137790364Y-110126851D01*
X138066851Y-109850364D01*
X138284085Y-109525250D01*
X138405000Y-109233335D01*
X138405000Y-119302706D01*
X138364494Y-119269463D01*
X138254180Y-119210498D01*
X138134482Y-119174188D01*
X138010000Y-119161928D01*
X136310000Y-119161928D01*
X136185518Y-119174188D01*
X136065820Y-119210498D01*
X135955506Y-119269463D01*
X135858815Y-119348815D01*
X135779463Y-119445506D01*
X135720498Y-119555820D01*
X135684188Y-119675518D01*
X135671928Y-119800000D01*
X135671928Y-119890000D01*
X133568072Y-119890000D01*
X133568072Y-119800000D01*
X133555812Y-119675518D01*
X133519502Y-119555820D01*
X133460537Y-119445506D01*
X133381185Y-119348815D01*
X133284494Y-119269463D01*
X133174180Y-119210498D01*
X133054482Y-119174188D01*
X132930000Y-119161928D01*
X131230000Y-119161928D01*
X131105518Y-119174188D01*
X130985820Y-119210498D01*
X130875506Y-119269463D01*
X130778815Y-119348815D01*
X130699463Y-119445506D01*
X130640498Y-119555820D01*
X130604188Y-119675518D01*
X130591928Y-119800000D01*
X130591928Y-119995674D01*
X130555724Y-120015026D01*
X130439999Y-120109999D01*
X130416201Y-120138997D01*
X127759003Y-122796196D01*
X127729999Y-122819999D01*
X127674871Y-122887174D01*
X127635026Y-122935724D01*
X127577264Y-123043789D01*
X127566995Y-123063000D01*
X127131725Y-123063000D01*
X127194014Y-123029706D01*
X127420134Y-122844134D01*
X127605706Y-122618014D01*
X127743599Y-122360034D01*
X127828513Y-122080110D01*
X127850000Y-121861949D01*
X127850000Y-121216050D01*
X127828513Y-120997889D01*
X127743599Y-120717966D01*
X127605706Y-120459986D01*
X127420134Y-120233866D01*
X127194013Y-120048294D01*
X126936033Y-119910401D01*
X126656110Y-119825487D01*
X126365000Y-119796815D01*
X126073889Y-119825487D01*
X125793966Y-119910401D01*
X125535986Y-120048294D01*
X125309866Y-120233866D01*
X125287144Y-120261553D01*
X125285597Y-120253777D01*
X125237730Y-120138215D01*
X125168237Y-120034211D01*
X125079789Y-119945763D01*
X124975785Y-119876270D01*
X124860223Y-119828403D01*
X124737542Y-119804000D01*
X124364750Y-119804000D01*
X124206000Y-119962750D01*
X124206000Y-121158000D01*
X124226000Y-121158000D01*
X124226000Y-121920000D01*
X124206000Y-121920000D01*
X124206000Y-121940000D01*
X123444000Y-121940000D01*
X123444000Y-121920000D01*
X122498750Y-121920000D01*
X122340000Y-122078750D01*
X122340000Y-122701542D01*
X122364403Y-122824223D01*
X122412270Y-122939785D01*
X122481763Y-123043789D01*
X122500974Y-123063000D01*
X118028194Y-123063000D01*
X118080706Y-122999014D01*
X118218599Y-122741034D01*
X118303513Y-122461110D01*
X118325000Y-122242949D01*
X118325000Y-121597050D01*
X118303513Y-121378889D01*
X118218599Y-121098966D01*
X118080706Y-120840986D01*
X117895134Y-120614866D01*
X117669013Y-120429294D01*
X117570164Y-120376458D01*
X122340000Y-120376458D01*
X122340000Y-120999250D01*
X122498750Y-121158000D01*
X123444000Y-121158000D01*
X123444000Y-119962750D01*
X123285250Y-119804000D01*
X122912458Y-119804000D01*
X122789777Y-119828403D01*
X122674215Y-119876270D01*
X122570211Y-119945763D01*
X122481763Y-120034211D01*
X122412270Y-120138215D01*
X122364403Y-120253777D01*
X122340000Y-120376458D01*
X117570164Y-120376458D01*
X117411033Y-120291401D01*
X117131110Y-120206487D01*
X116840000Y-120177815D01*
X116548889Y-120206487D01*
X116268966Y-120291401D01*
X116010986Y-120429294D01*
X115784866Y-120614866D01*
X115762144Y-120642553D01*
X115760597Y-120634777D01*
X115712730Y-120519215D01*
X115643237Y-120415211D01*
X115554789Y-120326763D01*
X115450785Y-120257270D01*
X115335223Y-120209403D01*
X115212542Y-120185000D01*
X114839750Y-120185000D01*
X114681000Y-120343750D01*
X114681000Y-121539000D01*
X114701000Y-121539000D01*
X114701000Y-122301000D01*
X114681000Y-122301000D01*
X114681000Y-122321000D01*
X113919000Y-122321000D01*
X113919000Y-122301000D01*
X112973750Y-122301000D01*
X112815000Y-122459750D01*
X112815000Y-123063000D01*
X107868194Y-123063000D01*
X107920706Y-122999014D01*
X108058599Y-122741034D01*
X108143513Y-122461110D01*
X108165000Y-122242949D01*
X108165000Y-121597050D01*
X108143513Y-121378889D01*
X108058599Y-121098966D01*
X107920706Y-120840986D01*
X107852157Y-120757458D01*
X112815000Y-120757458D01*
X112815000Y-121380250D01*
X112973750Y-121539000D01*
X113919000Y-121539000D01*
X113919000Y-120343750D01*
X113760250Y-120185000D01*
X113387458Y-120185000D01*
X113264777Y-120209403D01*
X113149215Y-120257270D01*
X113045211Y-120326763D01*
X112956763Y-120415211D01*
X112887270Y-120519215D01*
X112839403Y-120634777D01*
X112815000Y-120757458D01*
X107852157Y-120757458D01*
X107735134Y-120614866D01*
X107509013Y-120429294D01*
X107251033Y-120291401D01*
X106971110Y-120206487D01*
X106680000Y-120177815D01*
X106388889Y-120206487D01*
X106108966Y-120291401D01*
X105850986Y-120429294D01*
X105624866Y-120614866D01*
X105602144Y-120642553D01*
X105600597Y-120634777D01*
X105552730Y-120519215D01*
X105483237Y-120415211D01*
X105394789Y-120326763D01*
X105290785Y-120257270D01*
X105175223Y-120209403D01*
X105052542Y-120185000D01*
X104679750Y-120185000D01*
X104521000Y-120343750D01*
X104521000Y-121539000D01*
X104541000Y-121539000D01*
X104541000Y-122301000D01*
X104521000Y-122301000D01*
X104521000Y-122321000D01*
X103759000Y-122321000D01*
X103759000Y-122301000D01*
X102813750Y-122301000D01*
X102655000Y-122459750D01*
X102655000Y-123063000D01*
X97708194Y-123063000D01*
X97760706Y-122999014D01*
X97898599Y-122741034D01*
X97983513Y-122461110D01*
X98005000Y-122242949D01*
X98005000Y-121597050D01*
X97983513Y-121378889D01*
X97898599Y-121098966D01*
X97760706Y-120840986D01*
X97692157Y-120757458D01*
X102655000Y-120757458D01*
X102655000Y-121380250D01*
X102813750Y-121539000D01*
X103759000Y-121539000D01*
X103759000Y-120343750D01*
X103600250Y-120185000D01*
X103227458Y-120185000D01*
X103104777Y-120209403D01*
X102989215Y-120257270D01*
X102885211Y-120326763D01*
X102796763Y-120415211D01*
X102727270Y-120519215D01*
X102679403Y-120634777D01*
X102655000Y-120757458D01*
X97692157Y-120757458D01*
X97575134Y-120614866D01*
X97349013Y-120429294D01*
X97091033Y-120291401D01*
X96811110Y-120206487D01*
X96520000Y-120177815D01*
X96228889Y-120206487D01*
X95948966Y-120291401D01*
X95690986Y-120429294D01*
X95464866Y-120614866D01*
X95442144Y-120642553D01*
X95440597Y-120634777D01*
X95392730Y-120519215D01*
X95323237Y-120415211D01*
X95234789Y-120326763D01*
X95130785Y-120257270D01*
X95015223Y-120209403D01*
X94892542Y-120185000D01*
X94519750Y-120185000D01*
X94361000Y-120343750D01*
X94361000Y-121539000D01*
X94381000Y-121539000D01*
X94381000Y-122301000D01*
X94361000Y-122301000D01*
X94361000Y-122321000D01*
X93599000Y-122321000D01*
X93599000Y-122301000D01*
X92653750Y-122301000D01*
X92495000Y-122459750D01*
X92495000Y-123063000D01*
X87548194Y-123063000D01*
X87600706Y-122999014D01*
X87738599Y-122741034D01*
X87823513Y-122461110D01*
X87845000Y-122242949D01*
X87845000Y-121597050D01*
X87823513Y-121378889D01*
X87738599Y-121098966D01*
X87600706Y-120840986D01*
X87532157Y-120757458D01*
X92495000Y-120757458D01*
X92495000Y-121380250D01*
X92653750Y-121539000D01*
X93599000Y-121539000D01*
X93599000Y-120343750D01*
X93440250Y-120185000D01*
X93067458Y-120185000D01*
X92944777Y-120209403D01*
X92829215Y-120257270D01*
X92725211Y-120326763D01*
X92636763Y-120415211D01*
X92567270Y-120519215D01*
X92519403Y-120634777D01*
X92495000Y-120757458D01*
X87532157Y-120757458D01*
X87415134Y-120614866D01*
X87189013Y-120429294D01*
X86931033Y-120291401D01*
X86651110Y-120206487D01*
X86360000Y-120177815D01*
X86068889Y-120206487D01*
X85788966Y-120291401D01*
X85530986Y-120429294D01*
X85304866Y-120614866D01*
X85282144Y-120642553D01*
X85280597Y-120634777D01*
X85232730Y-120519215D01*
X85163237Y-120415211D01*
X85074789Y-120326763D01*
X84970785Y-120257270D01*
X84855223Y-120209403D01*
X84732542Y-120185000D01*
X84359750Y-120185000D01*
X84201000Y-120343750D01*
X84201000Y-121539000D01*
X84221000Y-121539000D01*
X84221000Y-122301000D01*
X84201000Y-122301000D01*
X84201000Y-122321000D01*
X83439000Y-122321000D01*
X83439000Y-122301000D01*
X82493750Y-122301000D01*
X82335000Y-122459750D01*
X82335000Y-123063000D01*
X77388194Y-123063000D01*
X77440706Y-122999014D01*
X77578599Y-122741034D01*
X77663513Y-122461110D01*
X77685000Y-122242949D01*
X77685000Y-121597050D01*
X77663513Y-121378889D01*
X77578599Y-121098966D01*
X77440706Y-120840986D01*
X77372157Y-120757458D01*
X82335000Y-120757458D01*
X82335000Y-121380250D01*
X82493750Y-121539000D01*
X83439000Y-121539000D01*
X83439000Y-120343750D01*
X83280250Y-120185000D01*
X82907458Y-120185000D01*
X82784777Y-120209403D01*
X82669215Y-120257270D01*
X82565211Y-120326763D01*
X82476763Y-120415211D01*
X82407270Y-120519215D01*
X82359403Y-120634777D01*
X82335000Y-120757458D01*
X77372157Y-120757458D01*
X77255134Y-120614866D01*
X77029013Y-120429294D01*
X76771033Y-120291401D01*
X76491110Y-120206487D01*
X76200000Y-120177815D01*
X75908889Y-120206487D01*
X75628966Y-120291401D01*
X75370986Y-120429294D01*
X75144866Y-120614866D01*
X75122144Y-120642553D01*
X75120597Y-120634777D01*
X75072730Y-120519215D01*
X75003237Y-120415211D01*
X74914789Y-120326763D01*
X74810785Y-120257270D01*
X74695223Y-120209403D01*
X74572542Y-120185000D01*
X74199750Y-120185000D01*
X74041000Y-120343750D01*
X74041000Y-121539000D01*
X74061000Y-121539000D01*
X74061000Y-122301000D01*
X74041000Y-122301000D01*
X74041000Y-122321000D01*
X73279000Y-122321000D01*
X73279000Y-122301000D01*
X72333750Y-122301000D01*
X72175000Y-122459750D01*
X72175000Y-123063000D01*
X67228194Y-123063000D01*
X67280706Y-122999014D01*
X67418599Y-122741034D01*
X67503513Y-122461110D01*
X67525000Y-122242949D01*
X67525000Y-121597050D01*
X67503513Y-121378889D01*
X67418599Y-121098966D01*
X67280706Y-120840986D01*
X67212157Y-120757458D01*
X72175000Y-120757458D01*
X72175000Y-121380250D01*
X72333750Y-121539000D01*
X73279000Y-121539000D01*
X73279000Y-120343750D01*
X73120250Y-120185000D01*
X72747458Y-120185000D01*
X72624777Y-120209403D01*
X72509215Y-120257270D01*
X72405211Y-120326763D01*
X72316763Y-120415211D01*
X72247270Y-120519215D01*
X72199403Y-120634777D01*
X72175000Y-120757458D01*
X67212157Y-120757458D01*
X67095134Y-120614866D01*
X66869013Y-120429294D01*
X66611033Y-120291401D01*
X66331110Y-120206487D01*
X66040000Y-120177815D01*
X65748889Y-120206487D01*
X65468966Y-120291401D01*
X65210986Y-120429294D01*
X64984866Y-120614866D01*
X64962144Y-120642553D01*
X64960597Y-120634777D01*
X64912730Y-120519215D01*
X64843237Y-120415211D01*
X64754789Y-120326763D01*
X64650785Y-120257270D01*
X64535223Y-120209403D01*
X64412542Y-120185000D01*
X64039750Y-120185000D01*
X63881000Y-120343750D01*
X63881000Y-121539000D01*
X63901000Y-121539000D01*
X63901000Y-122301000D01*
X63881000Y-122301000D01*
X63881000Y-122321000D01*
X63119000Y-122321000D01*
X63119000Y-122301000D01*
X62173750Y-122301000D01*
X62015000Y-122459750D01*
X62015000Y-123063000D01*
X57068194Y-123063000D01*
X57120706Y-122999014D01*
X57258599Y-122741034D01*
X57343513Y-122461110D01*
X57365000Y-122242949D01*
X57365000Y-121597050D01*
X57343513Y-121378889D01*
X57258599Y-121098966D01*
X57120706Y-120840986D01*
X57052157Y-120757458D01*
X62015000Y-120757458D01*
X62015000Y-121380250D01*
X62173750Y-121539000D01*
X63119000Y-121539000D01*
X63119000Y-120343750D01*
X62960250Y-120185000D01*
X62587458Y-120185000D01*
X62464777Y-120209403D01*
X62349215Y-120257270D01*
X62245211Y-120326763D01*
X62156763Y-120415211D01*
X62087270Y-120519215D01*
X62039403Y-120634777D01*
X62015000Y-120757458D01*
X57052157Y-120757458D01*
X56935134Y-120614866D01*
X56709013Y-120429294D01*
X56451033Y-120291401D01*
X56171110Y-120206487D01*
X55880000Y-120177815D01*
X55588889Y-120206487D01*
X55308966Y-120291401D01*
X55050986Y-120429294D01*
X54824866Y-120614866D01*
X54802144Y-120642553D01*
X54800597Y-120634777D01*
X54752730Y-120519215D01*
X54683237Y-120415211D01*
X54594789Y-120326763D01*
X54490785Y-120257270D01*
X54375223Y-120209403D01*
X54252542Y-120185000D01*
X53879750Y-120185000D01*
X53721000Y-120343750D01*
X53721000Y-121539000D01*
X53741000Y-121539000D01*
X53741000Y-122301000D01*
X53721000Y-122301000D01*
X53721000Y-122321000D01*
X52959000Y-122321000D01*
X52959000Y-122301000D01*
X52013750Y-122301000D01*
X51855000Y-122459750D01*
X51855000Y-123063000D01*
X46908194Y-123063000D01*
X46960706Y-122999014D01*
X47098599Y-122741034D01*
X47183513Y-122461110D01*
X47205000Y-122242949D01*
X47205000Y-121597050D01*
X47183513Y-121378889D01*
X47098599Y-121098966D01*
X46960706Y-120840986D01*
X46892157Y-120757458D01*
X51855000Y-120757458D01*
X51855000Y-121380250D01*
X52013750Y-121539000D01*
X52959000Y-121539000D01*
X52959000Y-120343750D01*
X52800250Y-120185000D01*
X52427458Y-120185000D01*
X52304777Y-120209403D01*
X52189215Y-120257270D01*
X52085211Y-120326763D01*
X51996763Y-120415211D01*
X51927270Y-120519215D01*
X51879403Y-120634777D01*
X51855000Y-120757458D01*
X46892157Y-120757458D01*
X46775134Y-120614866D01*
X46549013Y-120429294D01*
X46291033Y-120291401D01*
X46011110Y-120206487D01*
X45720000Y-120177815D01*
X45428889Y-120206487D01*
X45148966Y-120291401D01*
X44890986Y-120429294D01*
X44664866Y-120614866D01*
X44642144Y-120642553D01*
X44640597Y-120634777D01*
X44592730Y-120519215D01*
X44523237Y-120415211D01*
X44434789Y-120326763D01*
X44330785Y-120257270D01*
X44215223Y-120209403D01*
X44092542Y-120185000D01*
X43719750Y-120185000D01*
X43561000Y-120343750D01*
X43561000Y-121539000D01*
X43581000Y-121539000D01*
X43581000Y-122301000D01*
X43561000Y-122301000D01*
X43561000Y-122321000D01*
X42799000Y-122321000D01*
X42799000Y-122301000D01*
X41853750Y-122301000D01*
X41695000Y-122459750D01*
X41695000Y-123063000D01*
X34950000Y-123063000D01*
X34950000Y-120757458D01*
X41695000Y-120757458D01*
X41695000Y-121380250D01*
X41853750Y-121539000D01*
X42799000Y-121539000D01*
X42799000Y-120343750D01*
X42640250Y-120185000D01*
X42267458Y-120185000D01*
X42144777Y-120209403D01*
X42029215Y-120257270D01*
X41925211Y-120326763D01*
X41836763Y-120415211D01*
X41767270Y-120519215D01*
X41719403Y-120634777D01*
X41695000Y-120757458D01*
X34950000Y-120757458D01*
X34950000Y-112299750D01*
X39975000Y-112299750D01*
X39975000Y-113122542D01*
X39999403Y-113245223D01*
X40047270Y-113360785D01*
X40116763Y-113464789D01*
X40205211Y-113553237D01*
X40309215Y-113622730D01*
X40424777Y-113670597D01*
X40547458Y-113695000D01*
X41370250Y-113695000D01*
X41529000Y-113536250D01*
X41529000Y-112141000D01*
X42291000Y-112141000D01*
X42291000Y-113536250D01*
X42449750Y-113695000D01*
X43272542Y-113695000D01*
X43395223Y-113670597D01*
X43510785Y-113622730D01*
X43614789Y-113553237D01*
X43703237Y-113464789D01*
X43772730Y-113360785D01*
X43820597Y-113245223D01*
X43845000Y-113122542D01*
X43845000Y-112299750D01*
X43686250Y-112141000D01*
X42291000Y-112141000D01*
X41529000Y-112141000D01*
X40133750Y-112141000D01*
X39975000Y-112299750D01*
X34950000Y-112299750D01*
X34950000Y-111569419D01*
X45055000Y-111569419D01*
X45055000Y-111950581D01*
X45129361Y-112324419D01*
X45275225Y-112676566D01*
X45486987Y-112993491D01*
X45756509Y-113263013D01*
X46073434Y-113474775D01*
X46425581Y-113620639D01*
X46799419Y-113695000D01*
X47180581Y-113695000D01*
X47554419Y-113620639D01*
X47906566Y-113474775D01*
X48223491Y-113263013D01*
X48493013Y-112993491D01*
X48704775Y-112676566D01*
X48850639Y-112324419D01*
X48855545Y-112299750D01*
X50135000Y-112299750D01*
X50135000Y-113122542D01*
X50159403Y-113245223D01*
X50207270Y-113360785D01*
X50276763Y-113464789D01*
X50365211Y-113553237D01*
X50469215Y-113622730D01*
X50584777Y-113670597D01*
X50707458Y-113695000D01*
X51530250Y-113695000D01*
X51689000Y-113536250D01*
X51689000Y-112141000D01*
X52451000Y-112141000D01*
X52451000Y-113536250D01*
X52609750Y-113695000D01*
X53432542Y-113695000D01*
X53555223Y-113670597D01*
X53670785Y-113622730D01*
X53774789Y-113553237D01*
X53863237Y-113464789D01*
X53932730Y-113360785D01*
X53980597Y-113245223D01*
X54005000Y-113122542D01*
X54005000Y-112299750D01*
X53846250Y-112141000D01*
X52451000Y-112141000D01*
X51689000Y-112141000D01*
X50293750Y-112141000D01*
X50135000Y-112299750D01*
X48855545Y-112299750D01*
X48925000Y-111950581D01*
X48925000Y-111569419D01*
X55215000Y-111569419D01*
X55215000Y-111950581D01*
X55289361Y-112324419D01*
X55435225Y-112676566D01*
X55646987Y-112993491D01*
X55916509Y-113263013D01*
X56233434Y-113474775D01*
X56585581Y-113620639D01*
X56959419Y-113695000D01*
X57340581Y-113695000D01*
X57714419Y-113620639D01*
X58066566Y-113474775D01*
X58383491Y-113263013D01*
X58653013Y-112993491D01*
X58864775Y-112676566D01*
X59010639Y-112324419D01*
X59015545Y-112299750D01*
X60295000Y-112299750D01*
X60295000Y-113122542D01*
X60319403Y-113245223D01*
X60367270Y-113360785D01*
X60436763Y-113464789D01*
X60525211Y-113553237D01*
X60629215Y-113622730D01*
X60744777Y-113670597D01*
X60867458Y-113695000D01*
X61690250Y-113695000D01*
X61849000Y-113536250D01*
X61849000Y-112141000D01*
X62611000Y-112141000D01*
X62611000Y-113536250D01*
X62769750Y-113695000D01*
X63592542Y-113695000D01*
X63715223Y-113670597D01*
X63830785Y-113622730D01*
X63934789Y-113553237D01*
X64023237Y-113464789D01*
X64092730Y-113360785D01*
X64140597Y-113245223D01*
X64165000Y-113122542D01*
X64165000Y-112299750D01*
X64006250Y-112141000D01*
X62611000Y-112141000D01*
X61849000Y-112141000D01*
X60453750Y-112141000D01*
X60295000Y-112299750D01*
X59015545Y-112299750D01*
X59085000Y-111950581D01*
X59085000Y-111569419D01*
X65375000Y-111569419D01*
X65375000Y-111950581D01*
X65449361Y-112324419D01*
X65595225Y-112676566D01*
X65806987Y-112993491D01*
X66076509Y-113263013D01*
X66393434Y-113474775D01*
X66745581Y-113620639D01*
X67119419Y-113695000D01*
X67500581Y-113695000D01*
X67874419Y-113620639D01*
X68226566Y-113474775D01*
X68543491Y-113263013D01*
X68813013Y-112993491D01*
X69024775Y-112676566D01*
X69170639Y-112324419D01*
X69175545Y-112299750D01*
X70455000Y-112299750D01*
X70455000Y-113122542D01*
X70479403Y-113245223D01*
X70527270Y-113360785D01*
X70596763Y-113464789D01*
X70685211Y-113553237D01*
X70789215Y-113622730D01*
X70904777Y-113670597D01*
X71027458Y-113695000D01*
X71850250Y-113695000D01*
X72009000Y-113536250D01*
X72009000Y-112141000D01*
X72771000Y-112141000D01*
X72771000Y-113536250D01*
X72929750Y-113695000D01*
X73752542Y-113695000D01*
X73875223Y-113670597D01*
X73990785Y-113622730D01*
X74094789Y-113553237D01*
X74183237Y-113464789D01*
X74252730Y-113360785D01*
X74300597Y-113245223D01*
X74325000Y-113122542D01*
X74325000Y-112299750D01*
X74166250Y-112141000D01*
X72771000Y-112141000D01*
X72009000Y-112141000D01*
X70613750Y-112141000D01*
X70455000Y-112299750D01*
X69175545Y-112299750D01*
X69245000Y-111950581D01*
X69245000Y-111569419D01*
X75535000Y-111569419D01*
X75535000Y-111950581D01*
X75609361Y-112324419D01*
X75755225Y-112676566D01*
X75966987Y-112993491D01*
X76236509Y-113263013D01*
X76553434Y-113474775D01*
X76905581Y-113620639D01*
X77279419Y-113695000D01*
X77660581Y-113695000D01*
X78034419Y-113620639D01*
X78386566Y-113474775D01*
X78703491Y-113263013D01*
X78973013Y-112993491D01*
X79184775Y-112676566D01*
X79330639Y-112324419D01*
X79335545Y-112299750D01*
X80615000Y-112299750D01*
X80615000Y-113122542D01*
X80639403Y-113245223D01*
X80687270Y-113360785D01*
X80756763Y-113464789D01*
X80845211Y-113553237D01*
X80949215Y-113622730D01*
X81064777Y-113670597D01*
X81187458Y-113695000D01*
X82010250Y-113695000D01*
X82169000Y-113536250D01*
X82169000Y-112141000D01*
X82931000Y-112141000D01*
X82931000Y-113536250D01*
X83089750Y-113695000D01*
X83912542Y-113695000D01*
X84035223Y-113670597D01*
X84150785Y-113622730D01*
X84254789Y-113553237D01*
X84343237Y-113464789D01*
X84412730Y-113360785D01*
X84460597Y-113245223D01*
X84485000Y-113122542D01*
X84485000Y-112299750D01*
X84326250Y-112141000D01*
X82931000Y-112141000D01*
X82169000Y-112141000D01*
X80773750Y-112141000D01*
X80615000Y-112299750D01*
X79335545Y-112299750D01*
X79405000Y-111950581D01*
X79405000Y-111569419D01*
X85695000Y-111569419D01*
X85695000Y-111950581D01*
X85769361Y-112324419D01*
X85915225Y-112676566D01*
X86126987Y-112993491D01*
X86396509Y-113263013D01*
X86713434Y-113474775D01*
X87065581Y-113620639D01*
X87439419Y-113695000D01*
X87820581Y-113695000D01*
X88194419Y-113620639D01*
X88546566Y-113474775D01*
X88863491Y-113263013D01*
X89133013Y-112993491D01*
X89344775Y-112676566D01*
X89490639Y-112324419D01*
X89495545Y-112299750D01*
X90775000Y-112299750D01*
X90775000Y-113122542D01*
X90799403Y-113245223D01*
X90847270Y-113360785D01*
X90916763Y-113464789D01*
X91005211Y-113553237D01*
X91109215Y-113622730D01*
X91224777Y-113670597D01*
X91347458Y-113695000D01*
X92170250Y-113695000D01*
X92329000Y-113536250D01*
X92329000Y-112141000D01*
X93091000Y-112141000D01*
X93091000Y-113536250D01*
X93249750Y-113695000D01*
X94072542Y-113695000D01*
X94195223Y-113670597D01*
X94310785Y-113622730D01*
X94414789Y-113553237D01*
X94503237Y-113464789D01*
X94572730Y-113360785D01*
X94620597Y-113245223D01*
X94645000Y-113122542D01*
X94645000Y-112299750D01*
X94486250Y-112141000D01*
X93091000Y-112141000D01*
X92329000Y-112141000D01*
X90933750Y-112141000D01*
X90775000Y-112299750D01*
X89495545Y-112299750D01*
X89565000Y-111950581D01*
X89565000Y-111569419D01*
X95855000Y-111569419D01*
X95855000Y-111950581D01*
X95929361Y-112324419D01*
X96075225Y-112676566D01*
X96286987Y-112993491D01*
X96556509Y-113263013D01*
X96873434Y-113474775D01*
X97225581Y-113620639D01*
X97599419Y-113695000D01*
X97980581Y-113695000D01*
X98354419Y-113620639D01*
X98706566Y-113474775D01*
X99023491Y-113263013D01*
X99293013Y-112993491D01*
X99504775Y-112676566D01*
X99650639Y-112324419D01*
X99655545Y-112299750D01*
X100935000Y-112299750D01*
X100935000Y-113122542D01*
X100959403Y-113245223D01*
X101007270Y-113360785D01*
X101076763Y-113464789D01*
X101165211Y-113553237D01*
X101269215Y-113622730D01*
X101384777Y-113670597D01*
X101507458Y-113695000D01*
X102330250Y-113695000D01*
X102489000Y-113536250D01*
X102489000Y-112141000D01*
X103251000Y-112141000D01*
X103251000Y-113536250D01*
X103409750Y-113695000D01*
X104232542Y-113695000D01*
X104355223Y-113670597D01*
X104470785Y-113622730D01*
X104574789Y-113553237D01*
X104663237Y-113464789D01*
X104732730Y-113360785D01*
X104780597Y-113245223D01*
X104805000Y-113122542D01*
X104805000Y-112299750D01*
X104646250Y-112141000D01*
X103251000Y-112141000D01*
X102489000Y-112141000D01*
X101093750Y-112141000D01*
X100935000Y-112299750D01*
X99655545Y-112299750D01*
X99725000Y-111950581D01*
X99725000Y-111569419D01*
X106015000Y-111569419D01*
X106015000Y-111950581D01*
X106089361Y-112324419D01*
X106235225Y-112676566D01*
X106446987Y-112993491D01*
X106716509Y-113263013D01*
X107033434Y-113474775D01*
X107385581Y-113620639D01*
X107759419Y-113695000D01*
X108140581Y-113695000D01*
X108514419Y-113620639D01*
X108866566Y-113474775D01*
X109183491Y-113263013D01*
X109453013Y-112993491D01*
X109664775Y-112676566D01*
X109810639Y-112324419D01*
X109815545Y-112299750D01*
X111095000Y-112299750D01*
X111095000Y-113122542D01*
X111119403Y-113245223D01*
X111167270Y-113360785D01*
X111236763Y-113464789D01*
X111325211Y-113553237D01*
X111429215Y-113622730D01*
X111544777Y-113670597D01*
X111667458Y-113695000D01*
X112490250Y-113695000D01*
X112649000Y-113536250D01*
X112649000Y-112141000D01*
X113411000Y-112141000D01*
X113411000Y-113536250D01*
X113569750Y-113695000D01*
X114392542Y-113695000D01*
X114515223Y-113670597D01*
X114630785Y-113622730D01*
X114734789Y-113553237D01*
X114823237Y-113464789D01*
X114892730Y-113360785D01*
X114940597Y-113245223D01*
X114965000Y-113122542D01*
X114965000Y-112299750D01*
X114806250Y-112141000D01*
X113411000Y-112141000D01*
X112649000Y-112141000D01*
X111253750Y-112141000D01*
X111095000Y-112299750D01*
X109815545Y-112299750D01*
X109885000Y-111950581D01*
X109885000Y-111569419D01*
X116175000Y-111569419D01*
X116175000Y-111950581D01*
X116249361Y-112324419D01*
X116395225Y-112676566D01*
X116606987Y-112993491D01*
X116876509Y-113263013D01*
X117193434Y-113474775D01*
X117545581Y-113620639D01*
X117919419Y-113695000D01*
X118300581Y-113695000D01*
X118674419Y-113620639D01*
X119026566Y-113474775D01*
X119343491Y-113263013D01*
X119613013Y-112993491D01*
X119824775Y-112676566D01*
X119970639Y-112324419D01*
X119975545Y-112299750D01*
X123160000Y-112299750D01*
X123160000Y-113122542D01*
X123184403Y-113245223D01*
X123232270Y-113360785D01*
X123301763Y-113464789D01*
X123390211Y-113553237D01*
X123494215Y-113622730D01*
X123609777Y-113670597D01*
X123732458Y-113695000D01*
X124555250Y-113695000D01*
X124714000Y-113536250D01*
X124714000Y-112141000D01*
X125476000Y-112141000D01*
X125476000Y-113536250D01*
X125634750Y-113695000D01*
X126457542Y-113695000D01*
X126580223Y-113670597D01*
X126695785Y-113622730D01*
X126799789Y-113553237D01*
X126888237Y-113464789D01*
X126957730Y-113360785D01*
X127005597Y-113245223D01*
X127030000Y-113122542D01*
X127030000Y-112299750D01*
X126871250Y-112141000D01*
X125476000Y-112141000D01*
X124714000Y-112141000D01*
X123318750Y-112141000D01*
X123160000Y-112299750D01*
X119975545Y-112299750D01*
X120045000Y-111950581D01*
X120045000Y-111569419D01*
X128240000Y-111569419D01*
X128240000Y-111950581D01*
X128314361Y-112324419D01*
X128460225Y-112676566D01*
X128671987Y-112993491D01*
X128941509Y-113263013D01*
X129258434Y-113474775D01*
X129610581Y-113620639D01*
X129984419Y-113695000D01*
X130365581Y-113695000D01*
X130739419Y-113620639D01*
X131091566Y-113474775D01*
X131408491Y-113263013D01*
X131678013Y-112993491D01*
X131889775Y-112676566D01*
X132035639Y-112324419D01*
X132110000Y-111950581D01*
X132110000Y-111569419D01*
X132035639Y-111195581D01*
X131889775Y-110843434D01*
X131678013Y-110526509D01*
X131408491Y-110256987D01*
X131091566Y-110045225D01*
X130739419Y-109899361D01*
X130365581Y-109825000D01*
X129984419Y-109825000D01*
X129610581Y-109899361D01*
X129258434Y-110045225D01*
X128941509Y-110256987D01*
X128671987Y-110526509D01*
X128460225Y-110843434D01*
X128314361Y-111195581D01*
X128240000Y-111569419D01*
X120045000Y-111569419D01*
X119970639Y-111195581D01*
X119824775Y-110843434D01*
X119613013Y-110526509D01*
X119483962Y-110397458D01*
X123160000Y-110397458D01*
X123160000Y-111220250D01*
X123318750Y-111379000D01*
X124714000Y-111379000D01*
X124714000Y-109983750D01*
X125476000Y-109983750D01*
X125476000Y-111379000D01*
X126871250Y-111379000D01*
X127030000Y-111220250D01*
X127030000Y-110397458D01*
X127005597Y-110274777D01*
X126957730Y-110159215D01*
X126888237Y-110055211D01*
X126799789Y-109966763D01*
X126695785Y-109897270D01*
X126580223Y-109849403D01*
X126457542Y-109825000D01*
X125634750Y-109825000D01*
X125476000Y-109983750D01*
X124714000Y-109983750D01*
X124555250Y-109825000D01*
X123732458Y-109825000D01*
X123609777Y-109849403D01*
X123494215Y-109897270D01*
X123390211Y-109966763D01*
X123301763Y-110055211D01*
X123232270Y-110159215D01*
X123184403Y-110274777D01*
X123160000Y-110397458D01*
X119483962Y-110397458D01*
X119343491Y-110256987D01*
X119026566Y-110045225D01*
X118674419Y-109899361D01*
X118300581Y-109825000D01*
X117919419Y-109825000D01*
X117545581Y-109899361D01*
X117193434Y-110045225D01*
X116876509Y-110256987D01*
X116606987Y-110526509D01*
X116395225Y-110843434D01*
X116249361Y-111195581D01*
X116175000Y-111569419D01*
X109885000Y-111569419D01*
X109810639Y-111195581D01*
X109664775Y-110843434D01*
X109453013Y-110526509D01*
X109323962Y-110397458D01*
X111095000Y-110397458D01*
X111095000Y-111220250D01*
X111253750Y-111379000D01*
X112649000Y-111379000D01*
X112649000Y-109983750D01*
X113411000Y-109983750D01*
X113411000Y-111379000D01*
X114806250Y-111379000D01*
X114965000Y-111220250D01*
X114965000Y-110397458D01*
X114940597Y-110274777D01*
X114892730Y-110159215D01*
X114823237Y-110055211D01*
X114734789Y-109966763D01*
X114630785Y-109897270D01*
X114515223Y-109849403D01*
X114392542Y-109825000D01*
X113569750Y-109825000D01*
X113411000Y-109983750D01*
X112649000Y-109983750D01*
X112490250Y-109825000D01*
X111667458Y-109825000D01*
X111544777Y-109849403D01*
X111429215Y-109897270D01*
X111325211Y-109966763D01*
X111236763Y-110055211D01*
X111167270Y-110159215D01*
X111119403Y-110274777D01*
X111095000Y-110397458D01*
X109323962Y-110397458D01*
X109183491Y-110256987D01*
X108866566Y-110045225D01*
X108514419Y-109899361D01*
X108140581Y-109825000D01*
X107759419Y-109825000D01*
X107385581Y-109899361D01*
X107033434Y-110045225D01*
X106716509Y-110256987D01*
X106446987Y-110526509D01*
X106235225Y-110843434D01*
X106089361Y-111195581D01*
X106015000Y-111569419D01*
X99725000Y-111569419D01*
X99650639Y-111195581D01*
X99504775Y-110843434D01*
X99293013Y-110526509D01*
X99163962Y-110397458D01*
X100935000Y-110397458D01*
X100935000Y-111220250D01*
X101093750Y-111379000D01*
X102489000Y-111379000D01*
X102489000Y-109983750D01*
X103251000Y-109983750D01*
X103251000Y-111379000D01*
X104646250Y-111379000D01*
X104805000Y-111220250D01*
X104805000Y-110397458D01*
X104780597Y-110274777D01*
X104732730Y-110159215D01*
X104663237Y-110055211D01*
X104574789Y-109966763D01*
X104470785Y-109897270D01*
X104355223Y-109849403D01*
X104232542Y-109825000D01*
X103409750Y-109825000D01*
X103251000Y-109983750D01*
X102489000Y-109983750D01*
X102330250Y-109825000D01*
X101507458Y-109825000D01*
X101384777Y-109849403D01*
X101269215Y-109897270D01*
X101165211Y-109966763D01*
X101076763Y-110055211D01*
X101007270Y-110159215D01*
X100959403Y-110274777D01*
X100935000Y-110397458D01*
X99163962Y-110397458D01*
X99023491Y-110256987D01*
X98706566Y-110045225D01*
X98354419Y-109899361D01*
X97980581Y-109825000D01*
X97599419Y-109825000D01*
X97225581Y-109899361D01*
X96873434Y-110045225D01*
X96556509Y-110256987D01*
X96286987Y-110526509D01*
X96075225Y-110843434D01*
X95929361Y-111195581D01*
X95855000Y-111569419D01*
X89565000Y-111569419D01*
X89490639Y-111195581D01*
X89344775Y-110843434D01*
X89133013Y-110526509D01*
X89003962Y-110397458D01*
X90775000Y-110397458D01*
X90775000Y-111220250D01*
X90933750Y-111379000D01*
X92329000Y-111379000D01*
X92329000Y-109983750D01*
X93091000Y-109983750D01*
X93091000Y-111379000D01*
X94486250Y-111379000D01*
X94645000Y-111220250D01*
X94645000Y-110397458D01*
X94620597Y-110274777D01*
X94572730Y-110159215D01*
X94503237Y-110055211D01*
X94414789Y-109966763D01*
X94310785Y-109897270D01*
X94195223Y-109849403D01*
X94072542Y-109825000D01*
X93249750Y-109825000D01*
X93091000Y-109983750D01*
X92329000Y-109983750D01*
X92170250Y-109825000D01*
X91347458Y-109825000D01*
X91224777Y-109849403D01*
X91109215Y-109897270D01*
X91005211Y-109966763D01*
X90916763Y-110055211D01*
X90847270Y-110159215D01*
X90799403Y-110274777D01*
X90775000Y-110397458D01*
X89003962Y-110397458D01*
X88863491Y-110256987D01*
X88546566Y-110045225D01*
X88194419Y-109899361D01*
X87820581Y-109825000D01*
X87439419Y-109825000D01*
X87065581Y-109899361D01*
X86713434Y-110045225D01*
X86396509Y-110256987D01*
X86126987Y-110526509D01*
X85915225Y-110843434D01*
X85769361Y-111195581D01*
X85695000Y-111569419D01*
X79405000Y-111569419D01*
X79330639Y-111195581D01*
X79184775Y-110843434D01*
X78973013Y-110526509D01*
X78843962Y-110397458D01*
X80615000Y-110397458D01*
X80615000Y-111220250D01*
X80773750Y-111379000D01*
X82169000Y-111379000D01*
X82169000Y-109983750D01*
X82931000Y-109983750D01*
X82931000Y-111379000D01*
X84326250Y-111379000D01*
X84485000Y-111220250D01*
X84485000Y-110397458D01*
X84460597Y-110274777D01*
X84412730Y-110159215D01*
X84343237Y-110055211D01*
X84254789Y-109966763D01*
X84150785Y-109897270D01*
X84035223Y-109849403D01*
X83912542Y-109825000D01*
X83089750Y-109825000D01*
X82931000Y-109983750D01*
X82169000Y-109983750D01*
X82010250Y-109825000D01*
X81187458Y-109825000D01*
X81064777Y-109849403D01*
X80949215Y-109897270D01*
X80845211Y-109966763D01*
X80756763Y-110055211D01*
X80687270Y-110159215D01*
X80639403Y-110274777D01*
X80615000Y-110397458D01*
X78843962Y-110397458D01*
X78703491Y-110256987D01*
X78386566Y-110045225D01*
X78034419Y-109899361D01*
X77660581Y-109825000D01*
X77279419Y-109825000D01*
X76905581Y-109899361D01*
X76553434Y-110045225D01*
X76236509Y-110256987D01*
X75966987Y-110526509D01*
X75755225Y-110843434D01*
X75609361Y-111195581D01*
X75535000Y-111569419D01*
X69245000Y-111569419D01*
X69170639Y-111195581D01*
X69024775Y-110843434D01*
X68813013Y-110526509D01*
X68683962Y-110397458D01*
X70455000Y-110397458D01*
X70455000Y-111220250D01*
X70613750Y-111379000D01*
X72009000Y-111379000D01*
X72009000Y-109983750D01*
X72771000Y-109983750D01*
X72771000Y-111379000D01*
X74166250Y-111379000D01*
X74325000Y-111220250D01*
X74325000Y-110397458D01*
X74300597Y-110274777D01*
X74252730Y-110159215D01*
X74183237Y-110055211D01*
X74094789Y-109966763D01*
X73990785Y-109897270D01*
X73875223Y-109849403D01*
X73752542Y-109825000D01*
X72929750Y-109825000D01*
X72771000Y-109983750D01*
X72009000Y-109983750D01*
X71850250Y-109825000D01*
X71027458Y-109825000D01*
X70904777Y-109849403D01*
X70789215Y-109897270D01*
X70685211Y-109966763D01*
X70596763Y-110055211D01*
X70527270Y-110159215D01*
X70479403Y-110274777D01*
X70455000Y-110397458D01*
X68683962Y-110397458D01*
X68543491Y-110256987D01*
X68226566Y-110045225D01*
X67874419Y-109899361D01*
X67500581Y-109825000D01*
X67119419Y-109825000D01*
X66745581Y-109899361D01*
X66393434Y-110045225D01*
X66076509Y-110256987D01*
X65806987Y-110526509D01*
X65595225Y-110843434D01*
X65449361Y-111195581D01*
X65375000Y-111569419D01*
X59085000Y-111569419D01*
X59010639Y-111195581D01*
X58864775Y-110843434D01*
X58653013Y-110526509D01*
X58523962Y-110397458D01*
X60295000Y-110397458D01*
X60295000Y-111220250D01*
X60453750Y-111379000D01*
X61849000Y-111379000D01*
X61849000Y-109983750D01*
X62611000Y-109983750D01*
X62611000Y-111379000D01*
X64006250Y-111379000D01*
X64165000Y-111220250D01*
X64165000Y-110397458D01*
X64140597Y-110274777D01*
X64092730Y-110159215D01*
X64023237Y-110055211D01*
X63934789Y-109966763D01*
X63830785Y-109897270D01*
X63715223Y-109849403D01*
X63592542Y-109825000D01*
X62769750Y-109825000D01*
X62611000Y-109983750D01*
X61849000Y-109983750D01*
X61690250Y-109825000D01*
X60867458Y-109825000D01*
X60744777Y-109849403D01*
X60629215Y-109897270D01*
X60525211Y-109966763D01*
X60436763Y-110055211D01*
X60367270Y-110159215D01*
X60319403Y-110274777D01*
X60295000Y-110397458D01*
X58523962Y-110397458D01*
X58383491Y-110256987D01*
X58066566Y-110045225D01*
X57714419Y-109899361D01*
X57340581Y-109825000D01*
X56959419Y-109825000D01*
X56585581Y-109899361D01*
X56233434Y-110045225D01*
X55916509Y-110256987D01*
X55646987Y-110526509D01*
X55435225Y-110843434D01*
X55289361Y-111195581D01*
X55215000Y-111569419D01*
X48925000Y-111569419D01*
X48850639Y-111195581D01*
X48704775Y-110843434D01*
X48493013Y-110526509D01*
X48363962Y-110397458D01*
X50135000Y-110397458D01*
X50135000Y-111220250D01*
X50293750Y-111379000D01*
X51689000Y-111379000D01*
X51689000Y-109983750D01*
X52451000Y-109983750D01*
X52451000Y-111379000D01*
X53846250Y-111379000D01*
X54005000Y-111220250D01*
X54005000Y-110397458D01*
X53980597Y-110274777D01*
X53932730Y-110159215D01*
X53863237Y-110055211D01*
X53774789Y-109966763D01*
X53670785Y-109897270D01*
X53555223Y-109849403D01*
X53432542Y-109825000D01*
X52609750Y-109825000D01*
X52451000Y-109983750D01*
X51689000Y-109983750D01*
X51530250Y-109825000D01*
X50707458Y-109825000D01*
X50584777Y-109849403D01*
X50469215Y-109897270D01*
X50365211Y-109966763D01*
X50276763Y-110055211D01*
X50207270Y-110159215D01*
X50159403Y-110274777D01*
X50135000Y-110397458D01*
X48363962Y-110397458D01*
X48223491Y-110256987D01*
X47906566Y-110045225D01*
X47554419Y-109899361D01*
X47180581Y-109825000D01*
X46799419Y-109825000D01*
X46425581Y-109899361D01*
X46073434Y-110045225D01*
X45756509Y-110256987D01*
X45486987Y-110526509D01*
X45275225Y-110843434D01*
X45129361Y-111195581D01*
X45055000Y-111569419D01*
X34950000Y-111569419D01*
X34950000Y-109233335D01*
X35070915Y-109525250D01*
X35288149Y-109850364D01*
X35564636Y-110126851D01*
X35889750Y-110344085D01*
X36250997Y-110493718D01*
X36634495Y-110570000D01*
X37025505Y-110570000D01*
X37409003Y-110493718D01*
X37641395Y-110397458D01*
X39975000Y-110397458D01*
X39975000Y-111220250D01*
X40133750Y-111379000D01*
X41529000Y-111379000D01*
X41529000Y-109983750D01*
X42291000Y-109983750D01*
X42291000Y-111379000D01*
X43686250Y-111379000D01*
X43845000Y-111220250D01*
X43845000Y-110397458D01*
X43820597Y-110274777D01*
X43772730Y-110159215D01*
X43703237Y-110055211D01*
X43614789Y-109966763D01*
X43510785Y-109897270D01*
X43395223Y-109849403D01*
X43272542Y-109825000D01*
X42449750Y-109825000D01*
X42291000Y-109983750D01*
X41529000Y-109983750D01*
X41370250Y-109825000D01*
X40547458Y-109825000D01*
X40424777Y-109849403D01*
X40309215Y-109897270D01*
X40205211Y-109966763D01*
X40116763Y-110055211D01*
X40047270Y-110159215D01*
X39999403Y-110274777D01*
X39975000Y-110397458D01*
X37641395Y-110397458D01*
X37770250Y-110344085D01*
X38095364Y-110126851D01*
X38371851Y-109850364D01*
X38589085Y-109525250D01*
X38738718Y-109164003D01*
X38815000Y-108780505D01*
X38815000Y-108389495D01*
X38738718Y-108005997D01*
X38589085Y-107644750D01*
X38371851Y-107319636D01*
X38095364Y-107043149D01*
X37770250Y-106825915D01*
X37478335Y-106705000D01*
X135876665Y-106705000D01*
X135584750Y-106825915D01*
M02*
