G04 #@! TF.GenerationSoftware,KiCad,Pcbnew,(5.1.0-rc2-41-g6b3e9b0ed)*
G04 #@! TF.CreationDate,2020-04-23T19:15:03+02:00*
G04 #@! TF.ProjectId,LED_Driver,4c45445f-4472-4697-9665-722e6b696361,V0.1*
G04 #@! TF.SameCoordinates,Original*
G04 #@! TF.FileFunction,Paste,Top*
G04 #@! TF.FilePolarity,Positive*
%FSLAX46Y46*%
G04 Gerber Fmt 4.6, Leading zero omitted, Abs format (unit mm)*
G04 Created by KiCad (PCBNEW (5.1.0-rc2-41-g6b3e9b0ed)) date 2020-04-23 19:15:03*
%MOMM*%
%LPD*%
G04 APERTURE LIST*
%ADD10C,0.100000*%
%ADD11C,1.150000*%
%ADD12R,0.800000X1.900000*%
%ADD13R,2.750000X3.050000*%
%ADD14R,1.200000X2.200000*%
G04 APERTURE END LIST*
D10*
G36*
X42638505Y-139008204D02*
G01*
X42662773Y-139011804D01*
X42686572Y-139017765D01*
X42709671Y-139026030D01*
X42731850Y-139036520D01*
X42752893Y-139049132D01*
X42772599Y-139063747D01*
X42790777Y-139080223D01*
X42807253Y-139098401D01*
X42821868Y-139118107D01*
X42834480Y-139139150D01*
X42844970Y-139161329D01*
X42853235Y-139184428D01*
X42859196Y-139208227D01*
X42862796Y-139232495D01*
X42864000Y-139256999D01*
X42864000Y-139907001D01*
X42862796Y-139931505D01*
X42859196Y-139955773D01*
X42853235Y-139979572D01*
X42844970Y-140002671D01*
X42834480Y-140024850D01*
X42821868Y-140045893D01*
X42807253Y-140065599D01*
X42790777Y-140083777D01*
X42772599Y-140100253D01*
X42752893Y-140114868D01*
X42731850Y-140127480D01*
X42709671Y-140137970D01*
X42686572Y-140146235D01*
X42662773Y-140152196D01*
X42638505Y-140155796D01*
X42614001Y-140157000D01*
X41713999Y-140157000D01*
X41689495Y-140155796D01*
X41665227Y-140152196D01*
X41641428Y-140146235D01*
X41618329Y-140137970D01*
X41596150Y-140127480D01*
X41575107Y-140114868D01*
X41555401Y-140100253D01*
X41537223Y-140083777D01*
X41520747Y-140065599D01*
X41506132Y-140045893D01*
X41493520Y-140024850D01*
X41483030Y-140002671D01*
X41474765Y-139979572D01*
X41468804Y-139955773D01*
X41465204Y-139931505D01*
X41464000Y-139907001D01*
X41464000Y-139256999D01*
X41465204Y-139232495D01*
X41468804Y-139208227D01*
X41474765Y-139184428D01*
X41483030Y-139161329D01*
X41493520Y-139139150D01*
X41506132Y-139118107D01*
X41520747Y-139098401D01*
X41537223Y-139080223D01*
X41555401Y-139063747D01*
X41575107Y-139049132D01*
X41596150Y-139036520D01*
X41618329Y-139026030D01*
X41641428Y-139017765D01*
X41665227Y-139011804D01*
X41689495Y-139008204D01*
X41713999Y-139007000D01*
X42614001Y-139007000D01*
X42638505Y-139008204D01*
X42638505Y-139008204D01*
G37*
D11*
X42164000Y-139582000D03*
D10*
G36*
X42638505Y-136958204D02*
G01*
X42662773Y-136961804D01*
X42686572Y-136967765D01*
X42709671Y-136976030D01*
X42731850Y-136986520D01*
X42752893Y-136999132D01*
X42772599Y-137013747D01*
X42790777Y-137030223D01*
X42807253Y-137048401D01*
X42821868Y-137068107D01*
X42834480Y-137089150D01*
X42844970Y-137111329D01*
X42853235Y-137134428D01*
X42859196Y-137158227D01*
X42862796Y-137182495D01*
X42864000Y-137206999D01*
X42864000Y-137857001D01*
X42862796Y-137881505D01*
X42859196Y-137905773D01*
X42853235Y-137929572D01*
X42844970Y-137952671D01*
X42834480Y-137974850D01*
X42821868Y-137995893D01*
X42807253Y-138015599D01*
X42790777Y-138033777D01*
X42772599Y-138050253D01*
X42752893Y-138064868D01*
X42731850Y-138077480D01*
X42709671Y-138087970D01*
X42686572Y-138096235D01*
X42662773Y-138102196D01*
X42638505Y-138105796D01*
X42614001Y-138107000D01*
X41713999Y-138107000D01*
X41689495Y-138105796D01*
X41665227Y-138102196D01*
X41641428Y-138096235D01*
X41618329Y-138087970D01*
X41596150Y-138077480D01*
X41575107Y-138064868D01*
X41555401Y-138050253D01*
X41537223Y-138033777D01*
X41520747Y-138015599D01*
X41506132Y-137995893D01*
X41493520Y-137974850D01*
X41483030Y-137952671D01*
X41474765Y-137929572D01*
X41468804Y-137905773D01*
X41465204Y-137881505D01*
X41464000Y-137857001D01*
X41464000Y-137206999D01*
X41465204Y-137182495D01*
X41468804Y-137158227D01*
X41474765Y-137134428D01*
X41483030Y-137111329D01*
X41493520Y-137089150D01*
X41506132Y-137068107D01*
X41520747Y-137048401D01*
X41537223Y-137030223D01*
X41555401Y-137013747D01*
X41575107Y-136999132D01*
X41596150Y-136986520D01*
X41618329Y-136976030D01*
X41641428Y-136967765D01*
X41665227Y-136961804D01*
X41689495Y-136958204D01*
X41713999Y-136957000D01*
X42614001Y-136957000D01*
X42638505Y-136958204D01*
X42638505Y-136958204D01*
G37*
D11*
X42164000Y-137532000D03*
D10*
G36*
X42638505Y-143072204D02*
G01*
X42662773Y-143075804D01*
X42686572Y-143081765D01*
X42709671Y-143090030D01*
X42731850Y-143100520D01*
X42752893Y-143113132D01*
X42772599Y-143127747D01*
X42790777Y-143144223D01*
X42807253Y-143162401D01*
X42821868Y-143182107D01*
X42834480Y-143203150D01*
X42844970Y-143225329D01*
X42853235Y-143248428D01*
X42859196Y-143272227D01*
X42862796Y-143296495D01*
X42864000Y-143320999D01*
X42864000Y-143971001D01*
X42862796Y-143995505D01*
X42859196Y-144019773D01*
X42853235Y-144043572D01*
X42844970Y-144066671D01*
X42834480Y-144088850D01*
X42821868Y-144109893D01*
X42807253Y-144129599D01*
X42790777Y-144147777D01*
X42772599Y-144164253D01*
X42752893Y-144178868D01*
X42731850Y-144191480D01*
X42709671Y-144201970D01*
X42686572Y-144210235D01*
X42662773Y-144216196D01*
X42638505Y-144219796D01*
X42614001Y-144221000D01*
X41713999Y-144221000D01*
X41689495Y-144219796D01*
X41665227Y-144216196D01*
X41641428Y-144210235D01*
X41618329Y-144201970D01*
X41596150Y-144191480D01*
X41575107Y-144178868D01*
X41555401Y-144164253D01*
X41537223Y-144147777D01*
X41520747Y-144129599D01*
X41506132Y-144109893D01*
X41493520Y-144088850D01*
X41483030Y-144066671D01*
X41474765Y-144043572D01*
X41468804Y-144019773D01*
X41465204Y-143995505D01*
X41464000Y-143971001D01*
X41464000Y-143320999D01*
X41465204Y-143296495D01*
X41468804Y-143272227D01*
X41474765Y-143248428D01*
X41483030Y-143225329D01*
X41493520Y-143203150D01*
X41506132Y-143182107D01*
X41520747Y-143162401D01*
X41537223Y-143144223D01*
X41555401Y-143127747D01*
X41575107Y-143113132D01*
X41596150Y-143100520D01*
X41618329Y-143090030D01*
X41641428Y-143081765D01*
X41665227Y-143075804D01*
X41689495Y-143072204D01*
X41713999Y-143071000D01*
X42614001Y-143071000D01*
X42638505Y-143072204D01*
X42638505Y-143072204D01*
G37*
D11*
X42164000Y-143646000D03*
D10*
G36*
X42638505Y-141022204D02*
G01*
X42662773Y-141025804D01*
X42686572Y-141031765D01*
X42709671Y-141040030D01*
X42731850Y-141050520D01*
X42752893Y-141063132D01*
X42772599Y-141077747D01*
X42790777Y-141094223D01*
X42807253Y-141112401D01*
X42821868Y-141132107D01*
X42834480Y-141153150D01*
X42844970Y-141175329D01*
X42853235Y-141198428D01*
X42859196Y-141222227D01*
X42862796Y-141246495D01*
X42864000Y-141270999D01*
X42864000Y-141921001D01*
X42862796Y-141945505D01*
X42859196Y-141969773D01*
X42853235Y-141993572D01*
X42844970Y-142016671D01*
X42834480Y-142038850D01*
X42821868Y-142059893D01*
X42807253Y-142079599D01*
X42790777Y-142097777D01*
X42772599Y-142114253D01*
X42752893Y-142128868D01*
X42731850Y-142141480D01*
X42709671Y-142151970D01*
X42686572Y-142160235D01*
X42662773Y-142166196D01*
X42638505Y-142169796D01*
X42614001Y-142171000D01*
X41713999Y-142171000D01*
X41689495Y-142169796D01*
X41665227Y-142166196D01*
X41641428Y-142160235D01*
X41618329Y-142151970D01*
X41596150Y-142141480D01*
X41575107Y-142128868D01*
X41555401Y-142114253D01*
X41537223Y-142097777D01*
X41520747Y-142079599D01*
X41506132Y-142059893D01*
X41493520Y-142038850D01*
X41483030Y-142016671D01*
X41474765Y-141993572D01*
X41468804Y-141969773D01*
X41465204Y-141945505D01*
X41464000Y-141921001D01*
X41464000Y-141270999D01*
X41465204Y-141246495D01*
X41468804Y-141222227D01*
X41474765Y-141198428D01*
X41483030Y-141175329D01*
X41493520Y-141153150D01*
X41506132Y-141132107D01*
X41520747Y-141112401D01*
X41537223Y-141094223D01*
X41555401Y-141077747D01*
X41575107Y-141063132D01*
X41596150Y-141050520D01*
X41618329Y-141040030D01*
X41641428Y-141031765D01*
X41665227Y-141025804D01*
X41689495Y-141022204D01*
X41713999Y-141021000D01*
X42614001Y-141021000D01*
X42638505Y-141022204D01*
X42638505Y-141022204D01*
G37*
D11*
X42164000Y-141596000D03*
D10*
G36*
X52798505Y-139008204D02*
G01*
X52822773Y-139011804D01*
X52846572Y-139017765D01*
X52869671Y-139026030D01*
X52891850Y-139036520D01*
X52912893Y-139049132D01*
X52932599Y-139063747D01*
X52950777Y-139080223D01*
X52967253Y-139098401D01*
X52981868Y-139118107D01*
X52994480Y-139139150D01*
X53004970Y-139161329D01*
X53013235Y-139184428D01*
X53019196Y-139208227D01*
X53022796Y-139232495D01*
X53024000Y-139256999D01*
X53024000Y-139907001D01*
X53022796Y-139931505D01*
X53019196Y-139955773D01*
X53013235Y-139979572D01*
X53004970Y-140002671D01*
X52994480Y-140024850D01*
X52981868Y-140045893D01*
X52967253Y-140065599D01*
X52950777Y-140083777D01*
X52932599Y-140100253D01*
X52912893Y-140114868D01*
X52891850Y-140127480D01*
X52869671Y-140137970D01*
X52846572Y-140146235D01*
X52822773Y-140152196D01*
X52798505Y-140155796D01*
X52774001Y-140157000D01*
X51873999Y-140157000D01*
X51849495Y-140155796D01*
X51825227Y-140152196D01*
X51801428Y-140146235D01*
X51778329Y-140137970D01*
X51756150Y-140127480D01*
X51735107Y-140114868D01*
X51715401Y-140100253D01*
X51697223Y-140083777D01*
X51680747Y-140065599D01*
X51666132Y-140045893D01*
X51653520Y-140024850D01*
X51643030Y-140002671D01*
X51634765Y-139979572D01*
X51628804Y-139955773D01*
X51625204Y-139931505D01*
X51624000Y-139907001D01*
X51624000Y-139256999D01*
X51625204Y-139232495D01*
X51628804Y-139208227D01*
X51634765Y-139184428D01*
X51643030Y-139161329D01*
X51653520Y-139139150D01*
X51666132Y-139118107D01*
X51680747Y-139098401D01*
X51697223Y-139080223D01*
X51715401Y-139063747D01*
X51735107Y-139049132D01*
X51756150Y-139036520D01*
X51778329Y-139026030D01*
X51801428Y-139017765D01*
X51825227Y-139011804D01*
X51849495Y-139008204D01*
X51873999Y-139007000D01*
X52774001Y-139007000D01*
X52798505Y-139008204D01*
X52798505Y-139008204D01*
G37*
D11*
X52324000Y-139582000D03*
D10*
G36*
X52798505Y-136958204D02*
G01*
X52822773Y-136961804D01*
X52846572Y-136967765D01*
X52869671Y-136976030D01*
X52891850Y-136986520D01*
X52912893Y-136999132D01*
X52932599Y-137013747D01*
X52950777Y-137030223D01*
X52967253Y-137048401D01*
X52981868Y-137068107D01*
X52994480Y-137089150D01*
X53004970Y-137111329D01*
X53013235Y-137134428D01*
X53019196Y-137158227D01*
X53022796Y-137182495D01*
X53024000Y-137206999D01*
X53024000Y-137857001D01*
X53022796Y-137881505D01*
X53019196Y-137905773D01*
X53013235Y-137929572D01*
X53004970Y-137952671D01*
X52994480Y-137974850D01*
X52981868Y-137995893D01*
X52967253Y-138015599D01*
X52950777Y-138033777D01*
X52932599Y-138050253D01*
X52912893Y-138064868D01*
X52891850Y-138077480D01*
X52869671Y-138087970D01*
X52846572Y-138096235D01*
X52822773Y-138102196D01*
X52798505Y-138105796D01*
X52774001Y-138107000D01*
X51873999Y-138107000D01*
X51849495Y-138105796D01*
X51825227Y-138102196D01*
X51801428Y-138096235D01*
X51778329Y-138087970D01*
X51756150Y-138077480D01*
X51735107Y-138064868D01*
X51715401Y-138050253D01*
X51697223Y-138033777D01*
X51680747Y-138015599D01*
X51666132Y-137995893D01*
X51653520Y-137974850D01*
X51643030Y-137952671D01*
X51634765Y-137929572D01*
X51628804Y-137905773D01*
X51625204Y-137881505D01*
X51624000Y-137857001D01*
X51624000Y-137206999D01*
X51625204Y-137182495D01*
X51628804Y-137158227D01*
X51634765Y-137134428D01*
X51643030Y-137111329D01*
X51653520Y-137089150D01*
X51666132Y-137068107D01*
X51680747Y-137048401D01*
X51697223Y-137030223D01*
X51715401Y-137013747D01*
X51735107Y-136999132D01*
X51756150Y-136986520D01*
X51778329Y-136976030D01*
X51801428Y-136967765D01*
X51825227Y-136961804D01*
X51849495Y-136958204D01*
X51873999Y-136957000D01*
X52774001Y-136957000D01*
X52798505Y-136958204D01*
X52798505Y-136958204D01*
G37*
D11*
X52324000Y-137532000D03*
D10*
G36*
X52798505Y-143072204D02*
G01*
X52822773Y-143075804D01*
X52846572Y-143081765D01*
X52869671Y-143090030D01*
X52891850Y-143100520D01*
X52912893Y-143113132D01*
X52932599Y-143127747D01*
X52950777Y-143144223D01*
X52967253Y-143162401D01*
X52981868Y-143182107D01*
X52994480Y-143203150D01*
X53004970Y-143225329D01*
X53013235Y-143248428D01*
X53019196Y-143272227D01*
X53022796Y-143296495D01*
X53024000Y-143320999D01*
X53024000Y-143971001D01*
X53022796Y-143995505D01*
X53019196Y-144019773D01*
X53013235Y-144043572D01*
X53004970Y-144066671D01*
X52994480Y-144088850D01*
X52981868Y-144109893D01*
X52967253Y-144129599D01*
X52950777Y-144147777D01*
X52932599Y-144164253D01*
X52912893Y-144178868D01*
X52891850Y-144191480D01*
X52869671Y-144201970D01*
X52846572Y-144210235D01*
X52822773Y-144216196D01*
X52798505Y-144219796D01*
X52774001Y-144221000D01*
X51873999Y-144221000D01*
X51849495Y-144219796D01*
X51825227Y-144216196D01*
X51801428Y-144210235D01*
X51778329Y-144201970D01*
X51756150Y-144191480D01*
X51735107Y-144178868D01*
X51715401Y-144164253D01*
X51697223Y-144147777D01*
X51680747Y-144129599D01*
X51666132Y-144109893D01*
X51653520Y-144088850D01*
X51643030Y-144066671D01*
X51634765Y-144043572D01*
X51628804Y-144019773D01*
X51625204Y-143995505D01*
X51624000Y-143971001D01*
X51624000Y-143320999D01*
X51625204Y-143296495D01*
X51628804Y-143272227D01*
X51634765Y-143248428D01*
X51643030Y-143225329D01*
X51653520Y-143203150D01*
X51666132Y-143182107D01*
X51680747Y-143162401D01*
X51697223Y-143144223D01*
X51715401Y-143127747D01*
X51735107Y-143113132D01*
X51756150Y-143100520D01*
X51778329Y-143090030D01*
X51801428Y-143081765D01*
X51825227Y-143075804D01*
X51849495Y-143072204D01*
X51873999Y-143071000D01*
X52774001Y-143071000D01*
X52798505Y-143072204D01*
X52798505Y-143072204D01*
G37*
D11*
X52324000Y-143646000D03*
D10*
G36*
X52798505Y-141022204D02*
G01*
X52822773Y-141025804D01*
X52846572Y-141031765D01*
X52869671Y-141040030D01*
X52891850Y-141050520D01*
X52912893Y-141063132D01*
X52932599Y-141077747D01*
X52950777Y-141094223D01*
X52967253Y-141112401D01*
X52981868Y-141132107D01*
X52994480Y-141153150D01*
X53004970Y-141175329D01*
X53013235Y-141198428D01*
X53019196Y-141222227D01*
X53022796Y-141246495D01*
X53024000Y-141270999D01*
X53024000Y-141921001D01*
X53022796Y-141945505D01*
X53019196Y-141969773D01*
X53013235Y-141993572D01*
X53004970Y-142016671D01*
X52994480Y-142038850D01*
X52981868Y-142059893D01*
X52967253Y-142079599D01*
X52950777Y-142097777D01*
X52932599Y-142114253D01*
X52912893Y-142128868D01*
X52891850Y-142141480D01*
X52869671Y-142151970D01*
X52846572Y-142160235D01*
X52822773Y-142166196D01*
X52798505Y-142169796D01*
X52774001Y-142171000D01*
X51873999Y-142171000D01*
X51849495Y-142169796D01*
X51825227Y-142166196D01*
X51801428Y-142160235D01*
X51778329Y-142151970D01*
X51756150Y-142141480D01*
X51735107Y-142128868D01*
X51715401Y-142114253D01*
X51697223Y-142097777D01*
X51680747Y-142079599D01*
X51666132Y-142059893D01*
X51653520Y-142038850D01*
X51643030Y-142016671D01*
X51634765Y-141993572D01*
X51628804Y-141969773D01*
X51625204Y-141945505D01*
X51624000Y-141921001D01*
X51624000Y-141270999D01*
X51625204Y-141246495D01*
X51628804Y-141222227D01*
X51634765Y-141198428D01*
X51643030Y-141175329D01*
X51653520Y-141153150D01*
X51666132Y-141132107D01*
X51680747Y-141112401D01*
X51697223Y-141094223D01*
X51715401Y-141077747D01*
X51735107Y-141063132D01*
X51756150Y-141050520D01*
X51778329Y-141040030D01*
X51801428Y-141031765D01*
X51825227Y-141025804D01*
X51849495Y-141022204D01*
X51873999Y-141021000D01*
X52774001Y-141021000D01*
X52798505Y-141022204D01*
X52798505Y-141022204D01*
G37*
D11*
X52324000Y-141596000D03*
D10*
G36*
X62958505Y-139008204D02*
G01*
X62982773Y-139011804D01*
X63006572Y-139017765D01*
X63029671Y-139026030D01*
X63051850Y-139036520D01*
X63072893Y-139049132D01*
X63092599Y-139063747D01*
X63110777Y-139080223D01*
X63127253Y-139098401D01*
X63141868Y-139118107D01*
X63154480Y-139139150D01*
X63164970Y-139161329D01*
X63173235Y-139184428D01*
X63179196Y-139208227D01*
X63182796Y-139232495D01*
X63184000Y-139256999D01*
X63184000Y-139907001D01*
X63182796Y-139931505D01*
X63179196Y-139955773D01*
X63173235Y-139979572D01*
X63164970Y-140002671D01*
X63154480Y-140024850D01*
X63141868Y-140045893D01*
X63127253Y-140065599D01*
X63110777Y-140083777D01*
X63092599Y-140100253D01*
X63072893Y-140114868D01*
X63051850Y-140127480D01*
X63029671Y-140137970D01*
X63006572Y-140146235D01*
X62982773Y-140152196D01*
X62958505Y-140155796D01*
X62934001Y-140157000D01*
X62033999Y-140157000D01*
X62009495Y-140155796D01*
X61985227Y-140152196D01*
X61961428Y-140146235D01*
X61938329Y-140137970D01*
X61916150Y-140127480D01*
X61895107Y-140114868D01*
X61875401Y-140100253D01*
X61857223Y-140083777D01*
X61840747Y-140065599D01*
X61826132Y-140045893D01*
X61813520Y-140024850D01*
X61803030Y-140002671D01*
X61794765Y-139979572D01*
X61788804Y-139955773D01*
X61785204Y-139931505D01*
X61784000Y-139907001D01*
X61784000Y-139256999D01*
X61785204Y-139232495D01*
X61788804Y-139208227D01*
X61794765Y-139184428D01*
X61803030Y-139161329D01*
X61813520Y-139139150D01*
X61826132Y-139118107D01*
X61840747Y-139098401D01*
X61857223Y-139080223D01*
X61875401Y-139063747D01*
X61895107Y-139049132D01*
X61916150Y-139036520D01*
X61938329Y-139026030D01*
X61961428Y-139017765D01*
X61985227Y-139011804D01*
X62009495Y-139008204D01*
X62033999Y-139007000D01*
X62934001Y-139007000D01*
X62958505Y-139008204D01*
X62958505Y-139008204D01*
G37*
D11*
X62484000Y-139582000D03*
D10*
G36*
X62958505Y-136958204D02*
G01*
X62982773Y-136961804D01*
X63006572Y-136967765D01*
X63029671Y-136976030D01*
X63051850Y-136986520D01*
X63072893Y-136999132D01*
X63092599Y-137013747D01*
X63110777Y-137030223D01*
X63127253Y-137048401D01*
X63141868Y-137068107D01*
X63154480Y-137089150D01*
X63164970Y-137111329D01*
X63173235Y-137134428D01*
X63179196Y-137158227D01*
X63182796Y-137182495D01*
X63184000Y-137206999D01*
X63184000Y-137857001D01*
X63182796Y-137881505D01*
X63179196Y-137905773D01*
X63173235Y-137929572D01*
X63164970Y-137952671D01*
X63154480Y-137974850D01*
X63141868Y-137995893D01*
X63127253Y-138015599D01*
X63110777Y-138033777D01*
X63092599Y-138050253D01*
X63072893Y-138064868D01*
X63051850Y-138077480D01*
X63029671Y-138087970D01*
X63006572Y-138096235D01*
X62982773Y-138102196D01*
X62958505Y-138105796D01*
X62934001Y-138107000D01*
X62033999Y-138107000D01*
X62009495Y-138105796D01*
X61985227Y-138102196D01*
X61961428Y-138096235D01*
X61938329Y-138087970D01*
X61916150Y-138077480D01*
X61895107Y-138064868D01*
X61875401Y-138050253D01*
X61857223Y-138033777D01*
X61840747Y-138015599D01*
X61826132Y-137995893D01*
X61813520Y-137974850D01*
X61803030Y-137952671D01*
X61794765Y-137929572D01*
X61788804Y-137905773D01*
X61785204Y-137881505D01*
X61784000Y-137857001D01*
X61784000Y-137206999D01*
X61785204Y-137182495D01*
X61788804Y-137158227D01*
X61794765Y-137134428D01*
X61803030Y-137111329D01*
X61813520Y-137089150D01*
X61826132Y-137068107D01*
X61840747Y-137048401D01*
X61857223Y-137030223D01*
X61875401Y-137013747D01*
X61895107Y-136999132D01*
X61916150Y-136986520D01*
X61938329Y-136976030D01*
X61961428Y-136967765D01*
X61985227Y-136961804D01*
X62009495Y-136958204D01*
X62033999Y-136957000D01*
X62934001Y-136957000D01*
X62958505Y-136958204D01*
X62958505Y-136958204D01*
G37*
D11*
X62484000Y-137532000D03*
D10*
G36*
X62958505Y-143072204D02*
G01*
X62982773Y-143075804D01*
X63006572Y-143081765D01*
X63029671Y-143090030D01*
X63051850Y-143100520D01*
X63072893Y-143113132D01*
X63092599Y-143127747D01*
X63110777Y-143144223D01*
X63127253Y-143162401D01*
X63141868Y-143182107D01*
X63154480Y-143203150D01*
X63164970Y-143225329D01*
X63173235Y-143248428D01*
X63179196Y-143272227D01*
X63182796Y-143296495D01*
X63184000Y-143320999D01*
X63184000Y-143971001D01*
X63182796Y-143995505D01*
X63179196Y-144019773D01*
X63173235Y-144043572D01*
X63164970Y-144066671D01*
X63154480Y-144088850D01*
X63141868Y-144109893D01*
X63127253Y-144129599D01*
X63110777Y-144147777D01*
X63092599Y-144164253D01*
X63072893Y-144178868D01*
X63051850Y-144191480D01*
X63029671Y-144201970D01*
X63006572Y-144210235D01*
X62982773Y-144216196D01*
X62958505Y-144219796D01*
X62934001Y-144221000D01*
X62033999Y-144221000D01*
X62009495Y-144219796D01*
X61985227Y-144216196D01*
X61961428Y-144210235D01*
X61938329Y-144201970D01*
X61916150Y-144191480D01*
X61895107Y-144178868D01*
X61875401Y-144164253D01*
X61857223Y-144147777D01*
X61840747Y-144129599D01*
X61826132Y-144109893D01*
X61813520Y-144088850D01*
X61803030Y-144066671D01*
X61794765Y-144043572D01*
X61788804Y-144019773D01*
X61785204Y-143995505D01*
X61784000Y-143971001D01*
X61784000Y-143320999D01*
X61785204Y-143296495D01*
X61788804Y-143272227D01*
X61794765Y-143248428D01*
X61803030Y-143225329D01*
X61813520Y-143203150D01*
X61826132Y-143182107D01*
X61840747Y-143162401D01*
X61857223Y-143144223D01*
X61875401Y-143127747D01*
X61895107Y-143113132D01*
X61916150Y-143100520D01*
X61938329Y-143090030D01*
X61961428Y-143081765D01*
X61985227Y-143075804D01*
X62009495Y-143072204D01*
X62033999Y-143071000D01*
X62934001Y-143071000D01*
X62958505Y-143072204D01*
X62958505Y-143072204D01*
G37*
D11*
X62484000Y-143646000D03*
D10*
G36*
X62958505Y-141022204D02*
G01*
X62982773Y-141025804D01*
X63006572Y-141031765D01*
X63029671Y-141040030D01*
X63051850Y-141050520D01*
X63072893Y-141063132D01*
X63092599Y-141077747D01*
X63110777Y-141094223D01*
X63127253Y-141112401D01*
X63141868Y-141132107D01*
X63154480Y-141153150D01*
X63164970Y-141175329D01*
X63173235Y-141198428D01*
X63179196Y-141222227D01*
X63182796Y-141246495D01*
X63184000Y-141270999D01*
X63184000Y-141921001D01*
X63182796Y-141945505D01*
X63179196Y-141969773D01*
X63173235Y-141993572D01*
X63164970Y-142016671D01*
X63154480Y-142038850D01*
X63141868Y-142059893D01*
X63127253Y-142079599D01*
X63110777Y-142097777D01*
X63092599Y-142114253D01*
X63072893Y-142128868D01*
X63051850Y-142141480D01*
X63029671Y-142151970D01*
X63006572Y-142160235D01*
X62982773Y-142166196D01*
X62958505Y-142169796D01*
X62934001Y-142171000D01*
X62033999Y-142171000D01*
X62009495Y-142169796D01*
X61985227Y-142166196D01*
X61961428Y-142160235D01*
X61938329Y-142151970D01*
X61916150Y-142141480D01*
X61895107Y-142128868D01*
X61875401Y-142114253D01*
X61857223Y-142097777D01*
X61840747Y-142079599D01*
X61826132Y-142059893D01*
X61813520Y-142038850D01*
X61803030Y-142016671D01*
X61794765Y-141993572D01*
X61788804Y-141969773D01*
X61785204Y-141945505D01*
X61784000Y-141921001D01*
X61784000Y-141270999D01*
X61785204Y-141246495D01*
X61788804Y-141222227D01*
X61794765Y-141198428D01*
X61803030Y-141175329D01*
X61813520Y-141153150D01*
X61826132Y-141132107D01*
X61840747Y-141112401D01*
X61857223Y-141094223D01*
X61875401Y-141077747D01*
X61895107Y-141063132D01*
X61916150Y-141050520D01*
X61938329Y-141040030D01*
X61961428Y-141031765D01*
X61985227Y-141025804D01*
X62009495Y-141022204D01*
X62033999Y-141021000D01*
X62934001Y-141021000D01*
X62958505Y-141022204D01*
X62958505Y-141022204D01*
G37*
D11*
X62484000Y-141596000D03*
D10*
G36*
X73118505Y-139008204D02*
G01*
X73142773Y-139011804D01*
X73166572Y-139017765D01*
X73189671Y-139026030D01*
X73211850Y-139036520D01*
X73232893Y-139049132D01*
X73252599Y-139063747D01*
X73270777Y-139080223D01*
X73287253Y-139098401D01*
X73301868Y-139118107D01*
X73314480Y-139139150D01*
X73324970Y-139161329D01*
X73333235Y-139184428D01*
X73339196Y-139208227D01*
X73342796Y-139232495D01*
X73344000Y-139256999D01*
X73344000Y-139907001D01*
X73342796Y-139931505D01*
X73339196Y-139955773D01*
X73333235Y-139979572D01*
X73324970Y-140002671D01*
X73314480Y-140024850D01*
X73301868Y-140045893D01*
X73287253Y-140065599D01*
X73270777Y-140083777D01*
X73252599Y-140100253D01*
X73232893Y-140114868D01*
X73211850Y-140127480D01*
X73189671Y-140137970D01*
X73166572Y-140146235D01*
X73142773Y-140152196D01*
X73118505Y-140155796D01*
X73094001Y-140157000D01*
X72193999Y-140157000D01*
X72169495Y-140155796D01*
X72145227Y-140152196D01*
X72121428Y-140146235D01*
X72098329Y-140137970D01*
X72076150Y-140127480D01*
X72055107Y-140114868D01*
X72035401Y-140100253D01*
X72017223Y-140083777D01*
X72000747Y-140065599D01*
X71986132Y-140045893D01*
X71973520Y-140024850D01*
X71963030Y-140002671D01*
X71954765Y-139979572D01*
X71948804Y-139955773D01*
X71945204Y-139931505D01*
X71944000Y-139907001D01*
X71944000Y-139256999D01*
X71945204Y-139232495D01*
X71948804Y-139208227D01*
X71954765Y-139184428D01*
X71963030Y-139161329D01*
X71973520Y-139139150D01*
X71986132Y-139118107D01*
X72000747Y-139098401D01*
X72017223Y-139080223D01*
X72035401Y-139063747D01*
X72055107Y-139049132D01*
X72076150Y-139036520D01*
X72098329Y-139026030D01*
X72121428Y-139017765D01*
X72145227Y-139011804D01*
X72169495Y-139008204D01*
X72193999Y-139007000D01*
X73094001Y-139007000D01*
X73118505Y-139008204D01*
X73118505Y-139008204D01*
G37*
D11*
X72644000Y-139582000D03*
D10*
G36*
X73118505Y-136958204D02*
G01*
X73142773Y-136961804D01*
X73166572Y-136967765D01*
X73189671Y-136976030D01*
X73211850Y-136986520D01*
X73232893Y-136999132D01*
X73252599Y-137013747D01*
X73270777Y-137030223D01*
X73287253Y-137048401D01*
X73301868Y-137068107D01*
X73314480Y-137089150D01*
X73324970Y-137111329D01*
X73333235Y-137134428D01*
X73339196Y-137158227D01*
X73342796Y-137182495D01*
X73344000Y-137206999D01*
X73344000Y-137857001D01*
X73342796Y-137881505D01*
X73339196Y-137905773D01*
X73333235Y-137929572D01*
X73324970Y-137952671D01*
X73314480Y-137974850D01*
X73301868Y-137995893D01*
X73287253Y-138015599D01*
X73270777Y-138033777D01*
X73252599Y-138050253D01*
X73232893Y-138064868D01*
X73211850Y-138077480D01*
X73189671Y-138087970D01*
X73166572Y-138096235D01*
X73142773Y-138102196D01*
X73118505Y-138105796D01*
X73094001Y-138107000D01*
X72193999Y-138107000D01*
X72169495Y-138105796D01*
X72145227Y-138102196D01*
X72121428Y-138096235D01*
X72098329Y-138087970D01*
X72076150Y-138077480D01*
X72055107Y-138064868D01*
X72035401Y-138050253D01*
X72017223Y-138033777D01*
X72000747Y-138015599D01*
X71986132Y-137995893D01*
X71973520Y-137974850D01*
X71963030Y-137952671D01*
X71954765Y-137929572D01*
X71948804Y-137905773D01*
X71945204Y-137881505D01*
X71944000Y-137857001D01*
X71944000Y-137206999D01*
X71945204Y-137182495D01*
X71948804Y-137158227D01*
X71954765Y-137134428D01*
X71963030Y-137111329D01*
X71973520Y-137089150D01*
X71986132Y-137068107D01*
X72000747Y-137048401D01*
X72017223Y-137030223D01*
X72035401Y-137013747D01*
X72055107Y-136999132D01*
X72076150Y-136986520D01*
X72098329Y-136976030D01*
X72121428Y-136967765D01*
X72145227Y-136961804D01*
X72169495Y-136958204D01*
X72193999Y-136957000D01*
X73094001Y-136957000D01*
X73118505Y-136958204D01*
X73118505Y-136958204D01*
G37*
D11*
X72644000Y-137532000D03*
D10*
G36*
X73118505Y-143072204D02*
G01*
X73142773Y-143075804D01*
X73166572Y-143081765D01*
X73189671Y-143090030D01*
X73211850Y-143100520D01*
X73232893Y-143113132D01*
X73252599Y-143127747D01*
X73270777Y-143144223D01*
X73287253Y-143162401D01*
X73301868Y-143182107D01*
X73314480Y-143203150D01*
X73324970Y-143225329D01*
X73333235Y-143248428D01*
X73339196Y-143272227D01*
X73342796Y-143296495D01*
X73344000Y-143320999D01*
X73344000Y-143971001D01*
X73342796Y-143995505D01*
X73339196Y-144019773D01*
X73333235Y-144043572D01*
X73324970Y-144066671D01*
X73314480Y-144088850D01*
X73301868Y-144109893D01*
X73287253Y-144129599D01*
X73270777Y-144147777D01*
X73252599Y-144164253D01*
X73232893Y-144178868D01*
X73211850Y-144191480D01*
X73189671Y-144201970D01*
X73166572Y-144210235D01*
X73142773Y-144216196D01*
X73118505Y-144219796D01*
X73094001Y-144221000D01*
X72193999Y-144221000D01*
X72169495Y-144219796D01*
X72145227Y-144216196D01*
X72121428Y-144210235D01*
X72098329Y-144201970D01*
X72076150Y-144191480D01*
X72055107Y-144178868D01*
X72035401Y-144164253D01*
X72017223Y-144147777D01*
X72000747Y-144129599D01*
X71986132Y-144109893D01*
X71973520Y-144088850D01*
X71963030Y-144066671D01*
X71954765Y-144043572D01*
X71948804Y-144019773D01*
X71945204Y-143995505D01*
X71944000Y-143971001D01*
X71944000Y-143320999D01*
X71945204Y-143296495D01*
X71948804Y-143272227D01*
X71954765Y-143248428D01*
X71963030Y-143225329D01*
X71973520Y-143203150D01*
X71986132Y-143182107D01*
X72000747Y-143162401D01*
X72017223Y-143144223D01*
X72035401Y-143127747D01*
X72055107Y-143113132D01*
X72076150Y-143100520D01*
X72098329Y-143090030D01*
X72121428Y-143081765D01*
X72145227Y-143075804D01*
X72169495Y-143072204D01*
X72193999Y-143071000D01*
X73094001Y-143071000D01*
X73118505Y-143072204D01*
X73118505Y-143072204D01*
G37*
D11*
X72644000Y-143646000D03*
D10*
G36*
X73118505Y-141022204D02*
G01*
X73142773Y-141025804D01*
X73166572Y-141031765D01*
X73189671Y-141040030D01*
X73211850Y-141050520D01*
X73232893Y-141063132D01*
X73252599Y-141077747D01*
X73270777Y-141094223D01*
X73287253Y-141112401D01*
X73301868Y-141132107D01*
X73314480Y-141153150D01*
X73324970Y-141175329D01*
X73333235Y-141198428D01*
X73339196Y-141222227D01*
X73342796Y-141246495D01*
X73344000Y-141270999D01*
X73344000Y-141921001D01*
X73342796Y-141945505D01*
X73339196Y-141969773D01*
X73333235Y-141993572D01*
X73324970Y-142016671D01*
X73314480Y-142038850D01*
X73301868Y-142059893D01*
X73287253Y-142079599D01*
X73270777Y-142097777D01*
X73252599Y-142114253D01*
X73232893Y-142128868D01*
X73211850Y-142141480D01*
X73189671Y-142151970D01*
X73166572Y-142160235D01*
X73142773Y-142166196D01*
X73118505Y-142169796D01*
X73094001Y-142171000D01*
X72193999Y-142171000D01*
X72169495Y-142169796D01*
X72145227Y-142166196D01*
X72121428Y-142160235D01*
X72098329Y-142151970D01*
X72076150Y-142141480D01*
X72055107Y-142128868D01*
X72035401Y-142114253D01*
X72017223Y-142097777D01*
X72000747Y-142079599D01*
X71986132Y-142059893D01*
X71973520Y-142038850D01*
X71963030Y-142016671D01*
X71954765Y-141993572D01*
X71948804Y-141969773D01*
X71945204Y-141945505D01*
X71944000Y-141921001D01*
X71944000Y-141270999D01*
X71945204Y-141246495D01*
X71948804Y-141222227D01*
X71954765Y-141198428D01*
X71963030Y-141175329D01*
X71973520Y-141153150D01*
X71986132Y-141132107D01*
X72000747Y-141112401D01*
X72017223Y-141094223D01*
X72035401Y-141077747D01*
X72055107Y-141063132D01*
X72076150Y-141050520D01*
X72098329Y-141040030D01*
X72121428Y-141031765D01*
X72145227Y-141025804D01*
X72169495Y-141022204D01*
X72193999Y-141021000D01*
X73094001Y-141021000D01*
X73118505Y-141022204D01*
X73118505Y-141022204D01*
G37*
D11*
X72644000Y-141596000D03*
D12*
X45720000Y-137565000D03*
X46670000Y-140565000D03*
X44770000Y-140565000D03*
D13*
X45975000Y-130385000D03*
X42925000Y-127035000D03*
X42925000Y-130385000D03*
X45975000Y-127035000D03*
D14*
X46730000Y-135010000D03*
X44450000Y-135010000D03*
X42170000Y-135010000D03*
D12*
X55880000Y-137565000D03*
X56830000Y-140565000D03*
X54930000Y-140565000D03*
D13*
X56135000Y-130385000D03*
X53085000Y-127035000D03*
X53085000Y-130385000D03*
X56135000Y-127035000D03*
D14*
X56890000Y-135010000D03*
X54610000Y-135010000D03*
X52330000Y-135010000D03*
D12*
X66040000Y-137565000D03*
X66990000Y-140565000D03*
X65090000Y-140565000D03*
D13*
X66295000Y-130385000D03*
X63245000Y-127035000D03*
X63245000Y-130385000D03*
X66295000Y-127035000D03*
D14*
X67050000Y-135010000D03*
X64770000Y-135010000D03*
X62490000Y-135010000D03*
D12*
X76200000Y-137565000D03*
X77150000Y-140565000D03*
X75250000Y-140565000D03*
D13*
X76455000Y-130385000D03*
X73405000Y-127035000D03*
X73405000Y-130385000D03*
X76455000Y-127035000D03*
D14*
X77210000Y-135010000D03*
X74930000Y-135010000D03*
X72650000Y-135010000D03*
D10*
G36*
X46840505Y-142684204D02*
G01*
X46864773Y-142687804D01*
X46888572Y-142693765D01*
X46911671Y-142702030D01*
X46933850Y-142712520D01*
X46954893Y-142725132D01*
X46974599Y-142739747D01*
X46992777Y-142756223D01*
X47009253Y-142774401D01*
X47023868Y-142794107D01*
X47036480Y-142815150D01*
X47046970Y-142837329D01*
X47055235Y-142860428D01*
X47061196Y-142884227D01*
X47064796Y-142908495D01*
X47066000Y-142932999D01*
X47066000Y-143833001D01*
X47064796Y-143857505D01*
X47061196Y-143881773D01*
X47055235Y-143905572D01*
X47046970Y-143928671D01*
X47036480Y-143950850D01*
X47023868Y-143971893D01*
X47009253Y-143991599D01*
X46992777Y-144009777D01*
X46974599Y-144026253D01*
X46954893Y-144040868D01*
X46933850Y-144053480D01*
X46911671Y-144063970D01*
X46888572Y-144072235D01*
X46864773Y-144078196D01*
X46840505Y-144081796D01*
X46816001Y-144083000D01*
X46165999Y-144083000D01*
X46141495Y-144081796D01*
X46117227Y-144078196D01*
X46093428Y-144072235D01*
X46070329Y-144063970D01*
X46048150Y-144053480D01*
X46027107Y-144040868D01*
X46007401Y-144026253D01*
X45989223Y-144009777D01*
X45972747Y-143991599D01*
X45958132Y-143971893D01*
X45945520Y-143950850D01*
X45935030Y-143928671D01*
X45926765Y-143905572D01*
X45920804Y-143881773D01*
X45917204Y-143857505D01*
X45916000Y-143833001D01*
X45916000Y-142932999D01*
X45917204Y-142908495D01*
X45920804Y-142884227D01*
X45926765Y-142860428D01*
X45935030Y-142837329D01*
X45945520Y-142815150D01*
X45958132Y-142794107D01*
X45972747Y-142774401D01*
X45989223Y-142756223D01*
X46007401Y-142739747D01*
X46027107Y-142725132D01*
X46048150Y-142712520D01*
X46070329Y-142702030D01*
X46093428Y-142693765D01*
X46117227Y-142687804D01*
X46141495Y-142684204D01*
X46165999Y-142683000D01*
X46816001Y-142683000D01*
X46840505Y-142684204D01*
X46840505Y-142684204D01*
G37*
D11*
X46491000Y-143383000D03*
D10*
G36*
X44790505Y-142684204D02*
G01*
X44814773Y-142687804D01*
X44838572Y-142693765D01*
X44861671Y-142702030D01*
X44883850Y-142712520D01*
X44904893Y-142725132D01*
X44924599Y-142739747D01*
X44942777Y-142756223D01*
X44959253Y-142774401D01*
X44973868Y-142794107D01*
X44986480Y-142815150D01*
X44996970Y-142837329D01*
X45005235Y-142860428D01*
X45011196Y-142884227D01*
X45014796Y-142908495D01*
X45016000Y-142932999D01*
X45016000Y-143833001D01*
X45014796Y-143857505D01*
X45011196Y-143881773D01*
X45005235Y-143905572D01*
X44996970Y-143928671D01*
X44986480Y-143950850D01*
X44973868Y-143971893D01*
X44959253Y-143991599D01*
X44942777Y-144009777D01*
X44924599Y-144026253D01*
X44904893Y-144040868D01*
X44883850Y-144053480D01*
X44861671Y-144063970D01*
X44838572Y-144072235D01*
X44814773Y-144078196D01*
X44790505Y-144081796D01*
X44766001Y-144083000D01*
X44115999Y-144083000D01*
X44091495Y-144081796D01*
X44067227Y-144078196D01*
X44043428Y-144072235D01*
X44020329Y-144063970D01*
X43998150Y-144053480D01*
X43977107Y-144040868D01*
X43957401Y-144026253D01*
X43939223Y-144009777D01*
X43922747Y-143991599D01*
X43908132Y-143971893D01*
X43895520Y-143950850D01*
X43885030Y-143928671D01*
X43876765Y-143905572D01*
X43870804Y-143881773D01*
X43867204Y-143857505D01*
X43866000Y-143833001D01*
X43866000Y-142932999D01*
X43867204Y-142908495D01*
X43870804Y-142884227D01*
X43876765Y-142860428D01*
X43885030Y-142837329D01*
X43895520Y-142815150D01*
X43908132Y-142794107D01*
X43922747Y-142774401D01*
X43939223Y-142756223D01*
X43957401Y-142739747D01*
X43977107Y-142725132D01*
X43998150Y-142712520D01*
X44020329Y-142702030D01*
X44043428Y-142693765D01*
X44067227Y-142687804D01*
X44091495Y-142684204D01*
X44115999Y-142683000D01*
X44766001Y-142683000D01*
X44790505Y-142684204D01*
X44790505Y-142684204D01*
G37*
D11*
X44441000Y-143383000D03*
D10*
G36*
X57000505Y-142684204D02*
G01*
X57024773Y-142687804D01*
X57048572Y-142693765D01*
X57071671Y-142702030D01*
X57093850Y-142712520D01*
X57114893Y-142725132D01*
X57134599Y-142739747D01*
X57152777Y-142756223D01*
X57169253Y-142774401D01*
X57183868Y-142794107D01*
X57196480Y-142815150D01*
X57206970Y-142837329D01*
X57215235Y-142860428D01*
X57221196Y-142884227D01*
X57224796Y-142908495D01*
X57226000Y-142932999D01*
X57226000Y-143833001D01*
X57224796Y-143857505D01*
X57221196Y-143881773D01*
X57215235Y-143905572D01*
X57206970Y-143928671D01*
X57196480Y-143950850D01*
X57183868Y-143971893D01*
X57169253Y-143991599D01*
X57152777Y-144009777D01*
X57134599Y-144026253D01*
X57114893Y-144040868D01*
X57093850Y-144053480D01*
X57071671Y-144063970D01*
X57048572Y-144072235D01*
X57024773Y-144078196D01*
X57000505Y-144081796D01*
X56976001Y-144083000D01*
X56325999Y-144083000D01*
X56301495Y-144081796D01*
X56277227Y-144078196D01*
X56253428Y-144072235D01*
X56230329Y-144063970D01*
X56208150Y-144053480D01*
X56187107Y-144040868D01*
X56167401Y-144026253D01*
X56149223Y-144009777D01*
X56132747Y-143991599D01*
X56118132Y-143971893D01*
X56105520Y-143950850D01*
X56095030Y-143928671D01*
X56086765Y-143905572D01*
X56080804Y-143881773D01*
X56077204Y-143857505D01*
X56076000Y-143833001D01*
X56076000Y-142932999D01*
X56077204Y-142908495D01*
X56080804Y-142884227D01*
X56086765Y-142860428D01*
X56095030Y-142837329D01*
X56105520Y-142815150D01*
X56118132Y-142794107D01*
X56132747Y-142774401D01*
X56149223Y-142756223D01*
X56167401Y-142739747D01*
X56187107Y-142725132D01*
X56208150Y-142712520D01*
X56230329Y-142702030D01*
X56253428Y-142693765D01*
X56277227Y-142687804D01*
X56301495Y-142684204D01*
X56325999Y-142683000D01*
X56976001Y-142683000D01*
X57000505Y-142684204D01*
X57000505Y-142684204D01*
G37*
D11*
X56651000Y-143383000D03*
D10*
G36*
X54950505Y-142684204D02*
G01*
X54974773Y-142687804D01*
X54998572Y-142693765D01*
X55021671Y-142702030D01*
X55043850Y-142712520D01*
X55064893Y-142725132D01*
X55084599Y-142739747D01*
X55102777Y-142756223D01*
X55119253Y-142774401D01*
X55133868Y-142794107D01*
X55146480Y-142815150D01*
X55156970Y-142837329D01*
X55165235Y-142860428D01*
X55171196Y-142884227D01*
X55174796Y-142908495D01*
X55176000Y-142932999D01*
X55176000Y-143833001D01*
X55174796Y-143857505D01*
X55171196Y-143881773D01*
X55165235Y-143905572D01*
X55156970Y-143928671D01*
X55146480Y-143950850D01*
X55133868Y-143971893D01*
X55119253Y-143991599D01*
X55102777Y-144009777D01*
X55084599Y-144026253D01*
X55064893Y-144040868D01*
X55043850Y-144053480D01*
X55021671Y-144063970D01*
X54998572Y-144072235D01*
X54974773Y-144078196D01*
X54950505Y-144081796D01*
X54926001Y-144083000D01*
X54275999Y-144083000D01*
X54251495Y-144081796D01*
X54227227Y-144078196D01*
X54203428Y-144072235D01*
X54180329Y-144063970D01*
X54158150Y-144053480D01*
X54137107Y-144040868D01*
X54117401Y-144026253D01*
X54099223Y-144009777D01*
X54082747Y-143991599D01*
X54068132Y-143971893D01*
X54055520Y-143950850D01*
X54045030Y-143928671D01*
X54036765Y-143905572D01*
X54030804Y-143881773D01*
X54027204Y-143857505D01*
X54026000Y-143833001D01*
X54026000Y-142932999D01*
X54027204Y-142908495D01*
X54030804Y-142884227D01*
X54036765Y-142860428D01*
X54045030Y-142837329D01*
X54055520Y-142815150D01*
X54068132Y-142794107D01*
X54082747Y-142774401D01*
X54099223Y-142756223D01*
X54117401Y-142739747D01*
X54137107Y-142725132D01*
X54158150Y-142712520D01*
X54180329Y-142702030D01*
X54203428Y-142693765D01*
X54227227Y-142687804D01*
X54251495Y-142684204D01*
X54275999Y-142683000D01*
X54926001Y-142683000D01*
X54950505Y-142684204D01*
X54950505Y-142684204D01*
G37*
D11*
X54601000Y-143383000D03*
D10*
G36*
X67160505Y-142684204D02*
G01*
X67184773Y-142687804D01*
X67208572Y-142693765D01*
X67231671Y-142702030D01*
X67253850Y-142712520D01*
X67274893Y-142725132D01*
X67294599Y-142739747D01*
X67312777Y-142756223D01*
X67329253Y-142774401D01*
X67343868Y-142794107D01*
X67356480Y-142815150D01*
X67366970Y-142837329D01*
X67375235Y-142860428D01*
X67381196Y-142884227D01*
X67384796Y-142908495D01*
X67386000Y-142932999D01*
X67386000Y-143833001D01*
X67384796Y-143857505D01*
X67381196Y-143881773D01*
X67375235Y-143905572D01*
X67366970Y-143928671D01*
X67356480Y-143950850D01*
X67343868Y-143971893D01*
X67329253Y-143991599D01*
X67312777Y-144009777D01*
X67294599Y-144026253D01*
X67274893Y-144040868D01*
X67253850Y-144053480D01*
X67231671Y-144063970D01*
X67208572Y-144072235D01*
X67184773Y-144078196D01*
X67160505Y-144081796D01*
X67136001Y-144083000D01*
X66485999Y-144083000D01*
X66461495Y-144081796D01*
X66437227Y-144078196D01*
X66413428Y-144072235D01*
X66390329Y-144063970D01*
X66368150Y-144053480D01*
X66347107Y-144040868D01*
X66327401Y-144026253D01*
X66309223Y-144009777D01*
X66292747Y-143991599D01*
X66278132Y-143971893D01*
X66265520Y-143950850D01*
X66255030Y-143928671D01*
X66246765Y-143905572D01*
X66240804Y-143881773D01*
X66237204Y-143857505D01*
X66236000Y-143833001D01*
X66236000Y-142932999D01*
X66237204Y-142908495D01*
X66240804Y-142884227D01*
X66246765Y-142860428D01*
X66255030Y-142837329D01*
X66265520Y-142815150D01*
X66278132Y-142794107D01*
X66292747Y-142774401D01*
X66309223Y-142756223D01*
X66327401Y-142739747D01*
X66347107Y-142725132D01*
X66368150Y-142712520D01*
X66390329Y-142702030D01*
X66413428Y-142693765D01*
X66437227Y-142687804D01*
X66461495Y-142684204D01*
X66485999Y-142683000D01*
X67136001Y-142683000D01*
X67160505Y-142684204D01*
X67160505Y-142684204D01*
G37*
D11*
X66811000Y-143383000D03*
D10*
G36*
X65110505Y-142684204D02*
G01*
X65134773Y-142687804D01*
X65158572Y-142693765D01*
X65181671Y-142702030D01*
X65203850Y-142712520D01*
X65224893Y-142725132D01*
X65244599Y-142739747D01*
X65262777Y-142756223D01*
X65279253Y-142774401D01*
X65293868Y-142794107D01*
X65306480Y-142815150D01*
X65316970Y-142837329D01*
X65325235Y-142860428D01*
X65331196Y-142884227D01*
X65334796Y-142908495D01*
X65336000Y-142932999D01*
X65336000Y-143833001D01*
X65334796Y-143857505D01*
X65331196Y-143881773D01*
X65325235Y-143905572D01*
X65316970Y-143928671D01*
X65306480Y-143950850D01*
X65293868Y-143971893D01*
X65279253Y-143991599D01*
X65262777Y-144009777D01*
X65244599Y-144026253D01*
X65224893Y-144040868D01*
X65203850Y-144053480D01*
X65181671Y-144063970D01*
X65158572Y-144072235D01*
X65134773Y-144078196D01*
X65110505Y-144081796D01*
X65086001Y-144083000D01*
X64435999Y-144083000D01*
X64411495Y-144081796D01*
X64387227Y-144078196D01*
X64363428Y-144072235D01*
X64340329Y-144063970D01*
X64318150Y-144053480D01*
X64297107Y-144040868D01*
X64277401Y-144026253D01*
X64259223Y-144009777D01*
X64242747Y-143991599D01*
X64228132Y-143971893D01*
X64215520Y-143950850D01*
X64205030Y-143928671D01*
X64196765Y-143905572D01*
X64190804Y-143881773D01*
X64187204Y-143857505D01*
X64186000Y-143833001D01*
X64186000Y-142932999D01*
X64187204Y-142908495D01*
X64190804Y-142884227D01*
X64196765Y-142860428D01*
X64205030Y-142837329D01*
X64215520Y-142815150D01*
X64228132Y-142794107D01*
X64242747Y-142774401D01*
X64259223Y-142756223D01*
X64277401Y-142739747D01*
X64297107Y-142725132D01*
X64318150Y-142712520D01*
X64340329Y-142702030D01*
X64363428Y-142693765D01*
X64387227Y-142687804D01*
X64411495Y-142684204D01*
X64435999Y-142683000D01*
X65086001Y-142683000D01*
X65110505Y-142684204D01*
X65110505Y-142684204D01*
G37*
D11*
X64761000Y-143383000D03*
D10*
G36*
X77320505Y-142684204D02*
G01*
X77344773Y-142687804D01*
X77368572Y-142693765D01*
X77391671Y-142702030D01*
X77413850Y-142712520D01*
X77434893Y-142725132D01*
X77454599Y-142739747D01*
X77472777Y-142756223D01*
X77489253Y-142774401D01*
X77503868Y-142794107D01*
X77516480Y-142815150D01*
X77526970Y-142837329D01*
X77535235Y-142860428D01*
X77541196Y-142884227D01*
X77544796Y-142908495D01*
X77546000Y-142932999D01*
X77546000Y-143833001D01*
X77544796Y-143857505D01*
X77541196Y-143881773D01*
X77535235Y-143905572D01*
X77526970Y-143928671D01*
X77516480Y-143950850D01*
X77503868Y-143971893D01*
X77489253Y-143991599D01*
X77472777Y-144009777D01*
X77454599Y-144026253D01*
X77434893Y-144040868D01*
X77413850Y-144053480D01*
X77391671Y-144063970D01*
X77368572Y-144072235D01*
X77344773Y-144078196D01*
X77320505Y-144081796D01*
X77296001Y-144083000D01*
X76645999Y-144083000D01*
X76621495Y-144081796D01*
X76597227Y-144078196D01*
X76573428Y-144072235D01*
X76550329Y-144063970D01*
X76528150Y-144053480D01*
X76507107Y-144040868D01*
X76487401Y-144026253D01*
X76469223Y-144009777D01*
X76452747Y-143991599D01*
X76438132Y-143971893D01*
X76425520Y-143950850D01*
X76415030Y-143928671D01*
X76406765Y-143905572D01*
X76400804Y-143881773D01*
X76397204Y-143857505D01*
X76396000Y-143833001D01*
X76396000Y-142932999D01*
X76397204Y-142908495D01*
X76400804Y-142884227D01*
X76406765Y-142860428D01*
X76415030Y-142837329D01*
X76425520Y-142815150D01*
X76438132Y-142794107D01*
X76452747Y-142774401D01*
X76469223Y-142756223D01*
X76487401Y-142739747D01*
X76507107Y-142725132D01*
X76528150Y-142712520D01*
X76550329Y-142702030D01*
X76573428Y-142693765D01*
X76597227Y-142687804D01*
X76621495Y-142684204D01*
X76645999Y-142683000D01*
X77296001Y-142683000D01*
X77320505Y-142684204D01*
X77320505Y-142684204D01*
G37*
D11*
X76971000Y-143383000D03*
D10*
G36*
X75270505Y-142684204D02*
G01*
X75294773Y-142687804D01*
X75318572Y-142693765D01*
X75341671Y-142702030D01*
X75363850Y-142712520D01*
X75384893Y-142725132D01*
X75404599Y-142739747D01*
X75422777Y-142756223D01*
X75439253Y-142774401D01*
X75453868Y-142794107D01*
X75466480Y-142815150D01*
X75476970Y-142837329D01*
X75485235Y-142860428D01*
X75491196Y-142884227D01*
X75494796Y-142908495D01*
X75496000Y-142932999D01*
X75496000Y-143833001D01*
X75494796Y-143857505D01*
X75491196Y-143881773D01*
X75485235Y-143905572D01*
X75476970Y-143928671D01*
X75466480Y-143950850D01*
X75453868Y-143971893D01*
X75439253Y-143991599D01*
X75422777Y-144009777D01*
X75404599Y-144026253D01*
X75384893Y-144040868D01*
X75363850Y-144053480D01*
X75341671Y-144063970D01*
X75318572Y-144072235D01*
X75294773Y-144078196D01*
X75270505Y-144081796D01*
X75246001Y-144083000D01*
X74595999Y-144083000D01*
X74571495Y-144081796D01*
X74547227Y-144078196D01*
X74523428Y-144072235D01*
X74500329Y-144063970D01*
X74478150Y-144053480D01*
X74457107Y-144040868D01*
X74437401Y-144026253D01*
X74419223Y-144009777D01*
X74402747Y-143991599D01*
X74388132Y-143971893D01*
X74375520Y-143950850D01*
X74365030Y-143928671D01*
X74356765Y-143905572D01*
X74350804Y-143881773D01*
X74347204Y-143857505D01*
X74346000Y-143833001D01*
X74346000Y-142932999D01*
X74347204Y-142908495D01*
X74350804Y-142884227D01*
X74356765Y-142860428D01*
X74365030Y-142837329D01*
X74375520Y-142815150D01*
X74388132Y-142794107D01*
X74402747Y-142774401D01*
X74419223Y-142756223D01*
X74437401Y-142739747D01*
X74457107Y-142725132D01*
X74478150Y-142712520D01*
X74500329Y-142702030D01*
X74523428Y-142693765D01*
X74547227Y-142687804D01*
X74571495Y-142684204D01*
X74595999Y-142683000D01*
X75246001Y-142683000D01*
X75270505Y-142684204D01*
X75270505Y-142684204D01*
G37*
D11*
X74921000Y-143383000D03*
D10*
G36*
X83278505Y-139008204D02*
G01*
X83302773Y-139011804D01*
X83326572Y-139017765D01*
X83349671Y-139026030D01*
X83371850Y-139036520D01*
X83392893Y-139049132D01*
X83412599Y-139063747D01*
X83430777Y-139080223D01*
X83447253Y-139098401D01*
X83461868Y-139118107D01*
X83474480Y-139139150D01*
X83484970Y-139161329D01*
X83493235Y-139184428D01*
X83499196Y-139208227D01*
X83502796Y-139232495D01*
X83504000Y-139256999D01*
X83504000Y-139907001D01*
X83502796Y-139931505D01*
X83499196Y-139955773D01*
X83493235Y-139979572D01*
X83484970Y-140002671D01*
X83474480Y-140024850D01*
X83461868Y-140045893D01*
X83447253Y-140065599D01*
X83430777Y-140083777D01*
X83412599Y-140100253D01*
X83392893Y-140114868D01*
X83371850Y-140127480D01*
X83349671Y-140137970D01*
X83326572Y-140146235D01*
X83302773Y-140152196D01*
X83278505Y-140155796D01*
X83254001Y-140157000D01*
X82353999Y-140157000D01*
X82329495Y-140155796D01*
X82305227Y-140152196D01*
X82281428Y-140146235D01*
X82258329Y-140137970D01*
X82236150Y-140127480D01*
X82215107Y-140114868D01*
X82195401Y-140100253D01*
X82177223Y-140083777D01*
X82160747Y-140065599D01*
X82146132Y-140045893D01*
X82133520Y-140024850D01*
X82123030Y-140002671D01*
X82114765Y-139979572D01*
X82108804Y-139955773D01*
X82105204Y-139931505D01*
X82104000Y-139907001D01*
X82104000Y-139256999D01*
X82105204Y-139232495D01*
X82108804Y-139208227D01*
X82114765Y-139184428D01*
X82123030Y-139161329D01*
X82133520Y-139139150D01*
X82146132Y-139118107D01*
X82160747Y-139098401D01*
X82177223Y-139080223D01*
X82195401Y-139063747D01*
X82215107Y-139049132D01*
X82236150Y-139036520D01*
X82258329Y-139026030D01*
X82281428Y-139017765D01*
X82305227Y-139011804D01*
X82329495Y-139008204D01*
X82353999Y-139007000D01*
X83254001Y-139007000D01*
X83278505Y-139008204D01*
X83278505Y-139008204D01*
G37*
D11*
X82804000Y-139582000D03*
D10*
G36*
X83278505Y-136958204D02*
G01*
X83302773Y-136961804D01*
X83326572Y-136967765D01*
X83349671Y-136976030D01*
X83371850Y-136986520D01*
X83392893Y-136999132D01*
X83412599Y-137013747D01*
X83430777Y-137030223D01*
X83447253Y-137048401D01*
X83461868Y-137068107D01*
X83474480Y-137089150D01*
X83484970Y-137111329D01*
X83493235Y-137134428D01*
X83499196Y-137158227D01*
X83502796Y-137182495D01*
X83504000Y-137206999D01*
X83504000Y-137857001D01*
X83502796Y-137881505D01*
X83499196Y-137905773D01*
X83493235Y-137929572D01*
X83484970Y-137952671D01*
X83474480Y-137974850D01*
X83461868Y-137995893D01*
X83447253Y-138015599D01*
X83430777Y-138033777D01*
X83412599Y-138050253D01*
X83392893Y-138064868D01*
X83371850Y-138077480D01*
X83349671Y-138087970D01*
X83326572Y-138096235D01*
X83302773Y-138102196D01*
X83278505Y-138105796D01*
X83254001Y-138107000D01*
X82353999Y-138107000D01*
X82329495Y-138105796D01*
X82305227Y-138102196D01*
X82281428Y-138096235D01*
X82258329Y-138087970D01*
X82236150Y-138077480D01*
X82215107Y-138064868D01*
X82195401Y-138050253D01*
X82177223Y-138033777D01*
X82160747Y-138015599D01*
X82146132Y-137995893D01*
X82133520Y-137974850D01*
X82123030Y-137952671D01*
X82114765Y-137929572D01*
X82108804Y-137905773D01*
X82105204Y-137881505D01*
X82104000Y-137857001D01*
X82104000Y-137206999D01*
X82105204Y-137182495D01*
X82108804Y-137158227D01*
X82114765Y-137134428D01*
X82123030Y-137111329D01*
X82133520Y-137089150D01*
X82146132Y-137068107D01*
X82160747Y-137048401D01*
X82177223Y-137030223D01*
X82195401Y-137013747D01*
X82215107Y-136999132D01*
X82236150Y-136986520D01*
X82258329Y-136976030D01*
X82281428Y-136967765D01*
X82305227Y-136961804D01*
X82329495Y-136958204D01*
X82353999Y-136957000D01*
X83254001Y-136957000D01*
X83278505Y-136958204D01*
X83278505Y-136958204D01*
G37*
D11*
X82804000Y-137532000D03*
D10*
G36*
X83278505Y-143072204D02*
G01*
X83302773Y-143075804D01*
X83326572Y-143081765D01*
X83349671Y-143090030D01*
X83371850Y-143100520D01*
X83392893Y-143113132D01*
X83412599Y-143127747D01*
X83430777Y-143144223D01*
X83447253Y-143162401D01*
X83461868Y-143182107D01*
X83474480Y-143203150D01*
X83484970Y-143225329D01*
X83493235Y-143248428D01*
X83499196Y-143272227D01*
X83502796Y-143296495D01*
X83504000Y-143320999D01*
X83504000Y-143971001D01*
X83502796Y-143995505D01*
X83499196Y-144019773D01*
X83493235Y-144043572D01*
X83484970Y-144066671D01*
X83474480Y-144088850D01*
X83461868Y-144109893D01*
X83447253Y-144129599D01*
X83430777Y-144147777D01*
X83412599Y-144164253D01*
X83392893Y-144178868D01*
X83371850Y-144191480D01*
X83349671Y-144201970D01*
X83326572Y-144210235D01*
X83302773Y-144216196D01*
X83278505Y-144219796D01*
X83254001Y-144221000D01*
X82353999Y-144221000D01*
X82329495Y-144219796D01*
X82305227Y-144216196D01*
X82281428Y-144210235D01*
X82258329Y-144201970D01*
X82236150Y-144191480D01*
X82215107Y-144178868D01*
X82195401Y-144164253D01*
X82177223Y-144147777D01*
X82160747Y-144129599D01*
X82146132Y-144109893D01*
X82133520Y-144088850D01*
X82123030Y-144066671D01*
X82114765Y-144043572D01*
X82108804Y-144019773D01*
X82105204Y-143995505D01*
X82104000Y-143971001D01*
X82104000Y-143320999D01*
X82105204Y-143296495D01*
X82108804Y-143272227D01*
X82114765Y-143248428D01*
X82123030Y-143225329D01*
X82133520Y-143203150D01*
X82146132Y-143182107D01*
X82160747Y-143162401D01*
X82177223Y-143144223D01*
X82195401Y-143127747D01*
X82215107Y-143113132D01*
X82236150Y-143100520D01*
X82258329Y-143090030D01*
X82281428Y-143081765D01*
X82305227Y-143075804D01*
X82329495Y-143072204D01*
X82353999Y-143071000D01*
X83254001Y-143071000D01*
X83278505Y-143072204D01*
X83278505Y-143072204D01*
G37*
D11*
X82804000Y-143646000D03*
D10*
G36*
X83278505Y-141022204D02*
G01*
X83302773Y-141025804D01*
X83326572Y-141031765D01*
X83349671Y-141040030D01*
X83371850Y-141050520D01*
X83392893Y-141063132D01*
X83412599Y-141077747D01*
X83430777Y-141094223D01*
X83447253Y-141112401D01*
X83461868Y-141132107D01*
X83474480Y-141153150D01*
X83484970Y-141175329D01*
X83493235Y-141198428D01*
X83499196Y-141222227D01*
X83502796Y-141246495D01*
X83504000Y-141270999D01*
X83504000Y-141921001D01*
X83502796Y-141945505D01*
X83499196Y-141969773D01*
X83493235Y-141993572D01*
X83484970Y-142016671D01*
X83474480Y-142038850D01*
X83461868Y-142059893D01*
X83447253Y-142079599D01*
X83430777Y-142097777D01*
X83412599Y-142114253D01*
X83392893Y-142128868D01*
X83371850Y-142141480D01*
X83349671Y-142151970D01*
X83326572Y-142160235D01*
X83302773Y-142166196D01*
X83278505Y-142169796D01*
X83254001Y-142171000D01*
X82353999Y-142171000D01*
X82329495Y-142169796D01*
X82305227Y-142166196D01*
X82281428Y-142160235D01*
X82258329Y-142151970D01*
X82236150Y-142141480D01*
X82215107Y-142128868D01*
X82195401Y-142114253D01*
X82177223Y-142097777D01*
X82160747Y-142079599D01*
X82146132Y-142059893D01*
X82133520Y-142038850D01*
X82123030Y-142016671D01*
X82114765Y-141993572D01*
X82108804Y-141969773D01*
X82105204Y-141945505D01*
X82104000Y-141921001D01*
X82104000Y-141270999D01*
X82105204Y-141246495D01*
X82108804Y-141222227D01*
X82114765Y-141198428D01*
X82123030Y-141175329D01*
X82133520Y-141153150D01*
X82146132Y-141132107D01*
X82160747Y-141112401D01*
X82177223Y-141094223D01*
X82195401Y-141077747D01*
X82215107Y-141063132D01*
X82236150Y-141050520D01*
X82258329Y-141040030D01*
X82281428Y-141031765D01*
X82305227Y-141025804D01*
X82329495Y-141022204D01*
X82353999Y-141021000D01*
X83254001Y-141021000D01*
X83278505Y-141022204D01*
X83278505Y-141022204D01*
G37*
D11*
X82804000Y-141596000D03*
D12*
X86360000Y-137565000D03*
X87310000Y-140565000D03*
X85410000Y-140565000D03*
D13*
X86615000Y-130385000D03*
X83565000Y-127035000D03*
X83565000Y-130385000D03*
X86615000Y-127035000D03*
D14*
X87370000Y-135010000D03*
X85090000Y-135010000D03*
X82810000Y-135010000D03*
D10*
G36*
X87480505Y-142684204D02*
G01*
X87504773Y-142687804D01*
X87528572Y-142693765D01*
X87551671Y-142702030D01*
X87573850Y-142712520D01*
X87594893Y-142725132D01*
X87614599Y-142739747D01*
X87632777Y-142756223D01*
X87649253Y-142774401D01*
X87663868Y-142794107D01*
X87676480Y-142815150D01*
X87686970Y-142837329D01*
X87695235Y-142860428D01*
X87701196Y-142884227D01*
X87704796Y-142908495D01*
X87706000Y-142932999D01*
X87706000Y-143833001D01*
X87704796Y-143857505D01*
X87701196Y-143881773D01*
X87695235Y-143905572D01*
X87686970Y-143928671D01*
X87676480Y-143950850D01*
X87663868Y-143971893D01*
X87649253Y-143991599D01*
X87632777Y-144009777D01*
X87614599Y-144026253D01*
X87594893Y-144040868D01*
X87573850Y-144053480D01*
X87551671Y-144063970D01*
X87528572Y-144072235D01*
X87504773Y-144078196D01*
X87480505Y-144081796D01*
X87456001Y-144083000D01*
X86805999Y-144083000D01*
X86781495Y-144081796D01*
X86757227Y-144078196D01*
X86733428Y-144072235D01*
X86710329Y-144063970D01*
X86688150Y-144053480D01*
X86667107Y-144040868D01*
X86647401Y-144026253D01*
X86629223Y-144009777D01*
X86612747Y-143991599D01*
X86598132Y-143971893D01*
X86585520Y-143950850D01*
X86575030Y-143928671D01*
X86566765Y-143905572D01*
X86560804Y-143881773D01*
X86557204Y-143857505D01*
X86556000Y-143833001D01*
X86556000Y-142932999D01*
X86557204Y-142908495D01*
X86560804Y-142884227D01*
X86566765Y-142860428D01*
X86575030Y-142837329D01*
X86585520Y-142815150D01*
X86598132Y-142794107D01*
X86612747Y-142774401D01*
X86629223Y-142756223D01*
X86647401Y-142739747D01*
X86667107Y-142725132D01*
X86688150Y-142712520D01*
X86710329Y-142702030D01*
X86733428Y-142693765D01*
X86757227Y-142687804D01*
X86781495Y-142684204D01*
X86805999Y-142683000D01*
X87456001Y-142683000D01*
X87480505Y-142684204D01*
X87480505Y-142684204D01*
G37*
D11*
X87131000Y-143383000D03*
D10*
G36*
X85430505Y-142684204D02*
G01*
X85454773Y-142687804D01*
X85478572Y-142693765D01*
X85501671Y-142702030D01*
X85523850Y-142712520D01*
X85544893Y-142725132D01*
X85564599Y-142739747D01*
X85582777Y-142756223D01*
X85599253Y-142774401D01*
X85613868Y-142794107D01*
X85626480Y-142815150D01*
X85636970Y-142837329D01*
X85645235Y-142860428D01*
X85651196Y-142884227D01*
X85654796Y-142908495D01*
X85656000Y-142932999D01*
X85656000Y-143833001D01*
X85654796Y-143857505D01*
X85651196Y-143881773D01*
X85645235Y-143905572D01*
X85636970Y-143928671D01*
X85626480Y-143950850D01*
X85613868Y-143971893D01*
X85599253Y-143991599D01*
X85582777Y-144009777D01*
X85564599Y-144026253D01*
X85544893Y-144040868D01*
X85523850Y-144053480D01*
X85501671Y-144063970D01*
X85478572Y-144072235D01*
X85454773Y-144078196D01*
X85430505Y-144081796D01*
X85406001Y-144083000D01*
X84755999Y-144083000D01*
X84731495Y-144081796D01*
X84707227Y-144078196D01*
X84683428Y-144072235D01*
X84660329Y-144063970D01*
X84638150Y-144053480D01*
X84617107Y-144040868D01*
X84597401Y-144026253D01*
X84579223Y-144009777D01*
X84562747Y-143991599D01*
X84548132Y-143971893D01*
X84535520Y-143950850D01*
X84525030Y-143928671D01*
X84516765Y-143905572D01*
X84510804Y-143881773D01*
X84507204Y-143857505D01*
X84506000Y-143833001D01*
X84506000Y-142932999D01*
X84507204Y-142908495D01*
X84510804Y-142884227D01*
X84516765Y-142860428D01*
X84525030Y-142837329D01*
X84535520Y-142815150D01*
X84548132Y-142794107D01*
X84562747Y-142774401D01*
X84579223Y-142756223D01*
X84597401Y-142739747D01*
X84617107Y-142725132D01*
X84638150Y-142712520D01*
X84660329Y-142702030D01*
X84683428Y-142693765D01*
X84707227Y-142687804D01*
X84731495Y-142684204D01*
X84755999Y-142683000D01*
X85406001Y-142683000D01*
X85430505Y-142684204D01*
X85430505Y-142684204D01*
G37*
D11*
X85081000Y-143383000D03*
D10*
G36*
X103598505Y-143072204D02*
G01*
X103622773Y-143075804D01*
X103646572Y-143081765D01*
X103669671Y-143090030D01*
X103691850Y-143100520D01*
X103712893Y-143113132D01*
X103732599Y-143127747D01*
X103750777Y-143144223D01*
X103767253Y-143162401D01*
X103781868Y-143182107D01*
X103794480Y-143203150D01*
X103804970Y-143225329D01*
X103813235Y-143248428D01*
X103819196Y-143272227D01*
X103822796Y-143296495D01*
X103824000Y-143320999D01*
X103824000Y-143971001D01*
X103822796Y-143995505D01*
X103819196Y-144019773D01*
X103813235Y-144043572D01*
X103804970Y-144066671D01*
X103794480Y-144088850D01*
X103781868Y-144109893D01*
X103767253Y-144129599D01*
X103750777Y-144147777D01*
X103732599Y-144164253D01*
X103712893Y-144178868D01*
X103691850Y-144191480D01*
X103669671Y-144201970D01*
X103646572Y-144210235D01*
X103622773Y-144216196D01*
X103598505Y-144219796D01*
X103574001Y-144221000D01*
X102673999Y-144221000D01*
X102649495Y-144219796D01*
X102625227Y-144216196D01*
X102601428Y-144210235D01*
X102578329Y-144201970D01*
X102556150Y-144191480D01*
X102535107Y-144178868D01*
X102515401Y-144164253D01*
X102497223Y-144147777D01*
X102480747Y-144129599D01*
X102466132Y-144109893D01*
X102453520Y-144088850D01*
X102443030Y-144066671D01*
X102434765Y-144043572D01*
X102428804Y-144019773D01*
X102425204Y-143995505D01*
X102424000Y-143971001D01*
X102424000Y-143320999D01*
X102425204Y-143296495D01*
X102428804Y-143272227D01*
X102434765Y-143248428D01*
X102443030Y-143225329D01*
X102453520Y-143203150D01*
X102466132Y-143182107D01*
X102480747Y-143162401D01*
X102497223Y-143144223D01*
X102515401Y-143127747D01*
X102535107Y-143113132D01*
X102556150Y-143100520D01*
X102578329Y-143090030D01*
X102601428Y-143081765D01*
X102625227Y-143075804D01*
X102649495Y-143072204D01*
X102673999Y-143071000D01*
X103574001Y-143071000D01*
X103598505Y-143072204D01*
X103598505Y-143072204D01*
G37*
D11*
X103124000Y-143646000D03*
D10*
G36*
X103598505Y-141022204D02*
G01*
X103622773Y-141025804D01*
X103646572Y-141031765D01*
X103669671Y-141040030D01*
X103691850Y-141050520D01*
X103712893Y-141063132D01*
X103732599Y-141077747D01*
X103750777Y-141094223D01*
X103767253Y-141112401D01*
X103781868Y-141132107D01*
X103794480Y-141153150D01*
X103804970Y-141175329D01*
X103813235Y-141198428D01*
X103819196Y-141222227D01*
X103822796Y-141246495D01*
X103824000Y-141270999D01*
X103824000Y-141921001D01*
X103822796Y-141945505D01*
X103819196Y-141969773D01*
X103813235Y-141993572D01*
X103804970Y-142016671D01*
X103794480Y-142038850D01*
X103781868Y-142059893D01*
X103767253Y-142079599D01*
X103750777Y-142097777D01*
X103732599Y-142114253D01*
X103712893Y-142128868D01*
X103691850Y-142141480D01*
X103669671Y-142151970D01*
X103646572Y-142160235D01*
X103622773Y-142166196D01*
X103598505Y-142169796D01*
X103574001Y-142171000D01*
X102673999Y-142171000D01*
X102649495Y-142169796D01*
X102625227Y-142166196D01*
X102601428Y-142160235D01*
X102578329Y-142151970D01*
X102556150Y-142141480D01*
X102535107Y-142128868D01*
X102515401Y-142114253D01*
X102497223Y-142097777D01*
X102480747Y-142079599D01*
X102466132Y-142059893D01*
X102453520Y-142038850D01*
X102443030Y-142016671D01*
X102434765Y-141993572D01*
X102428804Y-141969773D01*
X102425204Y-141945505D01*
X102424000Y-141921001D01*
X102424000Y-141270999D01*
X102425204Y-141246495D01*
X102428804Y-141222227D01*
X102434765Y-141198428D01*
X102443030Y-141175329D01*
X102453520Y-141153150D01*
X102466132Y-141132107D01*
X102480747Y-141112401D01*
X102497223Y-141094223D01*
X102515401Y-141077747D01*
X102535107Y-141063132D01*
X102556150Y-141050520D01*
X102578329Y-141040030D01*
X102601428Y-141031765D01*
X102625227Y-141025804D01*
X102649495Y-141022204D01*
X102673999Y-141021000D01*
X103574001Y-141021000D01*
X103598505Y-141022204D01*
X103598505Y-141022204D01*
G37*
D11*
X103124000Y-141596000D03*
D12*
X96520000Y-137565000D03*
X97470000Y-140565000D03*
X95570000Y-140565000D03*
X106680000Y-137565000D03*
X107630000Y-140565000D03*
X105730000Y-140565000D03*
X116840000Y-137565000D03*
X117790000Y-140565000D03*
X115890000Y-140565000D03*
D10*
G36*
X113758505Y-143072204D02*
G01*
X113782773Y-143075804D01*
X113806572Y-143081765D01*
X113829671Y-143090030D01*
X113851850Y-143100520D01*
X113872893Y-143113132D01*
X113892599Y-143127747D01*
X113910777Y-143144223D01*
X113927253Y-143162401D01*
X113941868Y-143182107D01*
X113954480Y-143203150D01*
X113964970Y-143225329D01*
X113973235Y-143248428D01*
X113979196Y-143272227D01*
X113982796Y-143296495D01*
X113984000Y-143320999D01*
X113984000Y-143971001D01*
X113982796Y-143995505D01*
X113979196Y-144019773D01*
X113973235Y-144043572D01*
X113964970Y-144066671D01*
X113954480Y-144088850D01*
X113941868Y-144109893D01*
X113927253Y-144129599D01*
X113910777Y-144147777D01*
X113892599Y-144164253D01*
X113872893Y-144178868D01*
X113851850Y-144191480D01*
X113829671Y-144201970D01*
X113806572Y-144210235D01*
X113782773Y-144216196D01*
X113758505Y-144219796D01*
X113734001Y-144221000D01*
X112833999Y-144221000D01*
X112809495Y-144219796D01*
X112785227Y-144216196D01*
X112761428Y-144210235D01*
X112738329Y-144201970D01*
X112716150Y-144191480D01*
X112695107Y-144178868D01*
X112675401Y-144164253D01*
X112657223Y-144147777D01*
X112640747Y-144129599D01*
X112626132Y-144109893D01*
X112613520Y-144088850D01*
X112603030Y-144066671D01*
X112594765Y-144043572D01*
X112588804Y-144019773D01*
X112585204Y-143995505D01*
X112584000Y-143971001D01*
X112584000Y-143320999D01*
X112585204Y-143296495D01*
X112588804Y-143272227D01*
X112594765Y-143248428D01*
X112603030Y-143225329D01*
X112613520Y-143203150D01*
X112626132Y-143182107D01*
X112640747Y-143162401D01*
X112657223Y-143144223D01*
X112675401Y-143127747D01*
X112695107Y-143113132D01*
X112716150Y-143100520D01*
X112738329Y-143090030D01*
X112761428Y-143081765D01*
X112785227Y-143075804D01*
X112809495Y-143072204D01*
X112833999Y-143071000D01*
X113734001Y-143071000D01*
X113758505Y-143072204D01*
X113758505Y-143072204D01*
G37*
D11*
X113284000Y-143646000D03*
D10*
G36*
X113758505Y-141022204D02*
G01*
X113782773Y-141025804D01*
X113806572Y-141031765D01*
X113829671Y-141040030D01*
X113851850Y-141050520D01*
X113872893Y-141063132D01*
X113892599Y-141077747D01*
X113910777Y-141094223D01*
X113927253Y-141112401D01*
X113941868Y-141132107D01*
X113954480Y-141153150D01*
X113964970Y-141175329D01*
X113973235Y-141198428D01*
X113979196Y-141222227D01*
X113982796Y-141246495D01*
X113984000Y-141270999D01*
X113984000Y-141921001D01*
X113982796Y-141945505D01*
X113979196Y-141969773D01*
X113973235Y-141993572D01*
X113964970Y-142016671D01*
X113954480Y-142038850D01*
X113941868Y-142059893D01*
X113927253Y-142079599D01*
X113910777Y-142097777D01*
X113892599Y-142114253D01*
X113872893Y-142128868D01*
X113851850Y-142141480D01*
X113829671Y-142151970D01*
X113806572Y-142160235D01*
X113782773Y-142166196D01*
X113758505Y-142169796D01*
X113734001Y-142171000D01*
X112833999Y-142171000D01*
X112809495Y-142169796D01*
X112785227Y-142166196D01*
X112761428Y-142160235D01*
X112738329Y-142151970D01*
X112716150Y-142141480D01*
X112695107Y-142128868D01*
X112675401Y-142114253D01*
X112657223Y-142097777D01*
X112640747Y-142079599D01*
X112626132Y-142059893D01*
X112613520Y-142038850D01*
X112603030Y-142016671D01*
X112594765Y-141993572D01*
X112588804Y-141969773D01*
X112585204Y-141945505D01*
X112584000Y-141921001D01*
X112584000Y-141270999D01*
X112585204Y-141246495D01*
X112588804Y-141222227D01*
X112594765Y-141198428D01*
X112603030Y-141175329D01*
X112613520Y-141153150D01*
X112626132Y-141132107D01*
X112640747Y-141112401D01*
X112657223Y-141094223D01*
X112675401Y-141077747D01*
X112695107Y-141063132D01*
X112716150Y-141050520D01*
X112738329Y-141040030D01*
X112761428Y-141031765D01*
X112785227Y-141025804D01*
X112809495Y-141022204D01*
X112833999Y-141021000D01*
X113734001Y-141021000D01*
X113758505Y-141022204D01*
X113758505Y-141022204D01*
G37*
D11*
X113284000Y-141596000D03*
D10*
G36*
X93438505Y-139008204D02*
G01*
X93462773Y-139011804D01*
X93486572Y-139017765D01*
X93509671Y-139026030D01*
X93531850Y-139036520D01*
X93552893Y-139049132D01*
X93572599Y-139063747D01*
X93590777Y-139080223D01*
X93607253Y-139098401D01*
X93621868Y-139118107D01*
X93634480Y-139139150D01*
X93644970Y-139161329D01*
X93653235Y-139184428D01*
X93659196Y-139208227D01*
X93662796Y-139232495D01*
X93664000Y-139256999D01*
X93664000Y-139907001D01*
X93662796Y-139931505D01*
X93659196Y-139955773D01*
X93653235Y-139979572D01*
X93644970Y-140002671D01*
X93634480Y-140024850D01*
X93621868Y-140045893D01*
X93607253Y-140065599D01*
X93590777Y-140083777D01*
X93572599Y-140100253D01*
X93552893Y-140114868D01*
X93531850Y-140127480D01*
X93509671Y-140137970D01*
X93486572Y-140146235D01*
X93462773Y-140152196D01*
X93438505Y-140155796D01*
X93414001Y-140157000D01*
X92513999Y-140157000D01*
X92489495Y-140155796D01*
X92465227Y-140152196D01*
X92441428Y-140146235D01*
X92418329Y-140137970D01*
X92396150Y-140127480D01*
X92375107Y-140114868D01*
X92355401Y-140100253D01*
X92337223Y-140083777D01*
X92320747Y-140065599D01*
X92306132Y-140045893D01*
X92293520Y-140024850D01*
X92283030Y-140002671D01*
X92274765Y-139979572D01*
X92268804Y-139955773D01*
X92265204Y-139931505D01*
X92264000Y-139907001D01*
X92264000Y-139256999D01*
X92265204Y-139232495D01*
X92268804Y-139208227D01*
X92274765Y-139184428D01*
X92283030Y-139161329D01*
X92293520Y-139139150D01*
X92306132Y-139118107D01*
X92320747Y-139098401D01*
X92337223Y-139080223D01*
X92355401Y-139063747D01*
X92375107Y-139049132D01*
X92396150Y-139036520D01*
X92418329Y-139026030D01*
X92441428Y-139017765D01*
X92465227Y-139011804D01*
X92489495Y-139008204D01*
X92513999Y-139007000D01*
X93414001Y-139007000D01*
X93438505Y-139008204D01*
X93438505Y-139008204D01*
G37*
D11*
X92964000Y-139582000D03*
D10*
G36*
X93438505Y-136958204D02*
G01*
X93462773Y-136961804D01*
X93486572Y-136967765D01*
X93509671Y-136976030D01*
X93531850Y-136986520D01*
X93552893Y-136999132D01*
X93572599Y-137013747D01*
X93590777Y-137030223D01*
X93607253Y-137048401D01*
X93621868Y-137068107D01*
X93634480Y-137089150D01*
X93644970Y-137111329D01*
X93653235Y-137134428D01*
X93659196Y-137158227D01*
X93662796Y-137182495D01*
X93664000Y-137206999D01*
X93664000Y-137857001D01*
X93662796Y-137881505D01*
X93659196Y-137905773D01*
X93653235Y-137929572D01*
X93644970Y-137952671D01*
X93634480Y-137974850D01*
X93621868Y-137995893D01*
X93607253Y-138015599D01*
X93590777Y-138033777D01*
X93572599Y-138050253D01*
X93552893Y-138064868D01*
X93531850Y-138077480D01*
X93509671Y-138087970D01*
X93486572Y-138096235D01*
X93462773Y-138102196D01*
X93438505Y-138105796D01*
X93414001Y-138107000D01*
X92513999Y-138107000D01*
X92489495Y-138105796D01*
X92465227Y-138102196D01*
X92441428Y-138096235D01*
X92418329Y-138087970D01*
X92396150Y-138077480D01*
X92375107Y-138064868D01*
X92355401Y-138050253D01*
X92337223Y-138033777D01*
X92320747Y-138015599D01*
X92306132Y-137995893D01*
X92293520Y-137974850D01*
X92283030Y-137952671D01*
X92274765Y-137929572D01*
X92268804Y-137905773D01*
X92265204Y-137881505D01*
X92264000Y-137857001D01*
X92264000Y-137206999D01*
X92265204Y-137182495D01*
X92268804Y-137158227D01*
X92274765Y-137134428D01*
X92283030Y-137111329D01*
X92293520Y-137089150D01*
X92306132Y-137068107D01*
X92320747Y-137048401D01*
X92337223Y-137030223D01*
X92355401Y-137013747D01*
X92375107Y-136999132D01*
X92396150Y-136986520D01*
X92418329Y-136976030D01*
X92441428Y-136967765D01*
X92465227Y-136961804D01*
X92489495Y-136958204D01*
X92513999Y-136957000D01*
X93414001Y-136957000D01*
X93438505Y-136958204D01*
X93438505Y-136958204D01*
G37*
D11*
X92964000Y-137532000D03*
D10*
G36*
X93438505Y-143072204D02*
G01*
X93462773Y-143075804D01*
X93486572Y-143081765D01*
X93509671Y-143090030D01*
X93531850Y-143100520D01*
X93552893Y-143113132D01*
X93572599Y-143127747D01*
X93590777Y-143144223D01*
X93607253Y-143162401D01*
X93621868Y-143182107D01*
X93634480Y-143203150D01*
X93644970Y-143225329D01*
X93653235Y-143248428D01*
X93659196Y-143272227D01*
X93662796Y-143296495D01*
X93664000Y-143320999D01*
X93664000Y-143971001D01*
X93662796Y-143995505D01*
X93659196Y-144019773D01*
X93653235Y-144043572D01*
X93644970Y-144066671D01*
X93634480Y-144088850D01*
X93621868Y-144109893D01*
X93607253Y-144129599D01*
X93590777Y-144147777D01*
X93572599Y-144164253D01*
X93552893Y-144178868D01*
X93531850Y-144191480D01*
X93509671Y-144201970D01*
X93486572Y-144210235D01*
X93462773Y-144216196D01*
X93438505Y-144219796D01*
X93414001Y-144221000D01*
X92513999Y-144221000D01*
X92489495Y-144219796D01*
X92465227Y-144216196D01*
X92441428Y-144210235D01*
X92418329Y-144201970D01*
X92396150Y-144191480D01*
X92375107Y-144178868D01*
X92355401Y-144164253D01*
X92337223Y-144147777D01*
X92320747Y-144129599D01*
X92306132Y-144109893D01*
X92293520Y-144088850D01*
X92283030Y-144066671D01*
X92274765Y-144043572D01*
X92268804Y-144019773D01*
X92265204Y-143995505D01*
X92264000Y-143971001D01*
X92264000Y-143320999D01*
X92265204Y-143296495D01*
X92268804Y-143272227D01*
X92274765Y-143248428D01*
X92283030Y-143225329D01*
X92293520Y-143203150D01*
X92306132Y-143182107D01*
X92320747Y-143162401D01*
X92337223Y-143144223D01*
X92355401Y-143127747D01*
X92375107Y-143113132D01*
X92396150Y-143100520D01*
X92418329Y-143090030D01*
X92441428Y-143081765D01*
X92465227Y-143075804D01*
X92489495Y-143072204D01*
X92513999Y-143071000D01*
X93414001Y-143071000D01*
X93438505Y-143072204D01*
X93438505Y-143072204D01*
G37*
D11*
X92964000Y-143646000D03*
D10*
G36*
X93438505Y-141022204D02*
G01*
X93462773Y-141025804D01*
X93486572Y-141031765D01*
X93509671Y-141040030D01*
X93531850Y-141050520D01*
X93552893Y-141063132D01*
X93572599Y-141077747D01*
X93590777Y-141094223D01*
X93607253Y-141112401D01*
X93621868Y-141132107D01*
X93634480Y-141153150D01*
X93644970Y-141175329D01*
X93653235Y-141198428D01*
X93659196Y-141222227D01*
X93662796Y-141246495D01*
X93664000Y-141270999D01*
X93664000Y-141921001D01*
X93662796Y-141945505D01*
X93659196Y-141969773D01*
X93653235Y-141993572D01*
X93644970Y-142016671D01*
X93634480Y-142038850D01*
X93621868Y-142059893D01*
X93607253Y-142079599D01*
X93590777Y-142097777D01*
X93572599Y-142114253D01*
X93552893Y-142128868D01*
X93531850Y-142141480D01*
X93509671Y-142151970D01*
X93486572Y-142160235D01*
X93462773Y-142166196D01*
X93438505Y-142169796D01*
X93414001Y-142171000D01*
X92513999Y-142171000D01*
X92489495Y-142169796D01*
X92465227Y-142166196D01*
X92441428Y-142160235D01*
X92418329Y-142151970D01*
X92396150Y-142141480D01*
X92375107Y-142128868D01*
X92355401Y-142114253D01*
X92337223Y-142097777D01*
X92320747Y-142079599D01*
X92306132Y-142059893D01*
X92293520Y-142038850D01*
X92283030Y-142016671D01*
X92274765Y-141993572D01*
X92268804Y-141969773D01*
X92265204Y-141945505D01*
X92264000Y-141921001D01*
X92264000Y-141270999D01*
X92265204Y-141246495D01*
X92268804Y-141222227D01*
X92274765Y-141198428D01*
X92283030Y-141175329D01*
X92293520Y-141153150D01*
X92306132Y-141132107D01*
X92320747Y-141112401D01*
X92337223Y-141094223D01*
X92355401Y-141077747D01*
X92375107Y-141063132D01*
X92396150Y-141050520D01*
X92418329Y-141040030D01*
X92441428Y-141031765D01*
X92465227Y-141025804D01*
X92489495Y-141022204D01*
X92513999Y-141021000D01*
X93414001Y-141021000D01*
X93438505Y-141022204D01*
X93438505Y-141022204D01*
G37*
D11*
X92964000Y-141596000D03*
D10*
G36*
X103598505Y-139008204D02*
G01*
X103622773Y-139011804D01*
X103646572Y-139017765D01*
X103669671Y-139026030D01*
X103691850Y-139036520D01*
X103712893Y-139049132D01*
X103732599Y-139063747D01*
X103750777Y-139080223D01*
X103767253Y-139098401D01*
X103781868Y-139118107D01*
X103794480Y-139139150D01*
X103804970Y-139161329D01*
X103813235Y-139184428D01*
X103819196Y-139208227D01*
X103822796Y-139232495D01*
X103824000Y-139256999D01*
X103824000Y-139907001D01*
X103822796Y-139931505D01*
X103819196Y-139955773D01*
X103813235Y-139979572D01*
X103804970Y-140002671D01*
X103794480Y-140024850D01*
X103781868Y-140045893D01*
X103767253Y-140065599D01*
X103750777Y-140083777D01*
X103732599Y-140100253D01*
X103712893Y-140114868D01*
X103691850Y-140127480D01*
X103669671Y-140137970D01*
X103646572Y-140146235D01*
X103622773Y-140152196D01*
X103598505Y-140155796D01*
X103574001Y-140157000D01*
X102673999Y-140157000D01*
X102649495Y-140155796D01*
X102625227Y-140152196D01*
X102601428Y-140146235D01*
X102578329Y-140137970D01*
X102556150Y-140127480D01*
X102535107Y-140114868D01*
X102515401Y-140100253D01*
X102497223Y-140083777D01*
X102480747Y-140065599D01*
X102466132Y-140045893D01*
X102453520Y-140024850D01*
X102443030Y-140002671D01*
X102434765Y-139979572D01*
X102428804Y-139955773D01*
X102425204Y-139931505D01*
X102424000Y-139907001D01*
X102424000Y-139256999D01*
X102425204Y-139232495D01*
X102428804Y-139208227D01*
X102434765Y-139184428D01*
X102443030Y-139161329D01*
X102453520Y-139139150D01*
X102466132Y-139118107D01*
X102480747Y-139098401D01*
X102497223Y-139080223D01*
X102515401Y-139063747D01*
X102535107Y-139049132D01*
X102556150Y-139036520D01*
X102578329Y-139026030D01*
X102601428Y-139017765D01*
X102625227Y-139011804D01*
X102649495Y-139008204D01*
X102673999Y-139007000D01*
X103574001Y-139007000D01*
X103598505Y-139008204D01*
X103598505Y-139008204D01*
G37*
D11*
X103124000Y-139582000D03*
D10*
G36*
X103598505Y-136958204D02*
G01*
X103622773Y-136961804D01*
X103646572Y-136967765D01*
X103669671Y-136976030D01*
X103691850Y-136986520D01*
X103712893Y-136999132D01*
X103732599Y-137013747D01*
X103750777Y-137030223D01*
X103767253Y-137048401D01*
X103781868Y-137068107D01*
X103794480Y-137089150D01*
X103804970Y-137111329D01*
X103813235Y-137134428D01*
X103819196Y-137158227D01*
X103822796Y-137182495D01*
X103824000Y-137206999D01*
X103824000Y-137857001D01*
X103822796Y-137881505D01*
X103819196Y-137905773D01*
X103813235Y-137929572D01*
X103804970Y-137952671D01*
X103794480Y-137974850D01*
X103781868Y-137995893D01*
X103767253Y-138015599D01*
X103750777Y-138033777D01*
X103732599Y-138050253D01*
X103712893Y-138064868D01*
X103691850Y-138077480D01*
X103669671Y-138087970D01*
X103646572Y-138096235D01*
X103622773Y-138102196D01*
X103598505Y-138105796D01*
X103574001Y-138107000D01*
X102673999Y-138107000D01*
X102649495Y-138105796D01*
X102625227Y-138102196D01*
X102601428Y-138096235D01*
X102578329Y-138087970D01*
X102556150Y-138077480D01*
X102535107Y-138064868D01*
X102515401Y-138050253D01*
X102497223Y-138033777D01*
X102480747Y-138015599D01*
X102466132Y-137995893D01*
X102453520Y-137974850D01*
X102443030Y-137952671D01*
X102434765Y-137929572D01*
X102428804Y-137905773D01*
X102425204Y-137881505D01*
X102424000Y-137857001D01*
X102424000Y-137206999D01*
X102425204Y-137182495D01*
X102428804Y-137158227D01*
X102434765Y-137134428D01*
X102443030Y-137111329D01*
X102453520Y-137089150D01*
X102466132Y-137068107D01*
X102480747Y-137048401D01*
X102497223Y-137030223D01*
X102515401Y-137013747D01*
X102535107Y-136999132D01*
X102556150Y-136986520D01*
X102578329Y-136976030D01*
X102601428Y-136967765D01*
X102625227Y-136961804D01*
X102649495Y-136958204D01*
X102673999Y-136957000D01*
X103574001Y-136957000D01*
X103598505Y-136958204D01*
X103598505Y-136958204D01*
G37*
D11*
X103124000Y-137532000D03*
D13*
X96775000Y-130385000D03*
X93725000Y-127035000D03*
X93725000Y-130385000D03*
X96775000Y-127035000D03*
D14*
X97530000Y-135010000D03*
X95250000Y-135010000D03*
X92970000Y-135010000D03*
D13*
X106935000Y-130385000D03*
X103885000Y-127035000D03*
X103885000Y-130385000D03*
X106935000Y-127035000D03*
D14*
X107690000Y-135010000D03*
X105410000Y-135010000D03*
X103130000Y-135010000D03*
D10*
G36*
X97640505Y-142684204D02*
G01*
X97664773Y-142687804D01*
X97688572Y-142693765D01*
X97711671Y-142702030D01*
X97733850Y-142712520D01*
X97754893Y-142725132D01*
X97774599Y-142739747D01*
X97792777Y-142756223D01*
X97809253Y-142774401D01*
X97823868Y-142794107D01*
X97836480Y-142815150D01*
X97846970Y-142837329D01*
X97855235Y-142860428D01*
X97861196Y-142884227D01*
X97864796Y-142908495D01*
X97866000Y-142932999D01*
X97866000Y-143833001D01*
X97864796Y-143857505D01*
X97861196Y-143881773D01*
X97855235Y-143905572D01*
X97846970Y-143928671D01*
X97836480Y-143950850D01*
X97823868Y-143971893D01*
X97809253Y-143991599D01*
X97792777Y-144009777D01*
X97774599Y-144026253D01*
X97754893Y-144040868D01*
X97733850Y-144053480D01*
X97711671Y-144063970D01*
X97688572Y-144072235D01*
X97664773Y-144078196D01*
X97640505Y-144081796D01*
X97616001Y-144083000D01*
X96965999Y-144083000D01*
X96941495Y-144081796D01*
X96917227Y-144078196D01*
X96893428Y-144072235D01*
X96870329Y-144063970D01*
X96848150Y-144053480D01*
X96827107Y-144040868D01*
X96807401Y-144026253D01*
X96789223Y-144009777D01*
X96772747Y-143991599D01*
X96758132Y-143971893D01*
X96745520Y-143950850D01*
X96735030Y-143928671D01*
X96726765Y-143905572D01*
X96720804Y-143881773D01*
X96717204Y-143857505D01*
X96716000Y-143833001D01*
X96716000Y-142932999D01*
X96717204Y-142908495D01*
X96720804Y-142884227D01*
X96726765Y-142860428D01*
X96735030Y-142837329D01*
X96745520Y-142815150D01*
X96758132Y-142794107D01*
X96772747Y-142774401D01*
X96789223Y-142756223D01*
X96807401Y-142739747D01*
X96827107Y-142725132D01*
X96848150Y-142712520D01*
X96870329Y-142702030D01*
X96893428Y-142693765D01*
X96917227Y-142687804D01*
X96941495Y-142684204D01*
X96965999Y-142683000D01*
X97616001Y-142683000D01*
X97640505Y-142684204D01*
X97640505Y-142684204D01*
G37*
D11*
X97291000Y-143383000D03*
D10*
G36*
X95590505Y-142684204D02*
G01*
X95614773Y-142687804D01*
X95638572Y-142693765D01*
X95661671Y-142702030D01*
X95683850Y-142712520D01*
X95704893Y-142725132D01*
X95724599Y-142739747D01*
X95742777Y-142756223D01*
X95759253Y-142774401D01*
X95773868Y-142794107D01*
X95786480Y-142815150D01*
X95796970Y-142837329D01*
X95805235Y-142860428D01*
X95811196Y-142884227D01*
X95814796Y-142908495D01*
X95816000Y-142932999D01*
X95816000Y-143833001D01*
X95814796Y-143857505D01*
X95811196Y-143881773D01*
X95805235Y-143905572D01*
X95796970Y-143928671D01*
X95786480Y-143950850D01*
X95773868Y-143971893D01*
X95759253Y-143991599D01*
X95742777Y-144009777D01*
X95724599Y-144026253D01*
X95704893Y-144040868D01*
X95683850Y-144053480D01*
X95661671Y-144063970D01*
X95638572Y-144072235D01*
X95614773Y-144078196D01*
X95590505Y-144081796D01*
X95566001Y-144083000D01*
X94915999Y-144083000D01*
X94891495Y-144081796D01*
X94867227Y-144078196D01*
X94843428Y-144072235D01*
X94820329Y-144063970D01*
X94798150Y-144053480D01*
X94777107Y-144040868D01*
X94757401Y-144026253D01*
X94739223Y-144009777D01*
X94722747Y-143991599D01*
X94708132Y-143971893D01*
X94695520Y-143950850D01*
X94685030Y-143928671D01*
X94676765Y-143905572D01*
X94670804Y-143881773D01*
X94667204Y-143857505D01*
X94666000Y-143833001D01*
X94666000Y-142932999D01*
X94667204Y-142908495D01*
X94670804Y-142884227D01*
X94676765Y-142860428D01*
X94685030Y-142837329D01*
X94695520Y-142815150D01*
X94708132Y-142794107D01*
X94722747Y-142774401D01*
X94739223Y-142756223D01*
X94757401Y-142739747D01*
X94777107Y-142725132D01*
X94798150Y-142712520D01*
X94820329Y-142702030D01*
X94843428Y-142693765D01*
X94867227Y-142687804D01*
X94891495Y-142684204D01*
X94915999Y-142683000D01*
X95566001Y-142683000D01*
X95590505Y-142684204D01*
X95590505Y-142684204D01*
G37*
D11*
X95241000Y-143383000D03*
D10*
G36*
X107800505Y-142684204D02*
G01*
X107824773Y-142687804D01*
X107848572Y-142693765D01*
X107871671Y-142702030D01*
X107893850Y-142712520D01*
X107914893Y-142725132D01*
X107934599Y-142739747D01*
X107952777Y-142756223D01*
X107969253Y-142774401D01*
X107983868Y-142794107D01*
X107996480Y-142815150D01*
X108006970Y-142837329D01*
X108015235Y-142860428D01*
X108021196Y-142884227D01*
X108024796Y-142908495D01*
X108026000Y-142932999D01*
X108026000Y-143833001D01*
X108024796Y-143857505D01*
X108021196Y-143881773D01*
X108015235Y-143905572D01*
X108006970Y-143928671D01*
X107996480Y-143950850D01*
X107983868Y-143971893D01*
X107969253Y-143991599D01*
X107952777Y-144009777D01*
X107934599Y-144026253D01*
X107914893Y-144040868D01*
X107893850Y-144053480D01*
X107871671Y-144063970D01*
X107848572Y-144072235D01*
X107824773Y-144078196D01*
X107800505Y-144081796D01*
X107776001Y-144083000D01*
X107125999Y-144083000D01*
X107101495Y-144081796D01*
X107077227Y-144078196D01*
X107053428Y-144072235D01*
X107030329Y-144063970D01*
X107008150Y-144053480D01*
X106987107Y-144040868D01*
X106967401Y-144026253D01*
X106949223Y-144009777D01*
X106932747Y-143991599D01*
X106918132Y-143971893D01*
X106905520Y-143950850D01*
X106895030Y-143928671D01*
X106886765Y-143905572D01*
X106880804Y-143881773D01*
X106877204Y-143857505D01*
X106876000Y-143833001D01*
X106876000Y-142932999D01*
X106877204Y-142908495D01*
X106880804Y-142884227D01*
X106886765Y-142860428D01*
X106895030Y-142837329D01*
X106905520Y-142815150D01*
X106918132Y-142794107D01*
X106932747Y-142774401D01*
X106949223Y-142756223D01*
X106967401Y-142739747D01*
X106987107Y-142725132D01*
X107008150Y-142712520D01*
X107030329Y-142702030D01*
X107053428Y-142693765D01*
X107077227Y-142687804D01*
X107101495Y-142684204D01*
X107125999Y-142683000D01*
X107776001Y-142683000D01*
X107800505Y-142684204D01*
X107800505Y-142684204D01*
G37*
D11*
X107451000Y-143383000D03*
D10*
G36*
X105750505Y-142684204D02*
G01*
X105774773Y-142687804D01*
X105798572Y-142693765D01*
X105821671Y-142702030D01*
X105843850Y-142712520D01*
X105864893Y-142725132D01*
X105884599Y-142739747D01*
X105902777Y-142756223D01*
X105919253Y-142774401D01*
X105933868Y-142794107D01*
X105946480Y-142815150D01*
X105956970Y-142837329D01*
X105965235Y-142860428D01*
X105971196Y-142884227D01*
X105974796Y-142908495D01*
X105976000Y-142932999D01*
X105976000Y-143833001D01*
X105974796Y-143857505D01*
X105971196Y-143881773D01*
X105965235Y-143905572D01*
X105956970Y-143928671D01*
X105946480Y-143950850D01*
X105933868Y-143971893D01*
X105919253Y-143991599D01*
X105902777Y-144009777D01*
X105884599Y-144026253D01*
X105864893Y-144040868D01*
X105843850Y-144053480D01*
X105821671Y-144063970D01*
X105798572Y-144072235D01*
X105774773Y-144078196D01*
X105750505Y-144081796D01*
X105726001Y-144083000D01*
X105075999Y-144083000D01*
X105051495Y-144081796D01*
X105027227Y-144078196D01*
X105003428Y-144072235D01*
X104980329Y-144063970D01*
X104958150Y-144053480D01*
X104937107Y-144040868D01*
X104917401Y-144026253D01*
X104899223Y-144009777D01*
X104882747Y-143991599D01*
X104868132Y-143971893D01*
X104855520Y-143950850D01*
X104845030Y-143928671D01*
X104836765Y-143905572D01*
X104830804Y-143881773D01*
X104827204Y-143857505D01*
X104826000Y-143833001D01*
X104826000Y-142932999D01*
X104827204Y-142908495D01*
X104830804Y-142884227D01*
X104836765Y-142860428D01*
X104845030Y-142837329D01*
X104855520Y-142815150D01*
X104868132Y-142794107D01*
X104882747Y-142774401D01*
X104899223Y-142756223D01*
X104917401Y-142739747D01*
X104937107Y-142725132D01*
X104958150Y-142712520D01*
X104980329Y-142702030D01*
X105003428Y-142693765D01*
X105027227Y-142687804D01*
X105051495Y-142684204D01*
X105075999Y-142683000D01*
X105726001Y-142683000D01*
X105750505Y-142684204D01*
X105750505Y-142684204D01*
G37*
D11*
X105401000Y-143383000D03*
D10*
G36*
X117960505Y-142684204D02*
G01*
X117984773Y-142687804D01*
X118008572Y-142693765D01*
X118031671Y-142702030D01*
X118053850Y-142712520D01*
X118074893Y-142725132D01*
X118094599Y-142739747D01*
X118112777Y-142756223D01*
X118129253Y-142774401D01*
X118143868Y-142794107D01*
X118156480Y-142815150D01*
X118166970Y-142837329D01*
X118175235Y-142860428D01*
X118181196Y-142884227D01*
X118184796Y-142908495D01*
X118186000Y-142932999D01*
X118186000Y-143833001D01*
X118184796Y-143857505D01*
X118181196Y-143881773D01*
X118175235Y-143905572D01*
X118166970Y-143928671D01*
X118156480Y-143950850D01*
X118143868Y-143971893D01*
X118129253Y-143991599D01*
X118112777Y-144009777D01*
X118094599Y-144026253D01*
X118074893Y-144040868D01*
X118053850Y-144053480D01*
X118031671Y-144063970D01*
X118008572Y-144072235D01*
X117984773Y-144078196D01*
X117960505Y-144081796D01*
X117936001Y-144083000D01*
X117285999Y-144083000D01*
X117261495Y-144081796D01*
X117237227Y-144078196D01*
X117213428Y-144072235D01*
X117190329Y-144063970D01*
X117168150Y-144053480D01*
X117147107Y-144040868D01*
X117127401Y-144026253D01*
X117109223Y-144009777D01*
X117092747Y-143991599D01*
X117078132Y-143971893D01*
X117065520Y-143950850D01*
X117055030Y-143928671D01*
X117046765Y-143905572D01*
X117040804Y-143881773D01*
X117037204Y-143857505D01*
X117036000Y-143833001D01*
X117036000Y-142932999D01*
X117037204Y-142908495D01*
X117040804Y-142884227D01*
X117046765Y-142860428D01*
X117055030Y-142837329D01*
X117065520Y-142815150D01*
X117078132Y-142794107D01*
X117092747Y-142774401D01*
X117109223Y-142756223D01*
X117127401Y-142739747D01*
X117147107Y-142725132D01*
X117168150Y-142712520D01*
X117190329Y-142702030D01*
X117213428Y-142693765D01*
X117237227Y-142687804D01*
X117261495Y-142684204D01*
X117285999Y-142683000D01*
X117936001Y-142683000D01*
X117960505Y-142684204D01*
X117960505Y-142684204D01*
G37*
D11*
X117611000Y-143383000D03*
D10*
G36*
X115910505Y-142684204D02*
G01*
X115934773Y-142687804D01*
X115958572Y-142693765D01*
X115981671Y-142702030D01*
X116003850Y-142712520D01*
X116024893Y-142725132D01*
X116044599Y-142739747D01*
X116062777Y-142756223D01*
X116079253Y-142774401D01*
X116093868Y-142794107D01*
X116106480Y-142815150D01*
X116116970Y-142837329D01*
X116125235Y-142860428D01*
X116131196Y-142884227D01*
X116134796Y-142908495D01*
X116136000Y-142932999D01*
X116136000Y-143833001D01*
X116134796Y-143857505D01*
X116131196Y-143881773D01*
X116125235Y-143905572D01*
X116116970Y-143928671D01*
X116106480Y-143950850D01*
X116093868Y-143971893D01*
X116079253Y-143991599D01*
X116062777Y-144009777D01*
X116044599Y-144026253D01*
X116024893Y-144040868D01*
X116003850Y-144053480D01*
X115981671Y-144063970D01*
X115958572Y-144072235D01*
X115934773Y-144078196D01*
X115910505Y-144081796D01*
X115886001Y-144083000D01*
X115235999Y-144083000D01*
X115211495Y-144081796D01*
X115187227Y-144078196D01*
X115163428Y-144072235D01*
X115140329Y-144063970D01*
X115118150Y-144053480D01*
X115097107Y-144040868D01*
X115077401Y-144026253D01*
X115059223Y-144009777D01*
X115042747Y-143991599D01*
X115028132Y-143971893D01*
X115015520Y-143950850D01*
X115005030Y-143928671D01*
X114996765Y-143905572D01*
X114990804Y-143881773D01*
X114987204Y-143857505D01*
X114986000Y-143833001D01*
X114986000Y-142932999D01*
X114987204Y-142908495D01*
X114990804Y-142884227D01*
X114996765Y-142860428D01*
X115005030Y-142837329D01*
X115015520Y-142815150D01*
X115028132Y-142794107D01*
X115042747Y-142774401D01*
X115059223Y-142756223D01*
X115077401Y-142739747D01*
X115097107Y-142725132D01*
X115118150Y-142712520D01*
X115140329Y-142702030D01*
X115163428Y-142693765D01*
X115187227Y-142687804D01*
X115211495Y-142684204D01*
X115235999Y-142683000D01*
X115886001Y-142683000D01*
X115910505Y-142684204D01*
X115910505Y-142684204D01*
G37*
D11*
X115561000Y-143383000D03*
D13*
X117095000Y-130385000D03*
X114045000Y-127035000D03*
X114045000Y-130385000D03*
X117095000Y-127035000D03*
D14*
X117850000Y-135010000D03*
X115570000Y-135010000D03*
X113290000Y-135010000D03*
D10*
G36*
X113758505Y-139008204D02*
G01*
X113782773Y-139011804D01*
X113806572Y-139017765D01*
X113829671Y-139026030D01*
X113851850Y-139036520D01*
X113872893Y-139049132D01*
X113892599Y-139063747D01*
X113910777Y-139080223D01*
X113927253Y-139098401D01*
X113941868Y-139118107D01*
X113954480Y-139139150D01*
X113964970Y-139161329D01*
X113973235Y-139184428D01*
X113979196Y-139208227D01*
X113982796Y-139232495D01*
X113984000Y-139256999D01*
X113984000Y-139907001D01*
X113982796Y-139931505D01*
X113979196Y-139955773D01*
X113973235Y-139979572D01*
X113964970Y-140002671D01*
X113954480Y-140024850D01*
X113941868Y-140045893D01*
X113927253Y-140065599D01*
X113910777Y-140083777D01*
X113892599Y-140100253D01*
X113872893Y-140114868D01*
X113851850Y-140127480D01*
X113829671Y-140137970D01*
X113806572Y-140146235D01*
X113782773Y-140152196D01*
X113758505Y-140155796D01*
X113734001Y-140157000D01*
X112833999Y-140157000D01*
X112809495Y-140155796D01*
X112785227Y-140152196D01*
X112761428Y-140146235D01*
X112738329Y-140137970D01*
X112716150Y-140127480D01*
X112695107Y-140114868D01*
X112675401Y-140100253D01*
X112657223Y-140083777D01*
X112640747Y-140065599D01*
X112626132Y-140045893D01*
X112613520Y-140024850D01*
X112603030Y-140002671D01*
X112594765Y-139979572D01*
X112588804Y-139955773D01*
X112585204Y-139931505D01*
X112584000Y-139907001D01*
X112584000Y-139256999D01*
X112585204Y-139232495D01*
X112588804Y-139208227D01*
X112594765Y-139184428D01*
X112603030Y-139161329D01*
X112613520Y-139139150D01*
X112626132Y-139118107D01*
X112640747Y-139098401D01*
X112657223Y-139080223D01*
X112675401Y-139063747D01*
X112695107Y-139049132D01*
X112716150Y-139036520D01*
X112738329Y-139026030D01*
X112761428Y-139017765D01*
X112785227Y-139011804D01*
X112809495Y-139008204D01*
X112833999Y-139007000D01*
X113734001Y-139007000D01*
X113758505Y-139008204D01*
X113758505Y-139008204D01*
G37*
D11*
X113284000Y-139582000D03*
D10*
G36*
X113758505Y-136958204D02*
G01*
X113782773Y-136961804D01*
X113806572Y-136967765D01*
X113829671Y-136976030D01*
X113851850Y-136986520D01*
X113872893Y-136999132D01*
X113892599Y-137013747D01*
X113910777Y-137030223D01*
X113927253Y-137048401D01*
X113941868Y-137068107D01*
X113954480Y-137089150D01*
X113964970Y-137111329D01*
X113973235Y-137134428D01*
X113979196Y-137158227D01*
X113982796Y-137182495D01*
X113984000Y-137206999D01*
X113984000Y-137857001D01*
X113982796Y-137881505D01*
X113979196Y-137905773D01*
X113973235Y-137929572D01*
X113964970Y-137952671D01*
X113954480Y-137974850D01*
X113941868Y-137995893D01*
X113927253Y-138015599D01*
X113910777Y-138033777D01*
X113892599Y-138050253D01*
X113872893Y-138064868D01*
X113851850Y-138077480D01*
X113829671Y-138087970D01*
X113806572Y-138096235D01*
X113782773Y-138102196D01*
X113758505Y-138105796D01*
X113734001Y-138107000D01*
X112833999Y-138107000D01*
X112809495Y-138105796D01*
X112785227Y-138102196D01*
X112761428Y-138096235D01*
X112738329Y-138087970D01*
X112716150Y-138077480D01*
X112695107Y-138064868D01*
X112675401Y-138050253D01*
X112657223Y-138033777D01*
X112640747Y-138015599D01*
X112626132Y-137995893D01*
X112613520Y-137974850D01*
X112603030Y-137952671D01*
X112594765Y-137929572D01*
X112588804Y-137905773D01*
X112585204Y-137881505D01*
X112584000Y-137857001D01*
X112584000Y-137206999D01*
X112585204Y-137182495D01*
X112588804Y-137158227D01*
X112594765Y-137134428D01*
X112603030Y-137111329D01*
X112613520Y-137089150D01*
X112626132Y-137068107D01*
X112640747Y-137048401D01*
X112657223Y-137030223D01*
X112675401Y-137013747D01*
X112695107Y-136999132D01*
X112716150Y-136986520D01*
X112738329Y-136976030D01*
X112761428Y-136967765D01*
X112785227Y-136961804D01*
X112809495Y-136958204D01*
X112833999Y-136957000D01*
X113734001Y-136957000D01*
X113758505Y-136958204D01*
X113758505Y-136958204D01*
G37*
D11*
X113284000Y-137532000D03*
M02*
