G04 #@! TF.GenerationSoftware,KiCad,Pcbnew,(5.1.0-rc2-41-g6b3e9b0ed)*
G04 #@! TF.CreationDate,2020-04-23T19:15:03+02:00*
G04 #@! TF.ProjectId,LED_Driver,4c45445f-4472-4697-9665-722e6b696361,V0.1*
G04 #@! TF.SameCoordinates,Original*
G04 #@! TF.FileFunction,Soldermask,Bot*
G04 #@! TF.FilePolarity,Negative*
%FSLAX46Y46*%
G04 Gerber Fmt 4.6, Leading zero omitted, Abs format (unit mm)*
G04 Created by KiCad (PCBNEW (5.1.0-rc2-41-g6b3e9b0ed)) date 2020-04-23 19:15:03*
%MOMM*%
%LPD*%
G04 APERTURE LIST*
%ADD10C,0.100000*%
G04 APERTURE END LIST*
D10*
G36*
X136843433Y-142779893D02*
G01*
X136933657Y-142797839D01*
X137039267Y-142841585D01*
X137188621Y-142903449D01*
X137188622Y-142903450D01*
X137418086Y-143056772D01*
X137613228Y-143251914D01*
X137715675Y-143405237D01*
X137766551Y-143481379D01*
X137872161Y-143736344D01*
X137926000Y-144007012D01*
X137926000Y-144282988D01*
X137872161Y-144553656D01*
X137766551Y-144808621D01*
X137766550Y-144808622D01*
X137613228Y-145038086D01*
X137418086Y-145233228D01*
X137264763Y-145335675D01*
X137188621Y-145386551D01*
X137039267Y-145448415D01*
X136933657Y-145492161D01*
X136843433Y-145510107D01*
X136662988Y-145546000D01*
X136387012Y-145546000D01*
X136206567Y-145510107D01*
X136116343Y-145492161D01*
X136010733Y-145448415D01*
X135861379Y-145386551D01*
X135785237Y-145335675D01*
X135631914Y-145233228D01*
X135436772Y-145038086D01*
X135283450Y-144808622D01*
X135283449Y-144808621D01*
X135177839Y-144553656D01*
X135124000Y-144282988D01*
X135124000Y-144007012D01*
X135177839Y-143736344D01*
X135283449Y-143481379D01*
X135334325Y-143405237D01*
X135436772Y-143251914D01*
X135631914Y-143056772D01*
X135861378Y-142903450D01*
X135861379Y-142903449D01*
X136010733Y-142841585D01*
X136116343Y-142797839D01*
X136206567Y-142779893D01*
X136387012Y-142744000D01*
X136662988Y-142744000D01*
X136843433Y-142779893D01*
X136843433Y-142779893D01*
G37*
G36*
X37148433Y-142779893D02*
G01*
X37238657Y-142797839D01*
X37344267Y-142841585D01*
X37493621Y-142903449D01*
X37493622Y-142903450D01*
X37723086Y-143056772D01*
X37918228Y-143251914D01*
X38020675Y-143405237D01*
X38071551Y-143481379D01*
X38177161Y-143736344D01*
X38231000Y-144007012D01*
X38231000Y-144282988D01*
X38177161Y-144553656D01*
X38071551Y-144808621D01*
X38071550Y-144808622D01*
X37918228Y-145038086D01*
X37723086Y-145233228D01*
X37569763Y-145335675D01*
X37493621Y-145386551D01*
X37344267Y-145448415D01*
X37238657Y-145492161D01*
X37148433Y-145510107D01*
X36967988Y-145546000D01*
X36692012Y-145546000D01*
X36511567Y-145510107D01*
X36421343Y-145492161D01*
X36315733Y-145448415D01*
X36166379Y-145386551D01*
X36090237Y-145335675D01*
X35936914Y-145233228D01*
X35741772Y-145038086D01*
X35588450Y-144808622D01*
X35588449Y-144808621D01*
X35482839Y-144553656D01*
X35429000Y-144282988D01*
X35429000Y-144007012D01*
X35482839Y-143736344D01*
X35588449Y-143481379D01*
X35639325Y-143405237D01*
X35741772Y-143251914D01*
X35936914Y-143056772D01*
X36166378Y-142903450D01*
X36166379Y-142903449D01*
X36315733Y-142841585D01*
X36421343Y-142797839D01*
X36511567Y-142779893D01*
X36692012Y-142744000D01*
X36967988Y-142744000D01*
X37148433Y-142779893D01*
X37148433Y-142779893D01*
G37*
G36*
X137270443Y-137535519D02*
G01*
X137336627Y-137542037D01*
X137506466Y-137593557D01*
X137662991Y-137677222D01*
X137698729Y-137706552D01*
X137800186Y-137789814D01*
X137883448Y-137891271D01*
X137912778Y-137927009D01*
X137996443Y-138083534D01*
X138047963Y-138253373D01*
X138065359Y-138430000D01*
X138047963Y-138606627D01*
X137996443Y-138776466D01*
X137912778Y-138932991D01*
X137883448Y-138968729D01*
X137800186Y-139070186D01*
X137698729Y-139153448D01*
X137662991Y-139182778D01*
X137506466Y-139266443D01*
X137336627Y-139317963D01*
X137270443Y-139324481D01*
X137204260Y-139331000D01*
X137115740Y-139331000D01*
X137049557Y-139324481D01*
X136983373Y-139317963D01*
X136813534Y-139266443D01*
X136657009Y-139182778D01*
X136621271Y-139153448D01*
X136519814Y-139070186D01*
X136436552Y-138968729D01*
X136407222Y-138932991D01*
X136323557Y-138776466D01*
X136272037Y-138606627D01*
X136254641Y-138430000D01*
X136272037Y-138253373D01*
X136323557Y-138083534D01*
X136407222Y-137927009D01*
X136436552Y-137891271D01*
X136519814Y-137789814D01*
X136621271Y-137706552D01*
X136657009Y-137677222D01*
X136813534Y-137593557D01*
X136983373Y-137542037D01*
X137049557Y-137535519D01*
X137115740Y-137529000D01*
X137204260Y-137529000D01*
X137270443Y-137535519D01*
X137270443Y-137535519D01*
G37*
G36*
X132190443Y-137535519D02*
G01*
X132256627Y-137542037D01*
X132426466Y-137593557D01*
X132582991Y-137677222D01*
X132618729Y-137706552D01*
X132720186Y-137789814D01*
X132803448Y-137891271D01*
X132832778Y-137927009D01*
X132916443Y-138083534D01*
X132967963Y-138253373D01*
X132985359Y-138430000D01*
X132967963Y-138606627D01*
X132916443Y-138776466D01*
X132832778Y-138932991D01*
X132803448Y-138968729D01*
X132720186Y-139070186D01*
X132618729Y-139153448D01*
X132582991Y-139182778D01*
X132426466Y-139266443D01*
X132256627Y-139317963D01*
X132190443Y-139324481D01*
X132124260Y-139331000D01*
X132035740Y-139331000D01*
X131969557Y-139324481D01*
X131903373Y-139317963D01*
X131733534Y-139266443D01*
X131577009Y-139182778D01*
X131541271Y-139153448D01*
X131439814Y-139070186D01*
X131356552Y-138968729D01*
X131327222Y-138932991D01*
X131243557Y-138776466D01*
X131192037Y-138606627D01*
X131174641Y-138430000D01*
X131192037Y-138253373D01*
X131243557Y-138083534D01*
X131327222Y-137927009D01*
X131356552Y-137891271D01*
X131439814Y-137789814D01*
X131541271Y-137706552D01*
X131577009Y-137677222D01*
X131733534Y-137593557D01*
X131903373Y-137542037D01*
X131969557Y-137535519D01*
X132035740Y-137529000D01*
X132124260Y-137529000D01*
X132190443Y-137535519D01*
X132190443Y-137535519D01*
G37*
G36*
X126475443Y-137535519D02*
G01*
X126541627Y-137542037D01*
X126711466Y-137593557D01*
X126867991Y-137677222D01*
X126903729Y-137706552D01*
X127005186Y-137789814D01*
X127088448Y-137891271D01*
X127117778Y-137927009D01*
X127201443Y-138083534D01*
X127252963Y-138253373D01*
X127270359Y-138430000D01*
X127252963Y-138606627D01*
X127201443Y-138776466D01*
X127117778Y-138932991D01*
X127088448Y-138968729D01*
X127005186Y-139070186D01*
X126903729Y-139153448D01*
X126867991Y-139182778D01*
X126711466Y-139266443D01*
X126541627Y-139317963D01*
X126475443Y-139324481D01*
X126409260Y-139331000D01*
X126320740Y-139331000D01*
X126254557Y-139324481D01*
X126188373Y-139317963D01*
X126018534Y-139266443D01*
X125862009Y-139182778D01*
X125826271Y-139153448D01*
X125724814Y-139070186D01*
X125641552Y-138968729D01*
X125612222Y-138932991D01*
X125528557Y-138776466D01*
X125477037Y-138606627D01*
X125459641Y-138430000D01*
X125477037Y-138253373D01*
X125528557Y-138083534D01*
X125612222Y-137927009D01*
X125641552Y-137891271D01*
X125724814Y-137789814D01*
X125826271Y-137706552D01*
X125862009Y-137677222D01*
X126018534Y-137593557D01*
X126188373Y-137542037D01*
X126254557Y-137535519D01*
X126320740Y-137529000D01*
X126409260Y-137529000D01*
X126475443Y-137535519D01*
X126475443Y-137535519D01*
G37*
G36*
X123935443Y-137535519D02*
G01*
X124001627Y-137542037D01*
X124171466Y-137593557D01*
X124327991Y-137677222D01*
X124363729Y-137706552D01*
X124465186Y-137789814D01*
X124548448Y-137891271D01*
X124577778Y-137927009D01*
X124661443Y-138083534D01*
X124712963Y-138253373D01*
X124730359Y-138430000D01*
X124712963Y-138606627D01*
X124661443Y-138776466D01*
X124577778Y-138932991D01*
X124548448Y-138968729D01*
X124465186Y-139070186D01*
X124363729Y-139153448D01*
X124327991Y-139182778D01*
X124171466Y-139266443D01*
X124001627Y-139317963D01*
X123935443Y-139324481D01*
X123869260Y-139331000D01*
X123780740Y-139331000D01*
X123714557Y-139324481D01*
X123648373Y-139317963D01*
X123478534Y-139266443D01*
X123322009Y-139182778D01*
X123286271Y-139153448D01*
X123184814Y-139070186D01*
X123101552Y-138968729D01*
X123072222Y-138932991D01*
X122988557Y-138776466D01*
X122937037Y-138606627D01*
X122919641Y-138430000D01*
X122937037Y-138253373D01*
X122988557Y-138083534D01*
X123072222Y-137927009D01*
X123101552Y-137891271D01*
X123184814Y-137789814D01*
X123286271Y-137706552D01*
X123322009Y-137677222D01*
X123478534Y-137593557D01*
X123648373Y-137542037D01*
X123714557Y-137535519D01*
X123780740Y-137529000D01*
X123869260Y-137529000D01*
X123935443Y-137535519D01*
X123935443Y-137535519D01*
G37*
G36*
X137270442Y-134995518D02*
G01*
X137336627Y-135002037D01*
X137506466Y-135053557D01*
X137662991Y-135137222D01*
X137698729Y-135166552D01*
X137800186Y-135249814D01*
X137883448Y-135351271D01*
X137912778Y-135387009D01*
X137996443Y-135543534D01*
X138047963Y-135713373D01*
X138065359Y-135890000D01*
X138047963Y-136066627D01*
X137996443Y-136236466D01*
X137912778Y-136392991D01*
X137883448Y-136428729D01*
X137800186Y-136530186D01*
X137698729Y-136613448D01*
X137662991Y-136642778D01*
X137506466Y-136726443D01*
X137336627Y-136777963D01*
X137270442Y-136784482D01*
X137204260Y-136791000D01*
X137115740Y-136791000D01*
X137049558Y-136784482D01*
X136983373Y-136777963D01*
X136813534Y-136726443D01*
X136657009Y-136642778D01*
X136621271Y-136613448D01*
X136519814Y-136530186D01*
X136436552Y-136428729D01*
X136407222Y-136392991D01*
X136323557Y-136236466D01*
X136272037Y-136066627D01*
X136254641Y-135890000D01*
X136272037Y-135713373D01*
X136323557Y-135543534D01*
X136407222Y-135387009D01*
X136436552Y-135351271D01*
X136519814Y-135249814D01*
X136621271Y-135166552D01*
X136657009Y-135137222D01*
X136813534Y-135053557D01*
X136983373Y-135002037D01*
X137049558Y-134995518D01*
X137115740Y-134989000D01*
X137204260Y-134989000D01*
X137270442Y-134995518D01*
X137270442Y-134995518D01*
G37*
G36*
X132190442Y-134995518D02*
G01*
X132256627Y-135002037D01*
X132426466Y-135053557D01*
X132582991Y-135137222D01*
X132618729Y-135166552D01*
X132720186Y-135249814D01*
X132803448Y-135351271D01*
X132832778Y-135387009D01*
X132916443Y-135543534D01*
X132967963Y-135713373D01*
X132985359Y-135890000D01*
X132967963Y-136066627D01*
X132916443Y-136236466D01*
X132832778Y-136392991D01*
X132803448Y-136428729D01*
X132720186Y-136530186D01*
X132618729Y-136613448D01*
X132582991Y-136642778D01*
X132426466Y-136726443D01*
X132256627Y-136777963D01*
X132190442Y-136784482D01*
X132124260Y-136791000D01*
X132035740Y-136791000D01*
X131969558Y-136784482D01*
X131903373Y-136777963D01*
X131733534Y-136726443D01*
X131577009Y-136642778D01*
X131541271Y-136613448D01*
X131439814Y-136530186D01*
X131356552Y-136428729D01*
X131327222Y-136392991D01*
X131243557Y-136236466D01*
X131192037Y-136066627D01*
X131174641Y-135890000D01*
X131192037Y-135713373D01*
X131243557Y-135543534D01*
X131327222Y-135387009D01*
X131356552Y-135351271D01*
X131439814Y-135249814D01*
X131541271Y-135166552D01*
X131577009Y-135137222D01*
X131733534Y-135053557D01*
X131903373Y-135002037D01*
X131969558Y-134995518D01*
X132035740Y-134989000D01*
X132124260Y-134989000D01*
X132190442Y-134995518D01*
X132190442Y-134995518D01*
G37*
G36*
X126475442Y-134995518D02*
G01*
X126541627Y-135002037D01*
X126711466Y-135053557D01*
X126867991Y-135137222D01*
X126903729Y-135166552D01*
X127005186Y-135249814D01*
X127088448Y-135351271D01*
X127117778Y-135387009D01*
X127201443Y-135543534D01*
X127252963Y-135713373D01*
X127270359Y-135890000D01*
X127252963Y-136066627D01*
X127201443Y-136236466D01*
X127117778Y-136392991D01*
X127088448Y-136428729D01*
X127005186Y-136530186D01*
X126903729Y-136613448D01*
X126867991Y-136642778D01*
X126711466Y-136726443D01*
X126541627Y-136777963D01*
X126475442Y-136784482D01*
X126409260Y-136791000D01*
X126320740Y-136791000D01*
X126254558Y-136784482D01*
X126188373Y-136777963D01*
X126018534Y-136726443D01*
X125862009Y-136642778D01*
X125826271Y-136613448D01*
X125724814Y-136530186D01*
X125641552Y-136428729D01*
X125612222Y-136392991D01*
X125528557Y-136236466D01*
X125477037Y-136066627D01*
X125459641Y-135890000D01*
X125477037Y-135713373D01*
X125528557Y-135543534D01*
X125612222Y-135387009D01*
X125641552Y-135351271D01*
X125724814Y-135249814D01*
X125826271Y-135166552D01*
X125862009Y-135137222D01*
X126018534Y-135053557D01*
X126188373Y-135002037D01*
X126254558Y-134995518D01*
X126320740Y-134989000D01*
X126409260Y-134989000D01*
X126475442Y-134995518D01*
X126475442Y-134995518D01*
G37*
G36*
X123935442Y-134995518D02*
G01*
X124001627Y-135002037D01*
X124171466Y-135053557D01*
X124327991Y-135137222D01*
X124363729Y-135166552D01*
X124465186Y-135249814D01*
X124548448Y-135351271D01*
X124577778Y-135387009D01*
X124661443Y-135543534D01*
X124712963Y-135713373D01*
X124730359Y-135890000D01*
X124712963Y-136066627D01*
X124661443Y-136236466D01*
X124577778Y-136392991D01*
X124548448Y-136428729D01*
X124465186Y-136530186D01*
X124363729Y-136613448D01*
X124327991Y-136642778D01*
X124171466Y-136726443D01*
X124001627Y-136777963D01*
X123935442Y-136784482D01*
X123869260Y-136791000D01*
X123780740Y-136791000D01*
X123714558Y-136784482D01*
X123648373Y-136777963D01*
X123478534Y-136726443D01*
X123322009Y-136642778D01*
X123286271Y-136613448D01*
X123184814Y-136530186D01*
X123101552Y-136428729D01*
X123072222Y-136392991D01*
X122988557Y-136236466D01*
X122937037Y-136066627D01*
X122919641Y-135890000D01*
X122937037Y-135713373D01*
X122988557Y-135543534D01*
X123072222Y-135387009D01*
X123101552Y-135351271D01*
X123184814Y-135249814D01*
X123286271Y-135166552D01*
X123322009Y-135137222D01*
X123478534Y-135053557D01*
X123648373Y-135002037D01*
X123714558Y-134995518D01*
X123780740Y-134989000D01*
X123869260Y-134989000D01*
X123935442Y-134995518D01*
X123935442Y-134995518D01*
G37*
G36*
X137270442Y-132455518D02*
G01*
X137336627Y-132462037D01*
X137506466Y-132513557D01*
X137662991Y-132597222D01*
X137698729Y-132626552D01*
X137800186Y-132709814D01*
X137883448Y-132811271D01*
X137912778Y-132847009D01*
X137996443Y-133003534D01*
X138047963Y-133173373D01*
X138065359Y-133350000D01*
X138047963Y-133526627D01*
X137996443Y-133696466D01*
X137912778Y-133852991D01*
X137883448Y-133888729D01*
X137800186Y-133990186D01*
X137698729Y-134073448D01*
X137662991Y-134102778D01*
X137506466Y-134186443D01*
X137336627Y-134237963D01*
X137270443Y-134244481D01*
X137204260Y-134251000D01*
X137115740Y-134251000D01*
X137049557Y-134244481D01*
X136983373Y-134237963D01*
X136813534Y-134186443D01*
X136657009Y-134102778D01*
X136621271Y-134073448D01*
X136519814Y-133990186D01*
X136436552Y-133888729D01*
X136407222Y-133852991D01*
X136323557Y-133696466D01*
X136272037Y-133526627D01*
X136254641Y-133350000D01*
X136272037Y-133173373D01*
X136323557Y-133003534D01*
X136407222Y-132847009D01*
X136436552Y-132811271D01*
X136519814Y-132709814D01*
X136621271Y-132626552D01*
X136657009Y-132597222D01*
X136813534Y-132513557D01*
X136983373Y-132462037D01*
X137049558Y-132455518D01*
X137115740Y-132449000D01*
X137204260Y-132449000D01*
X137270442Y-132455518D01*
X137270442Y-132455518D01*
G37*
G36*
X132190442Y-132455518D02*
G01*
X132256627Y-132462037D01*
X132426466Y-132513557D01*
X132582991Y-132597222D01*
X132618729Y-132626552D01*
X132720186Y-132709814D01*
X132803448Y-132811271D01*
X132832778Y-132847009D01*
X132916443Y-133003534D01*
X132967963Y-133173373D01*
X132985359Y-133350000D01*
X132967963Y-133526627D01*
X132916443Y-133696466D01*
X132832778Y-133852991D01*
X132803448Y-133888729D01*
X132720186Y-133990186D01*
X132618729Y-134073448D01*
X132582991Y-134102778D01*
X132426466Y-134186443D01*
X132256627Y-134237963D01*
X132190443Y-134244481D01*
X132124260Y-134251000D01*
X132035740Y-134251000D01*
X131969557Y-134244481D01*
X131903373Y-134237963D01*
X131733534Y-134186443D01*
X131577009Y-134102778D01*
X131541271Y-134073448D01*
X131439814Y-133990186D01*
X131356552Y-133888729D01*
X131327222Y-133852991D01*
X131243557Y-133696466D01*
X131192037Y-133526627D01*
X131174641Y-133350000D01*
X131192037Y-133173373D01*
X131243557Y-133003534D01*
X131327222Y-132847009D01*
X131356552Y-132811271D01*
X131439814Y-132709814D01*
X131541271Y-132626552D01*
X131577009Y-132597222D01*
X131733534Y-132513557D01*
X131903373Y-132462037D01*
X131969558Y-132455518D01*
X132035740Y-132449000D01*
X132124260Y-132449000D01*
X132190442Y-132455518D01*
X132190442Y-132455518D01*
G37*
G36*
X127266000Y-134251000D02*
G01*
X125464000Y-134251000D01*
X125464000Y-132449000D01*
X127266000Y-132449000D01*
X127266000Y-134251000D01*
X127266000Y-134251000D01*
G37*
G36*
X124726000Y-134251000D02*
G01*
X122924000Y-134251000D01*
X122924000Y-132449000D01*
X124726000Y-132449000D01*
X124726000Y-134251000D01*
X124726000Y-134251000D01*
G37*
G36*
X73431000Y-134122000D02*
G01*
X71829000Y-134122000D01*
X71829000Y-132020000D01*
X73431000Y-132020000D01*
X73431000Y-134122000D01*
X73431000Y-134122000D01*
G37*
G36*
X67871000Y-134122000D02*
G01*
X66269000Y-134122000D01*
X66269000Y-132020000D01*
X67871000Y-132020000D01*
X67871000Y-134122000D01*
X67871000Y-134122000D01*
G37*
G36*
X65571000Y-134122000D02*
G01*
X63969000Y-134122000D01*
X63969000Y-132020000D01*
X65571000Y-132020000D01*
X65571000Y-134122000D01*
X65571000Y-134122000D01*
G37*
G36*
X63271000Y-134122000D02*
G01*
X61669000Y-134122000D01*
X61669000Y-132020000D01*
X63271000Y-132020000D01*
X63271000Y-134122000D01*
X63271000Y-134122000D01*
G37*
G36*
X57711000Y-134122000D02*
G01*
X56109000Y-134122000D01*
X56109000Y-132020000D01*
X57711000Y-132020000D01*
X57711000Y-134122000D01*
X57711000Y-134122000D01*
G37*
G36*
X55411000Y-134122000D02*
G01*
X53809000Y-134122000D01*
X53809000Y-132020000D01*
X55411000Y-132020000D01*
X55411000Y-134122000D01*
X55411000Y-134122000D01*
G37*
G36*
X53111000Y-134122000D02*
G01*
X51509000Y-134122000D01*
X51509000Y-132020000D01*
X53111000Y-132020000D01*
X53111000Y-134122000D01*
X53111000Y-134122000D01*
G37*
G36*
X47551000Y-134122000D02*
G01*
X45949000Y-134122000D01*
X45949000Y-132020000D01*
X47551000Y-132020000D01*
X47551000Y-134122000D01*
X47551000Y-134122000D01*
G37*
G36*
X45251000Y-134122000D02*
G01*
X43649000Y-134122000D01*
X43649000Y-132020000D01*
X45251000Y-132020000D01*
X45251000Y-134122000D01*
X45251000Y-134122000D01*
G37*
G36*
X42951000Y-134122000D02*
G01*
X41349000Y-134122000D01*
X41349000Y-132020000D01*
X42951000Y-132020000D01*
X42951000Y-134122000D01*
X42951000Y-134122000D01*
G37*
G36*
X118671000Y-134122000D02*
G01*
X117069000Y-134122000D01*
X117069000Y-132020000D01*
X118671000Y-132020000D01*
X118671000Y-134122000D01*
X118671000Y-134122000D01*
G37*
G36*
X116371000Y-134122000D02*
G01*
X114769000Y-134122000D01*
X114769000Y-132020000D01*
X116371000Y-132020000D01*
X116371000Y-134122000D01*
X116371000Y-134122000D01*
G37*
G36*
X114071000Y-134122000D02*
G01*
X112469000Y-134122000D01*
X112469000Y-132020000D01*
X114071000Y-132020000D01*
X114071000Y-134122000D01*
X114071000Y-134122000D01*
G37*
G36*
X108511000Y-134122000D02*
G01*
X106909000Y-134122000D01*
X106909000Y-132020000D01*
X108511000Y-132020000D01*
X108511000Y-134122000D01*
X108511000Y-134122000D01*
G37*
G36*
X106211000Y-134122000D02*
G01*
X104609000Y-134122000D01*
X104609000Y-132020000D01*
X106211000Y-132020000D01*
X106211000Y-134122000D01*
X106211000Y-134122000D01*
G37*
G36*
X103911000Y-134122000D02*
G01*
X102309000Y-134122000D01*
X102309000Y-132020000D01*
X103911000Y-132020000D01*
X103911000Y-134122000D01*
X103911000Y-134122000D01*
G37*
G36*
X98351000Y-134122000D02*
G01*
X96749000Y-134122000D01*
X96749000Y-132020000D01*
X98351000Y-132020000D01*
X98351000Y-134122000D01*
X98351000Y-134122000D01*
G37*
G36*
X96051000Y-134122000D02*
G01*
X94449000Y-134122000D01*
X94449000Y-132020000D01*
X96051000Y-132020000D01*
X96051000Y-134122000D01*
X96051000Y-134122000D01*
G37*
G36*
X93751000Y-134122000D02*
G01*
X92149000Y-134122000D01*
X92149000Y-132020000D01*
X93751000Y-132020000D01*
X93751000Y-134122000D01*
X93751000Y-134122000D01*
G37*
G36*
X85891000Y-134122000D02*
G01*
X84289000Y-134122000D01*
X84289000Y-132020000D01*
X85891000Y-132020000D01*
X85891000Y-134122000D01*
X85891000Y-134122000D01*
G37*
G36*
X83591000Y-134122000D02*
G01*
X81989000Y-134122000D01*
X81989000Y-132020000D01*
X83591000Y-132020000D01*
X83591000Y-134122000D01*
X83591000Y-134122000D01*
G37*
G36*
X88191000Y-134122000D02*
G01*
X86589000Y-134122000D01*
X86589000Y-132020000D01*
X88191000Y-132020000D01*
X88191000Y-134122000D01*
X88191000Y-134122000D01*
G37*
G36*
X78031000Y-134122000D02*
G01*
X76429000Y-134122000D01*
X76429000Y-132020000D01*
X78031000Y-132020000D01*
X78031000Y-134122000D01*
X78031000Y-134122000D01*
G37*
G36*
X75731000Y-134122000D02*
G01*
X74129000Y-134122000D01*
X74129000Y-132020000D01*
X75731000Y-132020000D01*
X75731000Y-134122000D01*
X75731000Y-134122000D01*
G37*
G36*
X132190442Y-129915518D02*
G01*
X132256627Y-129922037D01*
X132426466Y-129973557D01*
X132582991Y-130057222D01*
X132618729Y-130086552D01*
X132720186Y-130169814D01*
X132803448Y-130271271D01*
X132832778Y-130307009D01*
X132916443Y-130463534D01*
X132967963Y-130633373D01*
X132985359Y-130810000D01*
X132967963Y-130986627D01*
X132916443Y-131156466D01*
X132832778Y-131312991D01*
X132803448Y-131348729D01*
X132720186Y-131450186D01*
X132618729Y-131533448D01*
X132582991Y-131562778D01*
X132426466Y-131646443D01*
X132256627Y-131697963D01*
X132190443Y-131704481D01*
X132124260Y-131711000D01*
X132035740Y-131711000D01*
X131969557Y-131704481D01*
X131903373Y-131697963D01*
X131733534Y-131646443D01*
X131577009Y-131562778D01*
X131541271Y-131533448D01*
X131439814Y-131450186D01*
X131356552Y-131348729D01*
X131327222Y-131312991D01*
X131243557Y-131156466D01*
X131192037Y-130986627D01*
X131174641Y-130810000D01*
X131192037Y-130633373D01*
X131243557Y-130463534D01*
X131327222Y-130307009D01*
X131356552Y-130271271D01*
X131439814Y-130169814D01*
X131541271Y-130086552D01*
X131577009Y-130057222D01*
X131733534Y-129973557D01*
X131903373Y-129922037D01*
X131969558Y-129915518D01*
X132035740Y-129909000D01*
X132124260Y-129909000D01*
X132190442Y-129915518D01*
X132190442Y-129915518D01*
G37*
G36*
X137270442Y-129915518D02*
G01*
X137336627Y-129922037D01*
X137506466Y-129973557D01*
X137662991Y-130057222D01*
X137698729Y-130086552D01*
X137800186Y-130169814D01*
X137883448Y-130271271D01*
X137912778Y-130307009D01*
X137996443Y-130463534D01*
X138047963Y-130633373D01*
X138065359Y-130810000D01*
X138047963Y-130986627D01*
X137996443Y-131156466D01*
X137912778Y-131312991D01*
X137883448Y-131348729D01*
X137800186Y-131450186D01*
X137698729Y-131533448D01*
X137662991Y-131562778D01*
X137506466Y-131646443D01*
X137336627Y-131697963D01*
X137270443Y-131704481D01*
X137204260Y-131711000D01*
X137115740Y-131711000D01*
X137049557Y-131704481D01*
X136983373Y-131697963D01*
X136813534Y-131646443D01*
X136657009Y-131562778D01*
X136621271Y-131533448D01*
X136519814Y-131450186D01*
X136436552Y-131348729D01*
X136407222Y-131312991D01*
X136323557Y-131156466D01*
X136272037Y-130986627D01*
X136254641Y-130810000D01*
X136272037Y-130633373D01*
X136323557Y-130463534D01*
X136407222Y-130307009D01*
X136436552Y-130271271D01*
X136519814Y-130169814D01*
X136621271Y-130086552D01*
X136657009Y-130057222D01*
X136813534Y-129973557D01*
X136983373Y-129922037D01*
X137049558Y-129915518D01*
X137115740Y-129909000D01*
X137204260Y-129909000D01*
X137270442Y-129915518D01*
X137270442Y-129915518D01*
G37*
G36*
X132190442Y-127375518D02*
G01*
X132256627Y-127382037D01*
X132426466Y-127433557D01*
X132582991Y-127517222D01*
X132618729Y-127546552D01*
X132720186Y-127629814D01*
X132803448Y-127731271D01*
X132832778Y-127767009D01*
X132916443Y-127923534D01*
X132967963Y-128093373D01*
X132985359Y-128270000D01*
X132967963Y-128446627D01*
X132916443Y-128616466D01*
X132832778Y-128772991D01*
X132803448Y-128808729D01*
X132720186Y-128910186D01*
X132618729Y-128993448D01*
X132582991Y-129022778D01*
X132426466Y-129106443D01*
X132256627Y-129157963D01*
X132190442Y-129164482D01*
X132124260Y-129171000D01*
X132035740Y-129171000D01*
X131969558Y-129164482D01*
X131903373Y-129157963D01*
X131733534Y-129106443D01*
X131577009Y-129022778D01*
X131541271Y-128993448D01*
X131439814Y-128910186D01*
X131356552Y-128808729D01*
X131327222Y-128772991D01*
X131243557Y-128616466D01*
X131192037Y-128446627D01*
X131174641Y-128270000D01*
X131192037Y-128093373D01*
X131243557Y-127923534D01*
X131327222Y-127767009D01*
X131356552Y-127731271D01*
X131439814Y-127629814D01*
X131541271Y-127546552D01*
X131577009Y-127517222D01*
X131733534Y-127433557D01*
X131903373Y-127382037D01*
X131969558Y-127375518D01*
X132035740Y-127369000D01*
X132124260Y-127369000D01*
X132190442Y-127375518D01*
X132190442Y-127375518D01*
G37*
G36*
X137270442Y-127375518D02*
G01*
X137336627Y-127382037D01*
X137506466Y-127433557D01*
X137662991Y-127517222D01*
X137698729Y-127546552D01*
X137800186Y-127629814D01*
X137883448Y-127731271D01*
X137912778Y-127767009D01*
X137996443Y-127923534D01*
X138047963Y-128093373D01*
X138065359Y-128270000D01*
X138047963Y-128446627D01*
X137996443Y-128616466D01*
X137912778Y-128772991D01*
X137883448Y-128808729D01*
X137800186Y-128910186D01*
X137698729Y-128993448D01*
X137662991Y-129022778D01*
X137506466Y-129106443D01*
X137336627Y-129157963D01*
X137270442Y-129164482D01*
X137204260Y-129171000D01*
X137115740Y-129171000D01*
X137049558Y-129164482D01*
X136983373Y-129157963D01*
X136813534Y-129106443D01*
X136657009Y-129022778D01*
X136621271Y-128993448D01*
X136519814Y-128910186D01*
X136436552Y-128808729D01*
X136407222Y-128772991D01*
X136323557Y-128616466D01*
X136272037Y-128446627D01*
X136254641Y-128270000D01*
X136272037Y-128093373D01*
X136323557Y-127923534D01*
X136407222Y-127767009D01*
X136436552Y-127731271D01*
X136519814Y-127629814D01*
X136621271Y-127546552D01*
X136657009Y-127517222D01*
X136813534Y-127433557D01*
X136983373Y-127382037D01*
X137049558Y-127375518D01*
X137115740Y-127369000D01*
X137204260Y-127369000D01*
X137270442Y-127375518D01*
X137270442Y-127375518D01*
G37*
G36*
X56561000Y-127822000D02*
G01*
X52659000Y-127822000D01*
X52659000Y-125720000D01*
X56561000Y-125720000D01*
X56561000Y-127822000D01*
X56561000Y-127822000D01*
G37*
G36*
X87041000Y-127822000D02*
G01*
X83139000Y-127822000D01*
X83139000Y-125720000D01*
X87041000Y-125720000D01*
X87041000Y-127822000D01*
X87041000Y-127822000D01*
G37*
G36*
X97201000Y-127822000D02*
G01*
X93299000Y-127822000D01*
X93299000Y-125720000D01*
X97201000Y-125720000D01*
X97201000Y-127822000D01*
X97201000Y-127822000D01*
G37*
G36*
X117521000Y-127822000D02*
G01*
X113619000Y-127822000D01*
X113619000Y-125720000D01*
X117521000Y-125720000D01*
X117521000Y-127822000D01*
X117521000Y-127822000D01*
G37*
G36*
X107361000Y-127822000D02*
G01*
X103459000Y-127822000D01*
X103459000Y-125720000D01*
X107361000Y-125720000D01*
X107361000Y-127822000D01*
X107361000Y-127822000D01*
G37*
G36*
X76881000Y-127822000D02*
G01*
X72979000Y-127822000D01*
X72979000Y-125720000D01*
X76881000Y-125720000D01*
X76881000Y-127822000D01*
X76881000Y-127822000D01*
G37*
G36*
X66721000Y-127822000D02*
G01*
X62819000Y-127822000D01*
X62819000Y-125720000D01*
X66721000Y-125720000D01*
X66721000Y-127822000D01*
X66721000Y-127822000D01*
G37*
G36*
X46401000Y-127822000D02*
G01*
X42499000Y-127822000D01*
X42499000Y-125720000D01*
X46401000Y-125720000D01*
X46401000Y-127822000D01*
X46401000Y-127822000D01*
G37*
G36*
X132190443Y-124835519D02*
G01*
X132256627Y-124842037D01*
X132426466Y-124893557D01*
X132582991Y-124977222D01*
X132618729Y-125006552D01*
X132720186Y-125089814D01*
X132803448Y-125191271D01*
X132832778Y-125227009D01*
X132916443Y-125383534D01*
X132967963Y-125553373D01*
X132985359Y-125730000D01*
X132967963Y-125906627D01*
X132916443Y-126076466D01*
X132832778Y-126232991D01*
X132803448Y-126268729D01*
X132720186Y-126370186D01*
X132618729Y-126453448D01*
X132582991Y-126482778D01*
X132426466Y-126566443D01*
X132256627Y-126617963D01*
X132190442Y-126624482D01*
X132124260Y-126631000D01*
X132035740Y-126631000D01*
X131969558Y-126624482D01*
X131903373Y-126617963D01*
X131733534Y-126566443D01*
X131577009Y-126482778D01*
X131541271Y-126453448D01*
X131439814Y-126370186D01*
X131356552Y-126268729D01*
X131327222Y-126232991D01*
X131243557Y-126076466D01*
X131192037Y-125906627D01*
X131174641Y-125730000D01*
X131192037Y-125553373D01*
X131243557Y-125383534D01*
X131327222Y-125227009D01*
X131356552Y-125191271D01*
X131439814Y-125089814D01*
X131541271Y-125006552D01*
X131577009Y-124977222D01*
X131733534Y-124893557D01*
X131903373Y-124842037D01*
X131969557Y-124835519D01*
X132035740Y-124829000D01*
X132124260Y-124829000D01*
X132190443Y-124835519D01*
X132190443Y-124835519D01*
G37*
G36*
X137270443Y-124835519D02*
G01*
X137336627Y-124842037D01*
X137506466Y-124893557D01*
X137662991Y-124977222D01*
X137698729Y-125006552D01*
X137800186Y-125089814D01*
X137883448Y-125191271D01*
X137912778Y-125227009D01*
X137996443Y-125383534D01*
X138047963Y-125553373D01*
X138065359Y-125730000D01*
X138047963Y-125906627D01*
X137996443Y-126076466D01*
X137912778Y-126232991D01*
X137883448Y-126268729D01*
X137800186Y-126370186D01*
X137698729Y-126453448D01*
X137662991Y-126482778D01*
X137506466Y-126566443D01*
X137336627Y-126617963D01*
X137270442Y-126624482D01*
X137204260Y-126631000D01*
X137115740Y-126631000D01*
X137049558Y-126624482D01*
X136983373Y-126617963D01*
X136813534Y-126566443D01*
X136657009Y-126482778D01*
X136621271Y-126453448D01*
X136519814Y-126370186D01*
X136436552Y-126268729D01*
X136407222Y-126232991D01*
X136323557Y-126076466D01*
X136272037Y-125906627D01*
X136254641Y-125730000D01*
X136272037Y-125553373D01*
X136323557Y-125383534D01*
X136407222Y-125227009D01*
X136436552Y-125191271D01*
X136519814Y-125089814D01*
X136621271Y-125006552D01*
X136657009Y-124977222D01*
X136813534Y-124893557D01*
X136983373Y-124842037D01*
X137049557Y-124835519D01*
X137115740Y-124829000D01*
X137204260Y-124829000D01*
X137270443Y-124835519D01*
X137270443Y-124835519D01*
G37*
G36*
X137270443Y-122295519D02*
G01*
X137336627Y-122302037D01*
X137506466Y-122353557D01*
X137662991Y-122437222D01*
X137698729Y-122466552D01*
X137800186Y-122549814D01*
X137862251Y-122625442D01*
X137912778Y-122687009D01*
X137996443Y-122843534D01*
X138047963Y-123013373D01*
X138065359Y-123190000D01*
X138047963Y-123366627D01*
X137996443Y-123536466D01*
X137912778Y-123692991D01*
X137883448Y-123728729D01*
X137800186Y-123830186D01*
X137698729Y-123913448D01*
X137662991Y-123942778D01*
X137506466Y-124026443D01*
X137336627Y-124077963D01*
X137270442Y-124084482D01*
X137204260Y-124091000D01*
X137115740Y-124091000D01*
X137049558Y-124084482D01*
X136983373Y-124077963D01*
X136813534Y-124026443D01*
X136657009Y-123942778D01*
X136621271Y-123913448D01*
X136519814Y-123830186D01*
X136436552Y-123728729D01*
X136407222Y-123692991D01*
X136323557Y-123536466D01*
X136272037Y-123366627D01*
X136254641Y-123190000D01*
X136272037Y-123013373D01*
X136323557Y-122843534D01*
X136407222Y-122687009D01*
X136457749Y-122625442D01*
X136519814Y-122549814D01*
X136621271Y-122466552D01*
X136657009Y-122437222D01*
X136813534Y-122353557D01*
X136983373Y-122302037D01*
X137049557Y-122295519D01*
X137115740Y-122289000D01*
X137204260Y-122289000D01*
X137270443Y-122295519D01*
X137270443Y-122295519D01*
G37*
G36*
X132190443Y-122295519D02*
G01*
X132256627Y-122302037D01*
X132426466Y-122353557D01*
X132582991Y-122437222D01*
X132618729Y-122466552D01*
X132720186Y-122549814D01*
X132782251Y-122625442D01*
X132832778Y-122687009D01*
X132916443Y-122843534D01*
X132967963Y-123013373D01*
X132985359Y-123190000D01*
X132967963Y-123366627D01*
X132916443Y-123536466D01*
X132832778Y-123692991D01*
X132803448Y-123728729D01*
X132720186Y-123830186D01*
X132618729Y-123913448D01*
X132582991Y-123942778D01*
X132426466Y-124026443D01*
X132256627Y-124077963D01*
X132190442Y-124084482D01*
X132124260Y-124091000D01*
X132035740Y-124091000D01*
X131969558Y-124084482D01*
X131903373Y-124077963D01*
X131733534Y-124026443D01*
X131577009Y-123942778D01*
X131541271Y-123913448D01*
X131439814Y-123830186D01*
X131356552Y-123728729D01*
X131327222Y-123692991D01*
X131243557Y-123536466D01*
X131192037Y-123366627D01*
X131174641Y-123190000D01*
X131192037Y-123013373D01*
X131243557Y-122843534D01*
X131327222Y-122687009D01*
X131377749Y-122625442D01*
X131439814Y-122549814D01*
X131541271Y-122466552D01*
X131577009Y-122437222D01*
X131733534Y-122353557D01*
X131903373Y-122302037D01*
X131969557Y-122295519D01*
X132035740Y-122289000D01*
X132124260Y-122289000D01*
X132190443Y-122295519D01*
X132190443Y-122295519D01*
G37*
G36*
X86536626Y-120782037D02*
G01*
X86706465Y-120833557D01*
X86706467Y-120833558D01*
X86862989Y-120917221D01*
X87000186Y-121029814D01*
X87067939Y-121112373D01*
X87112778Y-121167009D01*
X87196443Y-121323534D01*
X87247963Y-121493373D01*
X87261000Y-121625742D01*
X87261000Y-122214258D01*
X87247963Y-122346627D01*
X87196443Y-122516466D01*
X87112778Y-122672991D01*
X87083448Y-122708729D01*
X87000186Y-122810186D01*
X86898729Y-122893448D01*
X86862991Y-122922778D01*
X86706466Y-123006443D01*
X86536627Y-123057963D01*
X86360000Y-123075359D01*
X86183374Y-123057963D01*
X86013535Y-123006443D01*
X85857010Y-122922778D01*
X85821272Y-122893448D01*
X85719815Y-122810186D01*
X85607223Y-122672991D01*
X85523557Y-122516466D01*
X85499519Y-122437222D01*
X85472037Y-122346627D01*
X85459000Y-122214258D01*
X85459000Y-121625743D01*
X85472037Y-121493374D01*
X85523557Y-121323535D01*
X85523559Y-121323532D01*
X85607221Y-121167011D01*
X85719814Y-121029814D01*
X85826165Y-120942535D01*
X85857009Y-120917222D01*
X86013534Y-120833557D01*
X86183373Y-120782037D01*
X86360000Y-120764641D01*
X86536626Y-120782037D01*
X86536626Y-120782037D01*
G37*
G36*
X56056626Y-120782037D02*
G01*
X56226465Y-120833557D01*
X56226467Y-120833558D01*
X56382989Y-120917221D01*
X56520186Y-121029814D01*
X56587939Y-121112373D01*
X56632778Y-121167009D01*
X56716443Y-121323534D01*
X56767963Y-121493373D01*
X56781000Y-121625742D01*
X56781000Y-122214258D01*
X56767963Y-122346627D01*
X56716443Y-122516466D01*
X56632778Y-122672991D01*
X56603448Y-122708729D01*
X56520186Y-122810186D01*
X56418729Y-122893448D01*
X56382991Y-122922778D01*
X56226466Y-123006443D01*
X56056627Y-123057963D01*
X55880000Y-123075359D01*
X55703374Y-123057963D01*
X55533535Y-123006443D01*
X55377010Y-122922778D01*
X55341272Y-122893448D01*
X55239815Y-122810186D01*
X55127223Y-122672991D01*
X55043557Y-122516466D01*
X55019519Y-122437222D01*
X54992037Y-122346627D01*
X54979000Y-122214258D01*
X54979000Y-121625743D01*
X54992037Y-121493374D01*
X55043557Y-121323535D01*
X55043559Y-121323532D01*
X55127221Y-121167011D01*
X55239814Y-121029814D01*
X55346165Y-120942535D01*
X55377009Y-120917222D01*
X55533534Y-120833557D01*
X55703373Y-120782037D01*
X55880000Y-120764641D01*
X56056626Y-120782037D01*
X56056626Y-120782037D01*
G37*
G36*
X66216626Y-120782037D02*
G01*
X66386465Y-120833557D01*
X66386467Y-120833558D01*
X66542989Y-120917221D01*
X66680186Y-121029814D01*
X66747939Y-121112373D01*
X66792778Y-121167009D01*
X66876443Y-121323534D01*
X66927963Y-121493373D01*
X66941000Y-121625742D01*
X66941000Y-122214258D01*
X66927963Y-122346627D01*
X66876443Y-122516466D01*
X66792778Y-122672991D01*
X66763448Y-122708729D01*
X66680186Y-122810186D01*
X66578729Y-122893448D01*
X66542991Y-122922778D01*
X66386466Y-123006443D01*
X66216627Y-123057963D01*
X66040000Y-123075359D01*
X65863374Y-123057963D01*
X65693535Y-123006443D01*
X65537010Y-122922778D01*
X65501272Y-122893448D01*
X65399815Y-122810186D01*
X65287223Y-122672991D01*
X65203557Y-122516466D01*
X65179519Y-122437222D01*
X65152037Y-122346627D01*
X65139000Y-122214258D01*
X65139000Y-121625743D01*
X65152037Y-121493374D01*
X65203557Y-121323535D01*
X65203559Y-121323532D01*
X65287221Y-121167011D01*
X65399814Y-121029814D01*
X65506165Y-120942535D01*
X65537009Y-120917222D01*
X65693534Y-120833557D01*
X65863373Y-120782037D01*
X66040000Y-120764641D01*
X66216626Y-120782037D01*
X66216626Y-120782037D01*
G37*
G36*
X76376626Y-120782037D02*
G01*
X76546465Y-120833557D01*
X76546467Y-120833558D01*
X76702989Y-120917221D01*
X76840186Y-121029814D01*
X76907939Y-121112373D01*
X76952778Y-121167009D01*
X77036443Y-121323534D01*
X77087963Y-121493373D01*
X77101000Y-121625742D01*
X77101000Y-122214258D01*
X77087963Y-122346627D01*
X77036443Y-122516466D01*
X76952778Y-122672991D01*
X76923448Y-122708729D01*
X76840186Y-122810186D01*
X76738729Y-122893448D01*
X76702991Y-122922778D01*
X76546466Y-123006443D01*
X76376627Y-123057963D01*
X76200000Y-123075359D01*
X76023374Y-123057963D01*
X75853535Y-123006443D01*
X75697010Y-122922778D01*
X75661272Y-122893448D01*
X75559815Y-122810186D01*
X75447223Y-122672991D01*
X75363557Y-122516466D01*
X75339519Y-122437222D01*
X75312037Y-122346627D01*
X75299000Y-122214258D01*
X75299000Y-121625743D01*
X75312037Y-121493374D01*
X75363557Y-121323535D01*
X75363559Y-121323532D01*
X75447221Y-121167011D01*
X75559814Y-121029814D01*
X75666165Y-120942535D01*
X75697009Y-120917222D01*
X75853534Y-120833557D01*
X76023373Y-120782037D01*
X76200000Y-120764641D01*
X76376626Y-120782037D01*
X76376626Y-120782037D01*
G37*
G36*
X45896626Y-120782037D02*
G01*
X46066465Y-120833557D01*
X46066467Y-120833558D01*
X46222989Y-120917221D01*
X46360186Y-121029814D01*
X46427939Y-121112373D01*
X46472778Y-121167009D01*
X46556443Y-121323534D01*
X46607963Y-121493373D01*
X46621000Y-121625742D01*
X46621000Y-122214258D01*
X46607963Y-122346627D01*
X46556443Y-122516466D01*
X46472778Y-122672991D01*
X46443448Y-122708729D01*
X46360186Y-122810186D01*
X46258729Y-122893448D01*
X46222991Y-122922778D01*
X46066466Y-123006443D01*
X45896627Y-123057963D01*
X45720000Y-123075359D01*
X45543374Y-123057963D01*
X45373535Y-123006443D01*
X45217010Y-122922778D01*
X45181272Y-122893448D01*
X45079815Y-122810186D01*
X44967223Y-122672991D01*
X44883557Y-122516466D01*
X44859519Y-122437222D01*
X44832037Y-122346627D01*
X44819000Y-122214258D01*
X44819000Y-121625743D01*
X44832037Y-121493374D01*
X44883557Y-121323535D01*
X44883559Y-121323532D01*
X44967221Y-121167011D01*
X45079814Y-121029814D01*
X45186165Y-120942535D01*
X45217009Y-120917222D01*
X45373534Y-120833557D01*
X45543373Y-120782037D01*
X45720000Y-120764641D01*
X45896626Y-120782037D01*
X45896626Y-120782037D01*
G37*
G36*
X106856626Y-120782037D02*
G01*
X107026465Y-120833557D01*
X107026467Y-120833558D01*
X107182989Y-120917221D01*
X107320186Y-121029814D01*
X107387939Y-121112373D01*
X107432778Y-121167009D01*
X107516443Y-121323534D01*
X107567963Y-121493373D01*
X107581000Y-121625742D01*
X107581000Y-122214258D01*
X107567963Y-122346627D01*
X107516443Y-122516466D01*
X107432778Y-122672991D01*
X107403448Y-122708729D01*
X107320186Y-122810186D01*
X107218729Y-122893448D01*
X107182991Y-122922778D01*
X107026466Y-123006443D01*
X106856627Y-123057963D01*
X106680000Y-123075359D01*
X106503374Y-123057963D01*
X106333535Y-123006443D01*
X106177010Y-122922778D01*
X106141272Y-122893448D01*
X106039815Y-122810186D01*
X105927223Y-122672991D01*
X105843557Y-122516466D01*
X105819519Y-122437222D01*
X105792037Y-122346627D01*
X105779000Y-122214258D01*
X105779000Y-121625743D01*
X105792037Y-121493374D01*
X105843557Y-121323535D01*
X105843559Y-121323532D01*
X105927221Y-121167011D01*
X106039814Y-121029814D01*
X106146165Y-120942535D01*
X106177009Y-120917222D01*
X106333534Y-120833557D01*
X106503373Y-120782037D01*
X106680000Y-120764641D01*
X106856626Y-120782037D01*
X106856626Y-120782037D01*
G37*
G36*
X96696626Y-120782037D02*
G01*
X96866465Y-120833557D01*
X96866467Y-120833558D01*
X97022989Y-120917221D01*
X97160186Y-121029814D01*
X97227939Y-121112373D01*
X97272778Y-121167009D01*
X97356443Y-121323534D01*
X97407963Y-121493373D01*
X97421000Y-121625742D01*
X97421000Y-122214258D01*
X97407963Y-122346627D01*
X97356443Y-122516466D01*
X97272778Y-122672991D01*
X97243448Y-122708729D01*
X97160186Y-122810186D01*
X97058729Y-122893448D01*
X97022991Y-122922778D01*
X96866466Y-123006443D01*
X96696627Y-123057963D01*
X96520000Y-123075359D01*
X96343374Y-123057963D01*
X96173535Y-123006443D01*
X96017010Y-122922778D01*
X95981272Y-122893448D01*
X95879815Y-122810186D01*
X95767223Y-122672991D01*
X95683557Y-122516466D01*
X95659519Y-122437222D01*
X95632037Y-122346627D01*
X95619000Y-122214258D01*
X95619000Y-121625743D01*
X95632037Y-121493374D01*
X95683557Y-121323535D01*
X95683559Y-121323532D01*
X95767221Y-121167011D01*
X95879814Y-121029814D01*
X95986165Y-120942535D01*
X96017009Y-120917222D01*
X96173534Y-120833557D01*
X96343373Y-120782037D01*
X96520000Y-120764641D01*
X96696626Y-120782037D01*
X96696626Y-120782037D01*
G37*
G36*
X117016626Y-120782037D02*
G01*
X117186465Y-120833557D01*
X117186467Y-120833558D01*
X117342989Y-120917221D01*
X117480186Y-121029814D01*
X117547939Y-121112373D01*
X117592778Y-121167009D01*
X117676443Y-121323534D01*
X117727963Y-121493373D01*
X117741000Y-121625742D01*
X117741000Y-122214258D01*
X117727963Y-122346627D01*
X117676443Y-122516466D01*
X117592778Y-122672991D01*
X117563448Y-122708729D01*
X117480186Y-122810186D01*
X117378729Y-122893448D01*
X117342991Y-122922778D01*
X117186466Y-123006443D01*
X117016627Y-123057963D01*
X116840000Y-123075359D01*
X116663374Y-123057963D01*
X116493535Y-123006443D01*
X116337010Y-122922778D01*
X116301272Y-122893448D01*
X116199815Y-122810186D01*
X116087223Y-122672991D01*
X116003557Y-122516466D01*
X115979519Y-122437222D01*
X115952037Y-122346627D01*
X115939000Y-122214258D01*
X115939000Y-121625743D01*
X115952037Y-121493374D01*
X116003557Y-121323535D01*
X116003559Y-121323532D01*
X116087221Y-121167011D01*
X116199814Y-121029814D01*
X116306165Y-120942535D01*
X116337009Y-120917222D01*
X116493534Y-120833557D01*
X116663373Y-120782037D01*
X116840000Y-120764641D01*
X117016626Y-120782037D01*
X117016626Y-120782037D01*
G37*
G36*
X74561000Y-123071000D02*
G01*
X72759000Y-123071000D01*
X72759000Y-120769000D01*
X74561000Y-120769000D01*
X74561000Y-123071000D01*
X74561000Y-123071000D01*
G37*
G36*
X105041000Y-123071000D02*
G01*
X103239000Y-123071000D01*
X103239000Y-120769000D01*
X105041000Y-120769000D01*
X105041000Y-123071000D01*
X105041000Y-123071000D01*
G37*
G36*
X115201000Y-123071000D02*
G01*
X113399000Y-123071000D01*
X113399000Y-120769000D01*
X115201000Y-120769000D01*
X115201000Y-123071000D01*
X115201000Y-123071000D01*
G37*
G36*
X64401000Y-123071000D02*
G01*
X62599000Y-123071000D01*
X62599000Y-120769000D01*
X64401000Y-120769000D01*
X64401000Y-123071000D01*
X64401000Y-123071000D01*
G37*
G36*
X54241000Y-123071000D02*
G01*
X52439000Y-123071000D01*
X52439000Y-120769000D01*
X54241000Y-120769000D01*
X54241000Y-123071000D01*
X54241000Y-123071000D01*
G37*
G36*
X94881000Y-123071000D02*
G01*
X93079000Y-123071000D01*
X93079000Y-120769000D01*
X94881000Y-120769000D01*
X94881000Y-123071000D01*
X94881000Y-123071000D01*
G37*
G36*
X44081000Y-123071000D02*
G01*
X42279000Y-123071000D01*
X42279000Y-120769000D01*
X44081000Y-120769000D01*
X44081000Y-123071000D01*
X44081000Y-123071000D01*
G37*
G36*
X84721000Y-123071000D02*
G01*
X82919000Y-123071000D01*
X82919000Y-120769000D01*
X84721000Y-120769000D01*
X84721000Y-123071000D01*
X84721000Y-123071000D01*
G37*
G36*
X126541626Y-120401037D02*
G01*
X126711465Y-120452557D01*
X126711467Y-120452558D01*
X126867989Y-120536221D01*
X127005186Y-120648814D01*
X127088448Y-120750271D01*
X127117778Y-120786009D01*
X127201443Y-120942534D01*
X127252963Y-121112373D01*
X127266000Y-121244742D01*
X127266000Y-121833258D01*
X127252963Y-121965627D01*
X127201443Y-122135466D01*
X127117778Y-122291991D01*
X127109533Y-122302037D01*
X127005186Y-122429186D01*
X126903729Y-122512448D01*
X126867991Y-122541778D01*
X126711466Y-122625443D01*
X126541627Y-122676963D01*
X126365000Y-122694359D01*
X126188374Y-122676963D01*
X126018535Y-122625443D01*
X125862010Y-122541778D01*
X125826272Y-122512448D01*
X125724815Y-122429186D01*
X125612223Y-122291991D01*
X125528557Y-122135466D01*
X125477037Y-121965627D01*
X125464000Y-121833258D01*
X125464000Y-121244743D01*
X125477037Y-121112374D01*
X125528557Y-120942535D01*
X125612222Y-120786010D01*
X125612223Y-120786009D01*
X125724814Y-120648814D01*
X125826271Y-120565552D01*
X125862009Y-120536222D01*
X126018534Y-120452557D01*
X126188373Y-120401037D01*
X126365000Y-120383641D01*
X126541626Y-120401037D01*
X126541626Y-120401037D01*
G37*
G36*
X124726000Y-122690000D02*
G01*
X122924000Y-122690000D01*
X122924000Y-120388000D01*
X124726000Y-120388000D01*
X124726000Y-122690000D01*
X124726000Y-122690000D01*
G37*
G36*
X132981000Y-121551000D02*
G01*
X131179000Y-121551000D01*
X131179000Y-119749000D01*
X132981000Y-119749000D01*
X132981000Y-121551000D01*
X132981000Y-121551000D01*
G37*
G36*
X138061000Y-121551000D02*
G01*
X136259000Y-121551000D01*
X136259000Y-119749000D01*
X138061000Y-119749000D01*
X138061000Y-121551000D01*
X138061000Y-121551000D01*
G37*
G36*
X88024072Y-110460918D02*
G01*
X88269939Y-110562759D01*
X88491212Y-110710610D01*
X88679390Y-110898788D01*
X88827241Y-111120061D01*
X88929082Y-111365928D01*
X88981000Y-111626938D01*
X88981000Y-111893062D01*
X88929082Y-112154072D01*
X88827241Y-112399939D01*
X88679390Y-112621212D01*
X88491212Y-112809390D01*
X88269939Y-112957241D01*
X88269938Y-112957242D01*
X88269937Y-112957242D01*
X88024072Y-113059082D01*
X87763063Y-113111000D01*
X87496937Y-113111000D01*
X87235928Y-113059082D01*
X86990063Y-112957242D01*
X86990062Y-112957242D01*
X86990061Y-112957241D01*
X86768788Y-112809390D01*
X86580610Y-112621212D01*
X86432759Y-112399939D01*
X86330918Y-112154072D01*
X86279000Y-111893062D01*
X86279000Y-111626938D01*
X86330918Y-111365928D01*
X86432759Y-111120061D01*
X86580610Y-110898788D01*
X86768788Y-110710610D01*
X86990061Y-110562759D01*
X87235928Y-110460918D01*
X87496937Y-110409000D01*
X87763063Y-110409000D01*
X88024072Y-110460918D01*
X88024072Y-110460918D01*
G37*
G36*
X83901000Y-113111000D02*
G01*
X81199000Y-113111000D01*
X81199000Y-110409000D01*
X83901000Y-110409000D01*
X83901000Y-113111000D01*
X83901000Y-113111000D01*
G37*
G36*
X118504072Y-110460918D02*
G01*
X118749939Y-110562759D01*
X118971212Y-110710610D01*
X119159390Y-110898788D01*
X119307241Y-111120061D01*
X119409082Y-111365928D01*
X119461000Y-111626938D01*
X119461000Y-111893062D01*
X119409082Y-112154072D01*
X119307241Y-112399939D01*
X119159390Y-112621212D01*
X118971212Y-112809390D01*
X118749939Y-112957241D01*
X118749938Y-112957242D01*
X118749937Y-112957242D01*
X118504072Y-113059082D01*
X118243063Y-113111000D01*
X117976937Y-113111000D01*
X117715928Y-113059082D01*
X117470063Y-112957242D01*
X117470062Y-112957242D01*
X117470061Y-112957241D01*
X117248788Y-112809390D01*
X117060610Y-112621212D01*
X116912759Y-112399939D01*
X116810918Y-112154072D01*
X116759000Y-111893062D01*
X116759000Y-111626938D01*
X116810918Y-111365928D01*
X116912759Y-111120061D01*
X117060610Y-110898788D01*
X117248788Y-110710610D01*
X117470061Y-110562759D01*
X117715928Y-110460918D01*
X117976937Y-110409000D01*
X118243063Y-110409000D01*
X118504072Y-110460918D01*
X118504072Y-110460918D01*
G37*
G36*
X73741000Y-113111000D02*
G01*
X71039000Y-113111000D01*
X71039000Y-110409000D01*
X73741000Y-110409000D01*
X73741000Y-113111000D01*
X73741000Y-113111000D01*
G37*
G36*
X77864072Y-110460918D02*
G01*
X78109939Y-110562759D01*
X78331212Y-110710610D01*
X78519390Y-110898788D01*
X78667241Y-111120061D01*
X78769082Y-111365928D01*
X78821000Y-111626938D01*
X78821000Y-111893062D01*
X78769082Y-112154072D01*
X78667241Y-112399939D01*
X78519390Y-112621212D01*
X78331212Y-112809390D01*
X78109939Y-112957241D01*
X78109938Y-112957242D01*
X78109937Y-112957242D01*
X77864072Y-113059082D01*
X77603063Y-113111000D01*
X77336937Y-113111000D01*
X77075928Y-113059082D01*
X76830063Y-112957242D01*
X76830062Y-112957242D01*
X76830061Y-112957241D01*
X76608788Y-112809390D01*
X76420610Y-112621212D01*
X76272759Y-112399939D01*
X76170918Y-112154072D01*
X76119000Y-111893062D01*
X76119000Y-111626938D01*
X76170918Y-111365928D01*
X76272759Y-111120061D01*
X76420610Y-110898788D01*
X76608788Y-110710610D01*
X76830061Y-110562759D01*
X77075928Y-110460918D01*
X77336937Y-110409000D01*
X77603063Y-110409000D01*
X77864072Y-110460918D01*
X77864072Y-110460918D01*
G37*
G36*
X63581000Y-113111000D02*
G01*
X60879000Y-113111000D01*
X60879000Y-110409000D01*
X63581000Y-110409000D01*
X63581000Y-113111000D01*
X63581000Y-113111000D01*
G37*
G36*
X67704072Y-110460918D02*
G01*
X67949939Y-110562759D01*
X68171212Y-110710610D01*
X68359390Y-110898788D01*
X68507241Y-111120061D01*
X68609082Y-111365928D01*
X68661000Y-111626938D01*
X68661000Y-111893062D01*
X68609082Y-112154072D01*
X68507241Y-112399939D01*
X68359390Y-112621212D01*
X68171212Y-112809390D01*
X67949939Y-112957241D01*
X67949938Y-112957242D01*
X67949937Y-112957242D01*
X67704072Y-113059082D01*
X67443063Y-113111000D01*
X67176937Y-113111000D01*
X66915928Y-113059082D01*
X66670063Y-112957242D01*
X66670062Y-112957242D01*
X66670061Y-112957241D01*
X66448788Y-112809390D01*
X66260610Y-112621212D01*
X66112759Y-112399939D01*
X66010918Y-112154072D01*
X65959000Y-111893062D01*
X65959000Y-111626938D01*
X66010918Y-111365928D01*
X66112759Y-111120061D01*
X66260610Y-110898788D01*
X66448788Y-110710610D01*
X66670061Y-110562759D01*
X66915928Y-110460918D01*
X67176937Y-110409000D01*
X67443063Y-110409000D01*
X67704072Y-110460918D01*
X67704072Y-110460918D01*
G37*
G36*
X53421000Y-113111000D02*
G01*
X50719000Y-113111000D01*
X50719000Y-110409000D01*
X53421000Y-110409000D01*
X53421000Y-113111000D01*
X53421000Y-113111000D01*
G37*
G36*
X57544072Y-110460918D02*
G01*
X57789939Y-110562759D01*
X58011212Y-110710610D01*
X58199390Y-110898788D01*
X58347241Y-111120061D01*
X58449082Y-111365928D01*
X58501000Y-111626938D01*
X58501000Y-111893062D01*
X58449082Y-112154072D01*
X58347241Y-112399939D01*
X58199390Y-112621212D01*
X58011212Y-112809390D01*
X57789939Y-112957241D01*
X57789938Y-112957242D01*
X57789937Y-112957242D01*
X57544072Y-113059082D01*
X57283063Y-113111000D01*
X57016937Y-113111000D01*
X56755928Y-113059082D01*
X56510063Y-112957242D01*
X56510062Y-112957242D01*
X56510061Y-112957241D01*
X56288788Y-112809390D01*
X56100610Y-112621212D01*
X55952759Y-112399939D01*
X55850918Y-112154072D01*
X55799000Y-111893062D01*
X55799000Y-111626938D01*
X55850918Y-111365928D01*
X55952759Y-111120061D01*
X56100610Y-110898788D01*
X56288788Y-110710610D01*
X56510061Y-110562759D01*
X56755928Y-110460918D01*
X57016937Y-110409000D01*
X57283063Y-110409000D01*
X57544072Y-110460918D01*
X57544072Y-110460918D01*
G37*
G36*
X43261000Y-113111000D02*
G01*
X40559000Y-113111000D01*
X40559000Y-110409000D01*
X43261000Y-110409000D01*
X43261000Y-113111000D01*
X43261000Y-113111000D01*
G37*
G36*
X47384072Y-110460918D02*
G01*
X47629939Y-110562759D01*
X47851212Y-110710610D01*
X48039390Y-110898788D01*
X48187241Y-111120061D01*
X48289082Y-111365928D01*
X48341000Y-111626938D01*
X48341000Y-111893062D01*
X48289082Y-112154072D01*
X48187241Y-112399939D01*
X48039390Y-112621212D01*
X47851212Y-112809390D01*
X47629939Y-112957241D01*
X47629938Y-112957242D01*
X47629937Y-112957242D01*
X47384072Y-113059082D01*
X47123063Y-113111000D01*
X46856937Y-113111000D01*
X46595928Y-113059082D01*
X46350063Y-112957242D01*
X46350062Y-112957242D01*
X46350061Y-112957241D01*
X46128788Y-112809390D01*
X45940610Y-112621212D01*
X45792759Y-112399939D01*
X45690918Y-112154072D01*
X45639000Y-111893062D01*
X45639000Y-111626938D01*
X45690918Y-111365928D01*
X45792759Y-111120061D01*
X45940610Y-110898788D01*
X46128788Y-110710610D01*
X46350061Y-110562759D01*
X46595928Y-110460918D01*
X46856937Y-110409000D01*
X47123063Y-110409000D01*
X47384072Y-110460918D01*
X47384072Y-110460918D01*
G37*
G36*
X130569072Y-110460918D02*
G01*
X130814939Y-110562759D01*
X131036212Y-110710610D01*
X131224390Y-110898788D01*
X131372241Y-111120061D01*
X131474082Y-111365928D01*
X131526000Y-111626938D01*
X131526000Y-111893062D01*
X131474082Y-112154072D01*
X131372241Y-112399939D01*
X131224390Y-112621212D01*
X131036212Y-112809390D01*
X130814939Y-112957241D01*
X130814938Y-112957242D01*
X130814937Y-112957242D01*
X130569072Y-113059082D01*
X130308063Y-113111000D01*
X130041937Y-113111000D01*
X129780928Y-113059082D01*
X129535063Y-112957242D01*
X129535062Y-112957242D01*
X129535061Y-112957241D01*
X129313788Y-112809390D01*
X129125610Y-112621212D01*
X128977759Y-112399939D01*
X128875918Y-112154072D01*
X128824000Y-111893062D01*
X128824000Y-111626938D01*
X128875918Y-111365928D01*
X128977759Y-111120061D01*
X129125610Y-110898788D01*
X129313788Y-110710610D01*
X129535061Y-110562759D01*
X129780928Y-110460918D01*
X130041937Y-110409000D01*
X130308063Y-110409000D01*
X130569072Y-110460918D01*
X130569072Y-110460918D01*
G37*
G36*
X126446000Y-113111000D02*
G01*
X123744000Y-113111000D01*
X123744000Y-110409000D01*
X126446000Y-110409000D01*
X126446000Y-113111000D01*
X126446000Y-113111000D01*
G37*
G36*
X104221000Y-113111000D02*
G01*
X101519000Y-113111000D01*
X101519000Y-110409000D01*
X104221000Y-110409000D01*
X104221000Y-113111000D01*
X104221000Y-113111000D01*
G37*
G36*
X108344072Y-110460918D02*
G01*
X108589939Y-110562759D01*
X108811212Y-110710610D01*
X108999390Y-110898788D01*
X109147241Y-111120061D01*
X109249082Y-111365928D01*
X109301000Y-111626938D01*
X109301000Y-111893062D01*
X109249082Y-112154072D01*
X109147241Y-112399939D01*
X108999390Y-112621212D01*
X108811212Y-112809390D01*
X108589939Y-112957241D01*
X108589938Y-112957242D01*
X108589937Y-112957242D01*
X108344072Y-113059082D01*
X108083063Y-113111000D01*
X107816937Y-113111000D01*
X107555928Y-113059082D01*
X107310063Y-112957242D01*
X107310062Y-112957242D01*
X107310061Y-112957241D01*
X107088788Y-112809390D01*
X106900610Y-112621212D01*
X106752759Y-112399939D01*
X106650918Y-112154072D01*
X106599000Y-111893062D01*
X106599000Y-111626938D01*
X106650918Y-111365928D01*
X106752759Y-111120061D01*
X106900610Y-110898788D01*
X107088788Y-110710610D01*
X107310061Y-110562759D01*
X107555928Y-110460918D01*
X107816937Y-110409000D01*
X108083063Y-110409000D01*
X108344072Y-110460918D01*
X108344072Y-110460918D01*
G37*
G36*
X94061000Y-113111000D02*
G01*
X91359000Y-113111000D01*
X91359000Y-110409000D01*
X94061000Y-110409000D01*
X94061000Y-113111000D01*
X94061000Y-113111000D01*
G37*
G36*
X98184072Y-110460918D02*
G01*
X98429939Y-110562759D01*
X98651212Y-110710610D01*
X98839390Y-110898788D01*
X98987241Y-111120061D01*
X99089082Y-111365928D01*
X99141000Y-111626938D01*
X99141000Y-111893062D01*
X99089082Y-112154072D01*
X98987241Y-112399939D01*
X98839390Y-112621212D01*
X98651212Y-112809390D01*
X98429939Y-112957241D01*
X98429938Y-112957242D01*
X98429937Y-112957242D01*
X98184072Y-113059082D01*
X97923063Y-113111000D01*
X97656937Y-113111000D01*
X97395928Y-113059082D01*
X97150063Y-112957242D01*
X97150062Y-112957242D01*
X97150061Y-112957241D01*
X96928788Y-112809390D01*
X96740610Y-112621212D01*
X96592759Y-112399939D01*
X96490918Y-112154072D01*
X96439000Y-111893062D01*
X96439000Y-111626938D01*
X96490918Y-111365928D01*
X96592759Y-111120061D01*
X96740610Y-110898788D01*
X96928788Y-110710610D01*
X97150061Y-110562759D01*
X97395928Y-110460918D01*
X97656937Y-110409000D01*
X97923063Y-110409000D01*
X98184072Y-110460918D01*
X98184072Y-110460918D01*
G37*
G36*
X114381000Y-113111000D02*
G01*
X111679000Y-113111000D01*
X111679000Y-110409000D01*
X114381000Y-110409000D01*
X114381000Y-113111000D01*
X114381000Y-113111000D01*
G37*
G36*
X136843433Y-107219893D02*
G01*
X136933657Y-107237839D01*
X137039267Y-107281585D01*
X137188621Y-107343449D01*
X137188622Y-107343450D01*
X137418086Y-107496772D01*
X137613228Y-107691914D01*
X137715675Y-107845237D01*
X137766551Y-107921379D01*
X137872161Y-108176344D01*
X137926000Y-108447012D01*
X137926000Y-108722988D01*
X137872161Y-108993656D01*
X137766551Y-109248621D01*
X137766550Y-109248622D01*
X137613228Y-109478086D01*
X137418086Y-109673228D01*
X137264763Y-109775675D01*
X137188621Y-109826551D01*
X137039267Y-109888415D01*
X136933657Y-109932161D01*
X136843433Y-109950107D01*
X136662988Y-109986000D01*
X136387012Y-109986000D01*
X136206567Y-109950107D01*
X136116343Y-109932161D01*
X136010733Y-109888415D01*
X135861379Y-109826551D01*
X135785237Y-109775675D01*
X135631914Y-109673228D01*
X135436772Y-109478086D01*
X135283450Y-109248622D01*
X135283449Y-109248621D01*
X135177839Y-108993656D01*
X135124000Y-108722988D01*
X135124000Y-108447012D01*
X135177839Y-108176344D01*
X135283449Y-107921379D01*
X135334325Y-107845237D01*
X135436772Y-107691914D01*
X135631914Y-107496772D01*
X135861378Y-107343450D01*
X135861379Y-107343449D01*
X136010733Y-107281585D01*
X136116343Y-107237839D01*
X136206567Y-107219893D01*
X136387012Y-107184000D01*
X136662988Y-107184000D01*
X136843433Y-107219893D01*
X136843433Y-107219893D01*
G37*
G36*
X37148433Y-107219893D02*
G01*
X37238657Y-107237839D01*
X37344267Y-107281585D01*
X37493621Y-107343449D01*
X37493622Y-107343450D01*
X37723086Y-107496772D01*
X37918228Y-107691914D01*
X38020675Y-107845237D01*
X38071551Y-107921379D01*
X38177161Y-108176344D01*
X38231000Y-108447012D01*
X38231000Y-108722988D01*
X38177161Y-108993656D01*
X38071551Y-109248621D01*
X38071550Y-109248622D01*
X37918228Y-109478086D01*
X37723086Y-109673228D01*
X37569763Y-109775675D01*
X37493621Y-109826551D01*
X37344267Y-109888415D01*
X37238657Y-109932161D01*
X37148433Y-109950107D01*
X36967988Y-109986000D01*
X36692012Y-109986000D01*
X36511567Y-109950107D01*
X36421343Y-109932161D01*
X36315733Y-109888415D01*
X36166379Y-109826551D01*
X36090237Y-109775675D01*
X35936914Y-109673228D01*
X35741772Y-109478086D01*
X35588450Y-109248622D01*
X35588449Y-109248621D01*
X35482839Y-108993656D01*
X35429000Y-108722988D01*
X35429000Y-108447012D01*
X35482839Y-108176344D01*
X35588449Y-107921379D01*
X35639325Y-107845237D01*
X35741772Y-107691914D01*
X35936914Y-107496772D01*
X36166378Y-107343450D01*
X36166379Y-107343449D01*
X36315733Y-107281585D01*
X36421343Y-107237839D01*
X36511567Y-107219893D01*
X36692012Y-107184000D01*
X36967988Y-107184000D01*
X37148433Y-107219893D01*
X37148433Y-107219893D01*
G37*
M02*
